%
M48
M72
T01C0.00591
T02C0.00787
T03C0.01000
T04C0.01181
T05C0.01378
T06C0.01969
T07C0.02362
T08C0.02520
T09C0.03307
T10C0.03543
T11C0.03937
T12C0.04000
T13C0.04700
T14C0.04724
T15C0.12598
%
T01
X9715Y13311
X9715Y21185
X9715Y29059
X9715Y36933
X9715Y44807
X9715Y52681
X9715Y60555
X9715Y68429
X9715Y76303
X9715Y84177
X9715Y92051
X9715Y99925
X9715Y107799
X9715Y115673
X9715Y123547
X9715Y131421
X9715Y139295
X9715Y194413
X9715Y202287
X9715Y210161
X9715Y218035
X9715Y225909
X9715Y233783
X9715Y241657
X9715Y249531
X9715Y257406
X9715Y265280
X9715Y273154
X9715Y281028
X9715Y288902
X9715Y296776
X9715Y304650
X9715Y312524
X9715Y320398
X9715Y328272
X9715Y336146
X9715Y344020
X9715Y351894
X9715Y359768
X9715Y367642
X9715Y375516
X9715Y383390
X9715Y391264
X9715Y399138
X9715Y407012
X9715Y414886
X9715Y422760
X9715Y430634
X9715Y438508
X9715Y446382
X9715Y454256
X9715Y462130
X9715Y470004
X9715Y477878
X9715Y485752
X9715Y493626
X9715Y501500
X9715Y509374
X9715Y517248
X9715Y525122
X9715Y532996
X9715Y540870
X9715Y548744
X9715Y556618
X9715Y564492
X9715Y572366
X9715Y580240
X9715Y588114
X9715Y595988
X9715Y603862
X9715Y611736
X9715Y619610
X9715Y627484
X9715Y635358
X9715Y643232
X9715Y651106
X9715Y658980
X9715Y666854
X9715Y674728
X9715Y682602
X9715Y690476
X9715Y698350
X9715Y706224
X9715Y714098
X9715Y721972
X9715Y729846
X9715Y737720
X9715Y745594
X9715Y753469
X9715Y761343
X9715Y769217
X9715Y777091
X9715Y784965
X9715Y792839
X9715Y800713
X9715Y808587
X9715Y816461
X9715Y824335
X9715Y832209
X9715Y840083
X9715Y847957
X9715Y855831
X9715Y863705
X9715Y871579
X9715Y879453
X9715Y887327
X9715Y895201
X9715Y903075
X9715Y910949
X9715Y918823
X9715Y926697
X9715Y934571
X9715Y942445
X9715Y950319
X9715Y958193
X9715Y966067
X9715Y973941
X9715Y981815
X9715Y989689
X9715Y997563
X9715Y1005437
X9715Y1013311
X9715Y1021185
X9715Y1029059
X9715Y1036933
X9715Y1044807
X9715Y1052681
X9715Y1060555
X9715Y1068429
X9715Y1076303
X9715Y1084177
X9715Y1092051
X9715Y1099925
X9715Y1107799
X9715Y1115673
X9715Y1123547
X9715Y1131421
X9715Y1139295
X9715Y1147169
X9715Y1155043
X9715Y1162917
X56959Y1178665
X64833Y1178665
X72707Y1178665
X80581Y1178665
X88455Y1178665
X96329Y1178665
X104203Y1178665
X112077Y1178665
X119951Y1178665
X127825Y1178665
X135699Y1178665
X143573Y1178665
X151447Y1178665
X159321Y1178665
X167195Y1178665
X175069Y1178665
X182943Y1178665
X190817Y1178665
X198691Y1178665
X206565Y1178665
X214439Y1178665
X222313Y1178665
X230187Y1178665
X238061Y1178665
X245935Y1178665
X253809Y1178665
X261683Y1178665
X269557Y1178665
X277431Y1178665
X285305Y1178665
X293179Y1178665
X301053Y1178665
X308927Y1178665
X316801Y1178665
X324675Y1178665
X332549Y1178665
X340423Y1178665
X348297Y1178665
X356171Y1178665
X364045Y1178665
X371919Y1178665
X379793Y1178665
X387667Y1178665
X395541Y1178665
X403415Y1178665
X411289Y1178665
X419163Y1178665
X427037Y1178665
X434911Y1178665
X442786Y1178665
X450660Y1178665
X458534Y1178665
X466408Y1178665
X474282Y1178665
X482156Y1178665
X490030Y1178665
X497904Y1178665
X505778Y1178665
X513652Y1178665
X521526Y1178665
X529400Y1178665
X537274Y1178665
X545148Y1178665
X553022Y1178665
X560896Y1178665
X568770Y1178665
X576644Y1178665
X584518Y1178665
X592392Y1178665
X600266Y1178665
X608140Y1178665
X616014Y1178665
X623888Y1178665
X631762Y1178665
X639636Y1178665
X647510Y1178665
X655384Y1178665
X663258Y1178665
X671132Y1178665
X679006Y1178665
X686880Y1178665
X694754Y1178665
X702628Y1178665
X710502Y1178665
X718376Y1178665
X726250Y1178665
X734124Y1178665
X741998Y1178665
X749872Y1178665
X757746Y1178665
X765620Y1178665
X773494Y1178665
X781368Y1178665
X789242Y1178665
X797116Y1178665
X804990Y1178665
X812864Y1178665
X820738Y1178665
X828612Y1178665
X836486Y1178665
X844360Y1178665
X852234Y1178665
X860108Y1178665
X867982Y1178665
X875856Y1178665
X883730Y1178665
X891604Y1178665
X899478Y1178665
X907352Y1178665
X915226Y1178665
X923100Y1178665
X930974Y1178665
X938848Y1178665
X946723Y1178665
X954597Y1178665
X962471Y1178665
X970345Y1178665
X978219Y1178665
X986093Y1178665
X993967Y1178665
X1001841Y1178665
X1009715Y1178665
X1017589Y1178665
X1025463Y1178665
X1025463Y1162917
X1025463Y1155043
X1025463Y1147169
X1025463Y1139295
X1025463Y1131421
X1025463Y1123547
X1025463Y1115673
X1025463Y1107799
X1025463Y1099925
X1025463Y1092051
X1025463Y1084177
X1025463Y1076303
X1025463Y1068429
X1025463Y1060555
X1025463Y1052681
X1025463Y1044807
X1025463Y1036933
X1025463Y1029059
X1025463Y1021185
X1025463Y1013311
X1025463Y1005437
X1025463Y997563
X1025463Y989689
X1025463Y981815
X1025463Y973941
X1025463Y966067
X1025463Y958193
X1025463Y950319
X1025463Y942445
X1025463Y934571
X1025463Y926697
X1025463Y918823
X1025463Y910949
X1025463Y903075
X1025463Y895201
X1025463Y887327
X1025463Y879453
X1025463Y871579
X1025463Y863705
X1025463Y855831
X1025463Y847957
X1025463Y840083
X1025463Y832209
X1025463Y824335
X1025463Y816461
X1025463Y808587
X1025463Y800713
X1025463Y792839
X1025463Y784965
X1025463Y777091
X1025463Y769217
X1025463Y761343
X1025463Y753469
X1025463Y745594
X1025463Y737720
X1025463Y729846
X1025463Y721972
X1025463Y714098
X1025463Y706224
X1025463Y698350
X1025463Y690476
X1025463Y682602
X1025463Y674728
X1025463Y666854
X1025463Y658980
X1025463Y651106
X1025463Y643232
X1025463Y635358
X1025463Y627484
X1025463Y619610
X1025463Y611736
X1025463Y603862
X1025463Y595988
X1025463Y588114
X1025463Y580240
X1025463Y572366
X1025463Y564492
X1025463Y556618
X1025463Y548744
X1025463Y540870
X1025463Y532996
X1025463Y525122
X1025463Y517248
X1025463Y509374
X1025463Y501500
X1025463Y493626
X1025463Y485752
X1025463Y477878
X1025463Y470004
X1025463Y462130
X1025463Y454256
X1025463Y446382
X1025463Y438508
X1025463Y430634
X1025463Y422760
X1025463Y414886
X1025463Y407012
X1025463Y399138
X1025463Y391264
X1025463Y383390
X1025463Y375516
X1025463Y367642
X1025463Y359768
X1025463Y351894
X1025463Y344020
X1025463Y336146
X1025463Y328272
X1025463Y320398
X1025463Y312524
X1025463Y304650
X1025463Y296776
X1025463Y288902
X1025463Y281028
X1025463Y273154
X1025463Y265280
X1025463Y257406
X1025463Y249531
X1025463Y241657
X1025463Y233783
X1025463Y225909
X1025463Y218035
X1025463Y210161
X1025463Y202287
X1025463Y194413
X1025463Y139295
X1025463Y131421
X1025463Y123547
X1025463Y115673
X1025463Y107799
X1025463Y99925
X1025463Y92051
X1025463Y84177
X1025463Y76303
X1025463Y68429
X1025463Y60555
X1025463Y52681
X1025463Y44807
X1025463Y36933
X1025463Y29059
X1025463Y21185
X1025463Y13311
X1025463Y5437
X1017589Y5437
X1009715Y5437
X1001841Y5437
X993967Y5437
X986093Y5437
X978219Y5437
X970345Y5437
X962471Y5437
X954597Y5437
X946723Y5437
X938848Y5437
X930974Y5437
X923100Y5437
X915226Y5437
X907352Y5437
X899478Y5437
X891604Y5437
X883730Y5437
X875856Y5437
X867982Y5437
X860108Y5437
X852234Y5437
X844360Y5437
X836486Y5437
X828612Y5437
X820738Y5437
X812864Y5437
X804990Y5437
X797116Y5437
X789242Y5437
X781368Y5437
X773494Y5437
X765620Y5437
X757746Y5437
X749872Y5437
X741998Y5437
X734124Y5437
X726250Y5437
X718376Y5437
X710502Y5437
X702628Y5437
X694754Y5437
X686880Y5437
X679006Y5437
X671132Y5437
X663258Y5437
X655384Y5437
X647510Y5437
X639636Y5437
X631762Y5437
X623888Y5437
X616014Y5437
X608140Y5437
X600266Y5437
X592392Y5437
X584518Y5437
X576644Y5437
X568770Y5437
X560896Y5437
X553022Y5437
X545148Y5437
X537274Y5437
X529400Y5437
X521526Y5437
X513652Y5437
X505778Y5437
X497904Y5437
X490030Y5437
X482156Y5437
X474282Y5437
X466408Y5437
X458534Y5437
X450660Y5437
X442786Y5437
X434911Y5437
X427037Y5437
X419163Y5437
X411289Y5437
X403415Y5437
X395541Y5437
X387667Y5437
X379793Y5437
X371919Y5437
X364045Y5437
X356171Y5437
X348297Y5437
X340423Y5437
X332549Y5437
X324675Y5437
X316801Y5437
X308927Y5437
X301053Y5437
X293179Y5437
X285305Y5437
X277431Y5437
X269557Y5437
X261683Y5437
X253809Y5437
X245935Y5437
X238061Y5437
X230187Y5437
X222313Y5437
X214439Y5437
X206565Y5437
X198691Y5437
X190817Y5437
X182943Y5437
X175069Y5437
X167195Y5437
X159321Y5437
X151447Y5437
X143573Y5437
X135699Y5437
X127825Y5437
X119951Y5437
X112077Y5437
X104203Y5437
X96329Y5437
X88455Y5437
X80581Y5437
X72707Y5437
X64833Y5437
X56959Y5437
X133140Y71972
X135699Y71776
X138258Y71776
X148518Y69553
X152825Y68232
X179973Y80987
X181171Y84768
X183140Y86933
X183534Y82996
X181959Y90870
X190046Y98588
X196919Y101894
X201853Y100487
X201980Y98177
X207352Y88902
X206380Y74167
X197116Y73154
X221919Y79846
X223112Y82631
X225463Y87917
X222904Y90280
X240817Y70398
X250856Y72957
X253415Y72957
X255974Y72760
X252825Y62327
X253415Y105240
X250856Y105240
X255974Y107012
X242392Y109177
X242195Y111933
X206171Y189295
X200463Y187917
X198297Y187917
X185108Y195201
X184715Y197366
X185699Y199335
X185305Y201500
X182746Y205240
X193770Y212130
X198297Y215673
X204793Y215280
X204793Y212720
X208534Y203469
X231762Y197366
X237667Y213508
X251250Y223941
X253809Y222563
X256368Y223941
X253809Y190083
X251250Y190083
X256368Y189886
X336093Y180634
X336093Y178075
X353809Y180634
X356368Y171185
X375069Y178272
X375069Y180831
X392786Y180831
X395345Y171382
X414439Y178469
X414439Y181028
X432156Y181028
X434715Y171579
X454203Y178075
X454203Y180634
X471919Y180634
X474478Y171185
X450463Y127484
X452234Y118035
X469951Y118035
X469951Y120594
X432156Y120594
X432156Y118035
X414439Y118035
X411880Y127484
X391604Y120988
X391604Y118429
X373888Y118429
X371329Y127878
X352037Y121776
X352037Y119217
X334321Y119217
X331762Y128665
X149478Y108783
X138258Y106028
X135699Y103862
X133140Y103862
X130384Y114098
X151644Y178862
X149675Y182209
X139045Y189886
X136486Y187524
X133927Y190083
X133730Y222169
X136486Y226106
X139045Y223744
X146919Y225516
X138061Y232209
X212471Y327091
X239833Y374925
X247116Y373744
X249872Y371579
X249872Y369610
X246132Y385358
X246132Y387524
X252548Y393154
X249872Y395201
X249872Y397169
X261683Y398941
X262274Y387327
X262471Y385161
X263652Y383783
X236289Y381488
X249872Y416854
X249872Y418823
X261683Y420791
X262471Y414886
X281368Y439098
X287274Y438902
X291408Y438705
X294754Y438508
X286025Y452221
X283928Y452254
X268219Y450163
X264243Y452254
X266329Y454784
X264360Y458328
X288387Y476434
X295277Y476434
X303741Y476434
X307481Y476434
X305710Y452221
X303613Y452254
X329204Y452254
X331300Y452221
X335108Y452287
X351447Y435555
X350130Y432832
X346329Y428665
X346329Y426697
X350463Y410752
X350856Y402878
X346329Y401106
X346329Y399138
X351841Y396579
X350266Y389295
X352595Y379491
X346329Y379453
X335305Y377484
X335108Y387130
X336289Y389295
X319557Y370398
X321329Y367248
X316211Y368626
X307550Y355797
X305468Y355732
X304793Y347563
X310502Y348154
X313455Y343823
X317392Y353272
X319754Y353272
X331172Y355797
X335272Y353507
X371296Y375948
X371099Y391893
X370902Y404885
X370508Y421027
X380351Y421617
X379990Y432012
X364770Y430763
X396296Y422798
X396296Y446223
X354793Y510555
X355187Y513311
X361486Y515476
X339931Y566559
X343612Y570378
X343612Y572780
X335305Y577484
X328415Y577386
X321617Y579327
X318809Y574598
X318809Y572197
X328711Y570201
X327726Y564295
X334419Y563902
X333140Y596579
X331368Y596579
X329597Y596579
X350069Y597169
X352037Y597169
X354006Y597169
X355974Y597169
X357746Y597169
X377431Y597169
X379400Y597169
X381368Y597169
X383337Y597169
X385108Y597169
X402037Y596579
X403809Y596579
X405581Y596579
X482746Y614295
X523809Y615506
X525975Y613734
X529006Y609965
X535305Y612524
X536486Y611146
X537864Y609768
X540030Y611539
X538652Y613114
X537274Y614492
X531368Y617248
X529006Y621185
X534439Y625250
X536309Y623478
X540423Y620594
X546723Y613705
X545541Y609571
X539833Y604059
X533927Y604650
X548100Y599827
X553514Y605732
X556959Y608882
X568376Y606815
X570345Y605142
X578199Y598321
X577254Y594935
X586565Y574403
X590423Y574138
X592490Y574138
X593770Y575516
X600364Y574138
X602234Y574138
X604301Y574138
X608120Y574600
X602215Y568301
X598179Y568301
X594242Y568301
X592195Y568331
X590030Y568626
X582825Y562494
X582923Y554522
X588356Y552780
X590325Y552780
X592293Y552780
X594262Y552681
X597313Y552681
X599282Y552681
X598691Y546776
X596723Y546972
X594656Y546874
X597884Y528162
X586857Y522320
X570246Y517543
X570148Y506618
X557352Y511933
X551447Y517346
X548297Y520791
X547904Y510161
X545935Y504650
X544360Y503272
X542982Y501894
X544951Y499925
X546329Y501106
X547707Y502484
X553415Y504453
X552825Y498547
X547510Y493626
X543740Y490595
X541968Y488429
X540226Y495988
X537274Y494610
X532224Y499059
X533996Y500929
X536880Y505043
X541801Y510752
X550364Y532209
X552037Y534177
X557815Y542268
X562244Y541087
X553711Y586736
X615797Y526175
X614616Y522533
X622707Y515969
X624675Y514295
X636093Y512228
X639537Y515378
X645345Y512720
X650856Y510752
X652234Y509177
X653612Y507799
X655581Y509768
X654400Y511146
X653022Y512524
X651053Y518232
X656959Y517642
X661880Y512327
X664911Y508557
X667077Y506785
X660896Y502287
X659518Y505043
X654577Y498813
X656447Y497041
X650463Y501697
X642786Y506028
X644951Y521283
X639341Y534374
X634596Y578537
X630709Y579827
X640915Y586736
X642589Y588705
X644656Y600024
X641506Y603567
X635600Y608980
X640226Y616264
X640817Y622169
X645935Y618232
X647313Y619610
X648691Y620791
X650660Y618823
X649282Y617445
X647707Y616067
X645738Y610555
X649872Y609374
X656762Y615673
X659646Y619787
X661418Y621657
X657156Y626894
X653415Y624728
X649902Y630122
X651673Y632287
X646132Y627091
X622510Y603370
X662718Y699584
X731880Y703232
X731880Y705004
X732077Y713272
X732077Y715240
X732077Y717209
X736604Y722720
X746053Y722917
X753927Y722130
X757274Y717012
X757274Y715043
X757274Y713075
X757274Y711106
X757274Y709138
X757274Y706972
X757274Y705004
X757274Y703035
X754911Y698114
X746053Y697720
X736604Y697524
X789608Y627508
X823022Y616097
X825187Y614325
X828219Y610555
X834518Y613114
X835699Y611736
X837077Y610358
X839242Y612130
X837864Y613705
X836486Y615083
X839636Y621185
X835522Y624069
X833652Y625841
X826841Y621776
X829793Y617642
X833140Y605240
X839045Y604650
X844754Y610161
X845935Y614295
X852726Y605634
X856171Y608783
X867589Y606717
X869557Y605043
X876467Y594837
X887845Y581982
X887815Y575762
X889931Y574138
X891998Y574138
X891506Y568429
X893455Y568399
X895522Y568399
X897392Y568399
X901427Y568399
X901742Y574138
X899872Y574138
X903809Y574138
X907234Y574403
X888061Y568331
X882037Y562592
X882136Y554620
X887864Y552780
X889833Y552780
X891801Y552780
X893770Y552681
X895719Y552750
X898150Y553026
X900463Y553075
X898002Y546382
X896132Y546480
X893967Y546382
X898100Y544413
X896132Y540181
X894242Y540545
X892274Y540545
X895325Y534541
X894013Y520597
X887931Y517785
X891211Y506028
X882910Y506517
X876360Y509591
X869459Y517445
X856565Y511835
X850660Y517248
X847510Y520693
X847313Y509768
X845345Y504256
X843770Y502878
X842392Y501500
X844360Y499531
X845738Y500713
X847116Y502091
X852825Y504059
X852234Y498154
X846919Y493232
X843150Y490201
X841378Y488035
X839636Y495594
X836289Y494413
X831634Y498665
X833405Y500535
X836289Y504650
X841211Y510161
X849577Y532110
X851250Y534079
X856929Y542760
X861457Y540988
X833174Y555322
X852923Y586638
X847313Y599728
X921723Y603272
X934813Y608882
X937077Y614492
X937667Y620398
X942786Y616461
X944163Y617839
X945541Y619020
X947510Y617051
X946132Y615673
X944557Y614295
X942589Y608783
X946723Y607602
X940719Y603469
X943868Y600024
X941801Y588606
X940128Y586638
X933809Y578439
X929921Y579728
X954400Y614689
X956496Y618016
X958268Y619886
X953612Y624728
X950266Y622957
X946752Y628350
X948524Y630516
X942982Y625319
X938553Y534276
X944163Y521185
X949478Y518626
X955384Y518035
X951447Y512917
X952825Y511539
X954006Y510161
X952037Y508193
X950660Y509571
X949478Y510949
X943770Y513114
X942589Y508980
X938750Y515280
X935305Y512130
X923888Y514197
X921919Y515870
X914518Y522435
X915010Y526077
X950463Y501303
X953002Y499207
X954872Y497435
X959715Y502681
X957943Y505437
X963337Y508951
X965502Y507179
X960305Y512720
X843346Y790595
X845118Y792760
X848888Y795791
X846329Y802091
X847707Y803272
X849085Y804650
X847313Y806815
X845738Y805437
X844360Y804059
X841604Y798154
X838455Y796972
X833602Y801224
X835374Y803095
X838258Y807209
X841998Y810949
X841408Y813902
X849282Y812327
X850463Y816854
X847215Y820201
X849380Y831717
X851053Y833685
X857372Y841884
X861260Y840595
X869459Y817051
X856368Y811441
X854793Y806618
X854203Y800713
X884636Y846116
X887569Y846283
X889636Y846283
X891506Y846283
X889557Y852022
X893593Y852022
X895463Y852022
X897530Y852022
X899577Y851894
X903415Y852091
X901447Y846283
X899380Y846283
X903415Y845299
X903593Y839128
X913770Y822101
X914715Y825486
X921624Y815280
X923593Y813606
X935010Y811539
X938455Y814689
X943376Y811343
X943770Y807799
X950463Y809965
X951841Y808390
X953219Y807012
X955187Y808980
X954006Y810358
X952628Y811736
X950660Y817445
X956565Y816854
X961486Y811539
X964518Y807770
X966683Y805998
X959124Y804256
X962077Y799531
X956053Y796254
X954183Y798025
X950660Y799335
X943868Y820594
X938258Y833685
X908947Y857829
X908849Y865801
X903514Y867642
X901545Y867642
X899577Y867642
X897608Y867740
X893868Y867543
X891604Y867543
X897821Y873373
X897018Y876598
X895246Y876106
X892667Y880073
X896900Y881943
X898100Y885949
X894557Y889492
X895935Y890870
X901034Y880664
X903199Y880664
X903362Y875564
X905407Y875510
X907372Y873478
X901467Y873675
X876171Y894246
X877352Y897691
X869262Y904453
X867293Y906126
X855876Y908193
X852431Y905043
X849085Y905043
X850266Y909177
X843573Y907012
X842195Y908587
X840817Y909965
X838848Y907996
X840030Y906618
X841408Y905240
X843376Y899531
X847018Y899138
X837471Y900122
X832549Y905437
X829518Y909207
X827352Y910978
X833337Y915673
X834911Y912720
X839852Y918951
X837982Y920723
X839439Y927484
X843967Y916067
X852628Y886047
X825463Y859768
X890226Y937130
X889439Y940476
X885896Y944020
X884518Y942839
X921723Y902878
X934616Y908488
X936880Y913705
X937471Y919610
X942589Y915673
X943967Y917051
X945345Y918232
X947313Y916264
X945935Y914886
X944360Y913508
X942392Y907996
X946526Y906815
X940522Y903075
X943671Y899630
X941604Y888213
X939931Y886244
X933258Y878597
X929725Y879335
X953415Y913114
X956299Y917228
X958071Y919098
X953022Y924138
X950069Y922169
X946555Y927563
X948327Y929728
X942786Y924531
X1005778Y1158980
X659518Y814098
X662549Y810329
X664715Y808557
X657156Y806815
X657156Y804453
X652215Y800585
X654085Y798813
X648100Y803469
X651250Y809571
X649872Y810949
X648494Y812524
X650660Y814295
X652037Y812917
X653219Y811539
X654597Y819413
X648691Y820004
X644754Y820398
X642982Y814492
X639341Y814492
X635896Y811343
X641801Y810358
X624478Y813409
X622510Y815083
X614656Y821904
X615600Y825289
X605925Y845545
X602333Y845890
X600266Y845890
X600463Y852091
X598317Y852022
X596250Y852022
X594380Y852022
X592313Y852022
X590345Y852022
X590522Y845890
X592392Y845890
X588455Y845890
X586506Y845919
X584439Y846018
X604203Y852003
X609734Y857829
X609636Y865801
X604400Y867248
X602431Y867248
X600463Y867248
X598494Y867346
X596545Y867376
X594360Y867445
X592490Y867445
X598297Y873646
X601171Y872986
X601939Y875811
X599872Y876894
X609636Y872691
X600465Y888292
X604624Y895794
X592589Y897366
X590226Y898744
X577549Y897691
X577057Y894049
X576545Y901697
X570148Y904256
X568179Y905929
X567589Y914098
X558534Y913311
X556762Y907996
X553317Y904846
X549872Y904846
X551053Y908980
X548494Y912130
X544754Y915870
X540640Y918754
X538770Y920526
X538652Y925319
X533927Y925319
X532156Y925516
X531959Y927287
X532156Y919807
X535502Y915280
X535699Y912524
X539636Y907799
X540817Y906421
X542195Y905043
X544360Y906815
X542982Y908390
X541604Y909768
X533337Y905240
X530305Y909010
X528140Y910782
X538258Y899925
X544163Y899335
X547904Y898941
X553514Y885850
X586321Y873306
X562146Y840398
X558258Y841687
X551939Y833488
X550266Y831520
X548199Y820102
X551348Y816657
X551250Y813311
X547116Y814492
X543967Y811933
X540226Y808193
X537342Y804079
X535571Y802209
X540423Y798154
X543573Y799138
X548297Y803075
X549675Y804256
X551053Y805634
X549282Y807799
X547707Y806421
X546329Y805043
X550856Y796776
X547087Y793744
X545315Y791579
X556171Y801697
X556762Y807602
X557254Y811244
X570345Y816854
X630610Y879138
X634144Y878400
X640817Y886047
X642490Y888016
X644557Y899433
X641408Y902878
X641014Y906028
X645148Y904846
X643179Y911539
X644557Y912917
X645935Y914295
X643967Y916264
X642589Y915083
X641211Y913705
X635502Y911736
X635502Y908291
X636093Y917642
X641408Y922563
X645177Y925594
X646949Y927760
X648691Y920201
X652628Y922169
X656693Y917130
X654921Y915260
X653612Y912917
X622608Y902681
X590226Y958783
X591014Y960949
X639144Y833488
X677234Y773547
X674478Y770791
X469085Y716421
X465148Y710319
X465148Y708547
X465148Y706579
X463179Y706579
X463179Y708547
X463179Y710319
X461211Y710319
X461211Y708547
X461211Y706579
X455305Y707366
X450069Y708390
X450581Y715043
X453140Y715043
X458061Y716224
X453337Y701461
X450581Y701657
X457864Y700673
X463848Y695004
X467510Y700476
X471053Y704413
X442116Y686106
X439557Y731579
X391408Y722760
X373485Y724844
X354203Y723744
X354203Y720004
X354203Y716461
X347116Y716264
X347510Y720004
X347707Y723744
X347904Y727681
X347707Y731224
X347707Y734768
X347510Y738311
X354203Y738311
X354203Y734768
X354203Y731224
X354203Y727681
X338904Y731088
X338204Y725959
X285699Y726303
X256286Y730550
X249263Y734342
X237667Y730634
X235502Y730634
X237077Y734571
X237471Y742051
X235502Y742051
X226959Y736854
X223002Y736835
X224971Y742740
X233927Y722366
X234321Y719217
X240423Y717839
X245384Y720713
X245148Y710161
X247116Y710161
X249675Y709177
X226939Y705339
X226959Y713232
X226959Y717169
X221230Y717150
X219085Y713232
X215148Y713232
X211191Y713213
X211191Y717150
X211210Y709265
X219065Y709276
X208730Y699925
X204793Y699925
X201447Y700516
X201447Y704453
X211191Y693528
X219951Y685161
X230876Y693528
X191506Y693528
X182648Y688803
X176447Y689098
X165817Y691461
X165817Y700909
X169754Y701894
X174675Y711539
X169951Y718823
X168573Y720004
X165817Y720594
X164045Y720594
X161880Y719610
X159715Y721382
X165620Y712524
X164045Y711539
X165817Y732406
X169754Y736539
X173789Y738803
X177234Y738902
X180974Y742642
X185600Y742740
X193179Y745988
X191604Y754846
X185502Y754256
X182156Y755634
X182156Y759571
X186093Y764689
X181663Y750516
X185305Y734177
X181587Y726943
X182549Y719217
X185305Y719020
X164045Y742642
X168376Y745988
X166604Y786736
X161093Y788311
X149183Y788409
X139144Y786933
X137963Y781717
X126250Y796087
X126053Y799925
X126079Y801884
X125955Y803961
X125955Y805929
X124478Y813902
X122116Y820594
X127726Y825417
X125364Y835949
X115620Y834472
X123297Y849138
X131762Y873055
X147018Y873055
X159223Y843724
X160994Y831028
X163061Y830240
X165128Y830437
X158829Y829453
X149183Y829157
X149085Y834866
X168967Y821480
X168573Y811736
X174183Y811835
X169386Y801884
X168967Y797957
X135010Y815673
X204006Y843921
X216211Y844709
X220837Y844610
X234321Y845299
X260896Y848449
X265620Y843823
X267490Y847858
X281368Y845988
X284124Y839689
X304104Y837720
X306762Y837524
X306368Y848154
X303612Y848055
X321919Y846972
X327726Y844906
X333534Y844118
X339144Y844020
X340691Y842040
X333927Y838016
X327333Y837917
X326841Y850713
X334419Y850319
X332156Y819610
X330384Y819610
X328612Y819610
X349085Y819020
X350856Y819020
X352825Y819020
X354793Y819020
X356762Y819020
X376447Y819020
X378219Y819020
X380187Y819020
X382156Y819020
X384124Y819020
X401053Y819610
X402825Y819610
X404597Y819610
X341211Y920594
X338455Y919807
X335699Y919020
X331762Y919020
X329203Y917642
X326644Y916264
X397510Y955240
X237667Y773547
X218260Y771853
X211191Y755339
X205384Y745988
X245935Y746972
X268770Y676500
X257451Y625220
X257451Y623350
X236388Y582799
X225955Y572563
X233041Y557110
X228317Y537819
X188652Y630634
X175660Y652287
X169360Y652091
X150266Y652287
X144360Y652091
X125266Y652287
X119360Y652091
X100266Y652287
X94557Y652091
X89045Y699433
X91395Y706181
X90610Y719303
X94459Y719315
X90550Y727172
X94670Y731151
X98427Y727236
X110896Y721382
X113125Y712055
X121526Y721579
X126447Y721579
X129006Y720398
X172707Y672366
X77726Y718921
X77825Y721185
X78022Y725713
X77923Y729846
X43573Y733783
X43573Y742642
X42195Y723547
X42982Y713705
X48277Y802912
X50148Y417530
X128809Y395004
X281762Y353469
X285783Y355732
X287865Y355797
X288652Y350319
X296132Y416264
X329513Y417829
X482746Y504059
X493967Y552681
X587274Y441067
X592786Y444610
X618179Y444610
X619754Y441067
X727234Y222760
X747313Y222169
X768179Y221579
X788258Y220004
X810305Y220201
X830384Y220201
X850856Y220791
X870738Y220791
X672313Y170791
X669360Y180634
X651644Y180634
X651644Y178075
X632156Y171579
X629597Y181028
X611880Y181028
X611880Y178469
X592786Y171382
X590226Y180831
X572510Y180831
X572510Y178272
X553809Y171185
X551250Y180634
X533534Y180634
X533534Y178075
X528219Y127287
X530778Y117839
X548494Y117839
X548494Y120398
X568573Y126894
X571132Y117445
X588848Y117445
X588848Y120004
X607943Y126500
X610502Y117051
X628219Y118626
X628219Y121185
X651053Y127681
X654006Y117839
X671723Y117839
X671723Y120398
T02
X9715Y5437
X9715Y5437
X17589Y5437
X25463Y5437
X33337Y5437
X41211Y5437
X49085Y5437
X29400Y25122
X9715Y147169
X9715Y147169
X9715Y155043
X9715Y162917
X9715Y170791
X9715Y178665
X9715Y186539
X329203Y543823
X329203Y546382
X329006Y549335
X329006Y552091
X329006Y554846
X329006Y557602
X333927Y557602
X333927Y554846
X333927Y552091
X333927Y549335
X333927Y546579
X333927Y544217
X336486Y562130
X326447Y562327
X265915Y625122
X257057Y610752
X254881Y614626
X249369Y609705
X247204Y609705
X243464Y609705
X241495Y609705
X239527Y609705
X233621Y609705
X231653Y609705
X229597Y609768
X225660Y608587
X228120Y604354
X225758Y602878
X222904Y600516
X223002Y589886
X211978Y603665
X211880Y609177
X204203Y608291
X211486Y617543
X217195Y617642
X217786Y623547
X217687Y625516
X227234Y616264
X244951Y603665
X247215Y603764
X249380Y603764
X248779Y621418
X237471Y640575
X235404Y640575
X203612Y622957
X188736Y684262
X190574Y686099
X182190Y692086
X182190Y696023
X182190Y699960
X182190Y703897
X182190Y707834
X182190Y711771
X182190Y715708
X186127Y711771
X190064Y711771
X190064Y715708
X190064Y719645
X194001Y719645
X197938Y719645
X197938Y715708
X194001Y715708
X194001Y711771
X197938Y711771
X197938Y707834
X194001Y707834
X194001Y703897
X190620Y703862
X189636Y707406
X186127Y707834
X186127Y703897
X186127Y699960
X178253Y699960
X178253Y703897
X178253Y707834
X174316Y707834
X170379Y707834
X170379Y711771
X170379Y703897
X174316Y703897
X174316Y699960
X170379Y699960
X170379Y696023
X174316Y696023
X178253Y696023
X174316Y692086
X170379Y692086
X194001Y699960
X197938Y703897
X204798Y707834
X204798Y711771
X204798Y715708
X204798Y719645
X208735Y719645
X212672Y719645
X216609Y719645
X220546Y719645
X224483Y719645
X228420Y719645
X232357Y719645
X233440Y713247
X232357Y726505
X228420Y726505
X224483Y726505
X220546Y726505
X216609Y726505
X212672Y726505
X208735Y726505
X204798Y726505
X204798Y730442
X204798Y734379
X204798Y738316
X208735Y738316
X208735Y734379
X208735Y730442
X212672Y734379
X216609Y730442
X220546Y730442
X220546Y734379
X224483Y734379
X224483Y730442
X228420Y730442
X228420Y734379
X232357Y734379
X232357Y730442
X232357Y742253
X232357Y754064
X228420Y754064
X220546Y750127
X212672Y746190
X208735Y746190
X212672Y742253
X216609Y742253
X197938Y738316
X194001Y738316
X194001Y742253
X194001Y734379
X190064Y734379
X190064Y730442
X194001Y730442
X197938Y730442
X197938Y734379
X197938Y726505
X194001Y726505
X190064Y726505
X182190Y738316
X170379Y754064
X197938Y750127
X208735Y715708
X208735Y711771
X208735Y707834
X208735Y703897
X204798Y696023
X216609Y699960
X224483Y696023
X174316Y719645
X328219Y854846
X328219Y857406
X328022Y860358
X328022Y863114
X328022Y865870
X328022Y868626
X328022Y871382
X332943Y871382
X332943Y868626
X332943Y865870
X332943Y863114
X332943Y860358
X332943Y857602
X332943Y855240
X409979Y834413
X415097Y834492
X419822Y834492
X424546Y834492
X429270Y834492
X433995Y834492
X438719Y834492
X443428Y834217
X447948Y832881
X452021Y830509
X455413Y827237
X457930Y823252
X459428Y818784
X459834Y814087
X459755Y808929
X459755Y804205
X459755Y799481
X459755Y794756
X459755Y790465
X459755Y785740
X459755Y781016
X459755Y776292
X459755Y771567
X459755Y766843
X459755Y762118
X459755Y757394
X459756Y752670
X459756Y747945
X459756Y743221
X459756Y738496
X459756Y733772
X459756Y729048
X459756Y724323
X464480Y722096
X464480Y726820
X464480Y731545
X464480Y736269
X464480Y740993
X464480Y745718
X464480Y750442
X464480Y755167
X464480Y759891
X464480Y764615
X464480Y769340
X464480Y774064
X464480Y778789
X464480Y783513
X464480Y788237
X464480Y792962
X464480Y797253
X464480Y801978
X464480Y806702
X464480Y811426
X464558Y816584
X464478Y821306
X463494Y825915
X461443Y830159
X458442Y833793
X454663Y836609
X450323Y838447
X445671Y839200
X440947Y839217
X436222Y839217
X431498Y839217
X426774Y839217
X422049Y839217
X417325Y839217
X412600Y839217
X514603Y886325
X516769Y888294
X519131Y890656
X522084Y893412
X524643Y895774
X526808Y897939
X528973Y900105
X531139Y902073
X535273Y897939
X533107Y895971
X530942Y893806
X528777Y891640
X526217Y889278
X523265Y886522
X520903Y884160
X518737Y882191
X549380Y889591
X551152Y887327
X554990Y883980
X556860Y882012
X564259Y882900
X566323Y880744
X568538Y878505
X573312Y879687
X576565Y878340
X578730Y880703
X576959Y882671
X575187Y884443
X572234Y887002
X569721Y888097
X567950Y886325
X570856Y883065
X574164Y875552
X574163Y870827
X576488Y867095
X579735Y866067
X579722Y861485
X577281Y861531
X577281Y857808
X579793Y857996
X579735Y853272
X576488Y852244
X574163Y848511
X574164Y843787
X576565Y840998
X578730Y838636
X576959Y836667
X575187Y834896
X572234Y832337
X569721Y831242
X567950Y833013
X570856Y836274
X573312Y839651
X568538Y840834
X566323Y838594
X564259Y836439
X553612Y840181
X569439Y846729
X569764Y852465
X573027Y855855
X573027Y863484
X569764Y866873
X569439Y872609
X580108Y874600
X580502Y871844
X582471Y877159
X583455Y880703
X581683Y884836
X579321Y887592
X576565Y890151
X573855Y891640
X552989Y916640
X550824Y914672
X546690Y918806
X548855Y920774
X551217Y923136
X554170Y925892
X555745Y927270
X559485Y931010
X561060Y932585
X563225Y934554
X568147Y931207
X566572Y925695
X564210Y925302
X562044Y923136
X558304Y921758
X555351Y919002
X604052Y890741
X601270Y882081
X597392Y879915
X609596Y880703
X610581Y877159
X612943Y874600
X612549Y871844
X613317Y866067
X616563Y867095
X618888Y870827
X618888Y875552
X616486Y878340
X614321Y880703
X616093Y882671
X617864Y884443
X620817Y887002
X623330Y888097
X625102Y886325
X622195Y883065
X619739Y879687
X624513Y878505
X626728Y880744
X628792Y882900
X638504Y879699
X657567Y898515
X659732Y896349
X662094Y893790
X664850Y890837
X667212Y888475
X671149Y891625
X669181Y893790
X666819Y896152
X664063Y899105
X661700Y901664
X659535Y903830
X657370Y905995
X655401Y908160
X653630Y910129
X653433Y902845
X655401Y900680
X632763Y916822
X632567Y921940
X630204Y924302
X627448Y927255
X625086Y929814
X622921Y931192
X619968Y935129
X617606Y937097
X622921Y940641
X624889Y938475
X627055Y936310
X628630Y935129
X631582Y931586
X634338Y928633
X636700Y926271
X638669Y924105
X625463Y907406
X623888Y905043
X620541Y901091
X618573Y899335
X619196Y891640
X616486Y890151
X613730Y887592
X611368Y884836
X623612Y872609
X623287Y866873
X620024Y863484
X615770Y861531
X613258Y861638
X612864Y857799
X615377Y857611
X619630Y855658
X622894Y852268
X623219Y846533
X618494Y848314
X616169Y852047
X612923Y853075
X612156Y847297
X612549Y844541
X610187Y841982
X609203Y838439
X610974Y834305
X613337Y831549
X616093Y828990
X618802Y827502
X620423Y832140
X622936Y831045
X624708Y832816
X621801Y836077
X619346Y839454
X616093Y840801
X613927Y838439
X615699Y836471
X617471Y834699
X624119Y840637
X626334Y838397
X628399Y836242
X635797Y837327
X638061Y835949
X641506Y832012
X644852Y832602
X656532Y820971
X660666Y824908
X662241Y826483
X665194Y829239
X667753Y831601
X669918Y833766
X672084Y835932
X674249Y837900
X678186Y833373
X676021Y831404
X673855Y829239
X671690Y827073
X669131Y824711
X666178Y821955
X664406Y820184
X661060Y816640
X645312Y801286
X643147Y799317
X640981Y797152
X638816Y794987
X636257Y792624
X633304Y789869
X630942Y787506
X628777Y785538
X625036Y789081
X627202Y791050
X629564Y793412
X632517Y796168
X635076Y798530
X637241Y800695
X639406Y802861
X641572Y804829
X615817Y817839
X598691Y817429
X598691Y812705
X598691Y807980
X598691Y803256
X598691Y798532
X598691Y793807
X598691Y789083
X598691Y784358
X598691Y779634
X598859Y774917
X600029Y770351
X602250Y766194
X605396Y762685
X609286Y760024
X613697Y758363
X618376Y757799
X620919Y757799
X625644Y757799
X630368Y757799
X635093Y757799
X639817Y757799
X644541Y757799
X649266Y757799
X653990Y757799
X658715Y757799
X663439Y757799
X668164Y757799
X672888Y757799
X677612Y757799
X682337Y757799
X687061Y757799
X691786Y757799
X696510Y757799
X701234Y757799
X705959Y757799
X710683Y757799
X715408Y757799
X720132Y757799
X724856Y757799
X724135Y752691
X728605Y751199
X732579Y748667
X735820Y745246
X738135Y741140
X739384Y736597
X739589Y731882
X739589Y727158
X744313Y729083
X747743Y728567
X747743Y733292
X744313Y733808
X744313Y738532
X747743Y738016
X748322Y742693
X743734Y743209
X742038Y747606
X739326Y751459
X735759Y754540
X731552Y756664
X718207Y753075
X713482Y753075
X708758Y753075
X704033Y753075
X699309Y753075
X694585Y753075
X689860Y753075
X685136Y753075
X680411Y753075
X675687Y753075
X670962Y753075
X666238Y753075
X661514Y753075
X656789Y753075
X652065Y753075
X647340Y753075
X642616Y753075
X637892Y753075
X633167Y753075
X628443Y753075
X623718Y753075
X618994Y753075
X614270Y753075
X610862Y753273
X606310Y754495
X602179Y756764
X598705Y759949
X596089Y763869
X594479Y768299
X593967Y772984
X593967Y777708
X593967Y782433
X593967Y787157
X593967Y791882
X593967Y796606
X593967Y801330
X593967Y806055
X593967Y810779
X593967Y815504
X593967Y820228
X593967Y824953
X593967Y829677
X593967Y834401
X593967Y839126
X598692Y841051
X598692Y836327
X598692Y831602
X598692Y826878
X598691Y822154
X603908Y840067
X588455Y851894
X580502Y847494
X580108Y844738
X582471Y842179
X583455Y838636
X581683Y834502
X579321Y831746
X576565Y829187
X573855Y827698
X574183Y820201
X573789Y816854
X568868Y814492
X567293Y812130
X557567Y799302
X558354Y796940
X561700Y794971
X563866Y792806
X566228Y790247
X568984Y787294
X571346Y784932
X573315Y782767
X568590Y778436
X566622Y780601
X564259Y782963
X561504Y785916
X559141Y788475
X553630Y790444
X554811Y792806
X552842Y794971
X537488Y810523
X535519Y812688
X533157Y815050
X530401Y818003
X528039Y820562
X525874Y822727
X523708Y824893
X521740Y827058
X526464Y830798
X528433Y828633
X530598Y826467
X532763Y824302
X535126Y821743
X537881Y818790
X540244Y816428
X543984Y815641
X618494Y843590
X617510Y711697
X622234Y711697
X622234Y706972
X617510Y706972
X612786Y706972
X612786Y711697
X608061Y711697
X603337Y711697
X603337Y706972
X608061Y706972
X598612Y706972
X593888Y706972
X589163Y706972
X584439Y706972
X579715Y706972
X574990Y706972
X570266Y706972
X565541Y706972
X560817Y706972
X556093Y706972
X551368Y706972
X546644Y706972
X541919Y706972
X537195Y706972
X532471Y706972
X532471Y711697
X537195Y711697
X541919Y711697
X546644Y711697
X551368Y711697
X556093Y711697
X560817Y711697
X565541Y711697
X570266Y711697
X574990Y711697
X579715Y711697
X584439Y711697
X589163Y711697
X593888Y711697
X598612Y711697
X626959Y711697
X631683Y711697
X636408Y711697
X641132Y711697
X645856Y711697
X645856Y706972
X641132Y706972
X636408Y706972
X631683Y706972
X626959Y706972
X650581Y706972
X655305Y706972
X660030Y706972
X664754Y706972
X669478Y706972
X674203Y706972
X678927Y706972
X683652Y706972
X688376Y706972
X693100Y706972
X693100Y711697
X688376Y711697
X683652Y711697
X678927Y711697
X674203Y711697
X669478Y711697
X664754Y711697
X660030Y711697
X655305Y711697
X650581Y711697
X651751Y667491
X656475Y667491
X661199Y667491
X665924Y667491
X670648Y667491
X675373Y667491
X680097Y667491
X684821Y667491
X689546Y667491
X694270Y667491
X698995Y667491
X703719Y667491
X708444Y667491
X713168Y667491
X717892Y667491
X719818Y662767
X724542Y662767
X723820Y667875
X728290Y669367
X732265Y671900
X735506Y675321
X737820Y679426
X739070Y683970
X739275Y688684
X739274Y693408
X743999Y691483
X747624Y691468
X747624Y686744
X743999Y686759
X743999Y682034
X747624Y682019
X748203Y677342
X749899Y672946
X752612Y669092
X756178Y666011
X760385Y663888
X763333Y669352
X767803Y667860
X767081Y662752
X771805Y662752
X776530Y662752
X781254Y662752
X785979Y662752
X790703Y662752
X795427Y662752
X800152Y662752
X804876Y662752
X809601Y662752
X814325Y662752
X819049Y662752
X823774Y662752
X828498Y662752
X833223Y662752
X837947Y662752
X842671Y662752
X847396Y662752
X852120Y662752
X856845Y662752
X861569Y662752
X866293Y662752
X871018Y662752
X873561Y662752
X878240Y662188
X882651Y660528
X886541Y657866
X889687Y654357
X891909Y650200
X893078Y645634
X893246Y640917
X893246Y636193
X893246Y631469
X893246Y626744
X893246Y622020
X893246Y617295
X893246Y612571
X893246Y607846
X893246Y603122
X893246Y598398
X893246Y593673
X893246Y588949
X893246Y584224
X893246Y579500
X897970Y581425
X897970Y586150
X897970Y590874
X897970Y595599
X897970Y600323
X897970Y605048
X897970Y609772
X897970Y614496
X897970Y619221
X897970Y623945
X897971Y628670
X897971Y633394
X897971Y638118
X897971Y642843
X897971Y647567
X897459Y652253
X895849Y656682
X893232Y660602
X889758Y663788
X885627Y666056
X881075Y667278
X877668Y667476
X872943Y667476
X868219Y667476
X863495Y667476
X858770Y667476
X854046Y667476
X849321Y667476
X844597Y667476
X839873Y667476
X835148Y667476
X830424Y667476
X825699Y667476
X820975Y667476
X816250Y667476
X811526Y667476
X806802Y667476
X802077Y667476
X797353Y667476
X792628Y667476
X787904Y667476
X783180Y667476
X778455Y667476
X773731Y667476
X759358Y671885
X756117Y675306
X753803Y679411
X752553Y683955
X752349Y688669
X752349Y693394
X743420Y677357
X741724Y672960
X739011Y669107
X735445Y666026
X731238Y663902
X715093Y662767
X710369Y662767
X705645Y662767
X700920Y662767
X696196Y662767
X691471Y662767
X686747Y662767
X682023Y662767
X677298Y662767
X672574Y662767
X667849Y662767
X663125Y662767
X658401Y662767
X653676Y662767
X648952Y662767
X644227Y662767
X639503Y662767
X634778Y662767
X630054Y662767
X625330Y662767
X620605Y662767
X618062Y662767
X613383Y662203
X608972Y660542
X605082Y657881
X601936Y654372
X599715Y650215
X598545Y645649
X598377Y640932
X598377Y636208
X598377Y631483
X598377Y626759
X598377Y622035
X598377Y617310
X598377Y612586
X598377Y607861
X598377Y603137
X598377Y598412
X598377Y593688
X598377Y588964
X598377Y584239
X598377Y579515
X593653Y581440
X593653Y586165
X593653Y590889
X593653Y595614
X593653Y600338
X593653Y605062
X593653Y609787
X593653Y614511
X593653Y619236
X593653Y623960
X593653Y628684
X593653Y633409
X593653Y638133
X593652Y642858
X593652Y647582
X594165Y652267
X595775Y656697
X598391Y660617
X601865Y663802
X605996Y666071
X610548Y667293
X613955Y667491
X618680Y667491
X623404Y667491
X628129Y667491
X632853Y667491
X637577Y667491
X642302Y667491
X647026Y667491
X634929Y637688
X637685Y634735
X640047Y632373
X642015Y630208
X637291Y626467
X635322Y628633
X632960Y630995
X630204Y633948
X623986Y605732
X618671Y600024
X618999Y592821
X616289Y591333
X613534Y588773
X611171Y586018
X609400Y581884
X610384Y578340
X612746Y575781
X612352Y573025
X613120Y567248
X616366Y568276
X618691Y572008
X618691Y576733
X616289Y579522
X614124Y581884
X615896Y583852
X617667Y585624
X620620Y588183
X623133Y589278
X624905Y587506
X621998Y584246
X619543Y580869
X624316Y579686
X626531Y581926
X628595Y584081
X623415Y573790
X623090Y568054
X619827Y564665
X615967Y562416
X613061Y562228
X612667Y558685
X615180Y558792
X619433Y556839
X622697Y553450
X623022Y547714
X618297Y549496
X615972Y553228
X612726Y554256
X611959Y548478
X612352Y545723
X609990Y543164
X609006Y539620
X610778Y535486
X613140Y532730
X615896Y530171
X618606Y528683
X620226Y533321
X622739Y532226
X624511Y533998
X621604Y537258
X619149Y540635
X615896Y541982
X613730Y539620
X615502Y537652
X617274Y535880
X623923Y541818
X626138Y539578
X628202Y537423
X635994Y538213
X637864Y536244
X641703Y532898
X660141Y520218
X662306Y522187
X664472Y524352
X666637Y526517
X669196Y528879
X672149Y531635
X675889Y526911
X672936Y524155
X670377Y521793
X668212Y519627
X666046Y517462
X663881Y515494
X642621Y502305
X640456Y500336
X638094Y497974
X635141Y495218
X632582Y492856
X630417Y490690
X634157Y485966
X636322Y488131
X638881Y490494
X641834Y493250
X644196Y495612
X646361Y497580
X618297Y544771
X596447Y541097
X596545Y538538
X591746Y536777
X583258Y539817
X581486Y535683
X579124Y532927
X576368Y530368
X573658Y528879
X572038Y533518
X569525Y532423
X567753Y534194
X570660Y537455
X573115Y540832
X576368Y542179
X578534Y539817
X576762Y537849
X574990Y536077
X568341Y542015
X566126Y539775
X564062Y537620
X569242Y547911
X573967Y549692
X576291Y553425
X579538Y554453
X579597Y558783
X577084Y558792
X577084Y562712
X579597Y562524
X579538Y567248
X576291Y568276
X573967Y572008
X573967Y576733
X576368Y579522
X578534Y581884
X576762Y583852
X574990Y585624
X572038Y588183
X569525Y589278
X567753Y587506
X570660Y584246
X573115Y580869
X568341Y579686
X566126Y581926
X564062Y584081
X557057Y582898
X551348Y588213
X573658Y592821
X576368Y591333
X579124Y588773
X581486Y586018
X583258Y581884
X582274Y578340
X579912Y575781
X580305Y573025
X569242Y573790
X569567Y568054
X572830Y564665
X572830Y557036
X569567Y553646
X573967Y544968
X579912Y545919
X581093Y543852
X580305Y548675
X553219Y541657
X574282Y520890
X574774Y517642
X568967Y515181
X567884Y512425
X556189Y494774
X558157Y492609
X560322Y490444
X562488Y488278
X564850Y485719
X567606Y482767
X562881Y479026
X560126Y481979
X557763Y484538
X555598Y486704
X553433Y488869
X551464Y491034
X534338Y507176
X532370Y509341
X530007Y511704
X527252Y514656
X525677Y516034
X524496Y518003
X520559Y521546
X518590Y523711
X524102Y527452
X525283Y525286
X527448Y523121
X529614Y520956
X531976Y518397
X534732Y515444
X536110Y512885
X540244Y512885
X590108Y518936
X595509Y521902
X604203Y568429
X553054Y625533
X550889Y623368
X548724Y621202
X546558Y619234
X542818Y623958
X544983Y625927
X547149Y628092
X549314Y630257
X551873Y632620
X554826Y635376
X557188Y637738
X560928Y633013
X558566Y630651
X555613Y627895
X527070Y607029
X524905Y605061
X528645Y600336
X530810Y602305
X524708Y596793
X521361Y593053
X519983Y591478
X516440Y588525
X512700Y593250
X514865Y596793
X517228Y597974
X519590Y599942
X518802Y602698
X464575Y601377
X464575Y606101
X464575Y610825
X464575Y615550
X464575Y620274
X464575Y624999
X464575Y629723
X464575Y634448
X464575Y639172
X464575Y643896
X464575Y648621
X464575Y653345
X464575Y658070
X464575Y662794
X464575Y667518
X464575Y672243
X464575Y676967
X464576Y681692
X464576Y686416
X464576Y691140
X459851Y692520
X459851Y687796
X459851Y683071
X459851Y678347
X459851Y673622
X459851Y668898
X459851Y664174
X459851Y659449
X459851Y654725
X459851Y650000
X459851Y645276
X459851Y640552
X459851Y635827
X459851Y631103
X459851Y626378
X459850Y621654
X459850Y616930
X459850Y612205
X459850Y607481
X459850Y602756
X459684Y598039
X458517Y593473
X456298Y589315
X453154Y585803
X449266Y583140
X444856Y581477
X440177Y580909
X435453Y580909
X430729Y580909
X426004Y580909
X421280Y580909
X416555Y580909
X411831Y580909
X410373Y576106
X415176Y576185
X419900Y576185
X424624Y576185
X429349Y576185
X434073Y576185
X438798Y576185
X443522Y576185
X448230Y576471
X452746Y577821
X456811Y580205
X460193Y583488
X462697Y587481
X464181Y591954
X464575Y596652
X471053Y706972
X475778Y706972
X480502Y706972
X485226Y706972
X485226Y711697
X480502Y711697
X475778Y711697
X471053Y711697
X489951Y711697
X494675Y711697
X494675Y706972
X489951Y706972
X499400Y706972
X504124Y706972
X508848Y706972
X508848Y711697
X504124Y711697
X499400Y711697
X513573Y711697
X518297Y711697
X518297Y706972
X513573Y706972
X523022Y706972
X527746Y706972
X527746Y711697
X523022Y711697
X655795Y608948
X657763Y606782
X659929Y604617
X662094Y602452
X664456Y599893
X667212Y596940
X673315Y599302
X669181Y603633
X666819Y606192
X664653Y608357
X662488Y610523
X660519Y612688
X697825Y706972
X702549Y706972
X707274Y706972
X711998Y706972
X716723Y706972
X721447Y706972
X726171Y706972
X726171Y711697
X721447Y711697
X716723Y711697
X711998Y711697
X707274Y711697
X702549Y711697
X697825Y711697
X752467Y726642
X752467Y731366
X752672Y736080
X753921Y740624
X756236Y744730
X759477Y748150
X763451Y750683
X767921Y752175
X767199Y757283
X771924Y757283
X776648Y757283
X781373Y757283
X786097Y757283
X790821Y757283
X795546Y757283
X800270Y757283
X804995Y757283
X809719Y757283
X814444Y757283
X819168Y757283
X823892Y757283
X828617Y757283
X833341Y757283
X838066Y757283
X842790Y757283
X847514Y757283
X852239Y757283
X856963Y757283
X861688Y757283
X866412Y757283
X871136Y757283
X873680Y757283
X878359Y757847
X882770Y759508
X886660Y762169
X889806Y765678
X892027Y769835
X893197Y774401
X893365Y779118
X893365Y783842
X893365Y788567
X893365Y793291
X893365Y798016
X893365Y802740
X893365Y807464
X893365Y812189
X893364Y816913
X893364Y821638
X893364Y826362
X893364Y831086
X893364Y835811
X893364Y840535
X898089Y838610
X898089Y833885
X898089Y829161
X898089Y824437
X898089Y819712
X898089Y814988
X898089Y810263
X898089Y805539
X898089Y800814
X898089Y796090
X898089Y791366
X898089Y786641
X898089Y781917
X898089Y777192
X898089Y772468
X897577Y767783
X895967Y763353
X893350Y759433
X889877Y756248
X885746Y753979
X881194Y752757
X877786Y752559
X873062Y752559
X868338Y752559
X863613Y752559
X858889Y752559
X854164Y752559
X849440Y752559
X844715Y752559
X839991Y752559
X835267Y752559
X830542Y752559
X825818Y752559
X821093Y752559
X816369Y752559
X811645Y752559
X806920Y752559
X802196Y752559
X797471Y752559
X792747Y752559
X788023Y752559
X783298Y752559
X778574Y752559
X773849Y752559
X760504Y756148
X756296Y754024
X752730Y750943
X750018Y747090
X825677Y816231
X825283Y819774
X823118Y821940
X820952Y824105
X818984Y826271
X823708Y830011
X825677Y827845
X829811Y826467
X830007Y823515
X832370Y820956
X834338Y818790
X836504Y816625
X838866Y813475
X835322Y809735
X832173Y812491
X830401Y814263
X851858Y793790
X853826Y791625
X855992Y789460
X858157Y787294
X860519Y784735
X863275Y781782
X868000Y785523
X865244Y788475
X862881Y791034
X860716Y793200
X858551Y795365
X856582Y797530
X866604Y811933
X867982Y814689
X871821Y818035
X873297Y820398
X872871Y827895
X875581Y829384
X878337Y831943
X880699Y834699
X882471Y838833
X881486Y842376
X879124Y844935
X879518Y847691
X878751Y853469
X875504Y852440
X873179Y848708
X873179Y843984
X875581Y841195
X877746Y838833
X875975Y836864
X874203Y835093
X871250Y832534
X868737Y831439
X866966Y833210
X869872Y836471
X872328Y839848
X867554Y841030
X865339Y838791
X863570Y836734
X868455Y846926
X868780Y852662
X872043Y856052
X876297Y858005
X878932Y857978
X878809Y861539
X876297Y861727
X872043Y863681
X868780Y867070
X868455Y872806
X873179Y871024
X875504Y867292
X878751Y866264
X879518Y872041
X879124Y874797
X881486Y877356
X882471Y880899
X880699Y885033
X878337Y887789
X875581Y890348
X872871Y891837
X871250Y887199
X868737Y888294
X866966Y886522
X869872Y883262
X872328Y879884
X875581Y878537
X877746Y880899
X875975Y882868
X874203Y884640
X867554Y878702
X865339Y880941
X863275Y883097
X855974Y882209
X854104Y884177
X850266Y887524
X847215Y889295
X833698Y897349
X831532Y895380
X829761Y889672
X827202Y891050
X824643Y888687
X821690Y885932
X819328Y883569
X817162Y881601
X813028Y885735
X815194Y887703
X817556Y890065
X820509Y892821
X823068Y895184
X825233Y897349
X825824Y900302
X830942Y901876
X846099Y919199
X848265Y921168
X850627Y923530
X852399Y924908
X857714Y922152
X860273Y924514
X863422Y925302
X866769Y930813
X869721Y928845
X862635Y934947
X860469Y932979
X858304Y930813
X847871Y931010
X854761Y919396
X852399Y917034
X850233Y915065
X876348Y901894
X873179Y875749
X887667Y851894
X909203Y842179
X911565Y844738
X911171Y847494
X911939Y853272
X915185Y852244
X917510Y848511
X917510Y843787
X915108Y840998
X912943Y838636
X914715Y836667
X916486Y834896
X919439Y832337
X921952Y831242
X923724Y833013
X920817Y836274
X918362Y839651
X923135Y840834
X925350Y838594
X927414Y836439
X934911Y837524
X940620Y832209
X959157Y818840
X961322Y820809
X963487Y822974
X965653Y825139
X968212Y827502
X971165Y830257
X973527Y832620
X975692Y834588
X979432Y829864
X977267Y827895
X974905Y825533
X971952Y822777
X969393Y820415
X967228Y818250
X965062Y816084
X962897Y814116
X947543Y797974
X945377Y796005
X943015Y793643
X940062Y790887
X937503Y788525
X935338Y786360
X933172Y784194
X931007Y782226
X927267Y786950
X929432Y788919
X931598Y791084
X933763Y793250
X936322Y795612
X939275Y798368
X941637Y800730
X943802Y802698
X914734Y817839
X917818Y827698
X915108Y829187
X912352Y831746
X909990Y834502
X908219Y838636
X922234Y846729
X921909Y852465
X918646Y855855
X914392Y857808
X911880Y857996
X912274Y861539
X914786Y861727
X919040Y863681
X922303Y867070
X922628Y872806
X917904Y871024
X915579Y867292
X912332Y866264
X911565Y872041
X911959Y874797
X909596Y877356
X908612Y880899
X910384Y885033
X912746Y887789
X915502Y890348
X918212Y891837
X919833Y887199
X922346Y888294
X924117Y886522
X921211Y883262
X918755Y879884
X915502Y878537
X913337Y880899
X915108Y882868
X916880Y884640
X923529Y878702
X925744Y880941
X927808Y883097
X937569Y879650
X917904Y875749
X917687Y899531
X923002Y905240
X934535Y922334
X932567Y924499
X930204Y926861
X927448Y929814
X925086Y932373
X923315Y933554
X920756Y936704
X918787Y938869
X922921Y943200
X924889Y941034
X927055Y938869
X928630Y937491
X931582Y934145
X934338Y931192
X936700Y928830
X938669Y926664
X955598Y910916
X957567Y908751
X959732Y906586
X961897Y904420
X964259Y901861
X967015Y898908
X969378Y896546
X971346Y894381
X967212Y890050
X965244Y892215
X962881Y894578
X960126Y897530
X957763Y900089
X955598Y902255
X953433Y904420
X951464Y906586
X1003504Y985810
X852726Y841264
X927645Y641034
X929811Y638869
X931976Y636704
X934338Y634145
X937094Y631192
X939456Y628830
X941425Y626664
X936700Y622924
X934732Y625089
X932370Y627452
X929614Y630404
X927252Y632963
X925086Y635129
X922921Y637294
X923789Y608390
X923199Y605634
X918967Y602583
X917884Y599925
X918212Y592624
X915502Y591136
X912746Y588577
X910384Y585821
X908612Y581687
X909596Y578144
X911959Y575585
X911565Y572829
X912332Y567051
X915579Y568079
X917904Y571812
X917904Y576536
X915502Y579325
X913337Y581687
X915108Y583655
X916880Y585427
X919833Y587986
X922346Y589081
X924117Y587310
X921211Y584049
X918755Y580672
X923529Y579489
X925744Y581729
X927808Y583884
X938061Y579650
X922628Y573593
X922303Y567858
X919040Y564468
X914786Y562515
X912274Y562327
X911880Y558783
X914392Y558595
X918646Y556642
X921909Y553253
X922234Y547517
X917510Y549299
X915185Y553031
X911939Y554059
X911171Y548282
X911565Y545526
X909203Y542967
X908219Y539423
X909990Y535290
X912352Y532534
X915108Y529975
X917818Y528486
X919439Y533124
X921952Y532029
X923724Y533801
X920817Y537061
X918362Y540439
X915108Y541786
X912943Y539423
X914715Y537455
X916486Y535683
X923135Y541621
X925350Y539382
X927414Y537226
X935207Y538114
X937077Y536146
X940915Y532799
X943573Y531224
X957976Y520218
X960141Y522187
X962306Y524352
X964472Y526517
X967031Y528879
X970771Y524155
X968212Y521793
X966046Y519627
X963881Y517462
X961716Y515494
X947149Y499942
X944983Y497974
X942621Y495612
X939669Y492856
X937109Y490494
X934944Y488328
X932779Y486163
X929039Y490887
X931204Y493053
X933369Y495218
X935928Y497580
X938881Y500336
X941243Y502698
X943409Y504667
X917510Y544574
X903415Y568232
X891526Y546805
X882569Y546215
X881486Y543164
X879124Y545723
X879518Y548478
X878751Y554256
X875504Y553228
X873179Y549496
X873179Y544771
X875581Y541982
X877746Y539620
X875975Y537652
X874203Y535880
X871250Y533321
X868737Y532226
X866966Y533998
X869872Y537258
X872328Y540635
X867554Y541818
X865339Y539578
X863275Y537423
X868455Y547714
X868780Y553450
X872043Y556839
X876297Y558792
X878908Y558783
X878809Y562327
X876297Y562515
X872043Y564468
X868780Y567858
X868455Y573593
X873179Y571812
X875504Y568079
X878751Y567051
X879518Y572829
X879124Y575585
X881486Y578144
X882471Y581687
X880699Y585821
X878337Y588577
X875581Y591136
X872871Y592624
X871250Y587986
X868737Y589081
X866966Y587310
X869872Y584049
X872328Y580672
X875581Y579325
X877746Y581687
X875975Y583655
X874203Y585427
X867554Y579489
X865339Y581729
X863275Y583884
X856270Y582799
X850561Y588114
X829826Y603092
X827661Y601124
X825298Y598761
X822346Y596005
X819787Y593643
X817621Y591478
X813881Y596202
X816046Y598368
X818606Y600730
X821558Y603486
X823920Y605848
X826086Y607816
X841440Y623171
X841440Y625336
X844983Y626911
X847543Y629273
X850495Y632029
X852857Y634391
X855023Y636360
X858763Y631635
X856598Y629667
X854235Y627305
X851283Y624549
X848724Y622187
X846558Y620021
X847346Y618053
X876250Y602091
X877037Y598154
X873179Y576536
X882471Y539620
X880699Y535486
X878337Y532730
X875581Y530171
X872871Y528683
X873494Y520791
X868179Y515083
X854023Y495759
X855992Y493593
X858157Y491428
X860322Y489263
X862685Y486704
X865441Y483751
X867803Y481389
X863078Y477648
X860716Y480011
X857960Y482963
X855598Y485523
X853433Y487688
X851267Y489853
X849299Y492019
X831976Y508554
X830007Y510719
X827645Y513082
X824889Y516034
X822527Y518593
X820362Y520759
X818196Y522924
X816228Y525089
X820952Y528830
X822921Y526664
X825086Y524499
X827252Y522334
X829614Y519774
X832370Y516822
X834732Y514460
X836700Y512294
X950677Y608357
X954614Y605011
X955795Y603239
X957960Y601074
X960322Y598515
X963078Y595562
X965441Y593200
X967409Y591034
X970165Y596940
X967803Y599302
X965047Y602255
X962685Y604814
X960519Y606979
X958354Y609145
X956385Y611310
X1017589Y442445
X1025463Y186539
X1025463Y178665
X1025463Y170791
X1025463Y162917
X1025463Y155043
X1025463Y147169
X1025463Y147169
X1005778Y25122
X798297Y119217
X797707Y121579
X669360Y177681
X629597Y177878
X612639Y154129
X613855Y151680
X610502Y121382
X571132Y120791
X531762Y121185
X550266Y177287
X590226Y177484
X654006Y120791
X471919Y177878
X432156Y178272
X417195Y153862
X419163Y151697
X414439Y120791
X373888Y121185
X334321Y121972
X353809Y177878
X392786Y178075
X452234Y120791
X472506Y450253
X452821Y985686
X49085Y1178665
X41211Y1178665
X33337Y1178665
X25463Y1178665
X17589Y1178665
X9715Y1178665
X9715Y1170791
X28825Y1159496
X1025463Y1170791
X1025463Y1178665
T03
X200452Y203576
X197352Y203576
X194252Y203576
X194252Y200476
X194252Y197376
X197352Y197376
X197352Y200476
X200452Y200476
X200452Y197376
X199232Y89009
X199232Y85909
X199232Y82809
X196132Y82809
X193032Y82809
X193032Y85909
X196132Y85909
X196132Y89009
X193032Y89009
T04
X416408Y137917
X420541Y141461
X420345Y144217
X416014Y146776
X416014Y149335
X417589Y161343
X428612Y160752
X438652Y160752
X438848Y145201
X428612Y141461
X600660Y139689
X613061Y146185
X617589Y143823
X617786Y141067
X624478Y142051
X634321Y145791
X634518Y160949
X623691Y160949
X613258Y161146
X757746Y131421
X758730Y122169
X778612Y122366
X786486Y123744
X789242Y118823
X791604Y118823
X796723Y124138
X804793Y117051
X809321Y123941
X778809Y131224
X884911Y351500
X894754Y418429
X863652Y510555
X866703Y512031
X873100Y517150
X866211Y524925
X863652Y527976
X860797Y530732
X857943Y527780
X860699Y525122
X863258Y521776
X860404Y519217
X857352Y521677
X854695Y524630
X851348Y537228
X852530Y541854
X890030Y556618
X890030Y560752
X894557Y560752
X895443Y556520
X900660Y556520
X900660Y560555
X900660Y564984
X895345Y565280
X890030Y565280
X863455Y592642
X866211Y595496
X863258Y598350
X860600Y595594
X857254Y593035
X854695Y595890
X857156Y598941
X860108Y601598
X860404Y590083
X852037Y583882
X846230Y589197
X846034Y592642
X873494Y604551
X925167Y595791
X927726Y592740
X930581Y589984
X933435Y592937
X930679Y595594
X928120Y598941
X930974Y601500
X934026Y599039
X936683Y596087
X936880Y584669
X927726Y610161
X931073Y530831
X928022Y528272
X925266Y525417
X928219Y522563
X930876Y525319
X934223Y527878
X936782Y525024
X934321Y521972
X931368Y519315
X919262Y517937
X915325Y518429
X945443Y528272
X1001053Y528665
X789242Y486146
X729793Y485358
X693573Y470791
X646230Y528370
X644557Y531421
X637569Y525122
X635010Y527976
X631663Y525417
X629006Y522661
X626053Y525516
X628809Y528370
X631860Y530929
X635108Y522071
X632156Y519413
X620246Y519118
X615719Y518429
X601447Y556421
X601447Y560457
X601447Y564886
X596132Y565181
X595345Y560654
X596230Y556421
X590817Y556520
X590817Y560654
X590817Y565181
X564242Y592740
X566998Y595594
X564045Y598449
X561388Y595693
X558041Y593134
X555482Y595988
X557943Y599039
X560896Y601697
X572411Y601894
X577530Y603272
X561191Y590181
X551545Y583390
X546526Y589197
X546821Y592740
X555286Y536146
X561585Y530831
X564439Y528075
X566998Y525024
X564045Y521874
X561191Y519315
X558140Y521776
X555482Y524728
X558730Y527878
X561486Y525220
X564439Y510654
X586093Y442839
X607746Y363311
X579793Y359374
X500660Y470398
X625955Y595890
X628514Y592839
X631368Y590083
X634223Y593035
X631467Y595693
X628908Y599039
X631762Y601598
X634813Y599138
X637471Y596185
X637667Y584768
X639439Y579650
X618967Y603272
X624183Y608980
X628514Y610260
X491211Y637720
X415226Y712130
X405384Y706224
X510502Y774728
X558041Y821087
X561093Y818626
X563947Y821185
X561388Y824531
X558632Y827189
X561486Y830142
X564341Y827386
X566900Y824335
X555384Y824039
X555187Y835457
X564341Y809965
X591112Y855437
X591112Y859866
X591112Y863902
X596329Y863902
X597215Y859669
X601742Y859669
X601742Y863803
X601742Y855142
X596427Y855142
X625856Y824630
X628612Y827484
X631663Y830043
X634813Y827091
X637372Y824236
X634911Y821185
X631959Y818528
X628809Y821776
X631467Y824531
X620246Y818331
X646034Y827484
X637569Y884079
X631270Y889394
X628415Y892150
X625856Y895201
X628809Y898350
X631663Y900909
X634715Y898449
X637372Y895496
X634124Y892346
X631368Y895004
X628415Y909571
X679793Y942839
X638455Y978272
X603022Y1009374
X586486Y1009374
X503415Y940476
X546624Y891854
X555286Y895102
X557845Y892248
X561191Y894807
X563848Y897563
X566801Y894709
X564045Y891854
X560994Y889295
X557746Y898154
X560699Y900811
X572411Y901008
X493573Y866067
X395541Y855831
X271132Y856618
X255974Y856126
X251348Y855929
X255974Y848055
X231171Y846972
X154400Y814787
X150561Y814787
X150660Y810654
X154597Y810555
X154400Y806618
X150463Y806618
X150561Y802583
X154301Y802287
X146132Y802583
X146230Y806520
X141998Y806520
X142195Y802484
X141998Y811047
X141998Y814984
X145837Y814886
X145935Y810949
X119852Y798055
X113750Y801303
X101348Y815870
X78711Y802780
X68868Y819906
X90620Y840575
X103120Y782799
X229006Y635752
X229006Y631618
X233534Y631618
X233534Y635752
X239636Y635752
X239439Y631618
X244163Y631618
X244163Y635752
X244163Y625319
X239833Y625516
X240030Y620988
X243967Y620988
X233927Y621185
X233730Y625319
X229203Y625122
X229203Y621185
X229990Y582898
X226250Y578862
X223691Y577386
X234911Y576008
X238160Y575909
X238160Y572268
X234911Y572465
X245738Y574925
X245640Y578862
X241703Y582898
X242195Y547465
X246132Y543429
X246230Y539492
X238652Y540476
X235404Y540575
X235404Y537031
X238652Y536835
X231959Y547366
X226742Y543429
X224183Y541953
X255679Y525516
X693967Y795594
X782943Y778665
X854498Y824236
X857156Y821283
X860207Y818823
X863061Y821382
X860502Y824728
X857746Y827386
X860600Y830339
X863455Y827583
X866014Y824531
X863455Y810161
X853711Y835850
X890325Y855437
X890325Y859866
X890325Y863902
X895541Y863902
X896427Y859669
X900955Y859669
X900955Y863803
X900955Y855142
X895640Y855142
X924971Y824827
X927726Y827681
X930778Y830240
X933927Y827287
X936486Y824433
X934026Y821382
X931073Y818724
X927923Y821972
X930581Y824728
X919163Y817937
X937963Y836638
X943868Y831717
X945148Y827681
X937766Y883587
X930384Y889591
X927530Y892346
X924971Y895398
X927923Y898547
X930778Y901106
X933829Y898646
X936486Y895693
X933238Y892543
X930482Y895201
X924085Y908291
X927530Y909768
X918278Y903370
X871526Y901205
X865915Y894906
X863160Y892051
X860108Y889492
X856959Y892445
X854400Y895299
X856860Y898350
X859813Y901008
X862963Y897760
X860305Y895004
X845738Y892051
X808927Y929453
X824282Y959374
X858927Y1027091
X872707Y1045988
X968376Y957799
X1003809Y959374
X1001053Y931421
X783730Y641657
T05
X797116Y619217
X835502Y656421
X840817Y770988
X808730Y805437
X797707Y907209
X840226Y949925
X946526Y954256
X984911Y916657
X988652Y805240
X953612Y770988
X947707Y656618
X986289Y616461
X992392Y509768
X954990Y471972
X840817Y466067
X805187Y502878
X691801Y507012
X656762Y471185
X595935Y507799
X538848Y465870
X502037Y502287
X495935Y495004
X497116Y616067
X536880Y655240
X547510Y762720
X504006Y800122
X503809Y907799
X539045Y945201
X644163Y949925
X682156Y914098
X687667Y811539
X652431Y774728
X655187Y654650
X697313Y616067
X661910Y300832
X654981Y300725
X670758Y297794
X726118Y295598
X805458Y299355
X815590Y302579
X823112Y302732
X345307Y369531
X345307Y375437
X345307Y393154
X348536Y395122
X345307Y404965
X348536Y406933
X345307Y408902
X345307Y436461
X348536Y438429
X325305Y450557
X323337Y453786
X321368Y450557
X293809Y450557
X289872Y450557
X280030Y450557
X278061Y453786
X276093Y450557
X274124Y453786
X272156Y450557
X270187Y453786
X252154Y430555
X248925Y428587
X252154Y426618
X248925Y424650
X252154Y422681
X252154Y412839
X248925Y410870
X252154Y408902
X248925Y406933
X252154Y404965
X248925Y402996
X252154Y401028
X248925Y391185
X252154Y389217
X264282Y357404
X272156Y357404
X278061Y357404
X281998Y357404
X291841Y354175
X293809Y357404
X295778Y354175
X297746Y357404
X299715Y354175
X301683Y357404
X311526Y354175
X313494Y357404
X323337Y354175
X325305Y357404
X112864Y611146
X105974Y611146
X97313Y607209
X52037Y603665
X42392Y708390
X41900Y718823
X41506Y728665
X41309Y739098
X149577Y739787
X168376Y732898
X158238Y702878
X153809Y703075
X162187Y759517
X165181Y762411
X235148Y759708
X238071Y756924
X245640Y726008
X250463Y692740
X254006Y692839
X280974Y675220
X280974Y671480
X281171Y667543
X326644Y905043
X371919Y944413
T06
X390915Y884669
X397510Y884669
X405482Y880634
X390719Y530535
X396132Y530339
X403514Y526008
X740345Y705594
X740345Y710319
X740345Y714846
X744872Y714650
X749400Y714650
X749203Y710319
X744872Y710122
X745069Y705201
X749203Y705594
X179597Y141657
X171132Y138508
X161880Y140673
X153219Y137327
X51250Y96579
X43967Y37720
T07
X664636Y1135161
X671919Y1135358
X680778Y1130634
X760896Y1142642
X812274Y1132209
X821919Y1136539
X829400Y1136933
T08
X308691Y621170
X308691Y616170
X301841Y706953
X301841Y711953
T09
X306841Y714453
X306841Y704453
X296841Y704453
X296841Y714453
X303691Y623670
X303691Y613670
X313691Y613670
X313691Y623670
T10
X26644Y800555
X26644Y817878
X26762Y433626
X26762Y416303
T11
X23573Y348626
X23573Y338626
X25266Y238705
X25266Y228705
X25345Y192524
X25345Y182524
X101959Y176500
X111959Y176500
X161014Y176500
X171014Y176500
X219282Y176697
X229282Y176697
X228888Y118429
X218888Y118429
X170226Y117642
X160226Y117642
X111171Y117642
X101171Y117642
X101171Y58587
X111171Y58587
X160226Y58587
X170226Y58587
X218888Y59374
X228888Y59374
X277943Y59374
X287943Y59374
X330954Y80328
X340954Y80328
X350954Y80328
X369728Y80010
X379728Y80010
X389728Y80010
X409412Y79703
X419412Y79703
X429412Y79703
X447944Y79942
X457944Y79942
X467944Y79942
X527441Y80345
X537441Y80345
X547441Y80345
X566712Y80555
X576712Y80555
X586712Y80555
X606046Y79708
X616046Y79708
X626046Y79708
X645054Y80122
X655054Y80122
X665054Y80122
X664969Y217852
X654969Y217852
X644969Y217852
X625663Y217849
X615663Y217849
X605663Y217849
X586764Y217845
X576764Y217845
X566764Y217845
X547034Y217994
X537034Y217994
X527034Y217994
X468617Y218036
X458617Y218036
X448617Y218036
X429181Y218437
X419181Y218437
X409181Y218437
X389141Y218326
X379141Y218326
X369141Y218326
X349931Y218363
X339931Y218363
X329931Y218363
X288337Y235752
X278337Y235752
X229282Y235752
X219282Y235752
X171014Y235555
X161014Y235555
X111959Y235555
X101959Y235555
X25266Y73902
X25266Y63902
X277943Y118429
X287943Y118429
X288337Y176697
X278337Y176697
X485226Y363587
X495226Y363587
X447411Y539197
X348199Y847760
X380778Y891165
X348297Y964098
X467313Y1099059
X477313Y1099059
X711014Y1090476
X721014Y1090476
X752352Y1090476
X762352Y1090476
X796289Y1092957
X806289Y1092957
X745187Y1126028
X735187Y1126028
X956171Y1096106
X966171Y1096106
X977746Y429610
X977746Y419610
X977431Y398232
X977431Y388232
X976171Y312720
X976171Y302720
X976368Y249492
X976368Y239492
X976368Y179492
X976368Y169492
X749045Y311618
X739045Y311618
X735463Y359650
X745463Y359650
X27510Y553823
X27510Y563823
X24360Y611539
X24360Y621539
X23809Y646736
X23809Y656736
X24360Y675791
X24360Y685791
X29478Y867681
X29478Y877681
X23967Y995122
X23967Y1005122
T12
X27589Y742563
X27589Y732563
X27589Y722563
X27589Y712563
X17589Y712563
X17589Y722563
X17589Y732563
X17589Y742563
X197746Y503114
X197746Y493114
X197746Y483114
X197746Y473114
X197746Y463114
X197746Y453114
X197746Y443114
X197746Y433114
X197746Y423114
X197746Y413114
X207746Y413114
X207746Y423114
X207746Y433114
X207746Y443114
X207746Y453114
X207746Y463114
X207746Y473114
X207746Y483114
X207746Y493114
X207746Y503114
X255423Y495122
X265423Y495122
X275423Y495122
X212116Y372051
X202116Y372051
X192116Y372051
X182116Y372051
X172116Y372051
X162116Y372051
X152116Y372051
X142116Y372051
X142471Y342051
X152471Y342051
X161762Y319886
X171762Y319886
X181762Y319886
X191762Y319886
X201762Y319886
X211762Y319886
X211526Y344098
X201526Y344098
X191526Y344098
X181526Y344098
X132471Y342051
X122471Y342051
X236959Y320358
X236959Y310358
X236959Y300358
X236959Y290358
X261368Y300201
X261368Y310201
X261368Y320201
X283219Y319925
X283219Y309925
X283219Y299925
X304833Y310358
X314833Y310358
X324833Y310358
X334833Y310358
X344833Y310358
X354833Y310358
X364833Y310358
X364833Y320358
X354833Y320358
X344833Y320358
X334833Y320358
X324833Y320358
X314833Y320358
X304833Y320358
X408730Y365437
X408730Y375437
X408730Y385437
X408730Y395437
X408730Y405437
X408730Y415437
X418730Y415437
X418730Y405437
X418730Y395437
X418730Y385437
X418730Y375437
X418730Y365437
X727510Y209177
X727510Y199177
X727510Y189177
X747982Y189098
X747982Y199098
X747982Y209098
X768848Y208154
X768848Y198154
X768848Y188154
X788730Y187839
X788730Y197839
X788730Y207839
X810384Y208272
X810384Y198272
X810384Y188272
X831447Y188232
X831447Y198232
X831447Y208232
X851919Y208862
X851919Y198862
X851919Y188862
X871408Y188902
X871408Y198902
X871408Y208902
X314833Y750437
X314833Y760437
T13
X279597Y760161
X279597Y780161
X259597Y780161
X259597Y760161
X259557Y743390
X259557Y723390
X279557Y723390
X279557Y743390
X320581Y864768
X320581Y884768
X340581Y884768
X340581Y864768
X220502Y869650
X220502Y889650
X200502Y889650
X200502Y869650
X321486Y550280
X341486Y550280
X341486Y530280
X321486Y530280
X498328Y588665
X512471Y574523
X526613Y588665
X512471Y602807
X548407Y638469
X562549Y624326
X576691Y638469
X562549Y652611
X614982Y639059
X629124Y624917
X643266Y639059
X629124Y653201
X673455Y609697
X687597Y595555
X673455Y581413
X659313Y595555
X676250Y545800
X662108Y531657
X676250Y517515
X690392Y531657
X642951Y484217
X628809Y470074
X614667Y484217
X628809Y498359
X581731Y478547
X567589Y464405
X553447Y478547
X567589Y492689
X532400Y527445
X518258Y541587
X504116Y527445
X518258Y513303
X574439Y763893
X588581Y778035
X574439Y792178
X560297Y778035
X521683Y816846
X507541Y830988
X521683Y845130
X535825Y830988
X514208Y867285
X528350Y881428
X514208Y895570
X500066Y881428
X553644Y934649
X567786Y920507
X581928Y934649
X567786Y948791
X603958Y941028
X618100Y955170
X632243Y941028
X618100Y926885
X657147Y887878
X671289Y902020
X685432Y887878
X671289Y873736
X678258Y852099
X664116Y837957
X678258Y823815
X692400Y837957
X639369Y784531
X625226Y770389
X611084Y784531
X625226Y798674
X805612Y830476
X819754Y816334
X833896Y830476
X819754Y844619
X813455Y866925
X827597Y881067
X813455Y895209
X799313Y881067
X852462Y934610
X866604Y920468
X880747Y934610
X866604Y948752
X905021Y942878
X919163Y957020
X933306Y942878
X919163Y928736
X958368Y889728
X972510Y903870
X986652Y889728
X972510Y875586
X979400Y848752
X993542Y834610
X979400Y820468
X965258Y834610
X926801Y796036
X940943Y781894
X926801Y767752
X912659Y781894
X881495Y782406
X867352Y796548
X853210Y782406
X867352Y768263
X859911Y651508
X845769Y637366
X859911Y623224
X874054Y637366
X909470Y640122
X923612Y654264
X937754Y640122
X923612Y625980
X958013Y592130
X972156Y606272
X986298Y592130
X972156Y577988
X972116Y543831
X957974Y529689
X972116Y515547
X986258Y529689
X942400Y485201
X928258Y471059
X914116Y485201
X928258Y499343
X881888Y477602
X867746Y463460
X853604Y477602
X867746Y491744
X832991Y526382
X818848Y540524
X804706Y526382
X818848Y512240
X813061Y576767
X798919Y590909
X813061Y605052
X827203Y590909
T14
X531368Y259374
X429400Y262524
X558927Y29059
X121992Y620994
T15
X462471Y450319
X21526Y17248
X462471Y985752
X21526Y1166854
X1013652Y1166854
X1013652Y985752
X1013652Y450319
X1013652Y17248
M30
