G75*
%MOIN*%
%OFA0B0*%
%FSLAX25Y25*%
%IPPOS*%
%LPD*%
%AMOC8*
5,1,8,0,0,1.08239X$1,22.5*
%
%ADD10C,0.00000*%
D10*
X0005778Y0001500D02*
X0005778Y1182602D01*
X1029400Y1182602D01*
X1029400Y0001500D01*
X0005778Y0001500D01*
X0015227Y0017248D02*
X0015229Y0017406D01*
X0015235Y0017564D01*
X0015245Y0017722D01*
X0015259Y0017880D01*
X0015277Y0018037D01*
X0015298Y0018194D01*
X0015324Y0018350D01*
X0015354Y0018506D01*
X0015387Y0018661D01*
X0015425Y0018814D01*
X0015466Y0018967D01*
X0015511Y0019119D01*
X0015560Y0019270D01*
X0015613Y0019419D01*
X0015669Y0019567D01*
X0015729Y0019713D01*
X0015793Y0019858D01*
X0015861Y0020001D01*
X0015932Y0020143D01*
X0016006Y0020283D01*
X0016084Y0020420D01*
X0016166Y0020556D01*
X0016250Y0020690D01*
X0016339Y0020821D01*
X0016430Y0020950D01*
X0016525Y0021077D01*
X0016622Y0021202D01*
X0016723Y0021324D01*
X0016827Y0021443D01*
X0016934Y0021560D01*
X0017044Y0021674D01*
X0017157Y0021785D01*
X0017272Y0021894D01*
X0017390Y0021999D01*
X0017511Y0022101D01*
X0017634Y0022201D01*
X0017760Y0022297D01*
X0017888Y0022390D01*
X0018018Y0022480D01*
X0018151Y0022566D01*
X0018286Y0022650D01*
X0018422Y0022729D01*
X0018561Y0022806D01*
X0018702Y0022878D01*
X0018844Y0022948D01*
X0018988Y0023013D01*
X0019134Y0023075D01*
X0019281Y0023133D01*
X0019430Y0023188D01*
X0019580Y0023239D01*
X0019731Y0023286D01*
X0019883Y0023329D01*
X0020036Y0023368D01*
X0020191Y0023404D01*
X0020346Y0023435D01*
X0020502Y0023463D01*
X0020658Y0023487D01*
X0020815Y0023507D01*
X0020973Y0023523D01*
X0021130Y0023535D01*
X0021289Y0023543D01*
X0021447Y0023547D01*
X0021605Y0023547D01*
X0021763Y0023543D01*
X0021922Y0023535D01*
X0022079Y0023523D01*
X0022237Y0023507D01*
X0022394Y0023487D01*
X0022550Y0023463D01*
X0022706Y0023435D01*
X0022861Y0023404D01*
X0023016Y0023368D01*
X0023169Y0023329D01*
X0023321Y0023286D01*
X0023472Y0023239D01*
X0023622Y0023188D01*
X0023771Y0023133D01*
X0023918Y0023075D01*
X0024064Y0023013D01*
X0024208Y0022948D01*
X0024350Y0022878D01*
X0024491Y0022806D01*
X0024630Y0022729D01*
X0024766Y0022650D01*
X0024901Y0022566D01*
X0025034Y0022480D01*
X0025164Y0022390D01*
X0025292Y0022297D01*
X0025418Y0022201D01*
X0025541Y0022101D01*
X0025662Y0021999D01*
X0025780Y0021894D01*
X0025895Y0021785D01*
X0026008Y0021674D01*
X0026118Y0021560D01*
X0026225Y0021443D01*
X0026329Y0021324D01*
X0026430Y0021202D01*
X0026527Y0021077D01*
X0026622Y0020950D01*
X0026713Y0020821D01*
X0026802Y0020690D01*
X0026886Y0020556D01*
X0026968Y0020420D01*
X0027046Y0020283D01*
X0027120Y0020143D01*
X0027191Y0020001D01*
X0027259Y0019858D01*
X0027323Y0019713D01*
X0027383Y0019567D01*
X0027439Y0019419D01*
X0027492Y0019270D01*
X0027541Y0019119D01*
X0027586Y0018967D01*
X0027627Y0018814D01*
X0027665Y0018661D01*
X0027698Y0018506D01*
X0027728Y0018350D01*
X0027754Y0018194D01*
X0027775Y0018037D01*
X0027793Y0017880D01*
X0027807Y0017722D01*
X0027817Y0017564D01*
X0027823Y0017406D01*
X0027825Y0017248D01*
X0027823Y0017090D01*
X0027817Y0016932D01*
X0027807Y0016774D01*
X0027793Y0016616D01*
X0027775Y0016459D01*
X0027754Y0016302D01*
X0027728Y0016146D01*
X0027698Y0015990D01*
X0027665Y0015835D01*
X0027627Y0015682D01*
X0027586Y0015529D01*
X0027541Y0015377D01*
X0027492Y0015226D01*
X0027439Y0015077D01*
X0027383Y0014929D01*
X0027323Y0014783D01*
X0027259Y0014638D01*
X0027191Y0014495D01*
X0027120Y0014353D01*
X0027046Y0014213D01*
X0026968Y0014076D01*
X0026886Y0013940D01*
X0026802Y0013806D01*
X0026713Y0013675D01*
X0026622Y0013546D01*
X0026527Y0013419D01*
X0026430Y0013294D01*
X0026329Y0013172D01*
X0026225Y0013053D01*
X0026118Y0012936D01*
X0026008Y0012822D01*
X0025895Y0012711D01*
X0025780Y0012602D01*
X0025662Y0012497D01*
X0025541Y0012395D01*
X0025418Y0012295D01*
X0025292Y0012199D01*
X0025164Y0012106D01*
X0025034Y0012016D01*
X0024901Y0011930D01*
X0024766Y0011846D01*
X0024630Y0011767D01*
X0024491Y0011690D01*
X0024350Y0011618D01*
X0024208Y0011548D01*
X0024064Y0011483D01*
X0023918Y0011421D01*
X0023771Y0011363D01*
X0023622Y0011308D01*
X0023472Y0011257D01*
X0023321Y0011210D01*
X0023169Y0011167D01*
X0023016Y0011128D01*
X0022861Y0011092D01*
X0022706Y0011061D01*
X0022550Y0011033D01*
X0022394Y0011009D01*
X0022237Y0010989D01*
X0022079Y0010973D01*
X0021922Y0010961D01*
X0021763Y0010953D01*
X0021605Y0010949D01*
X0021447Y0010949D01*
X0021289Y0010953D01*
X0021130Y0010961D01*
X0020973Y0010973D01*
X0020815Y0010989D01*
X0020658Y0011009D01*
X0020502Y0011033D01*
X0020346Y0011061D01*
X0020191Y0011092D01*
X0020036Y0011128D01*
X0019883Y0011167D01*
X0019731Y0011210D01*
X0019580Y0011257D01*
X0019430Y0011308D01*
X0019281Y0011363D01*
X0019134Y0011421D01*
X0018988Y0011483D01*
X0018844Y0011548D01*
X0018702Y0011618D01*
X0018561Y0011690D01*
X0018422Y0011767D01*
X0018286Y0011846D01*
X0018151Y0011930D01*
X0018018Y0012016D01*
X0017888Y0012106D01*
X0017760Y0012199D01*
X0017634Y0012295D01*
X0017511Y0012395D01*
X0017390Y0012497D01*
X0017272Y0012602D01*
X0017157Y0012711D01*
X0017044Y0012822D01*
X0016934Y0012936D01*
X0016827Y0013053D01*
X0016723Y0013172D01*
X0016622Y0013294D01*
X0016525Y0013419D01*
X0016430Y0013546D01*
X0016339Y0013675D01*
X0016250Y0013806D01*
X0016166Y0013940D01*
X0016084Y0014076D01*
X0016006Y0014213D01*
X0015932Y0014353D01*
X0015861Y0014495D01*
X0015793Y0014638D01*
X0015729Y0014783D01*
X0015669Y0014929D01*
X0015613Y0015077D01*
X0015560Y0015226D01*
X0015511Y0015377D01*
X0015466Y0015529D01*
X0015425Y0015682D01*
X0015387Y0015835D01*
X0015354Y0015990D01*
X0015324Y0016146D01*
X0015298Y0016302D01*
X0015277Y0016459D01*
X0015259Y0016616D01*
X0015245Y0016774D01*
X0015235Y0016932D01*
X0015229Y0017090D01*
X0015227Y0017248D01*
X0024990Y0416303D02*
X0024992Y0416387D01*
X0024998Y0416470D01*
X0025008Y0416553D01*
X0025022Y0416636D01*
X0025039Y0416718D01*
X0025061Y0416799D01*
X0025086Y0416878D01*
X0025115Y0416957D01*
X0025148Y0417034D01*
X0025184Y0417109D01*
X0025224Y0417183D01*
X0025267Y0417255D01*
X0025314Y0417324D01*
X0025364Y0417391D01*
X0025417Y0417456D01*
X0025473Y0417518D01*
X0025531Y0417578D01*
X0025593Y0417635D01*
X0025657Y0417688D01*
X0025724Y0417739D01*
X0025793Y0417786D01*
X0025864Y0417831D01*
X0025937Y0417871D01*
X0026012Y0417908D01*
X0026089Y0417942D01*
X0026167Y0417972D01*
X0026246Y0417998D01*
X0026327Y0418021D01*
X0026409Y0418039D01*
X0026491Y0418054D01*
X0026574Y0418065D01*
X0026657Y0418072D01*
X0026741Y0418075D01*
X0026825Y0418074D01*
X0026908Y0418069D01*
X0026992Y0418060D01*
X0027074Y0418047D01*
X0027156Y0418031D01*
X0027237Y0418010D01*
X0027318Y0417986D01*
X0027396Y0417958D01*
X0027474Y0417926D01*
X0027550Y0417890D01*
X0027624Y0417851D01*
X0027696Y0417809D01*
X0027766Y0417763D01*
X0027834Y0417714D01*
X0027899Y0417662D01*
X0027962Y0417607D01*
X0028022Y0417549D01*
X0028080Y0417488D01*
X0028134Y0417424D01*
X0028186Y0417358D01*
X0028234Y0417290D01*
X0028279Y0417219D01*
X0028320Y0417146D01*
X0028359Y0417072D01*
X0028393Y0416996D01*
X0028424Y0416918D01*
X0028451Y0416839D01*
X0028475Y0416758D01*
X0028494Y0416677D01*
X0028510Y0416595D01*
X0028522Y0416512D01*
X0028530Y0416428D01*
X0028534Y0416345D01*
X0028534Y0416261D01*
X0028530Y0416178D01*
X0028522Y0416094D01*
X0028510Y0416011D01*
X0028494Y0415929D01*
X0028475Y0415848D01*
X0028451Y0415767D01*
X0028424Y0415688D01*
X0028393Y0415610D01*
X0028359Y0415534D01*
X0028320Y0415460D01*
X0028279Y0415387D01*
X0028234Y0415316D01*
X0028186Y0415248D01*
X0028134Y0415182D01*
X0028080Y0415118D01*
X0028022Y0415057D01*
X0027962Y0414999D01*
X0027899Y0414944D01*
X0027834Y0414892D01*
X0027766Y0414843D01*
X0027696Y0414797D01*
X0027624Y0414755D01*
X0027550Y0414716D01*
X0027474Y0414680D01*
X0027396Y0414648D01*
X0027318Y0414620D01*
X0027237Y0414596D01*
X0027156Y0414575D01*
X0027074Y0414559D01*
X0026992Y0414546D01*
X0026908Y0414537D01*
X0026825Y0414532D01*
X0026741Y0414531D01*
X0026657Y0414534D01*
X0026574Y0414541D01*
X0026491Y0414552D01*
X0026409Y0414567D01*
X0026327Y0414585D01*
X0026246Y0414608D01*
X0026167Y0414634D01*
X0026089Y0414664D01*
X0026012Y0414698D01*
X0025937Y0414735D01*
X0025864Y0414775D01*
X0025793Y0414820D01*
X0025724Y0414867D01*
X0025657Y0414918D01*
X0025593Y0414971D01*
X0025531Y0415028D01*
X0025473Y0415088D01*
X0025417Y0415150D01*
X0025364Y0415215D01*
X0025314Y0415282D01*
X0025267Y0415351D01*
X0025224Y0415423D01*
X0025184Y0415497D01*
X0025148Y0415572D01*
X0025115Y0415649D01*
X0025086Y0415728D01*
X0025061Y0415807D01*
X0025039Y0415888D01*
X0025022Y0415970D01*
X0025008Y0416053D01*
X0024998Y0416136D01*
X0024992Y0416219D01*
X0024990Y0416303D01*
X0024990Y0433626D02*
X0024992Y0433710D01*
X0024998Y0433793D01*
X0025008Y0433876D01*
X0025022Y0433959D01*
X0025039Y0434041D01*
X0025061Y0434122D01*
X0025086Y0434201D01*
X0025115Y0434280D01*
X0025148Y0434357D01*
X0025184Y0434432D01*
X0025224Y0434506D01*
X0025267Y0434578D01*
X0025314Y0434647D01*
X0025364Y0434714D01*
X0025417Y0434779D01*
X0025473Y0434841D01*
X0025531Y0434901D01*
X0025593Y0434958D01*
X0025657Y0435011D01*
X0025724Y0435062D01*
X0025793Y0435109D01*
X0025864Y0435154D01*
X0025937Y0435194D01*
X0026012Y0435231D01*
X0026089Y0435265D01*
X0026167Y0435295D01*
X0026246Y0435321D01*
X0026327Y0435344D01*
X0026409Y0435362D01*
X0026491Y0435377D01*
X0026574Y0435388D01*
X0026657Y0435395D01*
X0026741Y0435398D01*
X0026825Y0435397D01*
X0026908Y0435392D01*
X0026992Y0435383D01*
X0027074Y0435370D01*
X0027156Y0435354D01*
X0027237Y0435333D01*
X0027318Y0435309D01*
X0027396Y0435281D01*
X0027474Y0435249D01*
X0027550Y0435213D01*
X0027624Y0435174D01*
X0027696Y0435132D01*
X0027766Y0435086D01*
X0027834Y0435037D01*
X0027899Y0434985D01*
X0027962Y0434930D01*
X0028022Y0434872D01*
X0028080Y0434811D01*
X0028134Y0434747D01*
X0028186Y0434681D01*
X0028234Y0434613D01*
X0028279Y0434542D01*
X0028320Y0434469D01*
X0028359Y0434395D01*
X0028393Y0434319D01*
X0028424Y0434241D01*
X0028451Y0434162D01*
X0028475Y0434081D01*
X0028494Y0434000D01*
X0028510Y0433918D01*
X0028522Y0433835D01*
X0028530Y0433751D01*
X0028534Y0433668D01*
X0028534Y0433584D01*
X0028530Y0433501D01*
X0028522Y0433417D01*
X0028510Y0433334D01*
X0028494Y0433252D01*
X0028475Y0433171D01*
X0028451Y0433090D01*
X0028424Y0433011D01*
X0028393Y0432933D01*
X0028359Y0432857D01*
X0028320Y0432783D01*
X0028279Y0432710D01*
X0028234Y0432639D01*
X0028186Y0432571D01*
X0028134Y0432505D01*
X0028080Y0432441D01*
X0028022Y0432380D01*
X0027962Y0432322D01*
X0027899Y0432267D01*
X0027834Y0432215D01*
X0027766Y0432166D01*
X0027696Y0432120D01*
X0027624Y0432078D01*
X0027550Y0432039D01*
X0027474Y0432003D01*
X0027396Y0431971D01*
X0027318Y0431943D01*
X0027237Y0431919D01*
X0027156Y0431898D01*
X0027074Y0431882D01*
X0026992Y0431869D01*
X0026908Y0431860D01*
X0026825Y0431855D01*
X0026741Y0431854D01*
X0026657Y0431857D01*
X0026574Y0431864D01*
X0026491Y0431875D01*
X0026409Y0431890D01*
X0026327Y0431908D01*
X0026246Y0431931D01*
X0026167Y0431957D01*
X0026089Y0431987D01*
X0026012Y0432021D01*
X0025937Y0432058D01*
X0025864Y0432098D01*
X0025793Y0432143D01*
X0025724Y0432190D01*
X0025657Y0432241D01*
X0025593Y0432294D01*
X0025531Y0432351D01*
X0025473Y0432411D01*
X0025417Y0432473D01*
X0025364Y0432538D01*
X0025314Y0432605D01*
X0025267Y0432674D01*
X0025224Y0432746D01*
X0025184Y0432820D01*
X0025148Y0432895D01*
X0025115Y0432972D01*
X0025086Y0433051D01*
X0025061Y0433130D01*
X0025039Y0433211D01*
X0025022Y0433293D01*
X0025008Y0433376D01*
X0024998Y0433459D01*
X0024992Y0433542D01*
X0024990Y0433626D01*
X0024872Y0800555D02*
X0024874Y0800639D01*
X0024880Y0800722D01*
X0024890Y0800805D01*
X0024904Y0800888D01*
X0024921Y0800970D01*
X0024943Y0801051D01*
X0024968Y0801130D01*
X0024997Y0801209D01*
X0025030Y0801286D01*
X0025066Y0801361D01*
X0025106Y0801435D01*
X0025149Y0801507D01*
X0025196Y0801576D01*
X0025246Y0801643D01*
X0025299Y0801708D01*
X0025355Y0801770D01*
X0025413Y0801830D01*
X0025475Y0801887D01*
X0025539Y0801940D01*
X0025606Y0801991D01*
X0025675Y0802038D01*
X0025746Y0802083D01*
X0025819Y0802123D01*
X0025894Y0802160D01*
X0025971Y0802194D01*
X0026049Y0802224D01*
X0026128Y0802250D01*
X0026209Y0802273D01*
X0026291Y0802291D01*
X0026373Y0802306D01*
X0026456Y0802317D01*
X0026539Y0802324D01*
X0026623Y0802327D01*
X0026707Y0802326D01*
X0026790Y0802321D01*
X0026874Y0802312D01*
X0026956Y0802299D01*
X0027038Y0802283D01*
X0027119Y0802262D01*
X0027200Y0802238D01*
X0027278Y0802210D01*
X0027356Y0802178D01*
X0027432Y0802142D01*
X0027506Y0802103D01*
X0027578Y0802061D01*
X0027648Y0802015D01*
X0027716Y0801966D01*
X0027781Y0801914D01*
X0027844Y0801859D01*
X0027904Y0801801D01*
X0027962Y0801740D01*
X0028016Y0801676D01*
X0028068Y0801610D01*
X0028116Y0801542D01*
X0028161Y0801471D01*
X0028202Y0801398D01*
X0028241Y0801324D01*
X0028275Y0801248D01*
X0028306Y0801170D01*
X0028333Y0801091D01*
X0028357Y0801010D01*
X0028376Y0800929D01*
X0028392Y0800847D01*
X0028404Y0800764D01*
X0028412Y0800680D01*
X0028416Y0800597D01*
X0028416Y0800513D01*
X0028412Y0800430D01*
X0028404Y0800346D01*
X0028392Y0800263D01*
X0028376Y0800181D01*
X0028357Y0800100D01*
X0028333Y0800019D01*
X0028306Y0799940D01*
X0028275Y0799862D01*
X0028241Y0799786D01*
X0028202Y0799712D01*
X0028161Y0799639D01*
X0028116Y0799568D01*
X0028068Y0799500D01*
X0028016Y0799434D01*
X0027962Y0799370D01*
X0027904Y0799309D01*
X0027844Y0799251D01*
X0027781Y0799196D01*
X0027716Y0799144D01*
X0027648Y0799095D01*
X0027578Y0799049D01*
X0027506Y0799007D01*
X0027432Y0798968D01*
X0027356Y0798932D01*
X0027278Y0798900D01*
X0027200Y0798872D01*
X0027119Y0798848D01*
X0027038Y0798827D01*
X0026956Y0798811D01*
X0026874Y0798798D01*
X0026790Y0798789D01*
X0026707Y0798784D01*
X0026623Y0798783D01*
X0026539Y0798786D01*
X0026456Y0798793D01*
X0026373Y0798804D01*
X0026291Y0798819D01*
X0026209Y0798837D01*
X0026128Y0798860D01*
X0026049Y0798886D01*
X0025971Y0798916D01*
X0025894Y0798950D01*
X0025819Y0798987D01*
X0025746Y0799027D01*
X0025675Y0799072D01*
X0025606Y0799119D01*
X0025539Y0799170D01*
X0025475Y0799223D01*
X0025413Y0799280D01*
X0025355Y0799340D01*
X0025299Y0799402D01*
X0025246Y0799467D01*
X0025196Y0799534D01*
X0025149Y0799603D01*
X0025106Y0799675D01*
X0025066Y0799749D01*
X0025030Y0799824D01*
X0024997Y0799901D01*
X0024968Y0799980D01*
X0024943Y0800059D01*
X0024921Y0800140D01*
X0024904Y0800222D01*
X0024890Y0800305D01*
X0024880Y0800388D01*
X0024874Y0800471D01*
X0024872Y0800555D01*
X0024872Y0817878D02*
X0024874Y0817962D01*
X0024880Y0818045D01*
X0024890Y0818128D01*
X0024904Y0818211D01*
X0024921Y0818293D01*
X0024943Y0818374D01*
X0024968Y0818453D01*
X0024997Y0818532D01*
X0025030Y0818609D01*
X0025066Y0818684D01*
X0025106Y0818758D01*
X0025149Y0818830D01*
X0025196Y0818899D01*
X0025246Y0818966D01*
X0025299Y0819031D01*
X0025355Y0819093D01*
X0025413Y0819153D01*
X0025475Y0819210D01*
X0025539Y0819263D01*
X0025606Y0819314D01*
X0025675Y0819361D01*
X0025746Y0819406D01*
X0025819Y0819446D01*
X0025894Y0819483D01*
X0025971Y0819517D01*
X0026049Y0819547D01*
X0026128Y0819573D01*
X0026209Y0819596D01*
X0026291Y0819614D01*
X0026373Y0819629D01*
X0026456Y0819640D01*
X0026539Y0819647D01*
X0026623Y0819650D01*
X0026707Y0819649D01*
X0026790Y0819644D01*
X0026874Y0819635D01*
X0026956Y0819622D01*
X0027038Y0819606D01*
X0027119Y0819585D01*
X0027200Y0819561D01*
X0027278Y0819533D01*
X0027356Y0819501D01*
X0027432Y0819465D01*
X0027506Y0819426D01*
X0027578Y0819384D01*
X0027648Y0819338D01*
X0027716Y0819289D01*
X0027781Y0819237D01*
X0027844Y0819182D01*
X0027904Y0819124D01*
X0027962Y0819063D01*
X0028016Y0818999D01*
X0028068Y0818933D01*
X0028116Y0818865D01*
X0028161Y0818794D01*
X0028202Y0818721D01*
X0028241Y0818647D01*
X0028275Y0818571D01*
X0028306Y0818493D01*
X0028333Y0818414D01*
X0028357Y0818333D01*
X0028376Y0818252D01*
X0028392Y0818170D01*
X0028404Y0818087D01*
X0028412Y0818003D01*
X0028416Y0817920D01*
X0028416Y0817836D01*
X0028412Y0817753D01*
X0028404Y0817669D01*
X0028392Y0817586D01*
X0028376Y0817504D01*
X0028357Y0817423D01*
X0028333Y0817342D01*
X0028306Y0817263D01*
X0028275Y0817185D01*
X0028241Y0817109D01*
X0028202Y0817035D01*
X0028161Y0816962D01*
X0028116Y0816891D01*
X0028068Y0816823D01*
X0028016Y0816757D01*
X0027962Y0816693D01*
X0027904Y0816632D01*
X0027844Y0816574D01*
X0027781Y0816519D01*
X0027716Y0816467D01*
X0027648Y0816418D01*
X0027578Y0816372D01*
X0027506Y0816330D01*
X0027432Y0816291D01*
X0027356Y0816255D01*
X0027278Y0816223D01*
X0027200Y0816195D01*
X0027119Y0816171D01*
X0027038Y0816150D01*
X0026956Y0816134D01*
X0026874Y0816121D01*
X0026790Y0816112D01*
X0026707Y0816107D01*
X0026623Y0816106D01*
X0026539Y0816109D01*
X0026456Y0816116D01*
X0026373Y0816127D01*
X0026291Y0816142D01*
X0026209Y0816160D01*
X0026128Y0816183D01*
X0026049Y0816209D01*
X0025971Y0816239D01*
X0025894Y0816273D01*
X0025819Y0816310D01*
X0025746Y0816350D01*
X0025675Y0816395D01*
X0025606Y0816442D01*
X0025539Y0816493D01*
X0025475Y0816546D01*
X0025413Y0816603D01*
X0025355Y0816663D01*
X0025299Y0816725D01*
X0025246Y0816790D01*
X0025196Y0816857D01*
X0025149Y0816926D01*
X0025106Y0816998D01*
X0025066Y0817072D01*
X0025030Y0817147D01*
X0024997Y0817224D01*
X0024968Y0817303D01*
X0024943Y0817382D01*
X0024921Y0817463D01*
X0024904Y0817545D01*
X0024890Y0817628D01*
X0024880Y0817711D01*
X0024874Y0817794D01*
X0024872Y0817878D01*
X0015227Y1166854D02*
X0015229Y1167012D01*
X0015235Y1167170D01*
X0015245Y1167328D01*
X0015259Y1167486D01*
X0015277Y1167643D01*
X0015298Y1167800D01*
X0015324Y1167956D01*
X0015354Y1168112D01*
X0015387Y1168267D01*
X0015425Y1168420D01*
X0015466Y1168573D01*
X0015511Y1168725D01*
X0015560Y1168876D01*
X0015613Y1169025D01*
X0015669Y1169173D01*
X0015729Y1169319D01*
X0015793Y1169464D01*
X0015861Y1169607D01*
X0015932Y1169749D01*
X0016006Y1169889D01*
X0016084Y1170026D01*
X0016166Y1170162D01*
X0016250Y1170296D01*
X0016339Y1170427D01*
X0016430Y1170556D01*
X0016525Y1170683D01*
X0016622Y1170808D01*
X0016723Y1170930D01*
X0016827Y1171049D01*
X0016934Y1171166D01*
X0017044Y1171280D01*
X0017157Y1171391D01*
X0017272Y1171500D01*
X0017390Y1171605D01*
X0017511Y1171707D01*
X0017634Y1171807D01*
X0017760Y1171903D01*
X0017888Y1171996D01*
X0018018Y1172086D01*
X0018151Y1172172D01*
X0018286Y1172256D01*
X0018422Y1172335D01*
X0018561Y1172412D01*
X0018702Y1172484D01*
X0018844Y1172554D01*
X0018988Y1172619D01*
X0019134Y1172681D01*
X0019281Y1172739D01*
X0019430Y1172794D01*
X0019580Y1172845D01*
X0019731Y1172892D01*
X0019883Y1172935D01*
X0020036Y1172974D01*
X0020191Y1173010D01*
X0020346Y1173041D01*
X0020502Y1173069D01*
X0020658Y1173093D01*
X0020815Y1173113D01*
X0020973Y1173129D01*
X0021130Y1173141D01*
X0021289Y1173149D01*
X0021447Y1173153D01*
X0021605Y1173153D01*
X0021763Y1173149D01*
X0021922Y1173141D01*
X0022079Y1173129D01*
X0022237Y1173113D01*
X0022394Y1173093D01*
X0022550Y1173069D01*
X0022706Y1173041D01*
X0022861Y1173010D01*
X0023016Y1172974D01*
X0023169Y1172935D01*
X0023321Y1172892D01*
X0023472Y1172845D01*
X0023622Y1172794D01*
X0023771Y1172739D01*
X0023918Y1172681D01*
X0024064Y1172619D01*
X0024208Y1172554D01*
X0024350Y1172484D01*
X0024491Y1172412D01*
X0024630Y1172335D01*
X0024766Y1172256D01*
X0024901Y1172172D01*
X0025034Y1172086D01*
X0025164Y1171996D01*
X0025292Y1171903D01*
X0025418Y1171807D01*
X0025541Y1171707D01*
X0025662Y1171605D01*
X0025780Y1171500D01*
X0025895Y1171391D01*
X0026008Y1171280D01*
X0026118Y1171166D01*
X0026225Y1171049D01*
X0026329Y1170930D01*
X0026430Y1170808D01*
X0026527Y1170683D01*
X0026622Y1170556D01*
X0026713Y1170427D01*
X0026802Y1170296D01*
X0026886Y1170162D01*
X0026968Y1170026D01*
X0027046Y1169889D01*
X0027120Y1169749D01*
X0027191Y1169607D01*
X0027259Y1169464D01*
X0027323Y1169319D01*
X0027383Y1169173D01*
X0027439Y1169025D01*
X0027492Y1168876D01*
X0027541Y1168725D01*
X0027586Y1168573D01*
X0027627Y1168420D01*
X0027665Y1168267D01*
X0027698Y1168112D01*
X0027728Y1167956D01*
X0027754Y1167800D01*
X0027775Y1167643D01*
X0027793Y1167486D01*
X0027807Y1167328D01*
X0027817Y1167170D01*
X0027823Y1167012D01*
X0027825Y1166854D01*
X0027823Y1166696D01*
X0027817Y1166538D01*
X0027807Y1166380D01*
X0027793Y1166222D01*
X0027775Y1166065D01*
X0027754Y1165908D01*
X0027728Y1165752D01*
X0027698Y1165596D01*
X0027665Y1165441D01*
X0027627Y1165288D01*
X0027586Y1165135D01*
X0027541Y1164983D01*
X0027492Y1164832D01*
X0027439Y1164683D01*
X0027383Y1164535D01*
X0027323Y1164389D01*
X0027259Y1164244D01*
X0027191Y1164101D01*
X0027120Y1163959D01*
X0027046Y1163819D01*
X0026968Y1163682D01*
X0026886Y1163546D01*
X0026802Y1163412D01*
X0026713Y1163281D01*
X0026622Y1163152D01*
X0026527Y1163025D01*
X0026430Y1162900D01*
X0026329Y1162778D01*
X0026225Y1162659D01*
X0026118Y1162542D01*
X0026008Y1162428D01*
X0025895Y1162317D01*
X0025780Y1162208D01*
X0025662Y1162103D01*
X0025541Y1162001D01*
X0025418Y1161901D01*
X0025292Y1161805D01*
X0025164Y1161712D01*
X0025034Y1161622D01*
X0024901Y1161536D01*
X0024766Y1161452D01*
X0024630Y1161373D01*
X0024491Y1161296D01*
X0024350Y1161224D01*
X0024208Y1161154D01*
X0024064Y1161089D01*
X0023918Y1161027D01*
X0023771Y1160969D01*
X0023622Y1160914D01*
X0023472Y1160863D01*
X0023321Y1160816D01*
X0023169Y1160773D01*
X0023016Y1160734D01*
X0022861Y1160698D01*
X0022706Y1160667D01*
X0022550Y1160639D01*
X0022394Y1160615D01*
X0022237Y1160595D01*
X0022079Y1160579D01*
X0021922Y1160567D01*
X0021763Y1160559D01*
X0021605Y1160555D01*
X0021447Y1160555D01*
X0021289Y1160559D01*
X0021130Y1160567D01*
X0020973Y1160579D01*
X0020815Y1160595D01*
X0020658Y1160615D01*
X0020502Y1160639D01*
X0020346Y1160667D01*
X0020191Y1160698D01*
X0020036Y1160734D01*
X0019883Y1160773D01*
X0019731Y1160816D01*
X0019580Y1160863D01*
X0019430Y1160914D01*
X0019281Y1160969D01*
X0019134Y1161027D01*
X0018988Y1161089D01*
X0018844Y1161154D01*
X0018702Y1161224D01*
X0018561Y1161296D01*
X0018422Y1161373D01*
X0018286Y1161452D01*
X0018151Y1161536D01*
X0018018Y1161622D01*
X0017888Y1161712D01*
X0017760Y1161805D01*
X0017634Y1161901D01*
X0017511Y1162001D01*
X0017390Y1162103D01*
X0017272Y1162208D01*
X0017157Y1162317D01*
X0017044Y1162428D01*
X0016934Y1162542D01*
X0016827Y1162659D01*
X0016723Y1162778D01*
X0016622Y1162900D01*
X0016525Y1163025D01*
X0016430Y1163152D01*
X0016339Y1163281D01*
X0016250Y1163412D01*
X0016166Y1163546D01*
X0016084Y1163682D01*
X0016006Y1163819D01*
X0015932Y1163959D01*
X0015861Y1164101D01*
X0015793Y1164244D01*
X0015729Y1164389D01*
X0015669Y1164535D01*
X0015613Y1164683D01*
X0015560Y1164832D01*
X0015511Y1164983D01*
X0015466Y1165135D01*
X0015425Y1165288D01*
X0015387Y1165441D01*
X0015354Y1165596D01*
X0015324Y1165752D01*
X0015298Y1165908D01*
X0015277Y1166065D01*
X0015259Y1166222D01*
X0015245Y1166380D01*
X0015235Y1166538D01*
X0015229Y1166696D01*
X0015227Y1166854D01*
X0456172Y0985752D02*
X0456174Y0985910D01*
X0456180Y0986068D01*
X0456190Y0986226D01*
X0456204Y0986384D01*
X0456222Y0986541D01*
X0456243Y0986698D01*
X0456269Y0986854D01*
X0456299Y0987010D01*
X0456332Y0987165D01*
X0456370Y0987318D01*
X0456411Y0987471D01*
X0456456Y0987623D01*
X0456505Y0987774D01*
X0456558Y0987923D01*
X0456614Y0988071D01*
X0456674Y0988217D01*
X0456738Y0988362D01*
X0456806Y0988505D01*
X0456877Y0988647D01*
X0456951Y0988787D01*
X0457029Y0988924D01*
X0457111Y0989060D01*
X0457195Y0989194D01*
X0457284Y0989325D01*
X0457375Y0989454D01*
X0457470Y0989581D01*
X0457567Y0989706D01*
X0457668Y0989828D01*
X0457772Y0989947D01*
X0457879Y0990064D01*
X0457989Y0990178D01*
X0458102Y0990289D01*
X0458217Y0990398D01*
X0458335Y0990503D01*
X0458456Y0990605D01*
X0458579Y0990705D01*
X0458705Y0990801D01*
X0458833Y0990894D01*
X0458963Y0990984D01*
X0459096Y0991070D01*
X0459231Y0991154D01*
X0459367Y0991233D01*
X0459506Y0991310D01*
X0459647Y0991382D01*
X0459789Y0991452D01*
X0459933Y0991517D01*
X0460079Y0991579D01*
X0460226Y0991637D01*
X0460375Y0991692D01*
X0460525Y0991743D01*
X0460676Y0991790D01*
X0460828Y0991833D01*
X0460981Y0991872D01*
X0461136Y0991908D01*
X0461291Y0991939D01*
X0461447Y0991967D01*
X0461603Y0991991D01*
X0461760Y0992011D01*
X0461918Y0992027D01*
X0462075Y0992039D01*
X0462234Y0992047D01*
X0462392Y0992051D01*
X0462550Y0992051D01*
X0462708Y0992047D01*
X0462867Y0992039D01*
X0463024Y0992027D01*
X0463182Y0992011D01*
X0463339Y0991991D01*
X0463495Y0991967D01*
X0463651Y0991939D01*
X0463806Y0991908D01*
X0463961Y0991872D01*
X0464114Y0991833D01*
X0464266Y0991790D01*
X0464417Y0991743D01*
X0464567Y0991692D01*
X0464716Y0991637D01*
X0464863Y0991579D01*
X0465009Y0991517D01*
X0465153Y0991452D01*
X0465295Y0991382D01*
X0465436Y0991310D01*
X0465575Y0991233D01*
X0465711Y0991154D01*
X0465846Y0991070D01*
X0465979Y0990984D01*
X0466109Y0990894D01*
X0466237Y0990801D01*
X0466363Y0990705D01*
X0466486Y0990605D01*
X0466607Y0990503D01*
X0466725Y0990398D01*
X0466840Y0990289D01*
X0466953Y0990178D01*
X0467063Y0990064D01*
X0467170Y0989947D01*
X0467274Y0989828D01*
X0467375Y0989706D01*
X0467472Y0989581D01*
X0467567Y0989454D01*
X0467658Y0989325D01*
X0467747Y0989194D01*
X0467831Y0989060D01*
X0467913Y0988924D01*
X0467991Y0988787D01*
X0468065Y0988647D01*
X0468136Y0988505D01*
X0468204Y0988362D01*
X0468268Y0988217D01*
X0468328Y0988071D01*
X0468384Y0987923D01*
X0468437Y0987774D01*
X0468486Y0987623D01*
X0468531Y0987471D01*
X0468572Y0987318D01*
X0468610Y0987165D01*
X0468643Y0987010D01*
X0468673Y0986854D01*
X0468699Y0986698D01*
X0468720Y0986541D01*
X0468738Y0986384D01*
X0468752Y0986226D01*
X0468762Y0986068D01*
X0468768Y0985910D01*
X0468770Y0985752D01*
X0468768Y0985594D01*
X0468762Y0985436D01*
X0468752Y0985278D01*
X0468738Y0985120D01*
X0468720Y0984963D01*
X0468699Y0984806D01*
X0468673Y0984650D01*
X0468643Y0984494D01*
X0468610Y0984339D01*
X0468572Y0984186D01*
X0468531Y0984033D01*
X0468486Y0983881D01*
X0468437Y0983730D01*
X0468384Y0983581D01*
X0468328Y0983433D01*
X0468268Y0983287D01*
X0468204Y0983142D01*
X0468136Y0982999D01*
X0468065Y0982857D01*
X0467991Y0982717D01*
X0467913Y0982580D01*
X0467831Y0982444D01*
X0467747Y0982310D01*
X0467658Y0982179D01*
X0467567Y0982050D01*
X0467472Y0981923D01*
X0467375Y0981798D01*
X0467274Y0981676D01*
X0467170Y0981557D01*
X0467063Y0981440D01*
X0466953Y0981326D01*
X0466840Y0981215D01*
X0466725Y0981106D01*
X0466607Y0981001D01*
X0466486Y0980899D01*
X0466363Y0980799D01*
X0466237Y0980703D01*
X0466109Y0980610D01*
X0465979Y0980520D01*
X0465846Y0980434D01*
X0465711Y0980350D01*
X0465575Y0980271D01*
X0465436Y0980194D01*
X0465295Y0980122D01*
X0465153Y0980052D01*
X0465009Y0979987D01*
X0464863Y0979925D01*
X0464716Y0979867D01*
X0464567Y0979812D01*
X0464417Y0979761D01*
X0464266Y0979714D01*
X0464114Y0979671D01*
X0463961Y0979632D01*
X0463806Y0979596D01*
X0463651Y0979565D01*
X0463495Y0979537D01*
X0463339Y0979513D01*
X0463182Y0979493D01*
X0463024Y0979477D01*
X0462867Y0979465D01*
X0462708Y0979457D01*
X0462550Y0979453D01*
X0462392Y0979453D01*
X0462234Y0979457D01*
X0462075Y0979465D01*
X0461918Y0979477D01*
X0461760Y0979493D01*
X0461603Y0979513D01*
X0461447Y0979537D01*
X0461291Y0979565D01*
X0461136Y0979596D01*
X0460981Y0979632D01*
X0460828Y0979671D01*
X0460676Y0979714D01*
X0460525Y0979761D01*
X0460375Y0979812D01*
X0460226Y0979867D01*
X0460079Y0979925D01*
X0459933Y0979987D01*
X0459789Y0980052D01*
X0459647Y0980122D01*
X0459506Y0980194D01*
X0459367Y0980271D01*
X0459231Y0980350D01*
X0459096Y0980434D01*
X0458963Y0980520D01*
X0458833Y0980610D01*
X0458705Y0980703D01*
X0458579Y0980799D01*
X0458456Y0980899D01*
X0458335Y0981001D01*
X0458217Y0981106D01*
X0458102Y0981215D01*
X0457989Y0981326D01*
X0457879Y0981440D01*
X0457772Y0981557D01*
X0457668Y0981676D01*
X0457567Y0981798D01*
X0457470Y0981923D01*
X0457375Y0982050D01*
X0457284Y0982179D01*
X0457195Y0982310D01*
X0457111Y0982444D01*
X0457029Y0982580D01*
X0456951Y0982717D01*
X0456877Y0982857D01*
X0456806Y0982999D01*
X0456738Y0983142D01*
X0456674Y0983287D01*
X0456614Y0983433D01*
X0456558Y0983581D01*
X0456505Y0983730D01*
X0456456Y0983881D01*
X0456411Y0984033D01*
X0456370Y0984186D01*
X0456332Y0984339D01*
X0456299Y0984494D01*
X0456269Y0984650D01*
X0456243Y0984806D01*
X0456222Y0984963D01*
X0456204Y0985120D01*
X0456190Y0985278D01*
X0456180Y0985436D01*
X0456174Y0985594D01*
X0456172Y0985752D01*
X0456172Y0450319D02*
X0456174Y0450477D01*
X0456180Y0450635D01*
X0456190Y0450793D01*
X0456204Y0450951D01*
X0456222Y0451108D01*
X0456243Y0451265D01*
X0456269Y0451421D01*
X0456299Y0451577D01*
X0456332Y0451732D01*
X0456370Y0451885D01*
X0456411Y0452038D01*
X0456456Y0452190D01*
X0456505Y0452341D01*
X0456558Y0452490D01*
X0456614Y0452638D01*
X0456674Y0452784D01*
X0456738Y0452929D01*
X0456806Y0453072D01*
X0456877Y0453214D01*
X0456951Y0453354D01*
X0457029Y0453491D01*
X0457111Y0453627D01*
X0457195Y0453761D01*
X0457284Y0453892D01*
X0457375Y0454021D01*
X0457470Y0454148D01*
X0457567Y0454273D01*
X0457668Y0454395D01*
X0457772Y0454514D01*
X0457879Y0454631D01*
X0457989Y0454745D01*
X0458102Y0454856D01*
X0458217Y0454965D01*
X0458335Y0455070D01*
X0458456Y0455172D01*
X0458579Y0455272D01*
X0458705Y0455368D01*
X0458833Y0455461D01*
X0458963Y0455551D01*
X0459096Y0455637D01*
X0459231Y0455721D01*
X0459367Y0455800D01*
X0459506Y0455877D01*
X0459647Y0455949D01*
X0459789Y0456019D01*
X0459933Y0456084D01*
X0460079Y0456146D01*
X0460226Y0456204D01*
X0460375Y0456259D01*
X0460525Y0456310D01*
X0460676Y0456357D01*
X0460828Y0456400D01*
X0460981Y0456439D01*
X0461136Y0456475D01*
X0461291Y0456506D01*
X0461447Y0456534D01*
X0461603Y0456558D01*
X0461760Y0456578D01*
X0461918Y0456594D01*
X0462075Y0456606D01*
X0462234Y0456614D01*
X0462392Y0456618D01*
X0462550Y0456618D01*
X0462708Y0456614D01*
X0462867Y0456606D01*
X0463024Y0456594D01*
X0463182Y0456578D01*
X0463339Y0456558D01*
X0463495Y0456534D01*
X0463651Y0456506D01*
X0463806Y0456475D01*
X0463961Y0456439D01*
X0464114Y0456400D01*
X0464266Y0456357D01*
X0464417Y0456310D01*
X0464567Y0456259D01*
X0464716Y0456204D01*
X0464863Y0456146D01*
X0465009Y0456084D01*
X0465153Y0456019D01*
X0465295Y0455949D01*
X0465436Y0455877D01*
X0465575Y0455800D01*
X0465711Y0455721D01*
X0465846Y0455637D01*
X0465979Y0455551D01*
X0466109Y0455461D01*
X0466237Y0455368D01*
X0466363Y0455272D01*
X0466486Y0455172D01*
X0466607Y0455070D01*
X0466725Y0454965D01*
X0466840Y0454856D01*
X0466953Y0454745D01*
X0467063Y0454631D01*
X0467170Y0454514D01*
X0467274Y0454395D01*
X0467375Y0454273D01*
X0467472Y0454148D01*
X0467567Y0454021D01*
X0467658Y0453892D01*
X0467747Y0453761D01*
X0467831Y0453627D01*
X0467913Y0453491D01*
X0467991Y0453354D01*
X0468065Y0453214D01*
X0468136Y0453072D01*
X0468204Y0452929D01*
X0468268Y0452784D01*
X0468328Y0452638D01*
X0468384Y0452490D01*
X0468437Y0452341D01*
X0468486Y0452190D01*
X0468531Y0452038D01*
X0468572Y0451885D01*
X0468610Y0451732D01*
X0468643Y0451577D01*
X0468673Y0451421D01*
X0468699Y0451265D01*
X0468720Y0451108D01*
X0468738Y0450951D01*
X0468752Y0450793D01*
X0468762Y0450635D01*
X0468768Y0450477D01*
X0468770Y0450319D01*
X0468768Y0450161D01*
X0468762Y0450003D01*
X0468752Y0449845D01*
X0468738Y0449687D01*
X0468720Y0449530D01*
X0468699Y0449373D01*
X0468673Y0449217D01*
X0468643Y0449061D01*
X0468610Y0448906D01*
X0468572Y0448753D01*
X0468531Y0448600D01*
X0468486Y0448448D01*
X0468437Y0448297D01*
X0468384Y0448148D01*
X0468328Y0448000D01*
X0468268Y0447854D01*
X0468204Y0447709D01*
X0468136Y0447566D01*
X0468065Y0447424D01*
X0467991Y0447284D01*
X0467913Y0447147D01*
X0467831Y0447011D01*
X0467747Y0446877D01*
X0467658Y0446746D01*
X0467567Y0446617D01*
X0467472Y0446490D01*
X0467375Y0446365D01*
X0467274Y0446243D01*
X0467170Y0446124D01*
X0467063Y0446007D01*
X0466953Y0445893D01*
X0466840Y0445782D01*
X0466725Y0445673D01*
X0466607Y0445568D01*
X0466486Y0445466D01*
X0466363Y0445366D01*
X0466237Y0445270D01*
X0466109Y0445177D01*
X0465979Y0445087D01*
X0465846Y0445001D01*
X0465711Y0444917D01*
X0465575Y0444838D01*
X0465436Y0444761D01*
X0465295Y0444689D01*
X0465153Y0444619D01*
X0465009Y0444554D01*
X0464863Y0444492D01*
X0464716Y0444434D01*
X0464567Y0444379D01*
X0464417Y0444328D01*
X0464266Y0444281D01*
X0464114Y0444238D01*
X0463961Y0444199D01*
X0463806Y0444163D01*
X0463651Y0444132D01*
X0463495Y0444104D01*
X0463339Y0444080D01*
X0463182Y0444060D01*
X0463024Y0444044D01*
X0462867Y0444032D01*
X0462708Y0444024D01*
X0462550Y0444020D01*
X0462392Y0444020D01*
X0462234Y0444024D01*
X0462075Y0444032D01*
X0461918Y0444044D01*
X0461760Y0444060D01*
X0461603Y0444080D01*
X0461447Y0444104D01*
X0461291Y0444132D01*
X0461136Y0444163D01*
X0460981Y0444199D01*
X0460828Y0444238D01*
X0460676Y0444281D01*
X0460525Y0444328D01*
X0460375Y0444379D01*
X0460226Y0444434D01*
X0460079Y0444492D01*
X0459933Y0444554D01*
X0459789Y0444619D01*
X0459647Y0444689D01*
X0459506Y0444761D01*
X0459367Y0444838D01*
X0459231Y0444917D01*
X0459096Y0445001D01*
X0458963Y0445087D01*
X0458833Y0445177D01*
X0458705Y0445270D01*
X0458579Y0445366D01*
X0458456Y0445466D01*
X0458335Y0445568D01*
X0458217Y0445673D01*
X0458102Y0445782D01*
X0457989Y0445893D01*
X0457879Y0446007D01*
X0457772Y0446124D01*
X0457668Y0446243D01*
X0457567Y0446365D01*
X0457470Y0446490D01*
X0457375Y0446617D01*
X0457284Y0446746D01*
X0457195Y0446877D01*
X0457111Y0447011D01*
X0457029Y0447147D01*
X0456951Y0447284D01*
X0456877Y0447424D01*
X0456806Y0447566D01*
X0456738Y0447709D01*
X0456674Y0447854D01*
X0456614Y0448000D01*
X0456558Y0448148D01*
X0456505Y0448297D01*
X0456456Y0448448D01*
X0456411Y0448600D01*
X0456370Y0448753D01*
X0456332Y0448906D01*
X0456299Y0449061D01*
X0456269Y0449217D01*
X0456243Y0449373D01*
X0456222Y0449530D01*
X0456204Y0449687D01*
X0456190Y0449845D01*
X0456180Y0450003D01*
X0456174Y0450161D01*
X0456172Y0450319D01*
X1007353Y0450319D02*
X1007355Y0450477D01*
X1007361Y0450635D01*
X1007371Y0450793D01*
X1007385Y0450951D01*
X1007403Y0451108D01*
X1007424Y0451265D01*
X1007450Y0451421D01*
X1007480Y0451577D01*
X1007513Y0451732D01*
X1007551Y0451885D01*
X1007592Y0452038D01*
X1007637Y0452190D01*
X1007686Y0452341D01*
X1007739Y0452490D01*
X1007795Y0452638D01*
X1007855Y0452784D01*
X1007919Y0452929D01*
X1007987Y0453072D01*
X1008058Y0453214D01*
X1008132Y0453354D01*
X1008210Y0453491D01*
X1008292Y0453627D01*
X1008376Y0453761D01*
X1008465Y0453892D01*
X1008556Y0454021D01*
X1008651Y0454148D01*
X1008748Y0454273D01*
X1008849Y0454395D01*
X1008953Y0454514D01*
X1009060Y0454631D01*
X1009170Y0454745D01*
X1009283Y0454856D01*
X1009398Y0454965D01*
X1009516Y0455070D01*
X1009637Y0455172D01*
X1009760Y0455272D01*
X1009886Y0455368D01*
X1010014Y0455461D01*
X1010144Y0455551D01*
X1010277Y0455637D01*
X1010412Y0455721D01*
X1010548Y0455800D01*
X1010687Y0455877D01*
X1010828Y0455949D01*
X1010970Y0456019D01*
X1011114Y0456084D01*
X1011260Y0456146D01*
X1011407Y0456204D01*
X1011556Y0456259D01*
X1011706Y0456310D01*
X1011857Y0456357D01*
X1012009Y0456400D01*
X1012162Y0456439D01*
X1012317Y0456475D01*
X1012472Y0456506D01*
X1012628Y0456534D01*
X1012784Y0456558D01*
X1012941Y0456578D01*
X1013099Y0456594D01*
X1013256Y0456606D01*
X1013415Y0456614D01*
X1013573Y0456618D01*
X1013731Y0456618D01*
X1013889Y0456614D01*
X1014048Y0456606D01*
X1014205Y0456594D01*
X1014363Y0456578D01*
X1014520Y0456558D01*
X1014676Y0456534D01*
X1014832Y0456506D01*
X1014987Y0456475D01*
X1015142Y0456439D01*
X1015295Y0456400D01*
X1015447Y0456357D01*
X1015598Y0456310D01*
X1015748Y0456259D01*
X1015897Y0456204D01*
X1016044Y0456146D01*
X1016190Y0456084D01*
X1016334Y0456019D01*
X1016476Y0455949D01*
X1016617Y0455877D01*
X1016756Y0455800D01*
X1016892Y0455721D01*
X1017027Y0455637D01*
X1017160Y0455551D01*
X1017290Y0455461D01*
X1017418Y0455368D01*
X1017544Y0455272D01*
X1017667Y0455172D01*
X1017788Y0455070D01*
X1017906Y0454965D01*
X1018021Y0454856D01*
X1018134Y0454745D01*
X1018244Y0454631D01*
X1018351Y0454514D01*
X1018455Y0454395D01*
X1018556Y0454273D01*
X1018653Y0454148D01*
X1018748Y0454021D01*
X1018839Y0453892D01*
X1018928Y0453761D01*
X1019012Y0453627D01*
X1019094Y0453491D01*
X1019172Y0453354D01*
X1019246Y0453214D01*
X1019317Y0453072D01*
X1019385Y0452929D01*
X1019449Y0452784D01*
X1019509Y0452638D01*
X1019565Y0452490D01*
X1019618Y0452341D01*
X1019667Y0452190D01*
X1019712Y0452038D01*
X1019753Y0451885D01*
X1019791Y0451732D01*
X1019824Y0451577D01*
X1019854Y0451421D01*
X1019880Y0451265D01*
X1019901Y0451108D01*
X1019919Y0450951D01*
X1019933Y0450793D01*
X1019943Y0450635D01*
X1019949Y0450477D01*
X1019951Y0450319D01*
X1019949Y0450161D01*
X1019943Y0450003D01*
X1019933Y0449845D01*
X1019919Y0449687D01*
X1019901Y0449530D01*
X1019880Y0449373D01*
X1019854Y0449217D01*
X1019824Y0449061D01*
X1019791Y0448906D01*
X1019753Y0448753D01*
X1019712Y0448600D01*
X1019667Y0448448D01*
X1019618Y0448297D01*
X1019565Y0448148D01*
X1019509Y0448000D01*
X1019449Y0447854D01*
X1019385Y0447709D01*
X1019317Y0447566D01*
X1019246Y0447424D01*
X1019172Y0447284D01*
X1019094Y0447147D01*
X1019012Y0447011D01*
X1018928Y0446877D01*
X1018839Y0446746D01*
X1018748Y0446617D01*
X1018653Y0446490D01*
X1018556Y0446365D01*
X1018455Y0446243D01*
X1018351Y0446124D01*
X1018244Y0446007D01*
X1018134Y0445893D01*
X1018021Y0445782D01*
X1017906Y0445673D01*
X1017788Y0445568D01*
X1017667Y0445466D01*
X1017544Y0445366D01*
X1017418Y0445270D01*
X1017290Y0445177D01*
X1017160Y0445087D01*
X1017027Y0445001D01*
X1016892Y0444917D01*
X1016756Y0444838D01*
X1016617Y0444761D01*
X1016476Y0444689D01*
X1016334Y0444619D01*
X1016190Y0444554D01*
X1016044Y0444492D01*
X1015897Y0444434D01*
X1015748Y0444379D01*
X1015598Y0444328D01*
X1015447Y0444281D01*
X1015295Y0444238D01*
X1015142Y0444199D01*
X1014987Y0444163D01*
X1014832Y0444132D01*
X1014676Y0444104D01*
X1014520Y0444080D01*
X1014363Y0444060D01*
X1014205Y0444044D01*
X1014048Y0444032D01*
X1013889Y0444024D01*
X1013731Y0444020D01*
X1013573Y0444020D01*
X1013415Y0444024D01*
X1013256Y0444032D01*
X1013099Y0444044D01*
X1012941Y0444060D01*
X1012784Y0444080D01*
X1012628Y0444104D01*
X1012472Y0444132D01*
X1012317Y0444163D01*
X1012162Y0444199D01*
X1012009Y0444238D01*
X1011857Y0444281D01*
X1011706Y0444328D01*
X1011556Y0444379D01*
X1011407Y0444434D01*
X1011260Y0444492D01*
X1011114Y0444554D01*
X1010970Y0444619D01*
X1010828Y0444689D01*
X1010687Y0444761D01*
X1010548Y0444838D01*
X1010412Y0444917D01*
X1010277Y0445001D01*
X1010144Y0445087D01*
X1010014Y0445177D01*
X1009886Y0445270D01*
X1009760Y0445366D01*
X1009637Y0445466D01*
X1009516Y0445568D01*
X1009398Y0445673D01*
X1009283Y0445782D01*
X1009170Y0445893D01*
X1009060Y0446007D01*
X1008953Y0446124D01*
X1008849Y0446243D01*
X1008748Y0446365D01*
X1008651Y0446490D01*
X1008556Y0446617D01*
X1008465Y0446746D01*
X1008376Y0446877D01*
X1008292Y0447011D01*
X1008210Y0447147D01*
X1008132Y0447284D01*
X1008058Y0447424D01*
X1007987Y0447566D01*
X1007919Y0447709D01*
X1007855Y0447854D01*
X1007795Y0448000D01*
X1007739Y0448148D01*
X1007686Y0448297D01*
X1007637Y0448448D01*
X1007592Y0448600D01*
X1007551Y0448753D01*
X1007513Y0448906D01*
X1007480Y0449061D01*
X1007450Y0449217D01*
X1007424Y0449373D01*
X1007403Y0449530D01*
X1007385Y0449687D01*
X1007371Y0449845D01*
X1007361Y0450003D01*
X1007355Y0450161D01*
X1007353Y0450319D01*
X1007353Y0017248D02*
X1007355Y0017406D01*
X1007361Y0017564D01*
X1007371Y0017722D01*
X1007385Y0017880D01*
X1007403Y0018037D01*
X1007424Y0018194D01*
X1007450Y0018350D01*
X1007480Y0018506D01*
X1007513Y0018661D01*
X1007551Y0018814D01*
X1007592Y0018967D01*
X1007637Y0019119D01*
X1007686Y0019270D01*
X1007739Y0019419D01*
X1007795Y0019567D01*
X1007855Y0019713D01*
X1007919Y0019858D01*
X1007987Y0020001D01*
X1008058Y0020143D01*
X1008132Y0020283D01*
X1008210Y0020420D01*
X1008292Y0020556D01*
X1008376Y0020690D01*
X1008465Y0020821D01*
X1008556Y0020950D01*
X1008651Y0021077D01*
X1008748Y0021202D01*
X1008849Y0021324D01*
X1008953Y0021443D01*
X1009060Y0021560D01*
X1009170Y0021674D01*
X1009283Y0021785D01*
X1009398Y0021894D01*
X1009516Y0021999D01*
X1009637Y0022101D01*
X1009760Y0022201D01*
X1009886Y0022297D01*
X1010014Y0022390D01*
X1010144Y0022480D01*
X1010277Y0022566D01*
X1010412Y0022650D01*
X1010548Y0022729D01*
X1010687Y0022806D01*
X1010828Y0022878D01*
X1010970Y0022948D01*
X1011114Y0023013D01*
X1011260Y0023075D01*
X1011407Y0023133D01*
X1011556Y0023188D01*
X1011706Y0023239D01*
X1011857Y0023286D01*
X1012009Y0023329D01*
X1012162Y0023368D01*
X1012317Y0023404D01*
X1012472Y0023435D01*
X1012628Y0023463D01*
X1012784Y0023487D01*
X1012941Y0023507D01*
X1013099Y0023523D01*
X1013256Y0023535D01*
X1013415Y0023543D01*
X1013573Y0023547D01*
X1013731Y0023547D01*
X1013889Y0023543D01*
X1014048Y0023535D01*
X1014205Y0023523D01*
X1014363Y0023507D01*
X1014520Y0023487D01*
X1014676Y0023463D01*
X1014832Y0023435D01*
X1014987Y0023404D01*
X1015142Y0023368D01*
X1015295Y0023329D01*
X1015447Y0023286D01*
X1015598Y0023239D01*
X1015748Y0023188D01*
X1015897Y0023133D01*
X1016044Y0023075D01*
X1016190Y0023013D01*
X1016334Y0022948D01*
X1016476Y0022878D01*
X1016617Y0022806D01*
X1016756Y0022729D01*
X1016892Y0022650D01*
X1017027Y0022566D01*
X1017160Y0022480D01*
X1017290Y0022390D01*
X1017418Y0022297D01*
X1017544Y0022201D01*
X1017667Y0022101D01*
X1017788Y0021999D01*
X1017906Y0021894D01*
X1018021Y0021785D01*
X1018134Y0021674D01*
X1018244Y0021560D01*
X1018351Y0021443D01*
X1018455Y0021324D01*
X1018556Y0021202D01*
X1018653Y0021077D01*
X1018748Y0020950D01*
X1018839Y0020821D01*
X1018928Y0020690D01*
X1019012Y0020556D01*
X1019094Y0020420D01*
X1019172Y0020283D01*
X1019246Y0020143D01*
X1019317Y0020001D01*
X1019385Y0019858D01*
X1019449Y0019713D01*
X1019509Y0019567D01*
X1019565Y0019419D01*
X1019618Y0019270D01*
X1019667Y0019119D01*
X1019712Y0018967D01*
X1019753Y0018814D01*
X1019791Y0018661D01*
X1019824Y0018506D01*
X1019854Y0018350D01*
X1019880Y0018194D01*
X1019901Y0018037D01*
X1019919Y0017880D01*
X1019933Y0017722D01*
X1019943Y0017564D01*
X1019949Y0017406D01*
X1019951Y0017248D01*
X1019949Y0017090D01*
X1019943Y0016932D01*
X1019933Y0016774D01*
X1019919Y0016616D01*
X1019901Y0016459D01*
X1019880Y0016302D01*
X1019854Y0016146D01*
X1019824Y0015990D01*
X1019791Y0015835D01*
X1019753Y0015682D01*
X1019712Y0015529D01*
X1019667Y0015377D01*
X1019618Y0015226D01*
X1019565Y0015077D01*
X1019509Y0014929D01*
X1019449Y0014783D01*
X1019385Y0014638D01*
X1019317Y0014495D01*
X1019246Y0014353D01*
X1019172Y0014213D01*
X1019094Y0014076D01*
X1019012Y0013940D01*
X1018928Y0013806D01*
X1018839Y0013675D01*
X1018748Y0013546D01*
X1018653Y0013419D01*
X1018556Y0013294D01*
X1018455Y0013172D01*
X1018351Y0013053D01*
X1018244Y0012936D01*
X1018134Y0012822D01*
X1018021Y0012711D01*
X1017906Y0012602D01*
X1017788Y0012497D01*
X1017667Y0012395D01*
X1017544Y0012295D01*
X1017418Y0012199D01*
X1017290Y0012106D01*
X1017160Y0012016D01*
X1017027Y0011930D01*
X1016892Y0011846D01*
X1016756Y0011767D01*
X1016617Y0011690D01*
X1016476Y0011618D01*
X1016334Y0011548D01*
X1016190Y0011483D01*
X1016044Y0011421D01*
X1015897Y0011363D01*
X1015748Y0011308D01*
X1015598Y0011257D01*
X1015447Y0011210D01*
X1015295Y0011167D01*
X1015142Y0011128D01*
X1014987Y0011092D01*
X1014832Y0011061D01*
X1014676Y0011033D01*
X1014520Y0011009D01*
X1014363Y0010989D01*
X1014205Y0010973D01*
X1014048Y0010961D01*
X1013889Y0010953D01*
X1013731Y0010949D01*
X1013573Y0010949D01*
X1013415Y0010953D01*
X1013256Y0010961D01*
X1013099Y0010973D01*
X1012941Y0010989D01*
X1012784Y0011009D01*
X1012628Y0011033D01*
X1012472Y0011061D01*
X1012317Y0011092D01*
X1012162Y0011128D01*
X1012009Y0011167D01*
X1011857Y0011210D01*
X1011706Y0011257D01*
X1011556Y0011308D01*
X1011407Y0011363D01*
X1011260Y0011421D01*
X1011114Y0011483D01*
X1010970Y0011548D01*
X1010828Y0011618D01*
X1010687Y0011690D01*
X1010548Y0011767D01*
X1010412Y0011846D01*
X1010277Y0011930D01*
X1010144Y0012016D01*
X1010014Y0012106D01*
X1009886Y0012199D01*
X1009760Y0012295D01*
X1009637Y0012395D01*
X1009516Y0012497D01*
X1009398Y0012602D01*
X1009283Y0012711D01*
X1009170Y0012822D01*
X1009060Y0012936D01*
X1008953Y0013053D01*
X1008849Y0013172D01*
X1008748Y0013294D01*
X1008651Y0013419D01*
X1008556Y0013546D01*
X1008465Y0013675D01*
X1008376Y0013806D01*
X1008292Y0013940D01*
X1008210Y0014076D01*
X1008132Y0014213D01*
X1008058Y0014353D01*
X1007987Y0014495D01*
X1007919Y0014638D01*
X1007855Y0014783D01*
X1007795Y0014929D01*
X1007739Y0015077D01*
X1007686Y0015226D01*
X1007637Y0015377D01*
X1007592Y0015529D01*
X1007551Y0015682D01*
X1007513Y0015835D01*
X1007480Y0015990D01*
X1007450Y0016146D01*
X1007424Y0016302D01*
X1007403Y0016459D01*
X1007385Y0016616D01*
X1007371Y0016774D01*
X1007361Y0016932D01*
X1007355Y0017090D01*
X1007353Y0017248D01*
X1007353Y0985752D02*
X1007355Y0985910D01*
X1007361Y0986068D01*
X1007371Y0986226D01*
X1007385Y0986384D01*
X1007403Y0986541D01*
X1007424Y0986698D01*
X1007450Y0986854D01*
X1007480Y0987010D01*
X1007513Y0987165D01*
X1007551Y0987318D01*
X1007592Y0987471D01*
X1007637Y0987623D01*
X1007686Y0987774D01*
X1007739Y0987923D01*
X1007795Y0988071D01*
X1007855Y0988217D01*
X1007919Y0988362D01*
X1007987Y0988505D01*
X1008058Y0988647D01*
X1008132Y0988787D01*
X1008210Y0988924D01*
X1008292Y0989060D01*
X1008376Y0989194D01*
X1008465Y0989325D01*
X1008556Y0989454D01*
X1008651Y0989581D01*
X1008748Y0989706D01*
X1008849Y0989828D01*
X1008953Y0989947D01*
X1009060Y0990064D01*
X1009170Y0990178D01*
X1009283Y0990289D01*
X1009398Y0990398D01*
X1009516Y0990503D01*
X1009637Y0990605D01*
X1009760Y0990705D01*
X1009886Y0990801D01*
X1010014Y0990894D01*
X1010144Y0990984D01*
X1010277Y0991070D01*
X1010412Y0991154D01*
X1010548Y0991233D01*
X1010687Y0991310D01*
X1010828Y0991382D01*
X1010970Y0991452D01*
X1011114Y0991517D01*
X1011260Y0991579D01*
X1011407Y0991637D01*
X1011556Y0991692D01*
X1011706Y0991743D01*
X1011857Y0991790D01*
X1012009Y0991833D01*
X1012162Y0991872D01*
X1012317Y0991908D01*
X1012472Y0991939D01*
X1012628Y0991967D01*
X1012784Y0991991D01*
X1012941Y0992011D01*
X1013099Y0992027D01*
X1013256Y0992039D01*
X1013415Y0992047D01*
X1013573Y0992051D01*
X1013731Y0992051D01*
X1013889Y0992047D01*
X1014048Y0992039D01*
X1014205Y0992027D01*
X1014363Y0992011D01*
X1014520Y0991991D01*
X1014676Y0991967D01*
X1014832Y0991939D01*
X1014987Y0991908D01*
X1015142Y0991872D01*
X1015295Y0991833D01*
X1015447Y0991790D01*
X1015598Y0991743D01*
X1015748Y0991692D01*
X1015897Y0991637D01*
X1016044Y0991579D01*
X1016190Y0991517D01*
X1016334Y0991452D01*
X1016476Y0991382D01*
X1016617Y0991310D01*
X1016756Y0991233D01*
X1016892Y0991154D01*
X1017027Y0991070D01*
X1017160Y0990984D01*
X1017290Y0990894D01*
X1017418Y0990801D01*
X1017544Y0990705D01*
X1017667Y0990605D01*
X1017788Y0990503D01*
X1017906Y0990398D01*
X1018021Y0990289D01*
X1018134Y0990178D01*
X1018244Y0990064D01*
X1018351Y0989947D01*
X1018455Y0989828D01*
X1018556Y0989706D01*
X1018653Y0989581D01*
X1018748Y0989454D01*
X1018839Y0989325D01*
X1018928Y0989194D01*
X1019012Y0989060D01*
X1019094Y0988924D01*
X1019172Y0988787D01*
X1019246Y0988647D01*
X1019317Y0988505D01*
X1019385Y0988362D01*
X1019449Y0988217D01*
X1019509Y0988071D01*
X1019565Y0987923D01*
X1019618Y0987774D01*
X1019667Y0987623D01*
X1019712Y0987471D01*
X1019753Y0987318D01*
X1019791Y0987165D01*
X1019824Y0987010D01*
X1019854Y0986854D01*
X1019880Y0986698D01*
X1019901Y0986541D01*
X1019919Y0986384D01*
X1019933Y0986226D01*
X1019943Y0986068D01*
X1019949Y0985910D01*
X1019951Y0985752D01*
X1019949Y0985594D01*
X1019943Y0985436D01*
X1019933Y0985278D01*
X1019919Y0985120D01*
X1019901Y0984963D01*
X1019880Y0984806D01*
X1019854Y0984650D01*
X1019824Y0984494D01*
X1019791Y0984339D01*
X1019753Y0984186D01*
X1019712Y0984033D01*
X1019667Y0983881D01*
X1019618Y0983730D01*
X1019565Y0983581D01*
X1019509Y0983433D01*
X1019449Y0983287D01*
X1019385Y0983142D01*
X1019317Y0982999D01*
X1019246Y0982857D01*
X1019172Y0982717D01*
X1019094Y0982580D01*
X1019012Y0982444D01*
X1018928Y0982310D01*
X1018839Y0982179D01*
X1018748Y0982050D01*
X1018653Y0981923D01*
X1018556Y0981798D01*
X1018455Y0981676D01*
X1018351Y0981557D01*
X1018244Y0981440D01*
X1018134Y0981326D01*
X1018021Y0981215D01*
X1017906Y0981106D01*
X1017788Y0981001D01*
X1017667Y0980899D01*
X1017544Y0980799D01*
X1017418Y0980703D01*
X1017290Y0980610D01*
X1017160Y0980520D01*
X1017027Y0980434D01*
X1016892Y0980350D01*
X1016756Y0980271D01*
X1016617Y0980194D01*
X1016476Y0980122D01*
X1016334Y0980052D01*
X1016190Y0979987D01*
X1016044Y0979925D01*
X1015897Y0979867D01*
X1015748Y0979812D01*
X1015598Y0979761D01*
X1015447Y0979714D01*
X1015295Y0979671D01*
X1015142Y0979632D01*
X1014987Y0979596D01*
X1014832Y0979565D01*
X1014676Y0979537D01*
X1014520Y0979513D01*
X1014363Y0979493D01*
X1014205Y0979477D01*
X1014048Y0979465D01*
X1013889Y0979457D01*
X1013731Y0979453D01*
X1013573Y0979453D01*
X1013415Y0979457D01*
X1013256Y0979465D01*
X1013099Y0979477D01*
X1012941Y0979493D01*
X1012784Y0979513D01*
X1012628Y0979537D01*
X1012472Y0979565D01*
X1012317Y0979596D01*
X1012162Y0979632D01*
X1012009Y0979671D01*
X1011857Y0979714D01*
X1011706Y0979761D01*
X1011556Y0979812D01*
X1011407Y0979867D01*
X1011260Y0979925D01*
X1011114Y0979987D01*
X1010970Y0980052D01*
X1010828Y0980122D01*
X1010687Y0980194D01*
X1010548Y0980271D01*
X1010412Y0980350D01*
X1010277Y0980434D01*
X1010144Y0980520D01*
X1010014Y0980610D01*
X1009886Y0980703D01*
X1009760Y0980799D01*
X1009637Y0980899D01*
X1009516Y0981001D01*
X1009398Y0981106D01*
X1009283Y0981215D01*
X1009170Y0981326D01*
X1009060Y0981440D01*
X1008953Y0981557D01*
X1008849Y0981676D01*
X1008748Y0981798D01*
X1008651Y0981923D01*
X1008556Y0982050D01*
X1008465Y0982179D01*
X1008376Y0982310D01*
X1008292Y0982444D01*
X1008210Y0982580D01*
X1008132Y0982717D01*
X1008058Y0982857D01*
X1007987Y0982999D01*
X1007919Y0983142D01*
X1007855Y0983287D01*
X1007795Y0983433D01*
X1007739Y0983581D01*
X1007686Y0983730D01*
X1007637Y0983881D01*
X1007592Y0984033D01*
X1007551Y0984186D01*
X1007513Y0984339D01*
X1007480Y0984494D01*
X1007450Y0984650D01*
X1007424Y0984806D01*
X1007403Y0984963D01*
X1007385Y0985120D01*
X1007371Y0985278D01*
X1007361Y0985436D01*
X1007355Y0985594D01*
X1007353Y0985752D01*
X1007353Y1166854D02*
X1007355Y1167012D01*
X1007361Y1167170D01*
X1007371Y1167328D01*
X1007385Y1167486D01*
X1007403Y1167643D01*
X1007424Y1167800D01*
X1007450Y1167956D01*
X1007480Y1168112D01*
X1007513Y1168267D01*
X1007551Y1168420D01*
X1007592Y1168573D01*
X1007637Y1168725D01*
X1007686Y1168876D01*
X1007739Y1169025D01*
X1007795Y1169173D01*
X1007855Y1169319D01*
X1007919Y1169464D01*
X1007987Y1169607D01*
X1008058Y1169749D01*
X1008132Y1169889D01*
X1008210Y1170026D01*
X1008292Y1170162D01*
X1008376Y1170296D01*
X1008465Y1170427D01*
X1008556Y1170556D01*
X1008651Y1170683D01*
X1008748Y1170808D01*
X1008849Y1170930D01*
X1008953Y1171049D01*
X1009060Y1171166D01*
X1009170Y1171280D01*
X1009283Y1171391D01*
X1009398Y1171500D01*
X1009516Y1171605D01*
X1009637Y1171707D01*
X1009760Y1171807D01*
X1009886Y1171903D01*
X1010014Y1171996D01*
X1010144Y1172086D01*
X1010277Y1172172D01*
X1010412Y1172256D01*
X1010548Y1172335D01*
X1010687Y1172412D01*
X1010828Y1172484D01*
X1010970Y1172554D01*
X1011114Y1172619D01*
X1011260Y1172681D01*
X1011407Y1172739D01*
X1011556Y1172794D01*
X1011706Y1172845D01*
X1011857Y1172892D01*
X1012009Y1172935D01*
X1012162Y1172974D01*
X1012317Y1173010D01*
X1012472Y1173041D01*
X1012628Y1173069D01*
X1012784Y1173093D01*
X1012941Y1173113D01*
X1013099Y1173129D01*
X1013256Y1173141D01*
X1013415Y1173149D01*
X1013573Y1173153D01*
X1013731Y1173153D01*
X1013889Y1173149D01*
X1014048Y1173141D01*
X1014205Y1173129D01*
X1014363Y1173113D01*
X1014520Y1173093D01*
X1014676Y1173069D01*
X1014832Y1173041D01*
X1014987Y1173010D01*
X1015142Y1172974D01*
X1015295Y1172935D01*
X1015447Y1172892D01*
X1015598Y1172845D01*
X1015748Y1172794D01*
X1015897Y1172739D01*
X1016044Y1172681D01*
X1016190Y1172619D01*
X1016334Y1172554D01*
X1016476Y1172484D01*
X1016617Y1172412D01*
X1016756Y1172335D01*
X1016892Y1172256D01*
X1017027Y1172172D01*
X1017160Y1172086D01*
X1017290Y1171996D01*
X1017418Y1171903D01*
X1017544Y1171807D01*
X1017667Y1171707D01*
X1017788Y1171605D01*
X1017906Y1171500D01*
X1018021Y1171391D01*
X1018134Y1171280D01*
X1018244Y1171166D01*
X1018351Y1171049D01*
X1018455Y1170930D01*
X1018556Y1170808D01*
X1018653Y1170683D01*
X1018748Y1170556D01*
X1018839Y1170427D01*
X1018928Y1170296D01*
X1019012Y1170162D01*
X1019094Y1170026D01*
X1019172Y1169889D01*
X1019246Y1169749D01*
X1019317Y1169607D01*
X1019385Y1169464D01*
X1019449Y1169319D01*
X1019509Y1169173D01*
X1019565Y1169025D01*
X1019618Y1168876D01*
X1019667Y1168725D01*
X1019712Y1168573D01*
X1019753Y1168420D01*
X1019791Y1168267D01*
X1019824Y1168112D01*
X1019854Y1167956D01*
X1019880Y1167800D01*
X1019901Y1167643D01*
X1019919Y1167486D01*
X1019933Y1167328D01*
X1019943Y1167170D01*
X1019949Y1167012D01*
X1019951Y1166854D01*
X1019949Y1166696D01*
X1019943Y1166538D01*
X1019933Y1166380D01*
X1019919Y1166222D01*
X1019901Y1166065D01*
X1019880Y1165908D01*
X1019854Y1165752D01*
X1019824Y1165596D01*
X1019791Y1165441D01*
X1019753Y1165288D01*
X1019712Y1165135D01*
X1019667Y1164983D01*
X1019618Y1164832D01*
X1019565Y1164683D01*
X1019509Y1164535D01*
X1019449Y1164389D01*
X1019385Y1164244D01*
X1019317Y1164101D01*
X1019246Y1163959D01*
X1019172Y1163819D01*
X1019094Y1163682D01*
X1019012Y1163546D01*
X1018928Y1163412D01*
X1018839Y1163281D01*
X1018748Y1163152D01*
X1018653Y1163025D01*
X1018556Y1162900D01*
X1018455Y1162778D01*
X1018351Y1162659D01*
X1018244Y1162542D01*
X1018134Y1162428D01*
X1018021Y1162317D01*
X1017906Y1162208D01*
X1017788Y1162103D01*
X1017667Y1162001D01*
X1017544Y1161901D01*
X1017418Y1161805D01*
X1017290Y1161712D01*
X1017160Y1161622D01*
X1017027Y1161536D01*
X1016892Y1161452D01*
X1016756Y1161373D01*
X1016617Y1161296D01*
X1016476Y1161224D01*
X1016334Y1161154D01*
X1016190Y1161089D01*
X1016044Y1161027D01*
X1015897Y1160969D01*
X1015748Y1160914D01*
X1015598Y1160863D01*
X1015447Y1160816D01*
X1015295Y1160773D01*
X1015142Y1160734D01*
X1014987Y1160698D01*
X1014832Y1160667D01*
X1014676Y1160639D01*
X1014520Y1160615D01*
X1014363Y1160595D01*
X1014205Y1160579D01*
X1014048Y1160567D01*
X1013889Y1160559D01*
X1013731Y1160555D01*
X1013573Y1160555D01*
X1013415Y1160559D01*
X1013256Y1160567D01*
X1013099Y1160579D01*
X1012941Y1160595D01*
X1012784Y1160615D01*
X1012628Y1160639D01*
X1012472Y1160667D01*
X1012317Y1160698D01*
X1012162Y1160734D01*
X1012009Y1160773D01*
X1011857Y1160816D01*
X1011706Y1160863D01*
X1011556Y1160914D01*
X1011407Y1160969D01*
X1011260Y1161027D01*
X1011114Y1161089D01*
X1010970Y1161154D01*
X1010828Y1161224D01*
X1010687Y1161296D01*
X1010548Y1161373D01*
X1010412Y1161452D01*
X1010277Y1161536D01*
X1010144Y1161622D01*
X1010014Y1161712D01*
X1009886Y1161805D01*
X1009760Y1161901D01*
X1009637Y1162001D01*
X1009516Y1162103D01*
X1009398Y1162208D01*
X1009283Y1162317D01*
X1009170Y1162428D01*
X1009060Y1162542D01*
X1008953Y1162659D01*
X1008849Y1162778D01*
X1008748Y1162900D01*
X1008651Y1163025D01*
X1008556Y1163152D01*
X1008465Y1163281D01*
X1008376Y1163412D01*
X1008292Y1163546D01*
X1008210Y1163682D01*
X1008132Y1163819D01*
X1008058Y1163959D01*
X1007987Y1164101D01*
X1007919Y1164244D01*
X1007855Y1164389D01*
X1007795Y1164535D01*
X1007739Y1164683D01*
X1007686Y1164832D01*
X1007637Y1164983D01*
X1007592Y1165135D01*
X1007551Y1165288D01*
X1007513Y1165441D01*
X1007480Y1165596D01*
X1007450Y1165752D01*
X1007424Y1165908D01*
X1007403Y1166065D01*
X1007385Y1166222D01*
X1007371Y1166380D01*
X1007361Y1166538D01*
X1007355Y1166696D01*
X1007353Y1166854D01*
M02*
