G75*
%MOIN*%
%OFA0B0*%
%FSLAX25Y25*%
%IPPOS*%
%LPD*%
%AMOC8*
5,1,8,0,0,1.08239X$1,22.5*
%
%ADD10C,0.07051*%
%ADD11C,0.04488*%
%ADD12C,0.05374*%
%ADD13OC8,0.06000*%
%ADD14C,0.06000*%
%ADD15C,0.02969*%
%ADD16C,0.05906*%
%ADD17C,0.01378*%
%ADD18C,0.01575*%
%ADD19C,0.02165*%
%ADD20C,0.01969*%
%ADD21C,0.02953*%
%ADD22R,0.01378X0.01378*%
%ADD23C,0.00394*%
%ADD24C,0.03543*%
%ADD25C,0.01181*%
%ADD26C,0.02362*%
%ADD27C,0.05906*%
%ADD28C,0.07087*%
%ADD29C,0.00803*%
%ADD30C,0.00591*%
D10*
X0321486Y0530280D03*
X0321486Y0550280D03*
X0341486Y0550280D03*
X0341486Y0530280D03*
X0498328Y0588665D03*
X0512471Y0574523D03*
X0526613Y0588665D03*
X0512471Y0602807D03*
X0548407Y0638469D03*
X0562549Y0624326D03*
X0576691Y0638469D03*
X0562549Y0652611D03*
X0614982Y0639059D03*
X0629124Y0624917D03*
X0643266Y0639059D03*
X0629124Y0653201D03*
X0673455Y0609697D03*
X0687597Y0595555D03*
X0673455Y0581413D03*
X0659313Y0595555D03*
X0676250Y0545800D03*
X0662108Y0531657D03*
X0676250Y0517515D03*
X0690392Y0531657D03*
X0642951Y0484217D03*
X0628809Y0470074D03*
X0614667Y0484217D03*
X0628809Y0498359D03*
X0581731Y0478547D03*
X0567589Y0464405D03*
X0553447Y0478547D03*
X0567589Y0492689D03*
X0532400Y0527445D03*
X0518258Y0541587D03*
X0504116Y0527445D03*
X0518258Y0513303D03*
X0574439Y0763893D03*
X0588581Y0778035D03*
X0574439Y0792178D03*
X0560297Y0778035D03*
X0521683Y0816846D03*
X0507541Y0830988D03*
X0521683Y0845130D03*
X0535825Y0830988D03*
X0514208Y0867285D03*
X0528350Y0881428D03*
X0514208Y0895570D03*
X0500066Y0881428D03*
X0553644Y0934649D03*
X0567786Y0920507D03*
X0581928Y0934649D03*
X0567786Y0948791D03*
X0603958Y0941028D03*
X0618100Y0955170D03*
X0632243Y0941028D03*
X0618100Y0926885D03*
X0657147Y0887878D03*
X0671289Y0902020D03*
X0685432Y0887878D03*
X0671289Y0873736D03*
X0678258Y0852099D03*
X0664116Y0837957D03*
X0678258Y0823815D03*
X0692400Y0837957D03*
X0639369Y0784531D03*
X0625226Y0770389D03*
X0611084Y0784531D03*
X0625226Y0798674D03*
X0805612Y0830476D03*
X0819754Y0816334D03*
X0833896Y0830476D03*
X0819754Y0844619D03*
X0813455Y0866925D03*
X0827597Y0881067D03*
X0813455Y0895209D03*
X0799313Y0881067D03*
X0852462Y0934610D03*
X0866604Y0920468D03*
X0880747Y0934610D03*
X0866604Y0948752D03*
X0905021Y0942878D03*
X0919163Y0957020D03*
X0933306Y0942878D03*
X0919163Y0928736D03*
X0958368Y0889728D03*
X0972510Y0903870D03*
X0986652Y0889728D03*
X0972510Y0875586D03*
X0979400Y0848752D03*
X0993542Y0834610D03*
X0979400Y0820468D03*
X0965258Y0834610D03*
X0926801Y0796036D03*
X0940943Y0781894D03*
X0926801Y0767752D03*
X0912659Y0781894D03*
X0881495Y0782406D03*
X0867352Y0796548D03*
X0853210Y0782406D03*
X0867352Y0768263D03*
X0859911Y0651508D03*
X0845769Y0637366D03*
X0859911Y0623224D03*
X0874054Y0637366D03*
X0909470Y0640122D03*
X0923612Y0654264D03*
X0937754Y0640122D03*
X0923612Y0625980D03*
X0958013Y0592130D03*
X0972156Y0606272D03*
X0986298Y0592130D03*
X0972156Y0577988D03*
X0972116Y0543831D03*
X0957974Y0529689D03*
X0972116Y0515547D03*
X0986258Y0529689D03*
X0942400Y0485201D03*
X0928258Y0471059D03*
X0914116Y0485201D03*
X0928258Y0499343D03*
X0881888Y0477602D03*
X0867746Y0463460D03*
X0853604Y0477602D03*
X0867746Y0491744D03*
X0832991Y0526382D03*
X0818848Y0540524D03*
X0804706Y0526382D03*
X0818848Y0512240D03*
X0813061Y0576767D03*
X0798919Y0590909D03*
X0813061Y0605052D03*
X0827203Y0590909D03*
X0340581Y0864768D03*
X0340581Y0884768D03*
X0320581Y0884768D03*
X0320581Y0864768D03*
X0279597Y0780161D03*
X0279597Y0760161D03*
X0279557Y0743390D03*
X0279557Y0723390D03*
X0259557Y0723390D03*
X0259557Y0743390D03*
X0259597Y0760161D03*
X0259597Y0780161D03*
X0220502Y0869650D03*
X0220502Y0889650D03*
X0200502Y0889650D03*
X0200502Y0869650D03*
D11*
X0301841Y0711953D03*
X0301841Y0706953D03*
X0308691Y0621170D03*
X0308691Y0616170D03*
D12*
X0303691Y0613670D03*
X0313691Y0613670D03*
X0313691Y0623670D03*
X0303691Y0623670D03*
X0306841Y0704453D03*
X0306841Y0714453D03*
X0296841Y0714453D03*
X0296841Y0704453D03*
D13*
X0207746Y0503114D03*
X0207746Y0493114D03*
X0207746Y0483114D03*
X0207746Y0473114D03*
X0207746Y0463114D03*
X0207746Y0453114D03*
X0207746Y0443114D03*
X0207746Y0433114D03*
X0207746Y0423114D03*
X0207746Y0413114D03*
X0197746Y0413114D03*
X0197746Y0423114D03*
X0197746Y0433114D03*
X0197746Y0443114D03*
X0197746Y0453114D03*
X0197746Y0463114D03*
X0197746Y0473114D03*
X0197746Y0483114D03*
X0197746Y0493114D03*
X0197746Y0503114D03*
X0304833Y0320358D03*
X0304833Y0310358D03*
X0314833Y0310358D03*
X0324833Y0310358D03*
X0334833Y0310358D03*
X0344833Y0310358D03*
X0354833Y0310358D03*
X0364833Y0310358D03*
X0364833Y0320358D03*
X0354833Y0320358D03*
X0344833Y0320358D03*
X0334833Y0320358D03*
X0324833Y0320358D03*
X0314833Y0320358D03*
X0408730Y0365437D03*
X0408730Y0375437D03*
X0408730Y0385437D03*
X0408730Y0395437D03*
X0408730Y0405437D03*
X0408730Y0415437D03*
X0418730Y0415437D03*
X0418730Y0405437D03*
X0418730Y0395437D03*
X0418730Y0385437D03*
X0418730Y0375437D03*
X0418730Y0365437D03*
X0027589Y0712563D03*
X0027589Y0722563D03*
X0027589Y0732563D03*
X0027589Y0742563D03*
X0017589Y0742563D03*
X0017589Y0732563D03*
X0017589Y0722563D03*
X0017589Y0712563D03*
D14*
X0255423Y0498122D02*
X0255423Y0492122D01*
X0265423Y0492122D02*
X0265423Y0498122D01*
X0275423Y0498122D02*
X0275423Y0492122D01*
X0212116Y0375051D02*
X0212116Y0369051D01*
X0202116Y0369051D02*
X0202116Y0375051D01*
X0192116Y0375051D02*
X0192116Y0369051D01*
X0182116Y0369051D02*
X0182116Y0375051D01*
X0172116Y0375051D02*
X0172116Y0369051D01*
X0162116Y0369051D02*
X0162116Y0375051D01*
X0152116Y0375051D02*
X0152116Y0369051D01*
X0142116Y0369051D02*
X0142116Y0375051D01*
X0142471Y0345051D02*
X0142471Y0339051D01*
X0152471Y0339051D02*
X0152471Y0345051D01*
X0132471Y0345051D02*
X0132471Y0339051D01*
X0122471Y0339051D02*
X0122471Y0345051D01*
X0161762Y0322886D02*
X0161762Y0316886D01*
X0171762Y0316886D02*
X0171762Y0322886D01*
X0181762Y0322886D02*
X0181762Y0316886D01*
X0191762Y0316886D02*
X0191762Y0322886D01*
X0201762Y0322886D02*
X0201762Y0316886D01*
X0211762Y0316886D02*
X0211762Y0322886D01*
X0211526Y0341098D02*
X0211526Y0347098D01*
X0201526Y0347098D02*
X0201526Y0341098D01*
X0191526Y0341098D02*
X0191526Y0347098D01*
X0181526Y0347098D02*
X0181526Y0341098D01*
X0233959Y0320358D02*
X0239959Y0320358D01*
X0239959Y0310358D02*
X0233959Y0310358D01*
X0233959Y0300358D02*
X0239959Y0300358D01*
X0239959Y0290358D02*
X0233959Y0290358D01*
X0258368Y0300201D02*
X0264368Y0300201D01*
X0264368Y0310201D02*
X0258368Y0310201D01*
X0258368Y0320201D02*
X0264368Y0320201D01*
X0280219Y0319925D02*
X0286219Y0319925D01*
X0286219Y0309925D02*
X0280219Y0309925D01*
X0280219Y0299925D02*
X0286219Y0299925D01*
X0311833Y0750437D02*
X0317833Y0750437D01*
X0317833Y0760437D02*
X0311833Y0760437D01*
X0724510Y0209177D02*
X0730510Y0209177D01*
X0730510Y0199177D02*
X0724510Y0199177D01*
X0724510Y0189177D02*
X0730510Y0189177D01*
X0744982Y0189098D02*
X0750982Y0189098D01*
X0750982Y0199098D02*
X0744982Y0199098D01*
X0744982Y0209098D02*
X0750982Y0209098D01*
X0765848Y0208154D02*
X0771848Y0208154D01*
X0771848Y0198154D02*
X0765848Y0198154D01*
X0765848Y0188154D02*
X0771848Y0188154D01*
X0785730Y0187839D02*
X0791730Y0187839D01*
X0791730Y0197839D02*
X0785730Y0197839D01*
X0785730Y0207839D02*
X0791730Y0207839D01*
X0807384Y0208272D02*
X0813384Y0208272D01*
X0813384Y0198272D02*
X0807384Y0198272D01*
X0807384Y0188272D02*
X0813384Y0188272D01*
X0828447Y0188232D02*
X0834447Y0188232D01*
X0834447Y0198232D02*
X0828447Y0198232D01*
X0828447Y0208232D02*
X0834447Y0208232D01*
X0848919Y0208862D02*
X0854919Y0208862D01*
X0854919Y0198862D02*
X0848919Y0198862D01*
X0848919Y0188862D02*
X0854919Y0188862D01*
X0868408Y0188902D02*
X0874408Y0188902D01*
X0874408Y0198902D02*
X0868408Y0198902D01*
X0868408Y0208902D02*
X0874408Y0208902D01*
D15*
X0200452Y0203576D03*
X0197352Y0203576D03*
X0194252Y0203576D03*
X0194252Y0200476D03*
X0194252Y0197376D03*
X0197352Y0197376D03*
X0197352Y0200476D03*
X0200452Y0200476D03*
X0200452Y0197376D03*
X0199232Y0089009D03*
X0199232Y0085909D03*
X0199232Y0082809D03*
X0196132Y0082809D03*
X0193032Y0082809D03*
X0193032Y0085909D03*
X0196132Y0085909D03*
X0196132Y0089009D03*
X0193032Y0089009D03*
D16*
X0170226Y0114689D02*
X0170226Y0120594D01*
X0160226Y0120594D02*
X0160226Y0114689D01*
X0160226Y0061539D02*
X0160226Y0055634D01*
X0170226Y0055634D02*
X0170226Y0061539D01*
X0218888Y0062327D02*
X0218888Y0056421D01*
X0228888Y0056421D02*
X0228888Y0062327D01*
X0228888Y0115476D02*
X0228888Y0121382D01*
X0218888Y0121382D02*
X0218888Y0115476D01*
X0219282Y0173744D02*
X0219282Y0179650D01*
X0229282Y0179650D02*
X0229282Y0173744D01*
X0278337Y0173744D02*
X0278337Y0179650D01*
X0288337Y0179650D02*
X0288337Y0173744D01*
X0287943Y0121382D02*
X0287943Y0115476D01*
X0277943Y0115476D02*
X0277943Y0121382D01*
X0277943Y0062327D02*
X0277943Y0056421D01*
X0287943Y0056421D02*
X0287943Y0062327D01*
X0330954Y0077375D02*
X0330954Y0083281D01*
X0340954Y0083281D02*
X0340954Y0077375D01*
X0350954Y0077375D02*
X0350954Y0083281D01*
X0369728Y0082963D02*
X0369728Y0077058D01*
X0379728Y0077058D02*
X0379728Y0082963D01*
X0389728Y0082963D02*
X0389728Y0077058D01*
X0409412Y0076750D02*
X0409412Y0082655D01*
X0419412Y0082655D02*
X0419412Y0076750D01*
X0429412Y0076750D02*
X0429412Y0082655D01*
X0447944Y0082895D02*
X0447944Y0076990D01*
X0457944Y0076990D02*
X0457944Y0082895D01*
X0467944Y0082895D02*
X0467944Y0076990D01*
X0527441Y0077392D02*
X0527441Y0083297D01*
X0537441Y0083297D02*
X0537441Y0077392D01*
X0547441Y0077392D02*
X0547441Y0083297D01*
X0566712Y0083508D02*
X0566712Y0077602D01*
X0576712Y0077602D02*
X0576712Y0083508D01*
X0586712Y0083508D02*
X0586712Y0077602D01*
X0606046Y0076755D02*
X0606046Y0082661D01*
X0616046Y0082661D02*
X0616046Y0076755D01*
X0626046Y0076755D02*
X0626046Y0082661D01*
X0645054Y0083075D02*
X0645054Y0077169D01*
X0655054Y0077169D02*
X0655054Y0083075D01*
X0665054Y0083075D02*
X0665054Y0077169D01*
X0664969Y0214900D02*
X0664969Y0220805D01*
X0654969Y0220805D02*
X0654969Y0214900D01*
X0644969Y0214900D02*
X0644969Y0220805D01*
X0625663Y0220802D02*
X0625663Y0214896D01*
X0615663Y0214896D02*
X0615663Y0220802D01*
X0605663Y0220802D02*
X0605663Y0214896D01*
X0586764Y0214893D02*
X0586764Y0220798D01*
X0576764Y0220798D02*
X0576764Y0214893D01*
X0566764Y0214893D02*
X0566764Y0220798D01*
X0547034Y0220947D02*
X0547034Y0215041D01*
X0537034Y0215041D02*
X0537034Y0220947D01*
X0527034Y0220947D02*
X0527034Y0215041D01*
X0468617Y0215083D02*
X0468617Y0220989D01*
X0458617Y0220989D02*
X0458617Y0215083D01*
X0448617Y0215083D02*
X0448617Y0220989D01*
X0429181Y0221390D02*
X0429181Y0215484D01*
X0419181Y0215484D02*
X0419181Y0221390D01*
X0409181Y0221390D02*
X0409181Y0215484D01*
X0389141Y0215373D02*
X0389141Y0221279D01*
X0379141Y0221279D02*
X0379141Y0215373D01*
X0369141Y0215373D02*
X0369141Y0221279D01*
X0349931Y0221316D02*
X0349931Y0215410D01*
X0339931Y0215410D02*
X0339931Y0221316D01*
X0329931Y0221316D02*
X0329931Y0215410D01*
X0288337Y0232799D02*
X0288337Y0238705D01*
X0278337Y0238705D02*
X0278337Y0232799D01*
X0229282Y0232799D02*
X0229282Y0238705D01*
X0219282Y0238705D02*
X0219282Y0232799D01*
X0171014Y0232602D02*
X0171014Y0238508D01*
X0161014Y0238508D02*
X0161014Y0232602D01*
X0161014Y0179453D02*
X0161014Y0173547D01*
X0171014Y0173547D02*
X0171014Y0179453D01*
X0111959Y0179453D02*
X0111959Y0173547D01*
X0101959Y0173547D02*
X0101959Y0179453D01*
X0101959Y0232602D02*
X0101959Y0238508D01*
X0111959Y0238508D02*
X0111959Y0232602D01*
X0028219Y0228705D02*
X0022313Y0228705D01*
X0022313Y0238705D02*
X0028219Y0238705D01*
X0028297Y0192524D02*
X0022392Y0192524D01*
X0022392Y0182524D02*
X0028297Y0182524D01*
X0101171Y0120594D02*
X0101171Y0114689D01*
X0111171Y0114689D02*
X0111171Y0120594D01*
X0111171Y0061539D02*
X0111171Y0055634D01*
X0101171Y0055634D02*
X0101171Y0061539D01*
X0028219Y0063902D02*
X0022313Y0063902D01*
X0022313Y0073902D02*
X0028219Y0073902D01*
X0026526Y0338626D02*
X0020620Y0338626D01*
X0020620Y0348626D02*
X0026526Y0348626D01*
X0024557Y0553823D02*
X0030463Y0553823D01*
X0030463Y0563823D02*
X0024557Y0563823D01*
X0027313Y0611539D02*
X0021408Y0611539D01*
X0021408Y0621539D02*
X0027313Y0621539D01*
X0026762Y0646736D02*
X0020856Y0646736D01*
X0020856Y0656736D02*
X0026762Y0656736D01*
X0027313Y0675791D02*
X0021408Y0675791D01*
X0021408Y0685791D02*
X0027313Y0685791D01*
X0026526Y0867681D02*
X0032431Y0867681D01*
X0032431Y0877681D02*
X0026526Y0877681D01*
X0026919Y0995122D02*
X0021014Y0995122D01*
X0021014Y1005122D02*
X0026919Y1005122D01*
X0467313Y1096106D02*
X0467313Y1102012D01*
X0477313Y1102012D02*
X0477313Y1096106D01*
X0711014Y1093429D02*
X0711014Y1087524D01*
X0721014Y1087524D02*
X0721014Y1093429D01*
X0735187Y1123075D02*
X0735187Y1128980D01*
X0745187Y1128980D02*
X0745187Y1123075D01*
X0752352Y1093429D02*
X0752352Y1087524D01*
X0762352Y1087524D02*
X0762352Y1093429D01*
X0796289Y1095909D02*
X0796289Y1090004D01*
X0806289Y1090004D02*
X0806289Y1095909D01*
X0956171Y1093154D02*
X0956171Y1099059D01*
X0966171Y1099059D02*
X0966171Y1093154D01*
X0974793Y0429610D02*
X0980699Y0429610D01*
X0980699Y0419610D02*
X0974793Y0419610D01*
X0974478Y0398232D02*
X0980384Y0398232D01*
X0980384Y0388232D02*
X0974478Y0388232D01*
X0973219Y0312720D02*
X0979124Y0312720D01*
X0979124Y0302720D02*
X0973219Y0302720D01*
X0973415Y0249492D02*
X0979321Y0249492D01*
X0979321Y0239492D02*
X0973415Y0239492D01*
X0973415Y0179492D02*
X0979321Y0179492D01*
X0979321Y0169492D02*
X0973415Y0169492D01*
X0749045Y0308665D02*
X0749045Y0314571D01*
X0739045Y0314571D02*
X0739045Y0308665D01*
X0735463Y0356697D02*
X0735463Y0362602D01*
X0745463Y0362602D02*
X0745463Y0356697D01*
X0495226Y0360634D02*
X0495226Y0366539D01*
X0485226Y0366539D02*
X0485226Y0360634D01*
D17*
X0396296Y0422798D03*
X0380351Y0421617D03*
X0370508Y0421027D03*
X0364770Y0430763D03*
X0351447Y0435555D03*
X0350130Y0432832D03*
X0346329Y0428665D03*
X0346329Y0426697D03*
X0350463Y0410752D03*
X0350856Y0402878D03*
X0346329Y0401106D03*
X0346329Y0399138D03*
X0351841Y0396579D03*
X0350266Y0389295D03*
X0352595Y0379491D03*
X0346329Y0379453D03*
X0335305Y0377484D03*
X0335108Y0387130D03*
X0336289Y0389295D03*
X0319557Y0370398D03*
X0321329Y0367248D03*
X0316211Y0368626D03*
X0307550Y0355797D03*
X0305468Y0355732D03*
X0304793Y0347563D03*
X0310502Y0348154D03*
X0313455Y0343823D03*
X0317392Y0353272D03*
X0319754Y0353272D03*
X0331172Y0355797D03*
X0335272Y0353507D03*
X0371296Y0375948D03*
X0371099Y0391893D03*
X0370902Y0404885D03*
X0379990Y0432012D03*
X0396296Y0446223D03*
X0335108Y0452287D03*
X0331300Y0452221D03*
X0329204Y0452254D03*
X0305710Y0452221D03*
X0303613Y0452254D03*
X0294754Y0438508D03*
X0291408Y0438705D03*
X0287274Y0438902D03*
X0281368Y0439098D03*
X0283928Y0452254D03*
X0286025Y0452221D03*
X0268219Y0450163D03*
X0264243Y0452254D03*
X0266329Y0454784D03*
X0264360Y0458328D03*
X0288387Y0476434D03*
X0295277Y0476434D03*
X0303741Y0476434D03*
X0307481Y0476434D03*
X0354793Y0510555D03*
X0355187Y0513311D03*
X0361486Y0515476D03*
X0339931Y0566559D03*
X0343612Y0570378D03*
X0343612Y0572780D03*
X0335305Y0577484D03*
X0328415Y0577386D03*
X0321617Y0579327D03*
X0318809Y0574598D03*
X0318809Y0572197D03*
X0328711Y0570201D03*
X0327726Y0564295D03*
X0334419Y0563902D03*
X0257451Y0623350D03*
X0257451Y0625220D03*
X0236388Y0582799D03*
X0225955Y0572563D03*
X0233041Y0557110D03*
X0228317Y0537819D03*
X0188652Y0630634D03*
X0175660Y0652287D03*
X0169360Y0652091D03*
X0150266Y0652287D03*
X0144360Y0652091D03*
X0125266Y0652287D03*
X0119360Y0652091D03*
X0100266Y0652287D03*
X0094557Y0652091D03*
X0089045Y0699433D03*
X0091395Y0706181D03*
X0090610Y0719303D03*
X0094459Y0719315D03*
X0090550Y0727172D03*
X0094670Y0731151D03*
X0098427Y0727236D03*
X0110896Y0721382D03*
X0113125Y0712055D03*
X0121526Y0721579D03*
X0126447Y0721579D03*
X0129006Y0720398D03*
X0159715Y0721382D03*
X0161880Y0719610D03*
X0164045Y0720594D03*
X0165817Y0720594D03*
X0168573Y0720004D03*
X0169951Y0718823D03*
X0165620Y0712524D03*
X0164045Y0711539D03*
X0174675Y0711539D03*
X0169754Y0701894D03*
X0165817Y0700909D03*
X0165817Y0691461D03*
X0176447Y0689098D03*
X0182648Y0688803D03*
X0191506Y0693528D03*
X0201447Y0700516D03*
X0204793Y0699925D03*
X0208730Y0699925D03*
X0211191Y0693528D03*
X0219951Y0685161D03*
X0230876Y0693528D03*
X0226939Y0705339D03*
X0226959Y0713232D03*
X0226959Y0717169D03*
X0221230Y0717150D03*
X0219085Y0713232D03*
X0215148Y0713232D03*
X0211191Y0713213D03*
X0211191Y0717150D03*
X0211210Y0709265D03*
X0219065Y0709276D03*
X0234321Y0719217D03*
X0233927Y0722366D03*
X0240423Y0717839D03*
X0245384Y0720713D03*
X0245148Y0710161D03*
X0247116Y0710161D03*
X0249675Y0709177D03*
X0256286Y0730550D03*
X0249263Y0734342D03*
X0237667Y0730634D03*
X0235502Y0730634D03*
X0237077Y0734571D03*
X0237471Y0742051D03*
X0235502Y0742051D03*
X0226959Y0736854D03*
X0223002Y0736835D03*
X0224971Y0742740D03*
X0211191Y0755339D03*
X0205384Y0745988D03*
X0193179Y0745988D03*
X0185600Y0742740D03*
X0180974Y0742642D03*
X0177234Y0738902D03*
X0173789Y0738803D03*
X0169754Y0736539D03*
X0165817Y0732406D03*
X0164045Y0742642D03*
X0168376Y0745988D03*
X0181663Y0750516D03*
X0182156Y0755634D03*
X0185502Y0754256D03*
X0191604Y0754846D03*
X0182156Y0759571D03*
X0186093Y0764689D03*
X0166604Y0786736D03*
X0161093Y0788311D03*
X0149183Y0788409D03*
X0139144Y0786933D03*
X0137963Y0781717D03*
X0126250Y0796087D03*
X0126053Y0799925D03*
X0126079Y0801884D03*
X0125955Y0803961D03*
X0125955Y0805929D03*
X0124478Y0813902D03*
X0122116Y0820594D03*
X0127726Y0825417D03*
X0125364Y0835949D03*
X0115620Y0834472D03*
X0123297Y0849138D03*
X0131762Y0873055D03*
X0147018Y0873055D03*
X0159223Y0843724D03*
X0160994Y0831028D03*
X0163061Y0830240D03*
X0165128Y0830437D03*
X0158829Y0829453D03*
X0149183Y0829157D03*
X0149085Y0834866D03*
X0168967Y0821480D03*
X0168573Y0811736D03*
X0174183Y0811835D03*
X0169386Y0801884D03*
X0168967Y0797957D03*
X0135010Y0815673D03*
X0185305Y0734177D03*
X0181587Y0726943D03*
X0182549Y0719217D03*
X0185305Y0719020D03*
X0201447Y0704453D03*
X0172707Y0672366D03*
X0245935Y0746972D03*
X0237667Y0773547D03*
X0218260Y0771853D03*
X0220837Y0844610D03*
X0216211Y0844709D03*
X0204006Y0843921D03*
X0234321Y0845299D03*
X0260896Y0848449D03*
X0265620Y0843823D03*
X0267490Y0847858D03*
X0281368Y0845988D03*
X0284124Y0839689D03*
X0304104Y0837720D03*
X0306762Y0837524D03*
X0306368Y0848154D03*
X0303612Y0848055D03*
X0321919Y0846972D03*
X0327726Y0844906D03*
X0333534Y0844118D03*
X0339144Y0844020D03*
X0340691Y0842040D03*
X0333927Y0838016D03*
X0327333Y0837917D03*
X0326841Y0850713D03*
X0334419Y0850319D03*
X0326644Y0916264D03*
X0329203Y0917642D03*
X0331762Y0919020D03*
X0335699Y0919020D03*
X0338455Y0919807D03*
X0341211Y0920594D03*
X0397510Y0955240D03*
X0528140Y0910782D03*
X0530305Y0909010D03*
X0533337Y0905240D03*
X0539636Y0907799D03*
X0540817Y0906421D03*
X0542195Y0905043D03*
X0544360Y0906815D03*
X0542982Y0908390D03*
X0541604Y0909768D03*
X0535699Y0912524D03*
X0535502Y0915280D03*
X0532156Y0919807D03*
X0532156Y0925516D03*
X0533927Y0925319D03*
X0531959Y0927287D03*
X0538652Y0925319D03*
X0538770Y0920526D03*
X0540640Y0918754D03*
X0544754Y0915870D03*
X0548494Y0912130D03*
X0551053Y0908980D03*
X0549872Y0904846D03*
X0553317Y0904846D03*
X0556762Y0907996D03*
X0558534Y0913311D03*
X0567589Y0914098D03*
X0568179Y0905929D03*
X0570148Y0904256D03*
X0576545Y0901697D03*
X0577549Y0897691D03*
X0577057Y0894049D03*
X0590226Y0898744D03*
X0592589Y0897366D03*
X0600465Y0888292D03*
X0604624Y0895794D03*
X0599872Y0876894D03*
X0601939Y0875811D03*
X0601171Y0872986D03*
X0598297Y0873646D03*
X0598494Y0867346D03*
X0596545Y0867376D03*
X0594360Y0867445D03*
X0592490Y0867445D03*
X0600463Y0867248D03*
X0602431Y0867248D03*
X0604400Y0867248D03*
X0609636Y0865801D03*
X0609636Y0872691D03*
X0609734Y0857829D03*
X0604203Y0852003D03*
X0600463Y0852091D03*
X0598317Y0852022D03*
X0596250Y0852022D03*
X0594380Y0852022D03*
X0592313Y0852022D03*
X0590345Y0852022D03*
X0590522Y0845890D03*
X0592392Y0845890D03*
X0588455Y0845890D03*
X0586506Y0845919D03*
X0584439Y0846018D03*
X0600266Y0845890D03*
X0602333Y0845890D03*
X0605925Y0845545D03*
X0615600Y0825289D03*
X0614656Y0821904D03*
X0622510Y0815083D03*
X0624478Y0813409D03*
X0635896Y0811343D03*
X0639341Y0814492D03*
X0642982Y0814492D03*
X0641801Y0810358D03*
X0648494Y0812524D03*
X0649872Y0810949D03*
X0651250Y0809571D03*
X0653219Y0811539D03*
X0652037Y0812917D03*
X0650660Y0814295D03*
X0648691Y0820004D03*
X0644754Y0820398D03*
X0654597Y0819413D03*
X0659518Y0814098D03*
X0662549Y0810329D03*
X0664715Y0808557D03*
X0657156Y0806815D03*
X0657156Y0804453D03*
X0652215Y0800585D03*
X0654085Y0798813D03*
X0648100Y0803469D03*
X0639144Y0833488D03*
X0634144Y0878400D03*
X0630610Y0879138D03*
X0640817Y0886047D03*
X0642490Y0888016D03*
X0644557Y0899433D03*
X0641408Y0902878D03*
X0641014Y0906028D03*
X0645148Y0904846D03*
X0643179Y0911539D03*
X0644557Y0912917D03*
X0645935Y0914295D03*
X0643967Y0916264D03*
X0642589Y0915083D03*
X0641211Y0913705D03*
X0635502Y0911736D03*
X0635502Y0908291D03*
X0636093Y0917642D03*
X0641408Y0922563D03*
X0645177Y0925594D03*
X0646949Y0927760D03*
X0648691Y0920201D03*
X0652628Y0922169D03*
X0656693Y0917130D03*
X0654921Y0915260D03*
X0653612Y0912917D03*
X0622608Y0902681D03*
X0586321Y0873306D03*
X0553514Y0885850D03*
X0547904Y0898941D03*
X0544163Y0899335D03*
X0538258Y0899925D03*
X0558258Y0841687D03*
X0562146Y0840398D03*
X0551939Y0833488D03*
X0550266Y0831520D03*
X0548199Y0820102D03*
X0551348Y0816657D03*
X0551250Y0813311D03*
X0547116Y0814492D03*
X0543967Y0811933D03*
X0540226Y0808193D03*
X0537342Y0804079D03*
X0535571Y0802209D03*
X0540423Y0798154D03*
X0543573Y0799138D03*
X0548297Y0803075D03*
X0549675Y0804256D03*
X0551053Y0805634D03*
X0549282Y0807799D03*
X0547707Y0806421D03*
X0546329Y0805043D03*
X0550856Y0796776D03*
X0547087Y0793744D03*
X0545315Y0791579D03*
X0556171Y0801697D03*
X0556762Y0807602D03*
X0557254Y0811244D03*
X0570345Y0816854D03*
X0469085Y0716421D03*
X0465148Y0710319D03*
X0465148Y0708547D03*
X0465148Y0706579D03*
X0463179Y0706579D03*
X0463179Y0708547D03*
X0463179Y0710319D03*
X0461211Y0710319D03*
X0461211Y0708547D03*
X0461211Y0706579D03*
X0455305Y0707366D03*
X0450069Y0708390D03*
X0450581Y0715043D03*
X0453140Y0715043D03*
X0458061Y0716224D03*
X0453337Y0701461D03*
X0450581Y0701657D03*
X0457864Y0700673D03*
X0463848Y0695004D03*
X0467510Y0700476D03*
X0471053Y0704413D03*
X0442116Y0686106D03*
X0439557Y0731579D03*
X0391408Y0722760D03*
X0373485Y0724844D03*
X0354203Y0723744D03*
X0354203Y0720004D03*
X0354203Y0716461D03*
X0347116Y0716264D03*
X0347510Y0720004D03*
X0347707Y0723744D03*
X0347904Y0727681D03*
X0347707Y0731224D03*
X0347707Y0734768D03*
X0347510Y0738311D03*
X0354203Y0738311D03*
X0354203Y0734768D03*
X0354203Y0731224D03*
X0354203Y0727681D03*
X0338904Y0731088D03*
X0338204Y0725959D03*
X0285699Y0726303D03*
X0268770Y0676500D03*
X0077726Y0718921D03*
X0077825Y0721185D03*
X0078022Y0725713D03*
X0077923Y0729846D03*
X0043573Y0733783D03*
X0043573Y0742642D03*
X0042195Y0723547D03*
X0042982Y0713705D03*
X0009715Y0714098D03*
X0009715Y0706224D03*
X0009715Y0698350D03*
X0009715Y0690476D03*
X0009715Y0682602D03*
X0009715Y0674728D03*
X0009715Y0666854D03*
X0009715Y0658980D03*
X0009715Y0651106D03*
X0009715Y0643232D03*
X0009715Y0635358D03*
X0009715Y0627484D03*
X0009715Y0619610D03*
X0009715Y0611736D03*
X0009715Y0603862D03*
X0009715Y0595988D03*
X0009715Y0588114D03*
X0009715Y0580240D03*
X0009715Y0572366D03*
X0009715Y0564492D03*
X0009715Y0556618D03*
X0009715Y0548744D03*
X0009715Y0540870D03*
X0009715Y0532996D03*
X0009715Y0525122D03*
X0009715Y0517248D03*
X0009715Y0509374D03*
X0009715Y0501500D03*
X0009715Y0493626D03*
X0009715Y0485752D03*
X0009715Y0477878D03*
X0009715Y0470004D03*
X0009715Y0462130D03*
X0009715Y0454256D03*
X0009715Y0446382D03*
X0009715Y0438508D03*
X0009715Y0430634D03*
X0009715Y0422760D03*
X0009715Y0414886D03*
X0009715Y0407012D03*
X0009715Y0399138D03*
X0009715Y0391264D03*
X0009715Y0383390D03*
X0009715Y0375516D03*
X0009715Y0367642D03*
X0009715Y0359768D03*
X0009715Y0351894D03*
X0009715Y0344020D03*
X0009715Y0336146D03*
X0009715Y0328272D03*
X0009715Y0320398D03*
X0009715Y0312524D03*
X0009715Y0304650D03*
X0009715Y0296776D03*
X0009715Y0288902D03*
X0009715Y0281028D03*
X0009715Y0273154D03*
X0009715Y0265280D03*
X0009715Y0257406D03*
X0009715Y0249531D03*
X0009715Y0241657D03*
X0009715Y0233783D03*
X0009715Y0225909D03*
X0009715Y0218035D03*
X0009715Y0210161D03*
X0009715Y0202287D03*
X0009715Y0194413D03*
X0009715Y0139295D03*
X0009715Y0131421D03*
X0009715Y0123547D03*
X0009715Y0115673D03*
X0009715Y0107799D03*
X0009715Y0099925D03*
X0009715Y0092051D03*
X0009715Y0084177D03*
X0009715Y0076303D03*
X0009715Y0068429D03*
X0009715Y0060555D03*
X0009715Y0052681D03*
X0009715Y0044807D03*
X0009715Y0036933D03*
X0009715Y0029059D03*
X0009715Y0021185D03*
X0009715Y0013311D03*
X0056959Y0005437D03*
X0064833Y0005437D03*
X0072707Y0005437D03*
X0080581Y0005437D03*
X0088455Y0005437D03*
X0096329Y0005437D03*
X0104203Y0005437D03*
X0112077Y0005437D03*
X0119951Y0005437D03*
X0127825Y0005437D03*
X0135699Y0005437D03*
X0143573Y0005437D03*
X0151447Y0005437D03*
X0159321Y0005437D03*
X0167195Y0005437D03*
X0175069Y0005437D03*
X0182943Y0005437D03*
X0190817Y0005437D03*
X0198691Y0005437D03*
X0206565Y0005437D03*
X0214439Y0005437D03*
X0222313Y0005437D03*
X0230187Y0005437D03*
X0238061Y0005437D03*
X0245935Y0005437D03*
X0253809Y0005437D03*
X0261683Y0005437D03*
X0269557Y0005437D03*
X0277431Y0005437D03*
X0285305Y0005437D03*
X0293179Y0005437D03*
X0301053Y0005437D03*
X0308927Y0005437D03*
X0316801Y0005437D03*
X0324675Y0005437D03*
X0332549Y0005437D03*
X0340423Y0005437D03*
X0348297Y0005437D03*
X0356171Y0005437D03*
X0364045Y0005437D03*
X0371919Y0005437D03*
X0379793Y0005437D03*
X0387667Y0005437D03*
X0395541Y0005437D03*
X0403415Y0005437D03*
X0411289Y0005437D03*
X0419163Y0005437D03*
X0427037Y0005437D03*
X0434911Y0005437D03*
X0442786Y0005437D03*
X0450660Y0005437D03*
X0458534Y0005437D03*
X0466408Y0005437D03*
X0474282Y0005437D03*
X0482156Y0005437D03*
X0490030Y0005437D03*
X0497904Y0005437D03*
X0505778Y0005437D03*
X0513652Y0005437D03*
X0521526Y0005437D03*
X0529400Y0005437D03*
X0537274Y0005437D03*
X0545148Y0005437D03*
X0553022Y0005437D03*
X0560896Y0005437D03*
X0568770Y0005437D03*
X0576644Y0005437D03*
X0584518Y0005437D03*
X0592392Y0005437D03*
X0600266Y0005437D03*
X0608140Y0005437D03*
X0616014Y0005437D03*
X0623888Y0005437D03*
X0631762Y0005437D03*
X0639636Y0005437D03*
X0647510Y0005437D03*
X0655384Y0005437D03*
X0663258Y0005437D03*
X0671132Y0005437D03*
X0679006Y0005437D03*
X0686880Y0005437D03*
X0694754Y0005437D03*
X0702628Y0005437D03*
X0710502Y0005437D03*
X0718376Y0005437D03*
X0726250Y0005437D03*
X0734124Y0005437D03*
X0741998Y0005437D03*
X0749872Y0005437D03*
X0757746Y0005437D03*
X0765620Y0005437D03*
X0773494Y0005437D03*
X0781368Y0005437D03*
X0789242Y0005437D03*
X0797116Y0005437D03*
X0804990Y0005437D03*
X0812864Y0005437D03*
X0820738Y0005437D03*
X0828612Y0005437D03*
X0836486Y0005437D03*
X0844360Y0005437D03*
X0852234Y0005437D03*
X0860108Y0005437D03*
X0867982Y0005437D03*
X0875856Y0005437D03*
X0883730Y0005437D03*
X0891604Y0005437D03*
X0899478Y0005437D03*
X0907352Y0005437D03*
X0915226Y0005437D03*
X0923100Y0005437D03*
X0930974Y0005437D03*
X0938848Y0005437D03*
X0946723Y0005437D03*
X0954597Y0005437D03*
X0962471Y0005437D03*
X0970345Y0005437D03*
X0978219Y0005437D03*
X0986093Y0005437D03*
X0993967Y0005437D03*
X1001841Y0005437D03*
X1009715Y0005437D03*
X1017589Y0005437D03*
X1025463Y0005437D03*
X1025463Y0013311D03*
X1025463Y0021185D03*
X1025463Y0029059D03*
X1025463Y0036933D03*
X1025463Y0044807D03*
X1025463Y0052681D03*
X1025463Y0060555D03*
X1025463Y0068429D03*
X1025463Y0076303D03*
X1025463Y0084177D03*
X1025463Y0092051D03*
X1025463Y0099925D03*
X1025463Y0107799D03*
X1025463Y0115673D03*
X1025463Y0123547D03*
X1025463Y0131421D03*
X1025463Y0139295D03*
X1025463Y0194413D03*
X1025463Y0202287D03*
X1025463Y0210161D03*
X1025463Y0218035D03*
X1025463Y0225909D03*
X1025463Y0233783D03*
X1025463Y0241657D03*
X1025463Y0249531D03*
X1025463Y0257406D03*
X1025463Y0265280D03*
X1025463Y0273154D03*
X1025463Y0281028D03*
X1025463Y0288902D03*
X1025463Y0296776D03*
X1025463Y0304650D03*
X1025463Y0312524D03*
X1025463Y0320398D03*
X1025463Y0328272D03*
X1025463Y0336146D03*
X1025463Y0344020D03*
X1025463Y0351894D03*
X1025463Y0359768D03*
X1025463Y0367642D03*
X1025463Y0375516D03*
X1025463Y0383390D03*
X1025463Y0391264D03*
X1025463Y0399138D03*
X1025463Y0407012D03*
X1025463Y0414886D03*
X1025463Y0422760D03*
X1025463Y0430634D03*
X1025463Y0438508D03*
X1025463Y0446382D03*
X1025463Y0454256D03*
X1025463Y0462130D03*
X1025463Y0470004D03*
X1025463Y0477878D03*
X1025463Y0485752D03*
X1025463Y0493626D03*
X1025463Y0501500D03*
X1025463Y0509374D03*
X1025463Y0517248D03*
X1025463Y0525122D03*
X1025463Y0532996D03*
X1025463Y0540870D03*
X1025463Y0548744D03*
X1025463Y0556618D03*
X1025463Y0564492D03*
X1025463Y0572366D03*
X1025463Y0580240D03*
X1025463Y0588114D03*
X1025463Y0595988D03*
X1025463Y0603862D03*
X1025463Y0611736D03*
X1025463Y0619610D03*
X1025463Y0627484D03*
X1025463Y0635358D03*
X1025463Y0643232D03*
X1025463Y0651106D03*
X1025463Y0658980D03*
X1025463Y0666854D03*
X1025463Y0674728D03*
X1025463Y0682602D03*
X1025463Y0690476D03*
X1025463Y0698350D03*
X1025463Y0706224D03*
X1025463Y0714098D03*
X1025463Y0721972D03*
X1025463Y0729846D03*
X1025463Y0737720D03*
X1025463Y0745594D03*
X1025463Y0753469D03*
X1025463Y0761343D03*
X1025463Y0769217D03*
X1025463Y0777091D03*
X1025463Y0784965D03*
X1025463Y0792839D03*
X1025463Y0800713D03*
X1025463Y0808587D03*
X1025463Y0816461D03*
X1025463Y0824335D03*
X1025463Y0832209D03*
X1025463Y0840083D03*
X1025463Y0847957D03*
X1025463Y0855831D03*
X1025463Y0863705D03*
X1025463Y0871579D03*
X1025463Y0879453D03*
X1025463Y0887327D03*
X1025463Y0895201D03*
X1025463Y0903075D03*
X1025463Y0910949D03*
X1025463Y0918823D03*
X1025463Y0926697D03*
X1025463Y0934571D03*
X1025463Y0942445D03*
X1025463Y0950319D03*
X1025463Y0958193D03*
X1025463Y0966067D03*
X1025463Y0973941D03*
X1025463Y0981815D03*
X1025463Y0989689D03*
X1025463Y0997563D03*
X1025463Y1005437D03*
X1025463Y1013311D03*
X1025463Y1021185D03*
X1025463Y1029059D03*
X1025463Y1036933D03*
X1025463Y1044807D03*
X1025463Y1052681D03*
X1025463Y1060555D03*
X1025463Y1068429D03*
X1025463Y1076303D03*
X1025463Y1084177D03*
X1025463Y1092051D03*
X1025463Y1099925D03*
X1025463Y1107799D03*
X1025463Y1115673D03*
X1025463Y1123547D03*
X1025463Y1131421D03*
X1025463Y1139295D03*
X1025463Y1147169D03*
X1025463Y1155043D03*
X1025463Y1162917D03*
X1025463Y1178665D03*
X1017589Y1178665D03*
X1009715Y1178665D03*
X1001841Y1178665D03*
X0993967Y1178665D03*
X0986093Y1178665D03*
X0978219Y1178665D03*
X0970345Y1178665D03*
X0962471Y1178665D03*
X0954597Y1178665D03*
X0946723Y1178665D03*
X0938848Y1178665D03*
X0930974Y1178665D03*
X0923100Y1178665D03*
X0915226Y1178665D03*
X0907352Y1178665D03*
X0899478Y1178665D03*
X0891604Y1178665D03*
X0883730Y1178665D03*
X0875856Y1178665D03*
X0867982Y1178665D03*
X0860108Y1178665D03*
X0852234Y1178665D03*
X0844360Y1178665D03*
X0836486Y1178665D03*
X0828612Y1178665D03*
X0820738Y1178665D03*
X0812864Y1178665D03*
X0804990Y1178665D03*
X0797116Y1178665D03*
X0789242Y1178665D03*
X0781368Y1178665D03*
X0773494Y1178665D03*
X0765620Y1178665D03*
X0757746Y1178665D03*
X0749872Y1178665D03*
X0741998Y1178665D03*
X0734124Y1178665D03*
X0726250Y1178665D03*
X0718376Y1178665D03*
X0710502Y1178665D03*
X0702628Y1178665D03*
X0694754Y1178665D03*
X0686880Y1178665D03*
X0679006Y1178665D03*
X0671132Y1178665D03*
X0663258Y1178665D03*
X0655384Y1178665D03*
X0647510Y1178665D03*
X0639636Y1178665D03*
X0631762Y1178665D03*
X0623888Y1178665D03*
X0616014Y1178665D03*
X0608140Y1178665D03*
X0600266Y1178665D03*
X0592392Y1178665D03*
X0584518Y1178665D03*
X0576644Y1178665D03*
X0568770Y1178665D03*
X0560896Y1178665D03*
X0553022Y1178665D03*
X0545148Y1178665D03*
X0537274Y1178665D03*
X0529400Y1178665D03*
X0521526Y1178665D03*
X0513652Y1178665D03*
X0505778Y1178665D03*
X0497904Y1178665D03*
X0490030Y1178665D03*
X0482156Y1178665D03*
X0474282Y1178665D03*
X0466408Y1178665D03*
X0458534Y1178665D03*
X0450660Y1178665D03*
X0442786Y1178665D03*
X0434911Y1178665D03*
X0427037Y1178665D03*
X0419163Y1178665D03*
X0411289Y1178665D03*
X0403415Y1178665D03*
X0395541Y1178665D03*
X0387667Y1178665D03*
X0379793Y1178665D03*
X0371919Y1178665D03*
X0364045Y1178665D03*
X0356171Y1178665D03*
X0348297Y1178665D03*
X0340423Y1178665D03*
X0332549Y1178665D03*
X0324675Y1178665D03*
X0316801Y1178665D03*
X0308927Y1178665D03*
X0301053Y1178665D03*
X0293179Y1178665D03*
X0285305Y1178665D03*
X0277431Y1178665D03*
X0269557Y1178665D03*
X0261683Y1178665D03*
X0253809Y1178665D03*
X0245935Y1178665D03*
X0238061Y1178665D03*
X0230187Y1178665D03*
X0222313Y1178665D03*
X0214439Y1178665D03*
X0206565Y1178665D03*
X0198691Y1178665D03*
X0190817Y1178665D03*
X0182943Y1178665D03*
X0175069Y1178665D03*
X0167195Y1178665D03*
X0159321Y1178665D03*
X0151447Y1178665D03*
X0143573Y1178665D03*
X0135699Y1178665D03*
X0127825Y1178665D03*
X0119951Y1178665D03*
X0112077Y1178665D03*
X0104203Y1178665D03*
X0096329Y1178665D03*
X0088455Y1178665D03*
X0080581Y1178665D03*
X0072707Y1178665D03*
X0064833Y1178665D03*
X0056959Y1178665D03*
X0009715Y1162917D03*
X0009715Y1155043D03*
X0009715Y1147169D03*
X0009715Y1139295D03*
X0009715Y1131421D03*
X0009715Y1123547D03*
X0009715Y1115673D03*
X0009715Y1107799D03*
X0009715Y1099925D03*
X0009715Y1092051D03*
X0009715Y1084177D03*
X0009715Y1076303D03*
X0009715Y1068429D03*
X0009715Y1060555D03*
X0009715Y1052681D03*
X0009715Y1044807D03*
X0009715Y1036933D03*
X0009715Y1029059D03*
X0009715Y1021185D03*
X0009715Y1013311D03*
X0009715Y1005437D03*
X0009715Y0997563D03*
X0009715Y0989689D03*
X0009715Y0981815D03*
X0009715Y0973941D03*
X0009715Y0966067D03*
X0009715Y0958193D03*
X0009715Y0950319D03*
X0009715Y0942445D03*
X0009715Y0934571D03*
X0009715Y0926697D03*
X0009715Y0918823D03*
X0009715Y0910949D03*
X0009715Y0903075D03*
X0009715Y0895201D03*
X0009715Y0887327D03*
X0009715Y0879453D03*
X0009715Y0871579D03*
X0009715Y0863705D03*
X0009715Y0855831D03*
X0009715Y0847957D03*
X0009715Y0840083D03*
X0009715Y0832209D03*
X0009715Y0824335D03*
X0009715Y0816461D03*
X0009715Y0808587D03*
X0009715Y0800713D03*
X0009715Y0792839D03*
X0009715Y0784965D03*
X0009715Y0777091D03*
X0009715Y0769217D03*
X0009715Y0761343D03*
X0009715Y0753469D03*
X0009715Y0745594D03*
X0009715Y0737720D03*
X0009715Y0729846D03*
X0009715Y0721972D03*
X0048277Y0802912D03*
X0050148Y0417530D03*
X0128809Y0395004D03*
X0212471Y0327091D03*
X0239833Y0374925D03*
X0247116Y0373744D03*
X0249872Y0371579D03*
X0249872Y0369610D03*
X0246132Y0385358D03*
X0246132Y0387524D03*
X0252548Y0393154D03*
X0249872Y0395201D03*
X0249872Y0397169D03*
X0261683Y0398941D03*
X0262274Y0387327D03*
X0262471Y0385161D03*
X0263652Y0383783D03*
X0236289Y0381488D03*
X0249872Y0416854D03*
X0249872Y0418823D03*
X0261683Y0420791D03*
X0262471Y0414886D03*
X0296132Y0416264D03*
X0329513Y0417829D03*
X0287865Y0355797D03*
X0285783Y0355732D03*
X0281762Y0353469D03*
X0288652Y0350319D03*
X0256368Y0223941D03*
X0253809Y0222563D03*
X0251250Y0223941D03*
X0237667Y0213508D03*
X0231762Y0197366D03*
X0251250Y0190083D03*
X0253809Y0190083D03*
X0256368Y0189886D03*
X0208534Y0203469D03*
X0204793Y0212720D03*
X0204793Y0215280D03*
X0198297Y0215673D03*
X0193770Y0212130D03*
X0182746Y0205240D03*
X0185305Y0201500D03*
X0185699Y0199335D03*
X0184715Y0197366D03*
X0185108Y0195201D03*
X0198297Y0187917D03*
X0200463Y0187917D03*
X0206171Y0189295D03*
X0151644Y0178862D03*
X0149675Y0182209D03*
X0139045Y0189886D03*
X0136486Y0187524D03*
X0133927Y0190083D03*
X0133730Y0222169D03*
X0136486Y0226106D03*
X0139045Y0223744D03*
X0146919Y0225516D03*
X0138061Y0232209D03*
X0130384Y0114098D03*
X0133140Y0103862D03*
X0135699Y0103862D03*
X0138258Y0106028D03*
X0149478Y0108783D03*
X0181959Y0090870D03*
X0183140Y0086933D03*
X0181171Y0084768D03*
X0183534Y0082996D03*
X0179973Y0080987D03*
X0197116Y0073154D03*
X0206380Y0074167D03*
X0207352Y0088902D03*
X0201980Y0098177D03*
X0201853Y0100487D03*
X0196919Y0101894D03*
X0190046Y0098588D03*
X0222904Y0090280D03*
X0225463Y0087917D03*
X0223112Y0082631D03*
X0221919Y0079846D03*
X0240817Y0070398D03*
X0250856Y0072957D03*
X0253415Y0072957D03*
X0255974Y0072760D03*
X0252825Y0062327D03*
X0253415Y0105240D03*
X0250856Y0105240D03*
X0255974Y0107012D03*
X0242392Y0109177D03*
X0242195Y0111933D03*
X0152825Y0068232D03*
X0148518Y0069553D03*
X0138258Y0071776D03*
X0135699Y0071776D03*
X0133140Y0071972D03*
X0331762Y0128665D03*
X0334321Y0119217D03*
X0352037Y0119217D03*
X0352037Y0121776D03*
X0371329Y0127878D03*
X0373888Y0118429D03*
X0391604Y0118429D03*
X0391604Y0120988D03*
X0411880Y0127484D03*
X0414439Y0118035D03*
X0432156Y0118035D03*
X0432156Y0120594D03*
X0450463Y0127484D03*
X0452234Y0118035D03*
X0469951Y0118035D03*
X0469951Y0120594D03*
X0474478Y0171185D03*
X0471919Y0180634D03*
X0454203Y0180634D03*
X0454203Y0178075D03*
X0434715Y0171579D03*
X0432156Y0181028D03*
X0414439Y0181028D03*
X0414439Y0178469D03*
X0395345Y0171382D03*
X0392786Y0180831D03*
X0375069Y0180831D03*
X0375069Y0178272D03*
X0356368Y0171185D03*
X0353809Y0180634D03*
X0336093Y0180634D03*
X0336093Y0178075D03*
X0528219Y0127287D03*
X0530778Y0117839D03*
X0548494Y0117839D03*
X0548494Y0120398D03*
X0568573Y0126894D03*
X0571132Y0117445D03*
X0588848Y0117445D03*
X0588848Y0120004D03*
X0607943Y0126500D03*
X0610502Y0117051D03*
X0628219Y0118626D03*
X0628219Y0121185D03*
X0651053Y0127681D03*
X0654006Y0117839D03*
X0671723Y0117839D03*
X0671723Y0120398D03*
X0672313Y0170791D03*
X0669360Y0180634D03*
X0651644Y0180634D03*
X0651644Y0178075D03*
X0632156Y0171579D03*
X0629597Y0181028D03*
X0611880Y0181028D03*
X0611880Y0178469D03*
X0592786Y0171382D03*
X0590226Y0180831D03*
X0572510Y0180831D03*
X0572510Y0178272D03*
X0553809Y0171185D03*
X0551250Y0180634D03*
X0533534Y0180634D03*
X0533534Y0178075D03*
X0727234Y0222760D03*
X0747313Y0222169D03*
X0768179Y0221579D03*
X0788258Y0220004D03*
X0810305Y0220201D03*
X0830384Y0220201D03*
X0850856Y0220791D03*
X0870738Y0220791D03*
X0841378Y0488035D03*
X0843150Y0490201D03*
X0846919Y0493232D03*
X0844360Y0499531D03*
X0845738Y0500713D03*
X0847116Y0502091D03*
X0845345Y0504256D03*
X0843770Y0502878D03*
X0842392Y0501500D03*
X0839636Y0495594D03*
X0836289Y0494413D03*
X0831634Y0498665D03*
X0833405Y0500535D03*
X0836289Y0504650D03*
X0841211Y0510161D03*
X0847313Y0509768D03*
X0852825Y0504059D03*
X0852234Y0498154D03*
X0856565Y0511835D03*
X0850660Y0517248D03*
X0847510Y0520693D03*
X0849577Y0532110D03*
X0851250Y0534079D03*
X0856929Y0542760D03*
X0861457Y0540988D03*
X0882136Y0554620D03*
X0887864Y0552780D03*
X0889833Y0552780D03*
X0891801Y0552780D03*
X0893770Y0552681D03*
X0895719Y0552750D03*
X0898150Y0553026D03*
X0900463Y0553075D03*
X0898002Y0546382D03*
X0896132Y0546480D03*
X0893967Y0546382D03*
X0898100Y0544413D03*
X0896132Y0540181D03*
X0894242Y0540545D03*
X0892274Y0540545D03*
X0895325Y0534541D03*
X0894013Y0520597D03*
X0887931Y0517785D03*
X0891211Y0506028D03*
X0882910Y0506517D03*
X0876360Y0509591D03*
X0869459Y0517445D03*
X0833174Y0555322D03*
X0852923Y0586638D03*
X0847313Y0599728D03*
X0852726Y0605634D03*
X0856171Y0608783D03*
X0844754Y0610161D03*
X0845935Y0614295D03*
X0839242Y0612130D03*
X0837864Y0613705D03*
X0836486Y0615083D03*
X0834518Y0613114D03*
X0835699Y0611736D03*
X0837077Y0610358D03*
X0839045Y0604650D03*
X0833140Y0605240D03*
X0828219Y0610555D03*
X0825187Y0614325D03*
X0823022Y0616097D03*
X0826841Y0621776D03*
X0829793Y0617642D03*
X0835522Y0624069D03*
X0833652Y0625841D03*
X0839636Y0621185D03*
X0867589Y0606717D03*
X0869557Y0605043D03*
X0876467Y0594837D03*
X0887845Y0581982D03*
X0887815Y0575762D03*
X0889931Y0574138D03*
X0891998Y0574138D03*
X0891506Y0568429D03*
X0893455Y0568399D03*
X0895522Y0568399D03*
X0897392Y0568399D03*
X0901427Y0568399D03*
X0901742Y0574138D03*
X0899872Y0574138D03*
X0903809Y0574138D03*
X0907234Y0574403D03*
X0888061Y0568331D03*
X0882037Y0562592D03*
X0915010Y0526077D03*
X0914518Y0522435D03*
X0921919Y0515870D03*
X0923888Y0514197D03*
X0935305Y0512130D03*
X0938750Y0515280D03*
X0943770Y0513114D03*
X0942589Y0508980D03*
X0949478Y0510949D03*
X0950660Y0509571D03*
X0952037Y0508193D03*
X0954006Y0510161D03*
X0952825Y0511539D03*
X0951447Y0512917D03*
X0949478Y0518626D03*
X0944163Y0521185D03*
X0955384Y0518035D03*
X0960305Y0512720D03*
X0963337Y0508951D03*
X0965502Y0507179D03*
X0959715Y0502681D03*
X0957943Y0505437D03*
X0953002Y0499207D03*
X0954872Y0497435D03*
X0950463Y0501303D03*
X0938553Y0534276D03*
X0933809Y0578439D03*
X0929921Y0579728D03*
X0940128Y0586638D03*
X0941801Y0588606D03*
X0943868Y0600024D03*
X0940719Y0603469D03*
X0942589Y0608783D03*
X0946723Y0607602D03*
X0944557Y0614295D03*
X0946132Y0615673D03*
X0947510Y0617051D03*
X0945541Y0619020D03*
X0944163Y0617839D03*
X0942786Y0616461D03*
X0937077Y0614492D03*
X0937667Y0620398D03*
X0942982Y0625319D03*
X0946752Y0628350D03*
X0948524Y0630516D03*
X0953612Y0624728D03*
X0950266Y0622957D03*
X0956496Y0618016D03*
X0958268Y0619886D03*
X0954400Y0614689D03*
X0934813Y0608882D03*
X0921723Y0603272D03*
X0789608Y0627508D03*
X0754911Y0698114D03*
X0757274Y0703035D03*
X0757274Y0705004D03*
X0757274Y0706972D03*
X0757274Y0709138D03*
X0757274Y0711106D03*
X0757274Y0713075D03*
X0757274Y0715043D03*
X0757274Y0717012D03*
X0753927Y0722130D03*
X0746053Y0722917D03*
X0736604Y0722720D03*
X0732077Y0717209D03*
X0732077Y0715240D03*
X0732077Y0713272D03*
X0731880Y0705004D03*
X0731880Y0703232D03*
X0736604Y0697524D03*
X0746053Y0697720D03*
X0674478Y0770791D03*
X0677234Y0773547D03*
X0662718Y0699584D03*
X0651673Y0632287D03*
X0649902Y0630122D03*
X0646132Y0627091D03*
X0648691Y0620791D03*
X0647313Y0619610D03*
X0645935Y0618232D03*
X0647707Y0616067D03*
X0649282Y0617445D03*
X0650660Y0618823D03*
X0653415Y0624728D03*
X0657156Y0626894D03*
X0661418Y0621657D03*
X0659646Y0619787D03*
X0656762Y0615673D03*
X0649872Y0609374D03*
X0645738Y0610555D03*
X0640226Y0616264D03*
X0640817Y0622169D03*
X0635600Y0608980D03*
X0641506Y0603567D03*
X0644656Y0600024D03*
X0642589Y0588705D03*
X0640915Y0586736D03*
X0634596Y0578537D03*
X0630709Y0579827D03*
X0608120Y0574600D03*
X0604301Y0574138D03*
X0602234Y0574138D03*
X0600364Y0574138D03*
X0602215Y0568301D03*
X0598179Y0568301D03*
X0594242Y0568301D03*
X0592195Y0568331D03*
X0590030Y0568626D03*
X0590423Y0574138D03*
X0592490Y0574138D03*
X0593770Y0575516D03*
X0586565Y0574403D03*
X0582825Y0562494D03*
X0582923Y0554522D03*
X0588356Y0552780D03*
X0590325Y0552780D03*
X0592293Y0552780D03*
X0594262Y0552681D03*
X0597313Y0552681D03*
X0599282Y0552681D03*
X0598691Y0546776D03*
X0596723Y0546972D03*
X0594656Y0546874D03*
X0597884Y0528162D03*
X0586857Y0522320D03*
X0570246Y0517543D03*
X0570148Y0506618D03*
X0557352Y0511933D03*
X0551447Y0517346D03*
X0548297Y0520791D03*
X0547904Y0510161D03*
X0545935Y0504650D03*
X0544360Y0503272D03*
X0542982Y0501894D03*
X0544951Y0499925D03*
X0546329Y0501106D03*
X0547707Y0502484D03*
X0553415Y0504453D03*
X0552825Y0498547D03*
X0547510Y0493626D03*
X0543740Y0490595D03*
X0541968Y0488429D03*
X0540226Y0495988D03*
X0537274Y0494610D03*
X0532224Y0499059D03*
X0533996Y0500929D03*
X0536880Y0505043D03*
X0541801Y0510752D03*
X0550364Y0532209D03*
X0552037Y0534177D03*
X0557815Y0542268D03*
X0562244Y0541087D03*
X0553711Y0586736D03*
X0548100Y0599827D03*
X0553514Y0605732D03*
X0556959Y0608882D03*
X0546723Y0613705D03*
X0545541Y0609571D03*
X0540030Y0611539D03*
X0538652Y0613114D03*
X0537274Y0614492D03*
X0535305Y0612524D03*
X0536486Y0611146D03*
X0537864Y0609768D03*
X0539833Y0604059D03*
X0533927Y0604650D03*
X0529006Y0609965D03*
X0525975Y0613734D03*
X0523809Y0615506D03*
X0529006Y0621185D03*
X0531368Y0617248D03*
X0536309Y0623478D03*
X0534439Y0625250D03*
X0540423Y0620594D03*
X0568376Y0606815D03*
X0570345Y0605142D03*
X0578199Y0598321D03*
X0577254Y0594935D03*
X0622510Y0603370D03*
X0639341Y0534374D03*
X0644951Y0521283D03*
X0651053Y0518232D03*
X0656959Y0517642D03*
X0653022Y0512524D03*
X0654400Y0511146D03*
X0655581Y0509768D03*
X0653612Y0507799D03*
X0652234Y0509177D03*
X0650856Y0510752D03*
X0645345Y0512720D03*
X0639537Y0515378D03*
X0636093Y0512228D03*
X0642786Y0506028D03*
X0650463Y0501697D03*
X0654577Y0498813D03*
X0656447Y0497041D03*
X0660896Y0502287D03*
X0659518Y0505043D03*
X0664911Y0508557D03*
X0667077Y0506785D03*
X0661880Y0512327D03*
X0624675Y0514295D03*
X0622707Y0515969D03*
X0614616Y0522533D03*
X0615797Y0526175D03*
X0618179Y0444610D03*
X0619754Y0441067D03*
X0592786Y0444610D03*
X0587274Y0441067D03*
X0493967Y0552681D03*
X0482746Y0504059D03*
X0482746Y0614295D03*
X0590226Y0958783D03*
X0591014Y0960949D03*
X0827352Y0910978D03*
X0829518Y0909207D03*
X0832549Y0905437D03*
X0838848Y0907996D03*
X0840030Y0906618D03*
X0841408Y0905240D03*
X0843573Y0907012D03*
X0842195Y0908587D03*
X0840817Y0909965D03*
X0834911Y0912720D03*
X0833337Y0915673D03*
X0837982Y0920723D03*
X0839852Y0918951D03*
X0843967Y0916067D03*
X0850266Y0909177D03*
X0849085Y0905043D03*
X0852431Y0905043D03*
X0855876Y0908193D03*
X0867293Y0906126D03*
X0869262Y0904453D03*
X0877352Y0897691D03*
X0876171Y0894246D03*
X0892667Y0880073D03*
X0896900Y0881943D03*
X0898100Y0885949D03*
X0894557Y0889492D03*
X0895935Y0890870D03*
X0901034Y0880664D03*
X0903199Y0880664D03*
X0903362Y0875564D03*
X0905407Y0875510D03*
X0907372Y0873478D03*
X0901467Y0873675D03*
X0897821Y0873373D03*
X0897018Y0876598D03*
X0895246Y0876106D03*
X0893868Y0867543D03*
X0891604Y0867543D03*
X0897608Y0867740D03*
X0899577Y0867642D03*
X0901545Y0867642D03*
X0903514Y0867642D03*
X0908849Y0865801D03*
X0908947Y0857829D03*
X0903415Y0852091D03*
X0899577Y0851894D03*
X0897530Y0852022D03*
X0895463Y0852022D03*
X0893593Y0852022D03*
X0889557Y0852022D03*
X0889636Y0846283D03*
X0891506Y0846283D03*
X0887569Y0846283D03*
X0884636Y0846116D03*
X0899380Y0846283D03*
X0901447Y0846283D03*
X0903415Y0845299D03*
X0903593Y0839128D03*
X0913770Y0822101D03*
X0914715Y0825486D03*
X0921624Y0815280D03*
X0923593Y0813606D03*
X0935010Y0811539D03*
X0938455Y0814689D03*
X0943376Y0811343D03*
X0943770Y0807799D03*
X0950463Y0809965D03*
X0951841Y0808390D03*
X0953219Y0807012D03*
X0955187Y0808980D03*
X0954006Y0810358D03*
X0952628Y0811736D03*
X0950660Y0817445D03*
X0956565Y0816854D03*
X0961486Y0811539D03*
X0964518Y0807770D03*
X0966683Y0805998D03*
X0959124Y0804256D03*
X0962077Y0799531D03*
X0956053Y0796254D03*
X0954183Y0798025D03*
X0950660Y0799335D03*
X0943868Y0820594D03*
X0938258Y0833685D03*
X0933258Y0878597D03*
X0929725Y0879335D03*
X0939931Y0886244D03*
X0941604Y0888213D03*
X0943671Y0899630D03*
X0940522Y0903075D03*
X0942392Y0907996D03*
X0946526Y0906815D03*
X0944360Y0913508D03*
X0945935Y0914886D03*
X0947313Y0916264D03*
X0945345Y0918232D03*
X0943967Y0917051D03*
X0942589Y0915673D03*
X0936880Y0913705D03*
X0934616Y0908488D03*
X0937471Y0919610D03*
X0942786Y0924531D03*
X0946555Y0927563D03*
X0948327Y0929728D03*
X0953022Y0924138D03*
X0950069Y0922169D03*
X0956299Y0917228D03*
X0958071Y0919098D03*
X0953415Y0913114D03*
X0921723Y0902878D03*
X0890226Y0937130D03*
X0889439Y0940476D03*
X0885896Y0944020D03*
X0884518Y0942839D03*
X0847018Y0899138D03*
X0843376Y0899531D03*
X0837471Y0900122D03*
X0852628Y0886047D03*
X0825463Y0859768D03*
X0849380Y0831717D03*
X0851053Y0833685D03*
X0857372Y0841884D03*
X0861260Y0840595D03*
X0847215Y0820201D03*
X0850463Y0816854D03*
X0849282Y0812327D03*
X0847313Y0806815D03*
X0845738Y0805437D03*
X0844360Y0804059D03*
X0846329Y0802091D03*
X0847707Y0803272D03*
X0849085Y0804650D03*
X0854793Y0806618D03*
X0856368Y0811441D03*
X0854203Y0800713D03*
X0848888Y0795791D03*
X0845118Y0792760D03*
X0843346Y0790595D03*
X0841604Y0798154D03*
X0838455Y0796972D03*
X0833602Y0801224D03*
X0835374Y0803095D03*
X0838258Y0807209D03*
X0841998Y0810949D03*
X0841408Y0813902D03*
X0869459Y0817051D03*
X0839439Y0927484D03*
X1005778Y1158980D03*
D18*
X0009715Y0005437D03*
X0009715Y0005437D03*
X0017589Y0005437D03*
X0025463Y0005437D03*
X0033337Y0005437D03*
X0041211Y0005437D03*
X0049085Y0005437D03*
X0029400Y0025122D03*
X0009715Y0147169D03*
X0009715Y0147169D03*
X0009715Y0155043D03*
X0009715Y0162917D03*
X0009715Y0170791D03*
X0009715Y0178665D03*
X0009715Y0186539D03*
X0329203Y0543823D03*
X0329203Y0546382D03*
X0329006Y0549335D03*
X0329006Y0552091D03*
X0329006Y0554846D03*
X0329006Y0557602D03*
X0333927Y0557602D03*
X0333927Y0554846D03*
X0333927Y0552091D03*
X0333927Y0549335D03*
X0333927Y0546579D03*
X0333927Y0544217D03*
X0336486Y0562130D03*
X0326447Y0562327D03*
X0265915Y0625122D03*
X0257057Y0610752D03*
X0254881Y0614626D03*
X0249369Y0609705D03*
X0247204Y0609705D03*
X0243464Y0609705D03*
X0241495Y0609705D03*
X0239527Y0609705D03*
X0233621Y0609705D03*
X0231653Y0609705D03*
X0229597Y0609768D03*
X0225660Y0608587D03*
X0228120Y0604354D03*
X0225758Y0602878D03*
X0222904Y0600516D03*
X0223002Y0589886D03*
X0211978Y0603665D03*
X0211880Y0609177D03*
X0204203Y0608291D03*
X0211486Y0617543D03*
X0217195Y0617642D03*
X0217786Y0623547D03*
X0217687Y0625516D03*
X0227234Y0616264D03*
X0244951Y0603665D03*
X0247215Y0603764D03*
X0249380Y0603764D03*
X0248779Y0621418D03*
X0237471Y0640575D03*
X0235404Y0640575D03*
X0203612Y0622957D03*
X0188736Y0684262D03*
X0190574Y0686099D03*
X0182190Y0692086D03*
X0182190Y0696023D03*
X0182190Y0699960D03*
X0182190Y0703897D03*
X0182190Y0707834D03*
X0182190Y0711771D03*
X0182190Y0715708D03*
X0186127Y0711771D03*
X0190064Y0711771D03*
X0190064Y0715708D03*
X0190064Y0719645D03*
X0194001Y0719645D03*
X0197938Y0719645D03*
X0197938Y0715708D03*
X0194001Y0715708D03*
X0194001Y0711771D03*
X0197938Y0711771D03*
X0197938Y0707834D03*
X0194001Y0707834D03*
X0194001Y0703897D03*
X0190620Y0703862D03*
X0189636Y0707406D03*
X0186127Y0707834D03*
X0186127Y0703897D03*
X0186127Y0699960D03*
X0178253Y0699960D03*
X0178253Y0703897D03*
X0178253Y0707834D03*
X0174316Y0707834D03*
X0170379Y0707834D03*
X0170379Y0711771D03*
X0170379Y0703897D03*
X0174316Y0703897D03*
X0174316Y0699960D03*
X0170379Y0699960D03*
X0170379Y0696023D03*
X0174316Y0696023D03*
X0178253Y0696023D03*
X0174316Y0692086D03*
X0170379Y0692086D03*
X0194001Y0699960D03*
X0197938Y0703897D03*
X0204798Y0707834D03*
X0204798Y0711771D03*
X0204798Y0715708D03*
X0204798Y0719645D03*
X0208735Y0719645D03*
X0212672Y0719645D03*
X0216609Y0719645D03*
X0220546Y0719645D03*
X0224483Y0719645D03*
X0228420Y0719645D03*
X0232357Y0719645D03*
X0233440Y0713247D03*
X0232357Y0726505D03*
X0228420Y0726505D03*
X0224483Y0726505D03*
X0220546Y0726505D03*
X0216609Y0726505D03*
X0212672Y0726505D03*
X0208735Y0726505D03*
X0204798Y0726505D03*
X0204798Y0730442D03*
X0204798Y0734379D03*
X0204798Y0738316D03*
X0208735Y0738316D03*
X0208735Y0734379D03*
X0208735Y0730442D03*
X0212672Y0734379D03*
X0216609Y0730442D03*
X0220546Y0730442D03*
X0220546Y0734379D03*
X0224483Y0734379D03*
X0224483Y0730442D03*
X0228420Y0730442D03*
X0228420Y0734379D03*
X0232357Y0734379D03*
X0232357Y0730442D03*
X0232357Y0742253D03*
X0232357Y0754064D03*
X0228420Y0754064D03*
X0220546Y0750127D03*
X0212672Y0746190D03*
X0208735Y0746190D03*
X0212672Y0742253D03*
X0216609Y0742253D03*
X0197938Y0738316D03*
X0194001Y0738316D03*
X0194001Y0742253D03*
X0194001Y0734379D03*
X0190064Y0734379D03*
X0190064Y0730442D03*
X0194001Y0730442D03*
X0197938Y0730442D03*
X0197938Y0734379D03*
X0197938Y0726505D03*
X0194001Y0726505D03*
X0190064Y0726505D03*
X0182190Y0738316D03*
X0170379Y0754064D03*
X0197938Y0750127D03*
X0208735Y0715708D03*
X0208735Y0711771D03*
X0208735Y0707834D03*
X0208735Y0703897D03*
X0204798Y0696023D03*
X0216609Y0699960D03*
X0224483Y0696023D03*
X0174316Y0719645D03*
X0328219Y0854846D03*
X0328219Y0857406D03*
X0328022Y0860358D03*
X0328022Y0863114D03*
X0328022Y0865870D03*
X0328022Y0868626D03*
X0328022Y0871382D03*
X0332943Y0871382D03*
X0332943Y0868626D03*
X0332943Y0865870D03*
X0332943Y0863114D03*
X0332943Y0860358D03*
X0332943Y0857602D03*
X0332943Y0855240D03*
X0409979Y0834413D03*
X0415097Y0834492D03*
X0419822Y0834492D03*
X0424546Y0834492D03*
X0429270Y0834492D03*
X0433995Y0834492D03*
X0438719Y0834492D03*
X0443428Y0834217D03*
X0447948Y0832881D03*
X0452021Y0830509D03*
X0455413Y0827237D03*
X0457930Y0823252D03*
X0459428Y0818784D03*
X0459834Y0814087D03*
X0459755Y0808929D03*
X0459755Y0804205D03*
X0459755Y0799481D03*
X0459755Y0794756D03*
X0459755Y0790465D03*
X0459755Y0785740D03*
X0459755Y0781016D03*
X0459755Y0776292D03*
X0459755Y0771567D03*
X0459755Y0766843D03*
X0459755Y0762118D03*
X0459755Y0757394D03*
X0459756Y0752670D03*
X0459756Y0747945D03*
X0459756Y0743221D03*
X0459756Y0738496D03*
X0459756Y0733772D03*
X0459756Y0729048D03*
X0459756Y0724323D03*
X0464480Y0722096D03*
X0464480Y0726820D03*
X0464480Y0731545D03*
X0464480Y0736269D03*
X0464480Y0740993D03*
X0464480Y0745718D03*
X0464480Y0750442D03*
X0464480Y0755167D03*
X0464480Y0759891D03*
X0464480Y0764615D03*
X0464480Y0769340D03*
X0464480Y0774064D03*
X0464480Y0778789D03*
X0464480Y0783513D03*
X0464480Y0788237D03*
X0464480Y0792962D03*
X0464480Y0797253D03*
X0464480Y0801978D03*
X0464480Y0806702D03*
X0464480Y0811426D03*
X0464558Y0816584D03*
X0464478Y0821306D03*
X0463494Y0825915D03*
X0461443Y0830159D03*
X0458442Y0833793D03*
X0454663Y0836609D03*
X0450323Y0838447D03*
X0445671Y0839200D03*
X0440947Y0839217D03*
X0436222Y0839217D03*
X0431498Y0839217D03*
X0426774Y0839217D03*
X0422049Y0839217D03*
X0417325Y0839217D03*
X0412600Y0839217D03*
X0514603Y0886325D03*
X0516769Y0888294D03*
X0519131Y0890656D03*
X0522084Y0893412D03*
X0524643Y0895774D03*
X0526808Y0897939D03*
X0528973Y0900105D03*
X0531139Y0902073D03*
X0535273Y0897939D03*
X0533107Y0895971D03*
X0530942Y0893806D03*
X0528777Y0891640D03*
X0526217Y0889278D03*
X0523265Y0886522D03*
X0520903Y0884160D03*
X0518737Y0882191D03*
X0549380Y0889591D03*
X0551152Y0887327D03*
X0554990Y0883980D03*
X0556860Y0882012D03*
X0564259Y0882900D03*
X0566323Y0880744D03*
X0568538Y0878505D03*
X0573312Y0879687D03*
X0576565Y0878340D03*
X0578730Y0880703D03*
X0576959Y0882671D03*
X0575187Y0884443D03*
X0572234Y0887002D03*
X0569721Y0888097D03*
X0567950Y0886325D03*
X0570856Y0883065D03*
X0574164Y0875552D03*
X0574163Y0870827D03*
X0576488Y0867095D03*
X0579735Y0866067D03*
X0579722Y0861485D03*
X0577281Y0861531D03*
X0577281Y0857808D03*
X0579793Y0857996D03*
X0579735Y0853272D03*
X0576488Y0852244D03*
X0574163Y0848511D03*
X0574164Y0843787D03*
X0576565Y0840998D03*
X0578730Y0838636D03*
X0576959Y0836667D03*
X0575187Y0834896D03*
X0572234Y0832337D03*
X0569721Y0831242D03*
X0567950Y0833013D03*
X0570856Y0836274D03*
X0573312Y0839651D03*
X0568538Y0840834D03*
X0566323Y0838594D03*
X0564259Y0836439D03*
X0553612Y0840181D03*
X0569439Y0846729D03*
X0569764Y0852465D03*
X0573027Y0855855D03*
X0573027Y0863484D03*
X0569764Y0866873D03*
X0569439Y0872609D03*
X0580108Y0874600D03*
X0580502Y0871844D03*
X0582471Y0877159D03*
X0583455Y0880703D03*
X0581683Y0884836D03*
X0579321Y0887592D03*
X0576565Y0890151D03*
X0573855Y0891640D03*
X0552989Y0916640D03*
X0550824Y0914672D03*
X0546690Y0918806D03*
X0548855Y0920774D03*
X0551217Y0923136D03*
X0554170Y0925892D03*
X0555745Y0927270D03*
X0559485Y0931010D03*
X0561060Y0932585D03*
X0563225Y0934554D03*
X0568147Y0931207D03*
X0566572Y0925695D03*
X0564210Y0925302D03*
X0562044Y0923136D03*
X0558304Y0921758D03*
X0555351Y0919002D03*
X0604052Y0890741D03*
X0601270Y0882081D03*
X0597392Y0879915D03*
X0609596Y0880703D03*
X0610581Y0877159D03*
X0612943Y0874600D03*
X0612549Y0871844D03*
X0613317Y0866067D03*
X0616563Y0867095D03*
X0618888Y0870827D03*
X0618888Y0875552D03*
X0616486Y0878340D03*
X0614321Y0880703D03*
X0616093Y0882671D03*
X0617864Y0884443D03*
X0620817Y0887002D03*
X0623330Y0888097D03*
X0625102Y0886325D03*
X0622195Y0883065D03*
X0619739Y0879687D03*
X0624513Y0878505D03*
X0626728Y0880744D03*
X0628792Y0882900D03*
X0638504Y0879699D03*
X0657567Y0898515D03*
X0659732Y0896349D03*
X0662094Y0893790D03*
X0664850Y0890837D03*
X0667212Y0888475D03*
X0671149Y0891625D03*
X0669181Y0893790D03*
X0666819Y0896152D03*
X0664063Y0899105D03*
X0661700Y0901664D03*
X0659535Y0903830D03*
X0657370Y0905995D03*
X0655401Y0908160D03*
X0653630Y0910129D03*
X0653433Y0902845D03*
X0655401Y0900680D03*
X0632763Y0916822D03*
X0632567Y0921940D03*
X0630204Y0924302D03*
X0627448Y0927255D03*
X0625086Y0929814D03*
X0622921Y0931192D03*
X0619968Y0935129D03*
X0617606Y0937097D03*
X0622921Y0940641D03*
X0624889Y0938475D03*
X0627055Y0936310D03*
X0628630Y0935129D03*
X0631582Y0931586D03*
X0634338Y0928633D03*
X0636700Y0926271D03*
X0638669Y0924105D03*
X0625463Y0907406D03*
X0623888Y0905043D03*
X0620541Y0901091D03*
X0618573Y0899335D03*
X0619196Y0891640D03*
X0616486Y0890151D03*
X0613730Y0887592D03*
X0611368Y0884836D03*
X0623612Y0872609D03*
X0623287Y0866873D03*
X0620024Y0863484D03*
X0615770Y0861531D03*
X0613258Y0861638D03*
X0612864Y0857799D03*
X0615377Y0857611D03*
X0619630Y0855658D03*
X0622894Y0852268D03*
X0623219Y0846533D03*
X0618494Y0848314D03*
X0616169Y0852047D03*
X0612923Y0853075D03*
X0612156Y0847297D03*
X0612549Y0844541D03*
X0610187Y0841982D03*
X0609203Y0838439D03*
X0610974Y0834305D03*
X0613337Y0831549D03*
X0616093Y0828990D03*
X0618802Y0827502D03*
X0620423Y0832140D03*
X0622936Y0831045D03*
X0624708Y0832816D03*
X0621801Y0836077D03*
X0619346Y0839454D03*
X0616093Y0840801D03*
X0613927Y0838439D03*
X0615699Y0836471D03*
X0617471Y0834699D03*
X0624119Y0840637D03*
X0626334Y0838397D03*
X0628399Y0836242D03*
X0635797Y0837327D03*
X0638061Y0835949D03*
X0641506Y0832012D03*
X0644852Y0832602D03*
X0656532Y0820971D03*
X0660666Y0824908D03*
X0662241Y0826483D03*
X0665194Y0829239D03*
X0667753Y0831601D03*
X0669918Y0833766D03*
X0672084Y0835932D03*
X0674249Y0837900D03*
X0678186Y0833373D03*
X0676021Y0831404D03*
X0673855Y0829239D03*
X0671690Y0827073D03*
X0669131Y0824711D03*
X0666178Y0821955D03*
X0664406Y0820184D03*
X0661060Y0816640D03*
X0645312Y0801286D03*
X0643147Y0799317D03*
X0640981Y0797152D03*
X0638816Y0794987D03*
X0636257Y0792624D03*
X0633304Y0789869D03*
X0630942Y0787506D03*
X0628777Y0785538D03*
X0625036Y0789081D03*
X0627202Y0791050D03*
X0629564Y0793412D03*
X0632517Y0796168D03*
X0635076Y0798530D03*
X0637241Y0800695D03*
X0639406Y0802861D03*
X0641572Y0804829D03*
X0615817Y0817839D03*
X0598691Y0817429D03*
X0598691Y0812705D03*
X0598691Y0807980D03*
X0598691Y0803256D03*
X0598691Y0798532D03*
X0598691Y0793807D03*
X0598691Y0789083D03*
X0598691Y0784358D03*
X0598691Y0779634D03*
X0598859Y0774917D03*
X0600029Y0770351D03*
X0602250Y0766194D03*
X0605396Y0762685D03*
X0609286Y0760024D03*
X0613697Y0758363D03*
X0618376Y0757799D03*
X0620919Y0757799D03*
X0625644Y0757799D03*
X0630368Y0757799D03*
X0635093Y0757799D03*
X0639817Y0757799D03*
X0644541Y0757799D03*
X0649266Y0757799D03*
X0653990Y0757799D03*
X0658715Y0757799D03*
X0663439Y0757799D03*
X0668164Y0757799D03*
X0672888Y0757799D03*
X0677612Y0757799D03*
X0682337Y0757799D03*
X0687061Y0757799D03*
X0691786Y0757799D03*
X0696510Y0757799D03*
X0701234Y0757799D03*
X0705959Y0757799D03*
X0710683Y0757799D03*
X0715408Y0757799D03*
X0720132Y0757799D03*
X0724856Y0757799D03*
X0724135Y0752691D03*
X0728605Y0751199D03*
X0732579Y0748667D03*
X0735820Y0745246D03*
X0738135Y0741140D03*
X0739384Y0736597D03*
X0739589Y0731882D03*
X0739589Y0727158D03*
X0744313Y0729083D03*
X0747743Y0728567D03*
X0747743Y0733292D03*
X0744313Y0733808D03*
X0744313Y0738532D03*
X0747743Y0738016D03*
X0748322Y0742693D03*
X0743734Y0743209D03*
X0742038Y0747606D03*
X0739326Y0751459D03*
X0735759Y0754540D03*
X0731552Y0756664D03*
X0718207Y0753075D03*
X0713482Y0753075D03*
X0708758Y0753075D03*
X0704033Y0753075D03*
X0699309Y0753075D03*
X0694585Y0753075D03*
X0689860Y0753075D03*
X0685136Y0753075D03*
X0680411Y0753075D03*
X0675687Y0753075D03*
X0670962Y0753075D03*
X0666238Y0753075D03*
X0661514Y0753075D03*
X0656789Y0753075D03*
X0652065Y0753075D03*
X0647340Y0753075D03*
X0642616Y0753075D03*
X0637892Y0753075D03*
X0633167Y0753075D03*
X0628443Y0753075D03*
X0623718Y0753075D03*
X0618994Y0753075D03*
X0614270Y0753075D03*
X0610862Y0753273D03*
X0606310Y0754495D03*
X0602179Y0756764D03*
X0598705Y0759949D03*
X0596089Y0763869D03*
X0594479Y0768299D03*
X0593967Y0772984D03*
X0593967Y0777708D03*
X0593967Y0782433D03*
X0593967Y0787157D03*
X0593967Y0791882D03*
X0593967Y0796606D03*
X0593967Y0801330D03*
X0593967Y0806055D03*
X0593967Y0810779D03*
X0593967Y0815504D03*
X0593967Y0820228D03*
X0593967Y0824953D03*
X0593967Y0829677D03*
X0593967Y0834401D03*
X0593967Y0839126D03*
X0598692Y0841051D03*
X0598692Y0836327D03*
X0598692Y0831602D03*
X0598692Y0826878D03*
X0598691Y0822154D03*
X0603908Y0840067D03*
X0588455Y0851894D03*
X0580502Y0847494D03*
X0580108Y0844738D03*
X0582471Y0842179D03*
X0583455Y0838636D03*
X0581683Y0834502D03*
X0579321Y0831746D03*
X0576565Y0829187D03*
X0573855Y0827698D03*
X0574183Y0820201D03*
X0573789Y0816854D03*
X0568868Y0814492D03*
X0567293Y0812130D03*
X0557567Y0799302D03*
X0558354Y0796940D03*
X0561700Y0794971D03*
X0563866Y0792806D03*
X0566228Y0790247D03*
X0568984Y0787294D03*
X0571346Y0784932D03*
X0573315Y0782767D03*
X0568590Y0778436D03*
X0566622Y0780601D03*
X0564259Y0782963D03*
X0561504Y0785916D03*
X0559141Y0788475D03*
X0553630Y0790444D03*
X0554811Y0792806D03*
X0552842Y0794971D03*
X0537488Y0810523D03*
X0535519Y0812688D03*
X0533157Y0815050D03*
X0530401Y0818003D03*
X0528039Y0820562D03*
X0525874Y0822727D03*
X0523708Y0824893D03*
X0521740Y0827058D03*
X0526464Y0830798D03*
X0528433Y0828633D03*
X0530598Y0826467D03*
X0532763Y0824302D03*
X0535126Y0821743D03*
X0537881Y0818790D03*
X0540244Y0816428D03*
X0543984Y0815641D03*
X0618494Y0843590D03*
X0617510Y0711697D03*
X0622234Y0711697D03*
X0622234Y0706972D03*
X0617510Y0706972D03*
X0612786Y0706972D03*
X0612786Y0711697D03*
X0608061Y0711697D03*
X0603337Y0711697D03*
X0603337Y0706972D03*
X0608061Y0706972D03*
X0598612Y0706972D03*
X0593888Y0706972D03*
X0589163Y0706972D03*
X0584439Y0706972D03*
X0579715Y0706972D03*
X0574990Y0706972D03*
X0570266Y0706972D03*
X0565541Y0706972D03*
X0560817Y0706972D03*
X0556093Y0706972D03*
X0551368Y0706972D03*
X0546644Y0706972D03*
X0541919Y0706972D03*
X0537195Y0706972D03*
X0532471Y0706972D03*
X0532471Y0711697D03*
X0537195Y0711697D03*
X0541919Y0711697D03*
X0546644Y0711697D03*
X0551368Y0711697D03*
X0556093Y0711697D03*
X0560817Y0711697D03*
X0565541Y0711697D03*
X0570266Y0711697D03*
X0574990Y0711697D03*
X0579715Y0711697D03*
X0584439Y0711697D03*
X0589163Y0711697D03*
X0593888Y0711697D03*
X0598612Y0711697D03*
X0626959Y0711697D03*
X0631683Y0711697D03*
X0636408Y0711697D03*
X0641132Y0711697D03*
X0645856Y0711697D03*
X0645856Y0706972D03*
X0641132Y0706972D03*
X0636408Y0706972D03*
X0631683Y0706972D03*
X0626959Y0706972D03*
X0650581Y0706972D03*
X0655305Y0706972D03*
X0660030Y0706972D03*
X0664754Y0706972D03*
X0669478Y0706972D03*
X0674203Y0706972D03*
X0678927Y0706972D03*
X0683652Y0706972D03*
X0688376Y0706972D03*
X0693100Y0706972D03*
X0693100Y0711697D03*
X0688376Y0711697D03*
X0683652Y0711697D03*
X0678927Y0711697D03*
X0674203Y0711697D03*
X0669478Y0711697D03*
X0664754Y0711697D03*
X0660030Y0711697D03*
X0655305Y0711697D03*
X0650581Y0711697D03*
X0651751Y0667491D03*
X0656475Y0667491D03*
X0661199Y0667491D03*
X0665924Y0667491D03*
X0670648Y0667491D03*
X0675373Y0667491D03*
X0680097Y0667491D03*
X0684821Y0667491D03*
X0689546Y0667491D03*
X0694270Y0667491D03*
X0698995Y0667491D03*
X0703719Y0667491D03*
X0708444Y0667491D03*
X0713168Y0667491D03*
X0717892Y0667491D03*
X0719818Y0662767D03*
X0724542Y0662767D03*
X0723820Y0667875D03*
X0728290Y0669367D03*
X0732265Y0671900D03*
X0735506Y0675321D03*
X0737820Y0679426D03*
X0739070Y0683970D03*
X0739275Y0688684D03*
X0739274Y0693408D03*
X0743999Y0691483D03*
X0747624Y0691468D03*
X0747624Y0686744D03*
X0743999Y0686759D03*
X0743999Y0682034D03*
X0747624Y0682019D03*
X0748203Y0677342D03*
X0749899Y0672946D03*
X0752612Y0669092D03*
X0756178Y0666011D03*
X0760385Y0663888D03*
X0763333Y0669352D03*
X0767803Y0667860D03*
X0767081Y0662752D03*
X0771805Y0662752D03*
X0776530Y0662752D03*
X0781254Y0662752D03*
X0785979Y0662752D03*
X0790703Y0662752D03*
X0795427Y0662752D03*
X0800152Y0662752D03*
X0804876Y0662752D03*
X0809601Y0662752D03*
X0814325Y0662752D03*
X0819049Y0662752D03*
X0823774Y0662752D03*
X0828498Y0662752D03*
X0833223Y0662752D03*
X0837947Y0662752D03*
X0842671Y0662752D03*
X0847396Y0662752D03*
X0852120Y0662752D03*
X0856845Y0662752D03*
X0861569Y0662752D03*
X0866293Y0662752D03*
X0871018Y0662752D03*
X0873561Y0662752D03*
X0878240Y0662188D03*
X0882651Y0660528D03*
X0886541Y0657866D03*
X0889687Y0654357D03*
X0891909Y0650200D03*
X0893078Y0645634D03*
X0893246Y0640917D03*
X0893246Y0636193D03*
X0893246Y0631469D03*
X0893246Y0626744D03*
X0893246Y0622020D03*
X0893246Y0617295D03*
X0893246Y0612571D03*
X0893246Y0607846D03*
X0893246Y0603122D03*
X0893246Y0598398D03*
X0893246Y0593673D03*
X0893246Y0588949D03*
X0893246Y0584224D03*
X0893246Y0579500D03*
X0897970Y0581425D03*
X0897970Y0586150D03*
X0897970Y0590874D03*
X0897970Y0595599D03*
X0897970Y0600323D03*
X0897970Y0605048D03*
X0897970Y0609772D03*
X0897970Y0614496D03*
X0897970Y0619221D03*
X0897970Y0623945D03*
X0897971Y0628670D03*
X0897971Y0633394D03*
X0897971Y0638118D03*
X0897971Y0642843D03*
X0897971Y0647567D03*
X0897459Y0652253D03*
X0895849Y0656682D03*
X0893232Y0660602D03*
X0889758Y0663788D03*
X0885627Y0666056D03*
X0881075Y0667278D03*
X0877668Y0667476D03*
X0872943Y0667476D03*
X0868219Y0667476D03*
X0863495Y0667476D03*
X0858770Y0667476D03*
X0854046Y0667476D03*
X0849321Y0667476D03*
X0844597Y0667476D03*
X0839873Y0667476D03*
X0835148Y0667476D03*
X0830424Y0667476D03*
X0825699Y0667476D03*
X0820975Y0667476D03*
X0816250Y0667476D03*
X0811526Y0667476D03*
X0806802Y0667476D03*
X0802077Y0667476D03*
X0797353Y0667476D03*
X0792628Y0667476D03*
X0787904Y0667476D03*
X0783180Y0667476D03*
X0778455Y0667476D03*
X0773731Y0667476D03*
X0759358Y0671885D03*
X0756117Y0675306D03*
X0753803Y0679411D03*
X0752553Y0683955D03*
X0752349Y0688669D03*
X0752349Y0693394D03*
X0743420Y0677357D03*
X0741724Y0672960D03*
X0739011Y0669107D03*
X0735445Y0666026D03*
X0731238Y0663902D03*
X0715093Y0662767D03*
X0710369Y0662767D03*
X0705645Y0662767D03*
X0700920Y0662767D03*
X0696196Y0662767D03*
X0691471Y0662767D03*
X0686747Y0662767D03*
X0682023Y0662767D03*
X0677298Y0662767D03*
X0672574Y0662767D03*
X0667849Y0662767D03*
X0663125Y0662767D03*
X0658401Y0662767D03*
X0653676Y0662767D03*
X0648952Y0662767D03*
X0644227Y0662767D03*
X0639503Y0662767D03*
X0634778Y0662767D03*
X0630054Y0662767D03*
X0625330Y0662767D03*
X0620605Y0662767D03*
X0618062Y0662767D03*
X0613383Y0662203D03*
X0608972Y0660542D03*
X0605082Y0657881D03*
X0601936Y0654372D03*
X0599715Y0650215D03*
X0598545Y0645649D03*
X0598377Y0640932D03*
X0598377Y0636208D03*
X0598377Y0631483D03*
X0598377Y0626759D03*
X0598377Y0622035D03*
X0598377Y0617310D03*
X0598377Y0612586D03*
X0598377Y0607861D03*
X0598377Y0603137D03*
X0598377Y0598412D03*
X0598377Y0593688D03*
X0598377Y0588964D03*
X0598377Y0584239D03*
X0598377Y0579515D03*
X0593653Y0581440D03*
X0593653Y0586165D03*
X0593653Y0590889D03*
X0593653Y0595614D03*
X0593653Y0600338D03*
X0593653Y0605062D03*
X0593653Y0609787D03*
X0593653Y0614511D03*
X0593653Y0619236D03*
X0593653Y0623960D03*
X0593653Y0628684D03*
X0593653Y0633409D03*
X0593653Y0638133D03*
X0593652Y0642858D03*
X0593652Y0647582D03*
X0594165Y0652267D03*
X0595775Y0656697D03*
X0598391Y0660617D03*
X0601865Y0663802D03*
X0605996Y0666071D03*
X0610548Y0667293D03*
X0613955Y0667491D03*
X0618680Y0667491D03*
X0623404Y0667491D03*
X0628129Y0667491D03*
X0632853Y0667491D03*
X0637577Y0667491D03*
X0642302Y0667491D03*
X0647026Y0667491D03*
X0634929Y0637688D03*
X0637685Y0634735D03*
X0640047Y0632373D03*
X0642015Y0630208D03*
X0637291Y0626467D03*
X0635322Y0628633D03*
X0632960Y0630995D03*
X0630204Y0633948D03*
X0623986Y0605732D03*
X0618671Y0600024D03*
X0618999Y0592821D03*
X0616289Y0591333D03*
X0613534Y0588773D03*
X0611171Y0586018D03*
X0609400Y0581884D03*
X0610384Y0578340D03*
X0612746Y0575781D03*
X0612352Y0573025D03*
X0613120Y0567248D03*
X0616366Y0568276D03*
X0618691Y0572008D03*
X0618691Y0576733D03*
X0616289Y0579522D03*
X0614124Y0581884D03*
X0615896Y0583852D03*
X0617667Y0585624D03*
X0620620Y0588183D03*
X0623133Y0589278D03*
X0624905Y0587506D03*
X0621998Y0584246D03*
X0619543Y0580869D03*
X0624316Y0579686D03*
X0626531Y0581926D03*
X0628595Y0584081D03*
X0623415Y0573790D03*
X0623090Y0568054D03*
X0619827Y0564665D03*
X0615967Y0562416D03*
X0613061Y0562228D03*
X0612667Y0558685D03*
X0615180Y0558792D03*
X0619433Y0556839D03*
X0622697Y0553450D03*
X0623022Y0547714D03*
X0618297Y0549496D03*
X0615972Y0553228D03*
X0612726Y0554256D03*
X0611959Y0548478D03*
X0612352Y0545723D03*
X0609990Y0543164D03*
X0609006Y0539620D03*
X0610778Y0535486D03*
X0613140Y0532730D03*
X0615896Y0530171D03*
X0618606Y0528683D03*
X0620226Y0533321D03*
X0622739Y0532226D03*
X0624511Y0533998D03*
X0621604Y0537258D03*
X0619149Y0540635D03*
X0615896Y0541982D03*
X0613730Y0539620D03*
X0615502Y0537652D03*
X0617274Y0535880D03*
X0623923Y0541818D03*
X0626138Y0539578D03*
X0628202Y0537423D03*
X0635994Y0538213D03*
X0637864Y0536244D03*
X0641703Y0532898D03*
X0660141Y0520218D03*
X0662306Y0522187D03*
X0664472Y0524352D03*
X0666637Y0526517D03*
X0669196Y0528879D03*
X0672149Y0531635D03*
X0675889Y0526911D03*
X0672936Y0524155D03*
X0670377Y0521793D03*
X0668212Y0519627D03*
X0666046Y0517462D03*
X0663881Y0515494D03*
X0642621Y0502305D03*
X0640456Y0500336D03*
X0638094Y0497974D03*
X0635141Y0495218D03*
X0632582Y0492856D03*
X0630417Y0490690D03*
X0634157Y0485966D03*
X0636322Y0488131D03*
X0638881Y0490494D03*
X0641834Y0493250D03*
X0644196Y0495612D03*
X0646361Y0497580D03*
X0618297Y0544771D03*
X0596447Y0541097D03*
X0596545Y0538538D03*
X0591746Y0536777D03*
X0583258Y0539817D03*
X0581486Y0535683D03*
X0579124Y0532927D03*
X0576368Y0530368D03*
X0573658Y0528879D03*
X0572038Y0533518D03*
X0569525Y0532423D03*
X0567753Y0534194D03*
X0570660Y0537455D03*
X0573115Y0540832D03*
X0576368Y0542179D03*
X0578534Y0539817D03*
X0576762Y0537849D03*
X0574990Y0536077D03*
X0568341Y0542015D03*
X0566126Y0539775D03*
X0564062Y0537620D03*
X0569242Y0547911D03*
X0573967Y0549692D03*
X0576291Y0553425D03*
X0579538Y0554453D03*
X0579597Y0558783D03*
X0577084Y0558792D03*
X0577084Y0562712D03*
X0579597Y0562524D03*
X0579538Y0567248D03*
X0576291Y0568276D03*
X0573967Y0572008D03*
X0573967Y0576733D03*
X0576368Y0579522D03*
X0578534Y0581884D03*
X0576762Y0583852D03*
X0574990Y0585624D03*
X0572038Y0588183D03*
X0569525Y0589278D03*
X0567753Y0587506D03*
X0570660Y0584246D03*
X0573115Y0580869D03*
X0568341Y0579686D03*
X0566126Y0581926D03*
X0564062Y0584081D03*
X0557057Y0582898D03*
X0551348Y0588213D03*
X0573658Y0592821D03*
X0576368Y0591333D03*
X0579124Y0588773D03*
X0581486Y0586018D03*
X0583258Y0581884D03*
X0582274Y0578340D03*
X0579912Y0575781D03*
X0580305Y0573025D03*
X0569242Y0573790D03*
X0569567Y0568054D03*
X0572830Y0564665D03*
X0572830Y0557036D03*
X0569567Y0553646D03*
X0573967Y0544968D03*
X0579912Y0545919D03*
X0581093Y0543852D03*
X0580305Y0548675D03*
X0553219Y0541657D03*
X0574282Y0520890D03*
X0574774Y0517642D03*
X0568967Y0515181D03*
X0567884Y0512425D03*
X0556189Y0494774D03*
X0558157Y0492609D03*
X0560322Y0490444D03*
X0562488Y0488278D03*
X0564850Y0485719D03*
X0567606Y0482767D03*
X0562881Y0479026D03*
X0560126Y0481979D03*
X0557763Y0484538D03*
X0555598Y0486704D03*
X0553433Y0488869D03*
X0551464Y0491034D03*
X0534338Y0507176D03*
X0532370Y0509341D03*
X0530007Y0511704D03*
X0527252Y0514656D03*
X0525677Y0516034D03*
X0524496Y0518003D03*
X0520559Y0521546D03*
X0518590Y0523711D03*
X0524102Y0527452D03*
X0525283Y0525286D03*
X0527448Y0523121D03*
X0529614Y0520956D03*
X0531976Y0518397D03*
X0534732Y0515444D03*
X0536110Y0512885D03*
X0540244Y0512885D03*
X0590108Y0518936D03*
X0595509Y0521902D03*
X0604203Y0568429D03*
X0553054Y0625533D03*
X0550889Y0623368D03*
X0548724Y0621202D03*
X0546558Y0619234D03*
X0542818Y0623958D03*
X0544983Y0625927D03*
X0547149Y0628092D03*
X0549314Y0630257D03*
X0551873Y0632620D03*
X0554826Y0635376D03*
X0557188Y0637738D03*
X0560928Y0633013D03*
X0558566Y0630651D03*
X0555613Y0627895D03*
X0527070Y0607029D03*
X0524905Y0605061D03*
X0528645Y0600336D03*
X0530810Y0602305D03*
X0524708Y0596793D03*
X0521361Y0593053D03*
X0519983Y0591478D03*
X0516440Y0588525D03*
X0512700Y0593250D03*
X0514865Y0596793D03*
X0517228Y0597974D03*
X0519590Y0599942D03*
X0518802Y0602698D03*
X0464575Y0601377D03*
X0464575Y0606101D03*
X0464575Y0610825D03*
X0464575Y0615550D03*
X0464575Y0620274D03*
X0464575Y0624999D03*
X0464575Y0629723D03*
X0464575Y0634448D03*
X0464575Y0639172D03*
X0464575Y0643896D03*
X0464575Y0648621D03*
X0464575Y0653345D03*
X0464575Y0658070D03*
X0464575Y0662794D03*
X0464575Y0667518D03*
X0464575Y0672243D03*
X0464575Y0676967D03*
X0464576Y0681692D03*
X0464576Y0686416D03*
X0464576Y0691140D03*
X0459851Y0692520D03*
X0459851Y0687796D03*
X0459851Y0683071D03*
X0459851Y0678347D03*
X0459851Y0673622D03*
X0459851Y0668898D03*
X0459851Y0664174D03*
X0459851Y0659449D03*
X0459851Y0654725D03*
X0459851Y0650000D03*
X0459851Y0645276D03*
X0459851Y0640552D03*
X0459851Y0635827D03*
X0459851Y0631103D03*
X0459851Y0626378D03*
X0459850Y0621654D03*
X0459850Y0616930D03*
X0459850Y0612205D03*
X0459850Y0607481D03*
X0459850Y0602756D03*
X0459684Y0598039D03*
X0458517Y0593473D03*
X0456298Y0589315D03*
X0453154Y0585803D03*
X0449266Y0583140D03*
X0444856Y0581477D03*
X0440177Y0580909D03*
X0435453Y0580909D03*
X0430729Y0580909D03*
X0426004Y0580909D03*
X0421280Y0580909D03*
X0416555Y0580909D03*
X0411831Y0580909D03*
X0410373Y0576106D03*
X0415176Y0576185D03*
X0419900Y0576185D03*
X0424624Y0576185D03*
X0429349Y0576185D03*
X0434073Y0576185D03*
X0438798Y0576185D03*
X0443522Y0576185D03*
X0448230Y0576471D03*
X0452746Y0577821D03*
X0456811Y0580205D03*
X0460193Y0583488D03*
X0462697Y0587481D03*
X0464181Y0591954D03*
X0464575Y0596652D03*
X0471053Y0706972D03*
X0475778Y0706972D03*
X0480502Y0706972D03*
X0485226Y0706972D03*
X0485226Y0711697D03*
X0480502Y0711697D03*
X0475778Y0711697D03*
X0471053Y0711697D03*
X0489951Y0711697D03*
X0494675Y0711697D03*
X0494675Y0706972D03*
X0489951Y0706972D03*
X0499400Y0706972D03*
X0504124Y0706972D03*
X0508848Y0706972D03*
X0508848Y0711697D03*
X0504124Y0711697D03*
X0499400Y0711697D03*
X0513573Y0711697D03*
X0518297Y0711697D03*
X0518297Y0706972D03*
X0513573Y0706972D03*
X0523022Y0706972D03*
X0527746Y0706972D03*
X0527746Y0711697D03*
X0523022Y0711697D03*
X0655795Y0608948D03*
X0657763Y0606782D03*
X0659929Y0604617D03*
X0662094Y0602452D03*
X0664456Y0599893D03*
X0667212Y0596940D03*
X0673315Y0599302D03*
X0669181Y0603633D03*
X0666819Y0606192D03*
X0664653Y0608357D03*
X0662488Y0610523D03*
X0660519Y0612688D03*
X0697825Y0706972D03*
X0702549Y0706972D03*
X0707274Y0706972D03*
X0711998Y0706972D03*
X0716723Y0706972D03*
X0721447Y0706972D03*
X0726171Y0706972D03*
X0726171Y0711697D03*
X0721447Y0711697D03*
X0716723Y0711697D03*
X0711998Y0711697D03*
X0707274Y0711697D03*
X0702549Y0711697D03*
X0697825Y0711697D03*
X0752467Y0726642D03*
X0752467Y0731366D03*
X0752672Y0736080D03*
X0753921Y0740624D03*
X0756236Y0744730D03*
X0759477Y0748150D03*
X0763451Y0750683D03*
X0767921Y0752175D03*
X0767199Y0757283D03*
X0771924Y0757283D03*
X0776648Y0757283D03*
X0781373Y0757283D03*
X0786097Y0757283D03*
X0790821Y0757283D03*
X0795546Y0757283D03*
X0800270Y0757283D03*
X0804995Y0757283D03*
X0809719Y0757283D03*
X0814444Y0757283D03*
X0819168Y0757283D03*
X0823892Y0757283D03*
X0828617Y0757283D03*
X0833341Y0757283D03*
X0838066Y0757283D03*
X0842790Y0757283D03*
X0847514Y0757283D03*
X0852239Y0757283D03*
X0856963Y0757283D03*
X0861688Y0757283D03*
X0866412Y0757283D03*
X0871136Y0757283D03*
X0873680Y0757283D03*
X0878359Y0757847D03*
X0882770Y0759508D03*
X0886660Y0762169D03*
X0889806Y0765678D03*
X0892027Y0769835D03*
X0893197Y0774401D03*
X0893365Y0779118D03*
X0893365Y0783842D03*
X0893365Y0788567D03*
X0893365Y0793291D03*
X0893365Y0798016D03*
X0893365Y0802740D03*
X0893365Y0807464D03*
X0893365Y0812189D03*
X0893364Y0816913D03*
X0893364Y0821638D03*
X0893364Y0826362D03*
X0893364Y0831086D03*
X0893364Y0835811D03*
X0893364Y0840535D03*
X0898089Y0838610D03*
X0898089Y0833885D03*
X0898089Y0829161D03*
X0898089Y0824437D03*
X0898089Y0819712D03*
X0898089Y0814988D03*
X0898089Y0810263D03*
X0898089Y0805539D03*
X0898089Y0800814D03*
X0898089Y0796090D03*
X0898089Y0791366D03*
X0898089Y0786641D03*
X0898089Y0781917D03*
X0898089Y0777192D03*
X0898089Y0772468D03*
X0897577Y0767783D03*
X0895967Y0763353D03*
X0893350Y0759433D03*
X0889877Y0756248D03*
X0885746Y0753979D03*
X0881194Y0752757D03*
X0877786Y0752559D03*
X0873062Y0752559D03*
X0868338Y0752559D03*
X0863613Y0752559D03*
X0858889Y0752559D03*
X0854164Y0752559D03*
X0849440Y0752559D03*
X0844715Y0752559D03*
X0839991Y0752559D03*
X0835267Y0752559D03*
X0830542Y0752559D03*
X0825818Y0752559D03*
X0821093Y0752559D03*
X0816369Y0752559D03*
X0811645Y0752559D03*
X0806920Y0752559D03*
X0802196Y0752559D03*
X0797471Y0752559D03*
X0792747Y0752559D03*
X0788023Y0752559D03*
X0783298Y0752559D03*
X0778574Y0752559D03*
X0773849Y0752559D03*
X0760504Y0756148D03*
X0756296Y0754024D03*
X0752730Y0750943D03*
X0750018Y0747090D03*
X0825677Y0816231D03*
X0825283Y0819774D03*
X0823118Y0821940D03*
X0820952Y0824105D03*
X0818984Y0826271D03*
X0823708Y0830011D03*
X0825677Y0827845D03*
X0829811Y0826467D03*
X0830007Y0823515D03*
X0832370Y0820956D03*
X0834338Y0818790D03*
X0836504Y0816625D03*
X0838866Y0813475D03*
X0835322Y0809735D03*
X0832173Y0812491D03*
X0830401Y0814263D03*
X0851858Y0793790D03*
X0853826Y0791625D03*
X0855992Y0789460D03*
X0858157Y0787294D03*
X0860519Y0784735D03*
X0863275Y0781782D03*
X0868000Y0785523D03*
X0865244Y0788475D03*
X0862881Y0791034D03*
X0860716Y0793200D03*
X0858551Y0795365D03*
X0856582Y0797530D03*
X0866604Y0811933D03*
X0867982Y0814689D03*
X0871821Y0818035D03*
X0873297Y0820398D03*
X0872871Y0827895D03*
X0875581Y0829384D03*
X0878337Y0831943D03*
X0880699Y0834699D03*
X0882471Y0838833D03*
X0881486Y0842376D03*
X0879124Y0844935D03*
X0879518Y0847691D03*
X0878751Y0853469D03*
X0875504Y0852440D03*
X0873179Y0848708D03*
X0873179Y0843984D03*
X0875581Y0841195D03*
X0877746Y0838833D03*
X0875975Y0836864D03*
X0874203Y0835093D03*
X0871250Y0832534D03*
X0868737Y0831439D03*
X0866966Y0833210D03*
X0869872Y0836471D03*
X0872328Y0839848D03*
X0867554Y0841030D03*
X0865339Y0838791D03*
X0863570Y0836734D03*
X0868455Y0846926D03*
X0868780Y0852662D03*
X0872043Y0856052D03*
X0876297Y0858005D03*
X0878932Y0857978D03*
X0878809Y0861539D03*
X0876297Y0861727D03*
X0872043Y0863681D03*
X0868780Y0867070D03*
X0868455Y0872806D03*
X0873179Y0871024D03*
X0875504Y0867292D03*
X0878751Y0866264D03*
X0879518Y0872041D03*
X0879124Y0874797D03*
X0881486Y0877356D03*
X0882471Y0880899D03*
X0880699Y0885033D03*
X0878337Y0887789D03*
X0875581Y0890348D03*
X0872871Y0891837D03*
X0871250Y0887199D03*
X0868737Y0888294D03*
X0866966Y0886522D03*
X0869872Y0883262D03*
X0872328Y0879884D03*
X0875581Y0878537D03*
X0877746Y0880899D03*
X0875975Y0882868D03*
X0874203Y0884640D03*
X0867554Y0878702D03*
X0865339Y0880941D03*
X0863275Y0883097D03*
X0855974Y0882209D03*
X0854104Y0884177D03*
X0850266Y0887524D03*
X0847215Y0889295D03*
X0833698Y0897349D03*
X0831532Y0895380D03*
X0829761Y0889672D03*
X0827202Y0891050D03*
X0824643Y0888687D03*
X0821690Y0885932D03*
X0819328Y0883569D03*
X0817162Y0881601D03*
X0813028Y0885735D03*
X0815194Y0887703D03*
X0817556Y0890065D03*
X0820509Y0892821D03*
X0823068Y0895184D03*
X0825233Y0897349D03*
X0825824Y0900302D03*
X0830942Y0901876D03*
X0846099Y0919199D03*
X0848265Y0921168D03*
X0850627Y0923530D03*
X0852399Y0924908D03*
X0857714Y0922152D03*
X0860273Y0924514D03*
X0863422Y0925302D03*
X0866769Y0930813D03*
X0869721Y0928845D03*
X0862635Y0934947D03*
X0860469Y0932979D03*
X0858304Y0930813D03*
X0847871Y0931010D03*
X0854761Y0919396D03*
X0852399Y0917034D03*
X0850233Y0915065D03*
X0876348Y0901894D03*
X0873179Y0875749D03*
X0887667Y0851894D03*
X0909203Y0842179D03*
X0911565Y0844738D03*
X0911171Y0847494D03*
X0911939Y0853272D03*
X0915185Y0852244D03*
X0917510Y0848511D03*
X0917510Y0843787D03*
X0915108Y0840998D03*
X0912943Y0838636D03*
X0914715Y0836667D03*
X0916486Y0834896D03*
X0919439Y0832337D03*
X0921952Y0831242D03*
X0923724Y0833013D03*
X0920817Y0836274D03*
X0918362Y0839651D03*
X0923135Y0840834D03*
X0925350Y0838594D03*
X0927414Y0836439D03*
X0934911Y0837524D03*
X0940620Y0832209D03*
X0959157Y0818840D03*
X0961322Y0820809D03*
X0963487Y0822974D03*
X0965653Y0825139D03*
X0968212Y0827502D03*
X0971165Y0830257D03*
X0973527Y0832620D03*
X0975692Y0834588D03*
X0979432Y0829864D03*
X0977267Y0827895D03*
X0974905Y0825533D03*
X0971952Y0822777D03*
X0969393Y0820415D03*
X0967228Y0818250D03*
X0965062Y0816084D03*
X0962897Y0814116D03*
X0947543Y0797974D03*
X0945377Y0796005D03*
X0943015Y0793643D03*
X0940062Y0790887D03*
X0937503Y0788525D03*
X0935338Y0786360D03*
X0933172Y0784194D03*
X0931007Y0782226D03*
X0927267Y0786950D03*
X0929432Y0788919D03*
X0931598Y0791084D03*
X0933763Y0793250D03*
X0936322Y0795612D03*
X0939275Y0798368D03*
X0941637Y0800730D03*
X0943802Y0802698D03*
X0914734Y0817839D03*
X0917818Y0827698D03*
X0915108Y0829187D03*
X0912352Y0831746D03*
X0909990Y0834502D03*
X0908219Y0838636D03*
X0922234Y0846729D03*
X0921909Y0852465D03*
X0918646Y0855855D03*
X0914392Y0857808D03*
X0911880Y0857996D03*
X0912274Y0861539D03*
X0914786Y0861727D03*
X0919040Y0863681D03*
X0922303Y0867070D03*
X0922628Y0872806D03*
X0917904Y0871024D03*
X0915579Y0867292D03*
X0912332Y0866264D03*
X0911565Y0872041D03*
X0911959Y0874797D03*
X0909596Y0877356D03*
X0908612Y0880899D03*
X0910384Y0885033D03*
X0912746Y0887789D03*
X0915502Y0890348D03*
X0918212Y0891837D03*
X0919833Y0887199D03*
X0922346Y0888294D03*
X0924117Y0886522D03*
X0921211Y0883262D03*
X0918755Y0879884D03*
X0915502Y0878537D03*
X0913337Y0880899D03*
X0915108Y0882868D03*
X0916880Y0884640D03*
X0923529Y0878702D03*
X0925744Y0880941D03*
X0927808Y0883097D03*
X0937569Y0879650D03*
X0917904Y0875749D03*
X0917687Y0899531D03*
X0923002Y0905240D03*
X0934535Y0922334D03*
X0932567Y0924499D03*
X0930204Y0926861D03*
X0927448Y0929814D03*
X0925086Y0932373D03*
X0923315Y0933554D03*
X0920756Y0936704D03*
X0918787Y0938869D03*
X0922921Y0943200D03*
X0924889Y0941034D03*
X0927055Y0938869D03*
X0928630Y0937491D03*
X0931582Y0934145D03*
X0934338Y0931192D03*
X0936700Y0928830D03*
X0938669Y0926664D03*
X0955598Y0910916D03*
X0957567Y0908751D03*
X0959732Y0906586D03*
X0961897Y0904420D03*
X0964259Y0901861D03*
X0967015Y0898908D03*
X0969378Y0896546D03*
X0971346Y0894381D03*
X0967212Y0890050D03*
X0965244Y0892215D03*
X0962881Y0894578D03*
X0960126Y0897530D03*
X0957763Y0900089D03*
X0955598Y0902255D03*
X0953433Y0904420D03*
X0951464Y0906586D03*
X1003504Y0985810D03*
X0852726Y0841264D03*
X0927645Y0641034D03*
X0929811Y0638869D03*
X0931976Y0636704D03*
X0934338Y0634145D03*
X0937094Y0631192D03*
X0939456Y0628830D03*
X0941425Y0626664D03*
X0936700Y0622924D03*
X0934732Y0625089D03*
X0932370Y0627452D03*
X0929614Y0630404D03*
X0927252Y0632963D03*
X0925086Y0635129D03*
X0922921Y0637294D03*
X0923789Y0608390D03*
X0923199Y0605634D03*
X0918967Y0602583D03*
X0917884Y0599925D03*
X0918212Y0592624D03*
X0915502Y0591136D03*
X0912746Y0588577D03*
X0910384Y0585821D03*
X0908612Y0581687D03*
X0909596Y0578144D03*
X0911959Y0575585D03*
X0911565Y0572829D03*
X0912332Y0567051D03*
X0915579Y0568079D03*
X0917904Y0571812D03*
X0917904Y0576536D03*
X0915502Y0579325D03*
X0913337Y0581687D03*
X0915108Y0583655D03*
X0916880Y0585427D03*
X0919833Y0587986D03*
X0922346Y0589081D03*
X0924117Y0587310D03*
X0921211Y0584049D03*
X0918755Y0580672D03*
X0923529Y0579489D03*
X0925744Y0581729D03*
X0927808Y0583884D03*
X0938061Y0579650D03*
X0922628Y0573593D03*
X0922303Y0567858D03*
X0919040Y0564468D03*
X0914786Y0562515D03*
X0912274Y0562327D03*
X0911880Y0558783D03*
X0914392Y0558595D03*
X0918646Y0556642D03*
X0921909Y0553253D03*
X0922234Y0547517D03*
X0917510Y0549299D03*
X0915185Y0553031D03*
X0911939Y0554059D03*
X0911171Y0548282D03*
X0911565Y0545526D03*
X0909203Y0542967D03*
X0908219Y0539423D03*
X0909990Y0535290D03*
X0912352Y0532534D03*
X0915108Y0529975D03*
X0917818Y0528486D03*
X0919439Y0533124D03*
X0921952Y0532029D03*
X0923724Y0533801D03*
X0920817Y0537061D03*
X0918362Y0540439D03*
X0915108Y0541786D03*
X0912943Y0539423D03*
X0914715Y0537455D03*
X0916486Y0535683D03*
X0923135Y0541621D03*
X0925350Y0539382D03*
X0927414Y0537226D03*
X0935207Y0538114D03*
X0937077Y0536146D03*
X0940915Y0532799D03*
X0943573Y0531224D03*
X0957976Y0520218D03*
X0960141Y0522187D03*
X0962306Y0524352D03*
X0964472Y0526517D03*
X0967031Y0528879D03*
X0970771Y0524155D03*
X0968212Y0521793D03*
X0966046Y0519627D03*
X0963881Y0517462D03*
X0961716Y0515494D03*
X0947149Y0499942D03*
X0944983Y0497974D03*
X0942621Y0495612D03*
X0939669Y0492856D03*
X0937109Y0490494D03*
X0934944Y0488328D03*
X0932779Y0486163D03*
X0929039Y0490887D03*
X0931204Y0493053D03*
X0933369Y0495218D03*
X0935928Y0497580D03*
X0938881Y0500336D03*
X0941243Y0502698D03*
X0943409Y0504667D03*
X0917510Y0544574D03*
X0903415Y0568232D03*
X0891526Y0546805D03*
X0882569Y0546215D03*
X0881486Y0543164D03*
X0879124Y0545723D03*
X0879518Y0548478D03*
X0878751Y0554256D03*
X0875504Y0553228D03*
X0873179Y0549496D03*
X0873179Y0544771D03*
X0875581Y0541982D03*
X0877746Y0539620D03*
X0875975Y0537652D03*
X0874203Y0535880D03*
X0871250Y0533321D03*
X0868737Y0532226D03*
X0866966Y0533998D03*
X0869872Y0537258D03*
X0872328Y0540635D03*
X0867554Y0541818D03*
X0865339Y0539578D03*
X0863275Y0537423D03*
X0868455Y0547714D03*
X0868780Y0553450D03*
X0872043Y0556839D03*
X0876297Y0558792D03*
X0878908Y0558783D03*
X0878809Y0562327D03*
X0876297Y0562515D03*
X0872043Y0564468D03*
X0868780Y0567858D03*
X0868455Y0573593D03*
X0873179Y0571812D03*
X0875504Y0568079D03*
X0878751Y0567051D03*
X0879518Y0572829D03*
X0879124Y0575585D03*
X0881486Y0578144D03*
X0882471Y0581687D03*
X0880699Y0585821D03*
X0878337Y0588577D03*
X0875581Y0591136D03*
X0872871Y0592624D03*
X0871250Y0587986D03*
X0868737Y0589081D03*
X0866966Y0587310D03*
X0869872Y0584049D03*
X0872328Y0580672D03*
X0875581Y0579325D03*
X0877746Y0581687D03*
X0875975Y0583655D03*
X0874203Y0585427D03*
X0867554Y0579489D03*
X0865339Y0581729D03*
X0863275Y0583884D03*
X0856270Y0582799D03*
X0850561Y0588114D03*
X0829826Y0603092D03*
X0827661Y0601124D03*
X0825298Y0598761D03*
X0822346Y0596005D03*
X0819787Y0593643D03*
X0817621Y0591478D03*
X0813881Y0596202D03*
X0816046Y0598368D03*
X0818606Y0600730D03*
X0821558Y0603486D03*
X0823920Y0605848D03*
X0826086Y0607816D03*
X0841440Y0623171D03*
X0841440Y0625336D03*
X0844983Y0626911D03*
X0847543Y0629273D03*
X0850495Y0632029D03*
X0852857Y0634391D03*
X0855023Y0636360D03*
X0858763Y0631635D03*
X0856598Y0629667D03*
X0854235Y0627305D03*
X0851283Y0624549D03*
X0848724Y0622187D03*
X0846558Y0620021D03*
X0847346Y0618053D03*
X0876250Y0602091D03*
X0877037Y0598154D03*
X0873179Y0576536D03*
X0882471Y0539620D03*
X0880699Y0535486D03*
X0878337Y0532730D03*
X0875581Y0530171D03*
X0872871Y0528683D03*
X0873494Y0520791D03*
X0868179Y0515083D03*
X0854023Y0495759D03*
X0855992Y0493593D03*
X0858157Y0491428D03*
X0860322Y0489263D03*
X0862685Y0486704D03*
X0865441Y0483751D03*
X0867803Y0481389D03*
X0863078Y0477648D03*
X0860716Y0480011D03*
X0857960Y0482963D03*
X0855598Y0485523D03*
X0853433Y0487688D03*
X0851267Y0489853D03*
X0849299Y0492019D03*
X0831976Y0508554D03*
X0830007Y0510719D03*
X0827645Y0513082D03*
X0824889Y0516034D03*
X0822527Y0518593D03*
X0820362Y0520759D03*
X0818196Y0522924D03*
X0816228Y0525089D03*
X0820952Y0528830D03*
X0822921Y0526664D03*
X0825086Y0524499D03*
X0827252Y0522334D03*
X0829614Y0519774D03*
X0832370Y0516822D03*
X0834732Y0514460D03*
X0836700Y0512294D03*
X0950677Y0608357D03*
X0954614Y0605011D03*
X0955795Y0603239D03*
X0957960Y0601074D03*
X0960322Y0598515D03*
X0963078Y0595562D03*
X0965441Y0593200D03*
X0967409Y0591034D03*
X0970165Y0596940D03*
X0967803Y0599302D03*
X0965047Y0602255D03*
X0962685Y0604814D03*
X0960519Y0606979D03*
X0958354Y0609145D03*
X0956385Y0611310D03*
X1017589Y0442445D03*
X1025463Y0186539D03*
X1025463Y0178665D03*
X1025463Y0170791D03*
X1025463Y0162917D03*
X1025463Y0155043D03*
X1025463Y0147169D03*
X1025463Y0147169D03*
X1005778Y0025122D03*
X0798297Y0119217D03*
X0797707Y0121579D03*
X0669360Y0177681D03*
X0629597Y0177878D03*
X0612639Y0154129D03*
X0613855Y0151680D03*
X0610502Y0121382D03*
X0571132Y0120791D03*
X0531762Y0121185D03*
X0550266Y0177287D03*
X0590226Y0177484D03*
X0654006Y0120791D03*
X0471919Y0177878D03*
X0432156Y0178272D03*
X0417195Y0153862D03*
X0419163Y0151697D03*
X0414439Y0120791D03*
X0373888Y0121185D03*
X0334321Y0121972D03*
X0353809Y0177878D03*
X0392786Y0178075D03*
X0452234Y0120791D03*
X0472506Y0450253D03*
X0452821Y0985686D03*
X0049085Y1178665D03*
X0041211Y1178665D03*
X0033337Y1178665D03*
X0025463Y1178665D03*
X0017589Y1178665D03*
X0009715Y1178665D03*
X0009715Y1170791D03*
X0028825Y1159496D03*
X1025463Y1170791D03*
X1025463Y1178665D03*
D19*
X0946526Y0954256D03*
X0984911Y0916657D03*
X0988652Y0805240D03*
X0953612Y0770988D03*
X0840817Y0770988D03*
X0808730Y0805437D03*
X0797707Y0907209D03*
X0840226Y0949925D03*
X0682156Y0914098D03*
X0644163Y0949925D03*
X0539045Y0945201D03*
X0503809Y0907799D03*
X0504006Y0800122D03*
X0547510Y0762720D03*
X0536880Y0655240D03*
X0497116Y0616067D03*
X0502037Y0502287D03*
X0495935Y0495004D03*
X0538848Y0465870D03*
X0595935Y0507799D03*
X0656762Y0471185D03*
X0691801Y0507012D03*
X0697313Y0616067D03*
X0655187Y0654650D03*
X0652431Y0774728D03*
X0687667Y0811539D03*
X0835502Y0656421D03*
X0797116Y0619217D03*
X0805187Y0502878D03*
X0840817Y0466067D03*
X0954990Y0471972D03*
X0992392Y0509768D03*
X0986289Y0616461D03*
X0947707Y0656618D03*
X0823112Y0302732D03*
X0815590Y0302579D03*
X0805458Y0299355D03*
X0726118Y0295598D03*
X0670758Y0297794D03*
X0661910Y0300832D03*
X0654981Y0300725D03*
X0345307Y0369531D03*
X0345307Y0375437D03*
X0345307Y0393154D03*
X0348536Y0395122D03*
X0345307Y0404965D03*
X0348536Y0406933D03*
X0345307Y0408902D03*
X0345307Y0436461D03*
X0348536Y0438429D03*
X0325305Y0450557D03*
X0323337Y0453786D03*
X0321368Y0450557D03*
X0293809Y0450557D03*
X0289872Y0450557D03*
X0280030Y0450557D03*
X0278061Y0453786D03*
X0276093Y0450557D03*
X0274124Y0453786D03*
X0272156Y0450557D03*
X0270187Y0453786D03*
X0252154Y0430555D03*
X0248925Y0428587D03*
X0252154Y0426618D03*
X0248925Y0424650D03*
X0252154Y0422681D03*
X0252154Y0412839D03*
X0248925Y0410870D03*
X0252154Y0408902D03*
X0248925Y0406933D03*
X0252154Y0404965D03*
X0248925Y0402996D03*
X0252154Y0401028D03*
X0248925Y0391185D03*
X0252154Y0389217D03*
X0264282Y0357404D03*
X0272156Y0357404D03*
X0278061Y0357404D03*
X0281998Y0357404D03*
X0291841Y0354175D03*
X0293809Y0357404D03*
X0295778Y0354175D03*
X0297746Y0357404D03*
X0299715Y0354175D03*
X0301683Y0357404D03*
X0311526Y0354175D03*
X0313494Y0357404D03*
X0323337Y0354175D03*
X0325305Y0357404D03*
X0112864Y0611146D03*
X0105974Y0611146D03*
X0097313Y0607209D03*
X0052037Y0603665D03*
X0042392Y0708390D03*
X0041900Y0718823D03*
X0041506Y0728665D03*
X0041309Y0739098D03*
X0149577Y0739787D03*
X0168376Y0732898D03*
X0158238Y0702878D03*
X0153809Y0703075D03*
X0162187Y0759517D03*
X0165181Y0762411D03*
X0235148Y0759708D03*
X0238071Y0756924D03*
X0245640Y0726008D03*
X0250463Y0692740D03*
X0254006Y0692839D03*
X0280974Y0675220D03*
X0280974Y0671480D03*
X0281171Y0667543D03*
X0326644Y0905043D03*
X0371919Y0944413D03*
D20*
X0395541Y0855831D03*
X0493573Y0866067D03*
X0546624Y0891854D03*
X0555286Y0895102D03*
X0557845Y0892248D03*
X0561191Y0894807D03*
X0563848Y0897563D03*
X0566801Y0894709D03*
X0564045Y0891854D03*
X0560994Y0889295D03*
X0557746Y0898154D03*
X0560699Y0900811D03*
X0572411Y0901008D03*
X0591112Y0863902D03*
X0591112Y0859866D03*
X0591112Y0855437D03*
X0596427Y0855142D03*
X0597215Y0859669D03*
X0596329Y0863902D03*
X0601742Y0863803D03*
X0601742Y0859669D03*
X0601742Y0855142D03*
X0628612Y0827484D03*
X0625856Y0824630D03*
X0628809Y0821776D03*
X0631467Y0824531D03*
X0634813Y0827091D03*
X0637372Y0824236D03*
X0634911Y0821185D03*
X0631959Y0818528D03*
X0631663Y0830043D03*
X0646034Y0827484D03*
X0620246Y0818331D03*
X0566900Y0824335D03*
X0564341Y0827386D03*
X0561486Y0830142D03*
X0558632Y0827189D03*
X0561388Y0824531D03*
X0563947Y0821185D03*
X0561093Y0818626D03*
X0558041Y0821087D03*
X0555384Y0824039D03*
X0555187Y0835457D03*
X0564341Y0809965D03*
X0510502Y0774728D03*
X0415226Y0712130D03*
X0405384Y0706224D03*
X0491211Y0637720D03*
X0546821Y0592740D03*
X0546526Y0589197D03*
X0551545Y0583390D03*
X0558041Y0593134D03*
X0555482Y0595988D03*
X0557943Y0599039D03*
X0560896Y0601697D03*
X0564045Y0598449D03*
X0561388Y0595693D03*
X0564242Y0592740D03*
X0566998Y0595594D03*
X0561191Y0590181D03*
X0572411Y0601894D03*
X0577530Y0603272D03*
X0590817Y0565181D03*
X0590817Y0560654D03*
X0590817Y0556520D03*
X0596230Y0556421D03*
X0595345Y0560654D03*
X0596132Y0565181D03*
X0601447Y0564886D03*
X0601447Y0560457D03*
X0601447Y0556421D03*
X0626053Y0525516D03*
X0628809Y0528370D03*
X0631860Y0530929D03*
X0635010Y0527976D03*
X0637569Y0525122D03*
X0635108Y0522071D03*
X0632156Y0519413D03*
X0629006Y0522661D03*
X0631663Y0525417D03*
X0620246Y0519118D03*
X0615719Y0518429D03*
X0644557Y0531421D03*
X0646230Y0528370D03*
X0639439Y0579650D03*
X0637667Y0584768D03*
X0631368Y0590083D03*
X0628514Y0592839D03*
X0625955Y0595890D03*
X0628908Y0599039D03*
X0631762Y0601598D03*
X0634813Y0599138D03*
X0637471Y0596185D03*
X0634223Y0593035D03*
X0631467Y0595693D03*
X0618967Y0603272D03*
X0624183Y0608980D03*
X0628514Y0610260D03*
X0561585Y0530831D03*
X0564439Y0528075D03*
X0566998Y0525024D03*
X0564045Y0521874D03*
X0561191Y0519315D03*
X0558140Y0521776D03*
X0555482Y0524728D03*
X0558730Y0527878D03*
X0561486Y0525220D03*
X0555286Y0536146D03*
X0564439Y0510654D03*
X0586093Y0442839D03*
X0607746Y0363311D03*
X0579793Y0359374D03*
X0500660Y0470398D03*
X0693573Y0470791D03*
X0729793Y0485358D03*
X0789242Y0486146D03*
X0854695Y0524630D03*
X0857352Y0521677D03*
X0860404Y0519217D03*
X0863258Y0521776D03*
X0860699Y0525122D03*
X0857943Y0527780D03*
X0860797Y0530732D03*
X0863652Y0527976D03*
X0866211Y0524925D03*
X0873100Y0517150D03*
X0866703Y0512031D03*
X0863652Y0510555D03*
X0851348Y0537228D03*
X0852530Y0541854D03*
X0890030Y0556618D03*
X0890030Y0560752D03*
X0894557Y0560752D03*
X0895443Y0556520D03*
X0900660Y0556520D03*
X0900660Y0560555D03*
X0900660Y0564984D03*
X0895345Y0565280D03*
X0890030Y0565280D03*
X0863455Y0592642D03*
X0866211Y0595496D03*
X0863258Y0598350D03*
X0860600Y0595594D03*
X0857254Y0593035D03*
X0854695Y0595890D03*
X0857156Y0598941D03*
X0860108Y0601598D03*
X0860404Y0590083D03*
X0852037Y0583882D03*
X0846230Y0589197D03*
X0846034Y0592642D03*
X0873494Y0604551D03*
X0925167Y0595791D03*
X0927726Y0592740D03*
X0930581Y0589984D03*
X0933435Y0592937D03*
X0930679Y0595594D03*
X0928120Y0598941D03*
X0930974Y0601500D03*
X0934026Y0599039D03*
X0936683Y0596087D03*
X0936880Y0584669D03*
X0927726Y0610161D03*
X0931073Y0530831D03*
X0928022Y0528272D03*
X0925266Y0525417D03*
X0928219Y0522563D03*
X0930876Y0525319D03*
X0934223Y0527878D03*
X0936782Y0525024D03*
X0934321Y0521972D03*
X0931368Y0519315D03*
X0919262Y0517937D03*
X0915325Y0518429D03*
X0945443Y0528272D03*
X1001053Y0528665D03*
X0894754Y0418429D03*
X0884911Y0351500D03*
X0778809Y0131224D03*
X0778612Y0122366D03*
X0786486Y0123744D03*
X0789242Y0118823D03*
X0791604Y0118823D03*
X0796723Y0124138D03*
X0804793Y0117051D03*
X0809321Y0123941D03*
X0758730Y0122169D03*
X0757746Y0131421D03*
X0634321Y0145791D03*
X0624478Y0142051D03*
X0617786Y0141067D03*
X0617589Y0143823D03*
X0613061Y0146185D03*
X0600660Y0139689D03*
X0613258Y0161146D03*
X0623691Y0160949D03*
X0634518Y0160949D03*
X0438652Y0160752D03*
X0428612Y0160752D03*
X0417589Y0161343D03*
X0416014Y0149335D03*
X0416014Y0146776D03*
X0420345Y0144217D03*
X0420541Y0141461D03*
X0416408Y0137917D03*
X0428612Y0141461D03*
X0438848Y0145201D03*
X0255679Y0525516D03*
X0246230Y0539492D03*
X0246132Y0543429D03*
X0242195Y0547465D03*
X0238652Y0540476D03*
X0235404Y0540575D03*
X0235404Y0537031D03*
X0238652Y0536835D03*
X0231959Y0547366D03*
X0226742Y0543429D03*
X0224183Y0541953D03*
X0234911Y0572465D03*
X0238160Y0572268D03*
X0238160Y0575909D03*
X0234911Y0576008D03*
X0229990Y0582898D03*
X0226250Y0578862D03*
X0223691Y0577386D03*
X0241703Y0582898D03*
X0245640Y0578862D03*
X0245738Y0574925D03*
X0243967Y0620988D03*
X0240030Y0620988D03*
X0239833Y0625516D03*
X0244163Y0625319D03*
X0244163Y0631618D03*
X0244163Y0635752D03*
X0239636Y0635752D03*
X0239439Y0631618D03*
X0233534Y0631618D03*
X0233534Y0635752D03*
X0229006Y0635752D03*
X0229006Y0631618D03*
X0229203Y0625122D03*
X0229203Y0621185D03*
X0233927Y0621185D03*
X0233730Y0625319D03*
X0103120Y0782799D03*
X0113750Y0801303D03*
X0119852Y0798055D03*
X0142195Y0802484D03*
X0146132Y0802583D03*
X0146230Y0806520D03*
X0141998Y0806520D03*
X0141998Y0811047D03*
X0141998Y0814984D03*
X0145837Y0814886D03*
X0145935Y0810949D03*
X0150660Y0810654D03*
X0154597Y0810555D03*
X0154400Y0806618D03*
X0150463Y0806618D03*
X0150561Y0802583D03*
X0154301Y0802287D03*
X0154400Y0814787D03*
X0150561Y0814787D03*
X0101348Y0815870D03*
X0078711Y0802780D03*
X0068868Y0819906D03*
X0090620Y0840575D03*
X0231171Y0846972D03*
X0251348Y0855929D03*
X0255974Y0856126D03*
X0255974Y0848055D03*
X0271132Y0856618D03*
X0503415Y0940476D03*
X0586486Y1009374D03*
X0603022Y1009374D03*
X0638455Y0978272D03*
X0679793Y0942839D03*
X0628415Y0909571D03*
X0631663Y0900909D03*
X0628809Y0898350D03*
X0631368Y0895004D03*
X0634124Y0892346D03*
X0631270Y0889394D03*
X0628415Y0892150D03*
X0625856Y0895201D03*
X0634715Y0898449D03*
X0637372Y0895496D03*
X0637569Y0884079D03*
X0693967Y0795594D03*
X0782943Y0778665D03*
X0854498Y0824236D03*
X0857156Y0821283D03*
X0860207Y0818823D03*
X0863061Y0821382D03*
X0860502Y0824728D03*
X0857746Y0827386D03*
X0860600Y0830339D03*
X0863455Y0827583D03*
X0866014Y0824531D03*
X0863455Y0810161D03*
X0853711Y0835850D03*
X0890325Y0855437D03*
X0890325Y0859866D03*
X0890325Y0863902D03*
X0895541Y0863902D03*
X0896427Y0859669D03*
X0900955Y0859669D03*
X0900955Y0863803D03*
X0900955Y0855142D03*
X0895640Y0855142D03*
X0924971Y0824827D03*
X0927726Y0827681D03*
X0930778Y0830240D03*
X0933927Y0827287D03*
X0936486Y0824433D03*
X0934026Y0821382D03*
X0931073Y0818724D03*
X0927923Y0821972D03*
X0930581Y0824728D03*
X0919163Y0817937D03*
X0937963Y0836638D03*
X0943868Y0831717D03*
X0945148Y0827681D03*
X0937766Y0883587D03*
X0930384Y0889591D03*
X0927530Y0892346D03*
X0924971Y0895398D03*
X0927923Y0898547D03*
X0930778Y0901106D03*
X0933829Y0898646D03*
X0936486Y0895693D03*
X0933238Y0892543D03*
X0930482Y0895201D03*
X0924085Y0908291D03*
X0927530Y0909768D03*
X0918278Y0903370D03*
X0871526Y0901205D03*
X0865915Y0894906D03*
X0863160Y0892051D03*
X0860108Y0889492D03*
X0856959Y0892445D03*
X0854400Y0895299D03*
X0856860Y0898350D03*
X0859813Y0901008D03*
X0862963Y0897760D03*
X0860305Y0895004D03*
X0845738Y0892051D03*
X0808927Y0929453D03*
X0824282Y0959374D03*
X0858927Y1027091D03*
X0872707Y1045988D03*
X0968376Y0957799D03*
X1003809Y0959374D03*
X1001053Y0931421D03*
X0783730Y0641657D03*
D21*
X0749203Y0705594D03*
X0745069Y0705201D03*
X0740345Y0705594D03*
X0740345Y0710319D03*
X0740345Y0714846D03*
X0744872Y0714650D03*
X0749400Y0714650D03*
X0749203Y0710319D03*
X0744872Y0710122D03*
X0405482Y0880634D03*
X0397510Y0884669D03*
X0390915Y0884669D03*
X0390719Y0530535D03*
X0396132Y0530339D03*
X0403514Y0526008D03*
X0179597Y0141657D03*
X0171132Y0138508D03*
X0161880Y0140673D03*
X0153219Y0137327D03*
X0051250Y0096579D03*
X0043967Y0037720D03*
D22*
X0329597Y0596579D03*
X0331368Y0596579D03*
X0333140Y0596579D03*
X0350069Y0597169D03*
X0352037Y0597169D03*
X0354006Y0597169D03*
X0355974Y0597169D03*
X0357746Y0597169D03*
X0377431Y0597169D03*
X0379400Y0597169D03*
X0381368Y0597169D03*
X0383337Y0597169D03*
X0385108Y0597169D03*
X0402037Y0596579D03*
X0403809Y0596579D03*
X0405581Y0596579D03*
X0404597Y0819610D03*
X0402825Y0819610D03*
X0401053Y0819610D03*
X0384124Y0819020D03*
X0382156Y0819020D03*
X0380187Y0819020D03*
X0378219Y0819020D03*
X0376447Y0819020D03*
X0356762Y0819020D03*
X0354793Y0819020D03*
X0352825Y0819020D03*
X0350856Y0819020D03*
X0349085Y0819020D03*
X0332156Y0819610D03*
X0330384Y0819610D03*
X0328612Y0819610D03*
D23*
X0340817Y0841854D02*
X0340691Y0842040D01*
X0340817Y0841854D02*
X0340817Y0781618D01*
X0324282Y0765083D01*
X0246132Y0765083D01*
X0237667Y0773547D01*
X0218260Y0771853D02*
X0281926Y0835519D01*
X0286149Y0835519D01*
X0311351Y0860720D01*
X0311351Y0891719D01*
X0324675Y0905043D01*
X0326644Y0905043D01*
X0326644Y0915476D02*
X0326644Y0916264D01*
X0326644Y0915476D02*
X0270935Y0859768D01*
X0269557Y0859768D01*
X0267982Y0858193D01*
X0267982Y0855043D01*
X0268179Y0854846D01*
X0268179Y0850713D01*
X0262667Y0845201D01*
X0262667Y0841657D01*
X0187077Y0766067D01*
X0185502Y0766067D01*
X0180778Y0761343D01*
X0180778Y0757406D01*
X0170738Y0747366D01*
X0167786Y0747366D01*
X0166998Y0746579D01*
X0166998Y0744807D01*
X0164833Y0742642D01*
X0164045Y0742642D01*
X0165817Y0738902D02*
X0181171Y0754256D01*
X0185502Y0754256D01*
X0182156Y0755634D02*
X0181368Y0755634D01*
X0159715Y0733980D01*
X0159715Y0721382D01*
X0161880Y0720398D02*
X0161880Y0719610D01*
X0161880Y0720398D02*
X0182943Y0741461D01*
X0186289Y0741461D01*
X0188652Y0743823D01*
X0216998Y0743823D01*
X0219360Y0741461D01*
X0225660Y0741461D01*
X0228022Y0743823D01*
X0232746Y0743823D01*
X0234518Y0742051D01*
X0235502Y0742051D01*
X0236093Y0743429D02*
X0234321Y0743429D01*
X0233140Y0744610D01*
X0194557Y0744610D01*
X0193179Y0745988D01*
X0193770Y0753469D02*
X0098297Y0657996D01*
X0098297Y0652091D01*
X0100266Y0650122D01*
X0148494Y0650122D01*
X0148494Y0685555D01*
X0170148Y0707209D01*
X0170379Y0707834D01*
X0172116Y0708193D02*
X0170148Y0710161D01*
X0152431Y0710161D01*
X0152431Y0704256D01*
X0100266Y0652091D01*
X0100266Y0652287D01*
X0092392Y0667839D02*
X0270541Y0845988D01*
X0270541Y0855831D01*
X0271132Y0856618D01*
X0271526Y0856815D01*
X0348297Y0933587D01*
X0348297Y0964098D01*
X0371919Y0944742D02*
X0371919Y0944413D01*
X0371919Y0944742D02*
X0382418Y0955240D01*
X0397510Y0955240D01*
X0358140Y0916854D02*
X0358140Y0797760D01*
X0324675Y0764295D01*
X0193770Y0764295D01*
X0193770Y0753469D01*
X0192982Y0753862D02*
X0192982Y0767248D01*
X0271329Y0845594D01*
X0271329Y0854453D01*
X0272707Y0855831D01*
X0272707Y0856815D01*
X0333534Y0917642D01*
X0529990Y0917642D01*
X0532156Y0919807D01*
X0530778Y0919610D02*
X0530778Y0922169D01*
X0533927Y0925319D01*
X0532156Y0925516D02*
X0532156Y0924728D01*
X0529990Y0922563D01*
X0529990Y0920004D01*
X0529203Y0919217D01*
X0339045Y0919217D01*
X0338455Y0919807D01*
X0336289Y0918429D02*
X0529597Y0918429D01*
X0530778Y0919610D01*
X0529203Y0920398D02*
X0529203Y0922957D01*
X0530778Y0924531D01*
X0530778Y0926106D01*
X0531959Y0927287D01*
X0538652Y0925319D02*
X0552431Y0925319D01*
X0563652Y0914098D01*
X0567589Y0914098D01*
X0546132Y0907996D02*
X0546132Y0899138D01*
X0544163Y0897169D01*
X0544163Y0832209D01*
X0558927Y0817445D01*
X0558927Y0809965D01*
X0559911Y0808980D01*
X0559911Y0793232D01*
X0553022Y0786343D01*
X0553022Y0735752D01*
X0563696Y0725077D01*
X0566973Y0725077D01*
X0567029Y0725133D01*
X0579431Y0725133D01*
X0586942Y0717622D01*
X0586942Y0705867D01*
X0585502Y0704427D01*
X0585502Y0581224D01*
X0584518Y0580240D01*
X0584518Y0560555D01*
X0592293Y0552780D01*
X0592392Y0552681D01*
X0590423Y0552681D02*
X0590325Y0552780D01*
X0582549Y0560555D01*
X0554990Y0560555D01*
X0554990Y0588114D01*
X0548100Y0595004D01*
X0543179Y0595004D01*
X0543179Y0504453D01*
X0541211Y0502484D01*
X0541211Y0497563D01*
X0542195Y0496579D01*
X0542195Y0495594D01*
X0539242Y0492642D01*
X0522510Y0492642D01*
X0522510Y0586146D01*
X0492982Y0615673D01*
X0492982Y0641264D01*
X0461486Y0672760D01*
X0461486Y0674728D01*
X0431959Y0704256D01*
X0356171Y0704256D01*
X0356171Y0735752D01*
X0354203Y0737720D01*
X0354203Y0738311D01*
X0354203Y0734768D02*
X0324675Y0764295D01*
X0338904Y0731088D02*
X0256611Y0731088D01*
X0256286Y0730763D01*
X0256286Y0730550D01*
X0255778Y0732799D02*
X0255778Y0740673D01*
X0183927Y0740673D01*
X0183927Y0711146D01*
X0182943Y0710161D01*
X0179990Y0710161D01*
X0179990Y0702287D01*
X0181959Y0700319D01*
X0182190Y0699960D01*
X0182190Y0692086D02*
X0182156Y0692051D01*
X0179400Y0692051D01*
X0176447Y0689098D01*
X0176053Y0691461D02*
X0176053Y0708193D01*
X0179006Y0711146D01*
X0181959Y0711146D01*
X0182190Y0711771D01*
X0183927Y0709177D02*
X0185896Y0711146D01*
X0186127Y0711771D01*
X0183927Y0709177D02*
X0183927Y0659965D01*
X0176053Y0652091D01*
X0175660Y0652287D01*
X0174085Y0647169D02*
X0211486Y0609768D01*
X0211880Y0609177D01*
X0206565Y0616657D02*
X0220345Y0602878D01*
X0220345Y0444413D01*
X0251841Y0412917D01*
X0252154Y0412839D01*
X0248888Y0410949D02*
X0248925Y0410870D01*
X0248888Y0410949D02*
X0213455Y0446382D01*
X0213455Y0487720D01*
X0208534Y0492642D01*
X0207746Y0493114D01*
X0207746Y0483114D02*
X0208534Y0482799D01*
X0212471Y0478862D01*
X0212471Y0408980D01*
X0251841Y0408980D01*
X0252154Y0408902D01*
X0248888Y0407012D02*
X0248925Y0406933D01*
X0248888Y0407012D02*
X0211486Y0407012D01*
X0211486Y0470004D01*
X0208534Y0472957D01*
X0207746Y0473114D01*
X0207746Y0463114D02*
X0207549Y0463114D01*
X0203612Y0459177D01*
X0203612Y0405043D01*
X0251841Y0405043D01*
X0252154Y0404965D01*
X0249872Y0403075D02*
X0248925Y0402996D01*
X0249872Y0403075D02*
X0259715Y0403075D01*
X0259715Y0394217D01*
X0274478Y0379453D01*
X0274478Y0318429D01*
X0278415Y0314492D01*
X0318770Y0314492D01*
X0318770Y0322366D01*
X0316801Y0324335D01*
X0304990Y0324335D01*
X0304990Y0320398D01*
X0304833Y0320358D01*
X0314833Y0320358D02*
X0314833Y0315476D01*
X0279400Y0315476D01*
X0275463Y0319413D01*
X0275463Y0385358D01*
X0261683Y0399138D01*
X0261683Y0398941D01*
X0255778Y0393232D02*
X0255778Y0388311D01*
X0243967Y0376500D01*
X0217392Y0376500D01*
X0217392Y0366657D01*
X0214439Y0363705D01*
X0192786Y0363705D01*
X0192786Y0371579D01*
X0192116Y0372051D01*
X0202116Y0372051D02*
X0202628Y0371579D01*
X0202628Y0364689D01*
X0213455Y0364689D01*
X0216408Y0367642D01*
X0216408Y0377484D01*
X0242982Y0377484D01*
X0254793Y0389295D01*
X0254793Y0391264D01*
X0249872Y0391264D01*
X0248925Y0391185D01*
X0251841Y0389295D02*
X0238061Y0389295D01*
X0238061Y0381421D01*
X0236093Y0379453D01*
X0212471Y0379453D01*
X0212471Y0372563D01*
X0212116Y0372051D01*
X0216408Y0350909D02*
X0195738Y0350909D01*
X0195738Y0324335D01*
X0191801Y0320398D01*
X0191762Y0319886D01*
X0212471Y0327091D02*
X0212471Y0327681D01*
X0253022Y0368232D01*
X0253022Y0374138D01*
X0262667Y0383783D01*
X0263652Y0383783D01*
X0269557Y0382406D02*
X0251841Y0400122D01*
X0252154Y0401028D01*
X0252825Y0393232D02*
X0252548Y0393154D01*
X0252825Y0393232D02*
X0255778Y0393232D01*
X0252154Y0389217D02*
X0251841Y0389295D01*
X0239833Y0374925D02*
X0240030Y0374531D01*
X0216408Y0350909D01*
X0269557Y0382406D02*
X0269557Y0315476D01*
X0279400Y0305634D01*
X0314833Y0305634D01*
X0314833Y0310358D01*
X0324675Y0320398D02*
X0324833Y0320358D01*
X0324675Y0320398D02*
X0324675Y0325319D01*
X0296132Y0353862D01*
X0295778Y0354175D01*
X0297746Y0357404D02*
X0298100Y0357799D01*
X0300069Y0359768D01*
X0338455Y0359768D01*
X0338455Y0313508D01*
X0335502Y0310555D01*
X0334833Y0310358D01*
X0339439Y0309571D02*
X0272510Y0242642D01*
X0202628Y0242642D01*
X0202628Y0210161D01*
X0204597Y0212130D01*
X0204793Y0212720D01*
X0202628Y0210161D02*
X0202628Y0187524D01*
X0199675Y0184571D01*
X0199675Y0099925D01*
X0201644Y0097957D01*
X0201980Y0098177D01*
X0092392Y0141264D02*
X0092392Y0667839D01*
X0090610Y0719303D02*
X0090620Y0719413D01*
X0091801Y0720594D01*
X0095148Y0720594D01*
X0095738Y0720004D01*
X0126841Y0720004D01*
X0127234Y0720398D01*
X0129006Y0720398D01*
X0126447Y0721579D02*
X0121526Y0721579D01*
X0149282Y0725909D02*
X0091801Y0725909D01*
X0090620Y0727091D01*
X0090550Y0727172D01*
X0077923Y0729846D02*
X0042195Y0729846D01*
X0042195Y0728862D01*
X0041506Y0728665D01*
X0041211Y0727878D01*
X0040226Y0726894D01*
X0040226Y0720004D01*
X0041211Y0719020D01*
X0041900Y0718823D01*
X0041211Y0718035D01*
X0041211Y0717051D01*
X0017589Y0717051D01*
X0017589Y0712563D01*
X0041211Y0710161D02*
X0041211Y0717051D01*
X0041211Y0710161D02*
X0042195Y0709177D01*
X0042392Y0708390D01*
X0042195Y0729846D02*
X0042195Y0738705D01*
X0041309Y0739098D01*
X0149282Y0725909D02*
X0168376Y0745004D01*
X0168376Y0745988D01*
X0165817Y0738902D02*
X0165817Y0732406D01*
X0169754Y0736539D02*
X0175660Y0736539D01*
X0177234Y0738114D01*
X0177234Y0738902D01*
X0180974Y0742642D02*
X0181762Y0742642D01*
X0192982Y0753862D01*
X0182943Y0759571D02*
X0264242Y0840870D01*
X0264242Y0844413D01*
X0265030Y0845201D01*
X0268573Y0845201D01*
X0269754Y0846382D01*
X0269754Y0855634D01*
X0269557Y0855831D01*
X0269557Y0857406D01*
X0270345Y0858193D01*
X0271723Y0858193D01*
X0331762Y0918232D01*
X0331762Y0919020D01*
X0329203Y0917642D02*
X0329203Y0916854D01*
X0271329Y0858980D01*
X0269951Y0858980D01*
X0268770Y0857799D01*
X0268770Y0855437D01*
X0268967Y0855240D01*
X0268967Y0846776D01*
X0268179Y0845988D01*
X0264636Y0845988D01*
X0263455Y0844807D01*
X0263455Y0841264D01*
X0186880Y0764689D01*
X0186093Y0764689D01*
X0182943Y0759571D02*
X0182156Y0759571D01*
X0185305Y0734177D02*
X0184715Y0733587D01*
X0184715Y0722957D01*
X0189439Y0718232D01*
X0189636Y0718232D01*
X0191604Y0716264D01*
X0191604Y0716067D01*
X0193376Y0714295D01*
X0193573Y0714295D01*
X0195541Y0712327D01*
X0195541Y0712130D01*
X0197313Y0710358D01*
X0197510Y0710358D01*
X0201447Y0706421D01*
X0201447Y0704453D01*
X0201447Y0700516D02*
X0199282Y0700516D01*
X0196526Y0703272D01*
X0196526Y0703469D01*
X0194557Y0705437D01*
X0194360Y0705437D01*
X0192589Y0707209D01*
X0192589Y0707406D01*
X0190423Y0709571D01*
X0188848Y0709571D01*
X0187274Y0707996D01*
X0186289Y0707996D01*
X0186127Y0707834D01*
X0191604Y0712130D02*
X0191604Y0712327D01*
X0189636Y0714295D01*
X0189439Y0714295D01*
X0185305Y0718429D01*
X0185305Y0719020D01*
X0182549Y0719217D02*
X0175856Y0719217D01*
X0174872Y0718232D01*
X0170541Y0718232D01*
X0169951Y0718823D01*
X0168573Y0720004D02*
X0167982Y0719413D01*
X0167982Y0718232D01*
X0174675Y0711539D01*
X0174085Y0708193D02*
X0174316Y0707834D01*
X0174085Y0708193D02*
X0172116Y0708193D01*
X0170541Y0701894D02*
X0169754Y0701894D01*
X0170541Y0701894D02*
X0171919Y0700516D01*
X0171919Y0700319D01*
X0174282Y0697957D01*
X0174282Y0696185D01*
X0174316Y0696023D01*
X0174282Y0694020D02*
X0171919Y0696382D01*
X0171919Y0696579D01*
X0169951Y0698547D01*
X0168179Y0698547D01*
X0165817Y0700909D01*
X0170379Y0696023D02*
X0165817Y0691461D01*
X0173100Y0688508D02*
X0176053Y0691461D01*
X0174316Y0692086D02*
X0174282Y0692248D01*
X0174282Y0694020D01*
X0173100Y0688508D02*
X0173100Y0674728D01*
X0150463Y0652091D01*
X0150266Y0652287D01*
X0173297Y0646776D02*
X0188652Y0631421D01*
X0188652Y0630634D01*
X0174085Y0647169D02*
X0174085Y0679650D01*
X0182943Y0688508D01*
X0182648Y0688803D01*
X0197313Y0706421D02*
X0195541Y0708193D01*
X0195541Y0708390D01*
X0193573Y0710358D01*
X0193376Y0710358D01*
X0191604Y0712130D01*
X0197313Y0706421D02*
X0197510Y0706421D01*
X0204006Y0699925D01*
X0204793Y0699925D01*
X0207352Y0701303D02*
X0208730Y0699925D01*
X0207352Y0701303D02*
X0207352Y0708587D01*
X0208140Y0709374D01*
X0209321Y0709374D01*
X0213061Y0713114D01*
X0215030Y0713114D01*
X0215148Y0713232D01*
X0214439Y0716067D02*
X0214439Y0723941D01*
X0212471Y0725909D01*
X0212672Y0726505D01*
X0214439Y0726894D02*
X0212471Y0728862D01*
X0206565Y0728862D01*
X0206565Y0616657D01*
X0227234Y0618626D02*
X0249872Y0595988D01*
X0249872Y0432602D01*
X0251841Y0430634D01*
X0252154Y0430555D01*
X0252825Y0428665D02*
X0249872Y0428665D01*
X0248925Y0428587D01*
X0252825Y0428665D02*
X0254793Y0430634D01*
X0250856Y0434571D01*
X0250856Y0631421D01*
X0229203Y0653075D01*
X0229203Y0713114D01*
X0225266Y0717051D01*
X0225266Y0718035D01*
X0226250Y0719020D01*
X0226250Y0721972D01*
X0230187Y0721972D01*
X0234124Y0725909D01*
X0234124Y0731815D01*
X0237077Y0734768D01*
X0237077Y0734571D01*
X0239045Y0736736D02*
X0239045Y0721972D01*
X0283337Y0677681D01*
X0283337Y0506421D01*
X0344360Y0445398D01*
X0344360Y0436539D01*
X0345307Y0436461D01*
X0350266Y0437524D02*
X0350266Y0511343D01*
X0284321Y0577287D01*
X0284321Y0684571D01*
X0240030Y0728862D01*
X0240030Y0737720D01*
X0239045Y0738705D01*
X0216408Y0738705D01*
X0216408Y0730831D01*
X0216609Y0730442D01*
X0217392Y0728862D02*
X0214439Y0728862D01*
X0214439Y0738705D01*
X0215423Y0739689D01*
X0254793Y0739689D01*
X0254793Y0716067D01*
X0348297Y0622563D01*
X0348297Y0515280D01*
X0353219Y0510358D01*
X0353219Y0431618D01*
X0334518Y0412917D01*
X0260699Y0412917D01*
X0260699Y0417839D01*
X0263652Y0420791D01*
X0261683Y0422760D01*
X0252825Y0422760D01*
X0252154Y0422681D01*
X0245935Y0420791D02*
X0245935Y0536933D01*
X0221329Y0561539D01*
X0221329Y0709177D01*
X0214439Y0716067D01*
X0222313Y0718035D02*
X0225266Y0715083D01*
X0225266Y0697366D01*
X0227234Y0695398D01*
X0227234Y0618626D01*
X0173297Y0646776D02*
X0173297Y0671776D01*
X0172707Y0672366D01*
X0208735Y0707834D02*
X0208927Y0707799D01*
X0210896Y0707799D01*
X0220541Y0698154D01*
X0220541Y0685752D01*
X0219951Y0685161D01*
X0230187Y0710161D02*
X0230187Y0717051D01*
X0228219Y0719020D01*
X0228420Y0719645D01*
X0227037Y0720398D02*
X0227825Y0721185D01*
X0230581Y0721185D01*
X0234911Y0725516D01*
X0234911Y0730043D01*
X0235502Y0730634D01*
X0237667Y0730634D02*
X0238258Y0730043D01*
X0238258Y0721579D01*
X0240423Y0719413D01*
X0240423Y0717839D01*
X0232357Y0726505D02*
X0232156Y0726894D01*
X0230187Y0728862D01*
X0230187Y0734768D01*
X0232156Y0736736D01*
X0239045Y0736736D01*
X0237471Y0742051D02*
X0236093Y0743429D01*
X0234124Y0748744D02*
X0235108Y0749728D01*
X0238848Y0749728D01*
X0241604Y0746972D01*
X0245935Y0746972D01*
X0234124Y0748744D02*
X0209321Y0748744D01*
X0207156Y0746579D01*
X0205974Y0746579D01*
X0205384Y0745988D01*
X0218376Y0736736D02*
X0218376Y0729846D01*
X0217392Y0728862D01*
X0216408Y0726894D02*
X0216609Y0726505D01*
X0216408Y0726894D02*
X0214439Y0726894D01*
X0221329Y0731815D02*
X0222313Y0730831D01*
X0222313Y0718035D01*
X0226959Y0717169D02*
X0227037Y0717248D01*
X0227037Y0720398D01*
X0230187Y0710161D02*
X0259715Y0680634D01*
X0259715Y0448350D01*
X0330581Y0448350D01*
X0334518Y0452287D01*
X0335108Y0452287D01*
X0350266Y0437524D02*
X0334518Y0421776D01*
X0334518Y0414886D01*
X0262471Y0414886D01*
X0261683Y0420791D02*
X0245935Y0420791D01*
X0262667Y0450319D02*
X0262667Y0492642D01*
X0264636Y0494610D01*
X0265423Y0495122D01*
X0274478Y0494610D02*
X0275423Y0495122D01*
X0274478Y0494610D02*
X0274478Y0458193D01*
X0270541Y0454256D01*
X0270187Y0453786D01*
X0268219Y0450163D02*
X0267589Y0450319D01*
X0262667Y0450319D01*
X0296132Y0416264D02*
X0296723Y0415673D01*
X0327431Y0415673D01*
X0329400Y0417642D01*
X0329513Y0417829D01*
X0343376Y0409965D02*
X0358140Y0424728D01*
X0423100Y0424728D01*
X0423100Y0390280D01*
X0419163Y0386343D01*
X0418730Y0385437D01*
X0418730Y0375437D02*
X0418179Y0374531D01*
X0418179Y0371579D01*
X0407352Y0371579D01*
X0402431Y0376500D01*
X0402431Y0396185D01*
X0352234Y0396185D01*
X0351841Y0396579D01*
X0349282Y0395201D02*
X0348536Y0395122D01*
X0349282Y0395201D02*
X0378809Y0365673D01*
X0408337Y0365673D01*
X0408730Y0365437D01*
X0418179Y0364689D02*
X0418730Y0365437D01*
X0418179Y0364689D02*
X0418179Y0361736D01*
X0380778Y0361736D01*
X0350266Y0392248D01*
X0345345Y0392248D01*
X0345307Y0393154D01*
X0343376Y0392248D02*
X0343376Y0394217D01*
X0349282Y0400122D01*
X0349282Y0404059D01*
X0352234Y0407012D01*
X0404400Y0407012D01*
X0404400Y0400122D01*
X0408337Y0396185D01*
X0408730Y0395437D01*
X0403415Y0403075D02*
X0403415Y0381421D01*
X0408337Y0376500D01*
X0408337Y0375516D01*
X0408730Y0375437D01*
X0403415Y0403075D02*
X0351250Y0403075D01*
X0350856Y0402878D01*
X0345307Y0404965D02*
X0344360Y0405043D01*
X0343376Y0406028D01*
X0343376Y0409965D01*
X0345345Y0408980D02*
X0345307Y0408902D01*
X0345345Y0408980D02*
X0408337Y0408980D01*
X0408337Y0406028D01*
X0408730Y0405437D01*
X0418179Y0410949D02*
X0418179Y0414886D01*
X0418730Y0415437D01*
X0418179Y0410949D02*
X0350266Y0410949D01*
X0350463Y0410752D01*
X0343376Y0392248D02*
X0348297Y0387327D01*
X0348297Y0378469D01*
X0345345Y0375516D01*
X0345307Y0375437D01*
X0341408Y0377484D02*
X0341408Y0333193D01*
X0354203Y0320398D01*
X0354833Y0320358D01*
X0339439Y0309571D02*
X0339439Y0370594D01*
X0319754Y0370594D01*
X0319557Y0370398D01*
X0333534Y0376500D02*
X0333534Y0386343D01*
X0334518Y0387327D01*
X0335108Y0387130D01*
X0335305Y0377484D02*
X0341408Y0377484D01*
X0340423Y0371579D02*
X0340423Y0236736D01*
X0403415Y0173744D01*
X0403415Y0167839D01*
X0417195Y0154059D01*
X0417195Y0153862D01*
X0417195Y0151106D01*
X0418179Y0150122D01*
X0420148Y0150122D01*
X0421132Y0151106D01*
X0421132Y0154059D01*
X0611093Y0154059D01*
X0611093Y0129453D01*
X0783337Y0129453D01*
X0793179Y0119610D01*
X0798100Y0119610D01*
X0798297Y0119217D01*
X0779400Y0131421D02*
X0778809Y0131224D01*
X0779400Y0131421D02*
X0779400Y0208193D01*
X0769557Y0208193D01*
X0768848Y0208154D01*
X0768573Y0208193D01*
X0748888Y0208193D01*
X0747982Y0209098D01*
X0747904Y0209177D01*
X0727510Y0209177D01*
X0779400Y0208193D02*
X0788258Y0208193D01*
X0788730Y0207839D01*
X0789242Y0208193D01*
X0809911Y0208193D01*
X0810384Y0208272D01*
X0810896Y0208193D01*
X0830581Y0208193D01*
X0831447Y0208232D01*
X0831565Y0208193D01*
X0851250Y0208193D01*
X0851919Y0208862D01*
X0852234Y0209177D01*
X0870935Y0209177D01*
X0871408Y0208902D01*
X0977431Y0388232D02*
X0978219Y0388311D01*
X1002825Y0412917D01*
X1002825Y0928665D01*
X1000856Y0930634D01*
X1001053Y0931421D01*
X0953022Y0924138D02*
X0951644Y0922760D01*
X0951644Y0909965D01*
X0947707Y0906028D01*
X0947707Y0823350D01*
X0956565Y0814492D01*
X0956565Y0804650D01*
X0961486Y0799728D01*
X0962077Y0799531D01*
X0961486Y0799728D02*
X0961486Y0632406D01*
X0953612Y0624531D01*
X0953612Y0624728D01*
X0953612Y0624531D02*
X0952628Y0623547D01*
X0952628Y0518232D01*
X0955581Y0515280D01*
X0955581Y0502484D01*
X0959518Y0502484D01*
X0959715Y0502681D01*
X0952628Y0511343D02*
X0952825Y0511539D01*
X0952628Y0511343D02*
X0951644Y0512327D01*
X0951447Y0512917D01*
X0949478Y0510949D02*
X0949675Y0510358D01*
X0950660Y0509374D01*
X0950660Y0509571D01*
X0943770Y0531028D02*
X0943573Y0531224D01*
X0942786Y0532012D01*
X0942786Y0581224D01*
X0925069Y0598941D01*
X0925069Y0606815D01*
X0924085Y0607799D01*
X0923789Y0608390D01*
X0918967Y0602583D02*
X0919163Y0601894D01*
X0923100Y0597957D01*
X0923100Y0591067D01*
X0936880Y0577287D01*
X0936880Y0535949D01*
X0937077Y0536146D01*
X0903809Y0574138D02*
X0903415Y0574335D01*
X0900463Y0577287D01*
X0890620Y0577287D01*
X0890620Y0590083D01*
X0871919Y0608783D01*
X0865030Y0608783D01*
X0865030Y0596972D01*
X0859124Y0591067D01*
X0845345Y0591067D01*
X0844360Y0590083D01*
X0844360Y0508390D01*
X0866014Y0508390D01*
X0868967Y0511343D01*
X0868967Y0512327D01*
X0872904Y0516264D01*
X0873100Y0517150D01*
X0868967Y0519217D02*
X0859124Y0529059D01*
X0859124Y0532012D01*
X0850266Y0540870D01*
X0850266Y0585161D01*
X0846230Y0589197D01*
X0852037Y0583882D02*
X0852234Y0583193D01*
X0854203Y0585161D01*
X0854203Y0586146D01*
X0859124Y0591067D01*
X0876250Y0602091D02*
X0876841Y0601894D01*
X0884715Y0594020D01*
X0884715Y0581224D01*
X0891604Y0574335D01*
X0891998Y0574138D01*
X0889931Y0574138D02*
X0889636Y0574335D01*
X0889636Y0567445D01*
X0882746Y0560555D01*
X0853219Y0560555D01*
X0853219Y0541854D01*
X0852530Y0541854D01*
X0833174Y0555322D02*
X0825893Y0555322D01*
X0789506Y0591709D01*
X0789593Y0591796D01*
X0789593Y0627508D01*
X0789608Y0627508D01*
X0825660Y0622563D02*
X0825660Y0664886D01*
X0794163Y0696382D01*
X0794163Y0772169D01*
X0804006Y0772169D01*
X0828612Y0796776D01*
X0831368Y0796776D01*
X0829990Y0798154D01*
X0829990Y0807209D01*
X0839439Y0816657D01*
X0839439Y0837327D01*
X0833337Y0843429D01*
X0833337Y0888902D01*
X0828612Y0893626D01*
X0828612Y0906028D01*
X0833534Y0910949D01*
X0833534Y0915870D01*
X0833337Y0915673D01*
X0836486Y0907996D02*
X0836486Y0926697D01*
X0837274Y0927484D01*
X0839439Y0927484D01*
X0836486Y0926697D02*
X0836486Y0950319D01*
X0825660Y0961146D01*
X0650463Y0961146D01*
X0650463Y0834177D01*
X0645541Y0829256D01*
X0633730Y0829256D01*
X0633730Y0872563D01*
X0640620Y0879453D01*
X0640620Y0880437D01*
X0639636Y0881421D01*
X0628809Y0881421D01*
X0628809Y0880437D01*
X0620935Y0872563D01*
X0614045Y0872563D01*
X0614045Y0870594D01*
X0613061Y0869610D01*
X0602234Y0869610D01*
X0602234Y0867642D01*
X0602431Y0867248D01*
X0595345Y0868429D02*
X0595345Y0873252D01*
X0597313Y0875220D01*
X0601348Y0875220D01*
X0601939Y0875811D01*
X0599872Y0876894D02*
X0599872Y0877091D01*
X0595345Y0877091D01*
X0593278Y0875024D01*
X0593278Y0868232D01*
X0592490Y0867445D01*
X0594360Y0867445D02*
X0595345Y0868429D01*
X0594360Y0863705D02*
X0590423Y0867642D01*
X0590423Y0878469D01*
X0600266Y0878469D01*
X0619951Y0898154D01*
X0625856Y0898154D01*
X0625856Y0907012D01*
X0625463Y0907406D01*
X0627825Y0912917D02*
X0620935Y0912917D01*
X0620935Y0901106D01*
X0620541Y0901091D01*
X0625856Y0898154D02*
X0641604Y0882406D01*
X0641604Y0836146D01*
X0644557Y0833193D01*
X0644852Y0832602D01*
X0646526Y0832209D02*
X0646526Y0894217D01*
X0627825Y0912917D01*
X0641211Y0913705D02*
X0641604Y0913902D01*
X0642589Y0914886D01*
X0642589Y0915083D01*
X0644557Y0912917D02*
X0643179Y0911539D01*
X0651447Y0920791D02*
X0651447Y0815476D01*
X0655384Y0811539D01*
X0655384Y0806618D01*
X0657352Y0804650D01*
X0657156Y0804453D01*
X0656368Y0803665D01*
X0656368Y0772169D01*
X0794163Y0772169D01*
X0803612Y0772957D02*
X0677825Y0772957D01*
X0677234Y0773547D01*
X0674478Y0770791D02*
X0659124Y0755437D01*
X0659124Y0716427D01*
X0662718Y0712832D01*
X0662718Y0699584D01*
X0658337Y0664886D02*
X0656368Y0662917D01*
X0656368Y0656028D01*
X0657352Y0655043D01*
X0657352Y0627484D01*
X0657156Y0626894D01*
X0657352Y0626500D01*
X0654400Y0623547D01*
X0654400Y0513311D01*
X0661289Y0506421D01*
X0661289Y0502484D01*
X0660896Y0502287D01*
X0653612Y0507799D02*
X0653415Y0508390D01*
X0652431Y0509374D01*
X0652234Y0509177D01*
X0654400Y0511146D02*
X0654400Y0511343D01*
X0653415Y0512327D01*
X0653022Y0512524D01*
X0644557Y0531421D02*
X0644557Y0592051D01*
X0628809Y0607799D01*
X0624872Y0607799D01*
X0624872Y0608783D01*
X0624183Y0608980D01*
X0623888Y0608783D01*
X0621919Y0608783D01*
X0606171Y0593035D01*
X0606171Y0582209D01*
X0592392Y0568429D01*
X0592195Y0568331D01*
X0592392Y0568429D02*
X0592392Y0566461D01*
X0597313Y0561539D01*
X0597313Y0557602D01*
X0601250Y0553665D01*
X0601250Y0512327D01*
X0567786Y0512327D01*
X0567884Y0512425D01*
X0567786Y0512327D02*
X0565817Y0514295D01*
X0565817Y0523154D01*
X0547116Y0541854D01*
X0547116Y0589098D01*
X0546526Y0589197D01*
X0551545Y0583390D02*
X0552037Y0583193D01*
X0552037Y0545791D01*
X0568770Y0529059D01*
X0568770Y0524138D01*
X0574675Y0518232D01*
X0574774Y0517642D01*
X0570148Y0506618D02*
X0564242Y0506618D01*
X0541998Y0484374D01*
X0528612Y0484374D01*
X0493967Y0519020D01*
X0493967Y0552681D01*
X0482746Y0504059D02*
X0455778Y0504059D01*
X0444951Y0514886D01*
X0362077Y0514886D01*
X0361486Y0515476D01*
X0357549Y0513311D02*
X0444163Y0513311D01*
X0516604Y0440870D01*
X0584518Y0440870D01*
X0585108Y0440280D01*
X0586093Y0440280D01*
X0586683Y0439689D01*
X0587864Y0439689D01*
X0592786Y0444610D01*
X0587274Y0441067D02*
X0585502Y0441067D01*
X0584911Y0441657D01*
X0516998Y0441657D01*
X0444557Y0514098D01*
X0357156Y0514098D01*
X0356368Y0513311D01*
X0355187Y0513311D01*
X0357549Y0513311D02*
X0354793Y0510555D01*
X0333534Y0376500D02*
X0338455Y0371579D01*
X0340423Y0371579D01*
X0308927Y0349925D02*
X0308927Y0345988D01*
X0334518Y0320398D01*
X0334833Y0320358D01*
X0308927Y0349925D02*
X0302037Y0356815D01*
X0301683Y0357404D01*
X0291841Y0354175D02*
X0291211Y0353862D01*
X0283337Y0353862D01*
X0283337Y0320398D01*
X0283219Y0319925D01*
X0092392Y0141264D02*
X0025463Y0074335D01*
X0025266Y0073902D01*
X0495935Y0484374D02*
X0531171Y0449138D01*
X0587864Y0449138D01*
X0594360Y0455634D01*
X0594360Y0506224D01*
X0595935Y0507799D01*
X0615719Y0518429D02*
X0616014Y0519217D01*
X0616014Y0520201D01*
X0641604Y0545791D01*
X0641604Y0581224D01*
X0638652Y0581224D01*
X0637667Y0580240D01*
X0637667Y0576303D01*
X0620935Y0576303D01*
X0616998Y0572366D01*
X0616998Y0571382D01*
X0605187Y0571382D01*
X0602234Y0574335D01*
X0602234Y0574138D01*
X0600364Y0574138D02*
X0600266Y0574335D01*
X0600266Y0573350D01*
X0603219Y0570398D01*
X0638652Y0570398D01*
X0638652Y0579256D01*
X0639439Y0579650D01*
X0642589Y0582209D02*
X0622904Y0601894D01*
X0617982Y0601894D01*
X0607156Y0591067D01*
X0607156Y0577287D01*
X0604203Y0574335D01*
X0604301Y0574138D01*
X0593770Y0573547D02*
X0593770Y0575516D01*
X0593770Y0573547D02*
X0590030Y0569807D01*
X0590030Y0568626D01*
X0617982Y0601894D02*
X0618967Y0602878D01*
X0618967Y0603272D01*
X0642589Y0582209D02*
X0642589Y0541854D01*
X0637667Y0536933D01*
X0637864Y0536244D01*
X0649282Y0617445D02*
X0650660Y0618823D01*
X0648691Y0620791D02*
X0647510Y0619610D01*
X0647313Y0619610D01*
X0658337Y0664886D02*
X0658337Y0754453D01*
X0656368Y0756421D01*
X0656368Y0772169D01*
X0649478Y0810555D02*
X0648494Y0811539D01*
X0648494Y0812524D01*
X0649872Y0810949D02*
X0649478Y0810555D01*
X0652037Y0812917D02*
X0653415Y0811539D01*
X0653219Y0811539D01*
X0644557Y0830240D02*
X0646526Y0832209D01*
X0644557Y0830240D02*
X0639636Y0830240D01*
X0637667Y0832209D01*
X0637667Y0836146D01*
X0638061Y0835949D01*
X0614045Y0840083D02*
X0614045Y0847957D01*
X0632746Y0866657D01*
X0632746Y0873547D01*
X0638652Y0879453D01*
X0638504Y0879699D01*
X0651447Y0920791D02*
X0652431Y0921776D01*
X0652628Y0922169D01*
X0666211Y0970988D02*
X0537274Y0970988D01*
X0537274Y0916854D01*
X0358140Y0916854D01*
X0341801Y0920004D02*
X0528809Y0920004D01*
X0529203Y0920398D01*
X0535502Y0915280D02*
X0535305Y0914886D01*
X0538258Y0911933D01*
X0538258Y0902091D01*
X0542195Y0898154D01*
X0542195Y0800713D01*
X0540226Y0798744D01*
X0540423Y0798154D01*
X0540226Y0797760D01*
X0466408Y0723941D01*
X0466408Y0721972D01*
X0452628Y0708193D01*
X0450660Y0708193D01*
X0450069Y0708390D01*
X0452628Y0708193D02*
X0466408Y0694413D01*
X0466408Y0684571D01*
X0529400Y0621579D01*
X0529006Y0621185D01*
X0529400Y0621579D02*
X0529400Y0615673D01*
X0538258Y0606815D01*
X0538258Y0495594D01*
X0537274Y0494610D01*
X0542982Y0501894D02*
X0543179Y0502484D01*
X0544163Y0503469D01*
X0544360Y0503272D01*
X0545148Y0500516D02*
X0544951Y0499925D01*
X0545148Y0500516D02*
X0546132Y0500516D01*
X0546329Y0501106D01*
X0495935Y0495004D02*
X0495935Y0484374D01*
X0536486Y0611146D02*
X0536289Y0611736D01*
X0535305Y0612720D01*
X0535305Y0612524D01*
X0537274Y0613705D02*
X0537274Y0614492D01*
X0537274Y0614689D01*
X0537274Y0613705D02*
X0538258Y0612720D01*
X0538652Y0613114D01*
X0463848Y0695004D02*
X0442392Y0695004D01*
X0432352Y0705043D01*
X0408927Y0705043D01*
X0406171Y0707799D01*
X0405581Y0707799D01*
X0391408Y0721972D01*
X0391408Y0722760D01*
X0354203Y0727681D02*
X0354203Y0727878D01*
X0349282Y0732799D01*
X0255778Y0732799D01*
X0285699Y0726303D02*
X0286100Y0725902D01*
X0290601Y0725902D01*
X0290658Y0725959D01*
X0338204Y0725959D01*
X0227234Y0736736D02*
X0226959Y0736854D01*
X0227234Y0736736D02*
X0226250Y0735752D01*
X0226250Y0733783D01*
X0225266Y0732799D01*
X0222313Y0732799D01*
X0222313Y0734768D01*
X0220345Y0736736D01*
X0218376Y0736736D01*
X0220546Y0734379D02*
X0220345Y0733783D01*
X0221329Y0732799D01*
X0221329Y0731815D01*
X0166408Y0720004D02*
X0165817Y0720594D01*
X0166408Y0720004D02*
X0166408Y0713311D01*
X0165620Y0712524D01*
X0164045Y0711539D02*
X0164045Y0720594D01*
X0336289Y0918429D02*
X0335699Y0919020D01*
X0341211Y0920594D02*
X0341801Y0920004D01*
X0537274Y0916854D02*
X0546132Y0907996D01*
X0543179Y0908980D02*
X0542982Y0908390D01*
X0543179Y0908980D02*
X0542195Y0909965D01*
X0541604Y0909768D01*
X0540817Y0906421D02*
X0542195Y0905043D01*
X0549380Y0889591D02*
X0549085Y0889295D01*
X0549085Y0839098D01*
X0566801Y0821382D01*
X0566801Y0812524D01*
X0567293Y0812130D01*
X0567786Y0812524D01*
X0571723Y0812524D01*
X0583534Y0824335D01*
X0583534Y0835161D01*
X0600266Y0851894D01*
X0600463Y0852091D01*
X0600266Y0851894D02*
X0600266Y0853862D01*
X0594360Y0859768D01*
X0594360Y0863705D01*
X0588455Y0849925D02*
X0554006Y0849925D01*
X0554006Y0840083D01*
X0553612Y0840181D01*
X0552037Y0839098D02*
X0554006Y0837130D01*
X0562864Y0837130D01*
X0562864Y0835161D01*
X0571723Y0826303D01*
X0571723Y0829256D01*
X0588455Y0845988D01*
X0588455Y0845890D01*
X0592392Y0845890D02*
X0592392Y0845988D01*
X0588455Y0849925D01*
X0600266Y0845988D02*
X0600266Y0845890D01*
X0600266Y0845988D02*
X0607156Y0839098D01*
X0607156Y0827287D01*
X0616014Y0818429D01*
X0615817Y0817839D01*
X0614045Y0840083D02*
X0608140Y0840083D01*
X0602333Y0845890D01*
X0602234Y0845988D01*
X0604203Y0847366D02*
X0605974Y0845594D01*
X0605925Y0845545D01*
X0604203Y0847366D02*
X0604203Y0852003D01*
X0571723Y0826303D02*
X0571723Y0819413D01*
X0573691Y0817445D01*
X0573789Y0816854D01*
X0551053Y0805634D02*
X0549675Y0804256D01*
X0548100Y0806618D02*
X0547707Y0806421D01*
X0548100Y0806618D02*
X0549282Y0807799D01*
X0552037Y0839098D02*
X0552037Y0880437D01*
X0554990Y0883390D01*
X0554990Y0883980D01*
X0590226Y0897760D02*
X0599675Y0888311D01*
X0600463Y0888311D01*
X0600465Y0888292D01*
X0604624Y0895794D02*
X0604597Y0895988D01*
X0603219Y0897366D01*
X0592589Y0897366D01*
X0590226Y0897760D02*
X0590226Y0898744D01*
X0590226Y0958783D02*
X0589636Y0959374D01*
X0589636Y0961539D01*
X0596132Y0968035D01*
X0862667Y0968035D01*
X0885896Y0944807D01*
X0885896Y0944020D01*
X0884518Y0945004D02*
X0884518Y0942839D01*
X0884518Y0945004D02*
X0862274Y0967248D01*
X0596526Y0967248D01*
X0591014Y0961736D01*
X0591014Y0960949D01*
X0666211Y0970988D02*
X0773494Y1078272D01*
X0773494Y1099925D01*
X0807943Y1099925D01*
X0809911Y1097957D01*
X0809911Y1031028D01*
X0946723Y0894217D01*
X0946723Y0825319D01*
X0942786Y0825319D01*
X0932943Y0835161D01*
X0932943Y0859768D01*
X0907352Y0859768D01*
X0899478Y0867642D01*
X0899577Y0867642D01*
X0897510Y0869610D02*
X0895541Y0867642D01*
X0895541Y0866657D01*
X0893573Y0864689D01*
X0893573Y0859768D01*
X0899478Y0853862D01*
X0899478Y0851894D01*
X0899577Y0851894D01*
X0899478Y0851894D02*
X0885699Y0838114D01*
X0885699Y0829256D01*
X0868967Y0812524D01*
X0866998Y0812524D01*
X0866604Y0811933D01*
X0866998Y0812524D02*
X0863061Y0812524D01*
X0847313Y0828272D01*
X0847313Y0889295D01*
X0847215Y0889295D01*
X0854203Y0884374D02*
X0850266Y0880437D01*
X0850266Y0838114D01*
X0862077Y0838114D01*
X0862077Y0835161D01*
X0873888Y0823350D01*
X0884715Y0834177D01*
X0884715Y0843035D01*
X0887667Y0845988D01*
X0887569Y0846283D01*
X0888652Y0847957D02*
X0881762Y0847957D01*
X0881762Y0845004D01*
X0874872Y0838114D01*
X0866998Y0838114D01*
X0866998Y0839098D01*
X0862077Y0844020D01*
X0854203Y0844020D01*
X0854203Y0840083D01*
X0853219Y0839098D01*
X0851250Y0839098D01*
X0851250Y0875516D01*
X0875856Y0900122D01*
X0875856Y0902091D01*
X0876348Y0901894D01*
X0874872Y0901106D02*
X0874872Y0903075D01*
X0875856Y0904059D01*
X0885699Y0904059D01*
X0885699Y0851894D01*
X0887667Y0849925D01*
X0891604Y0849925D01*
X0891604Y0853862D01*
X0892589Y0854846D01*
X0892589Y0864689D01*
X0889636Y0867642D01*
X0889636Y0879453D01*
X0918179Y0907996D01*
X0918179Y0909965D01*
X0925069Y0909965D01*
X0945738Y0889295D01*
X0945738Y0829256D01*
X0940817Y0829256D01*
X0936880Y0833193D01*
X0936880Y0835161D01*
X0937864Y0836146D01*
X0937963Y0836638D01*
X0939833Y0836146D02*
X0939833Y0869610D01*
X0897510Y0869610D01*
X0903362Y0875564D02*
X0903219Y0875713D01*
X0899675Y0879256D01*
X0899675Y0881028D01*
X0898100Y0882602D01*
X0898100Y0885949D01*
X0894557Y0889492D02*
X0888848Y0895201D01*
X0888848Y0939886D01*
X0889439Y0940476D01*
X0890226Y0937130D02*
X0889636Y0936539D01*
X0889636Y0895594D01*
X0894360Y0890870D01*
X0895935Y0890870D01*
X0874872Y0901106D02*
X0858140Y0884374D01*
X0854203Y0884374D01*
X0854104Y0884177D01*
X0841408Y0903075D02*
X0836486Y0907996D01*
X0838848Y0907996D02*
X0839439Y0907996D01*
X0840423Y0907012D01*
X0840030Y0906618D01*
X0842195Y0908587D02*
X0842392Y0908980D01*
X0841408Y0909965D01*
X0840817Y0909965D01*
X0841408Y0903075D02*
X0841408Y0823350D01*
X0851250Y0813508D01*
X0851250Y0795791D01*
X0846329Y0790870D01*
X0846329Y0773154D01*
X0841408Y0768232D01*
X0841408Y0666854D01*
X0840423Y0665870D01*
X0840423Y0636343D01*
X0843376Y0633390D01*
X0843376Y0507406D01*
X0866998Y0507406D01*
X0887667Y0528075D01*
X0887667Y0550713D01*
X0889636Y0552681D01*
X0889833Y0552780D01*
X0886683Y0553665D02*
X0884715Y0551697D01*
X0884715Y0534965D01*
X0868967Y0519217D01*
X0866014Y0516264D01*
X0866014Y0512327D01*
X0866703Y0512031D01*
X0847116Y0502091D02*
X0847313Y0501500D01*
X0846329Y0500516D01*
X0845738Y0500713D01*
X0843770Y0502878D02*
X0842392Y0501500D01*
X0838455Y0496579D02*
X0838455Y0602878D01*
X0826644Y0614689D01*
X0826644Y0621579D01*
X0826841Y0621776D01*
X0826644Y0621579D02*
X0825660Y0622563D01*
X0834518Y0613114D02*
X0834518Y0612720D01*
X0835502Y0611736D01*
X0835699Y0611736D01*
X0837864Y0613705D02*
X0838455Y0613705D01*
X0839439Y0612720D01*
X0839242Y0612130D01*
X0891506Y0568429D02*
X0891604Y0568429D01*
X0891604Y0564492D01*
X0889636Y0562524D01*
X0886683Y0562524D01*
X0886683Y0553665D01*
X0894013Y0520597D02*
X0894163Y0520594D01*
X0902234Y0512524D01*
X0902234Y0419807D01*
X0896329Y0413902D01*
X0647707Y0413902D01*
X0620541Y0441067D01*
X0619754Y0441067D01*
X0618179Y0444610D02*
X0648100Y0414689D01*
X0895935Y0414689D01*
X0898691Y0417445D01*
X0898691Y0419217D01*
X0890817Y0427091D01*
X0890817Y0505634D01*
X0891211Y0506028D01*
X0838455Y0496579D02*
X0836289Y0494413D01*
X0789242Y0486736D02*
X0788947Y0486441D01*
X0789242Y0486736D02*
X0789242Y0486146D01*
X0944163Y0617839D02*
X0944754Y0617642D01*
X0945738Y0618626D01*
X0945541Y0619020D01*
X0947510Y0617051D02*
X0947707Y0616657D01*
X0946723Y0615673D01*
X0946132Y0615673D01*
X0803612Y0772957D02*
X0827825Y0797169D01*
X0827825Y0857406D01*
X0825463Y0859768D01*
X0853219Y0850909D02*
X0853219Y0841067D01*
X0852726Y0841264D01*
X0853219Y0850909D02*
X0878809Y0850909D01*
X0880778Y0848941D01*
X0889636Y0848941D01*
X0891604Y0846972D01*
X0891604Y0845988D01*
X0891506Y0846283D01*
X0889636Y0846283D02*
X0889636Y0845988D01*
X0889636Y0846283D02*
X0889636Y0846972D01*
X0888652Y0847957D01*
X0873888Y0823350D02*
X0871919Y0821382D01*
X0871919Y0818429D01*
X0871821Y0818035D01*
X0847313Y0806815D02*
X0847313Y0806618D01*
X0846329Y0805634D01*
X0845738Y0805437D01*
X0847313Y0803665D02*
X0847707Y0803272D01*
X0847313Y0803665D02*
X0846329Y0802681D01*
X0846329Y0802091D01*
X0838455Y0796972D02*
X0838455Y0796776D01*
X0831368Y0796776D01*
X0918278Y0903370D02*
X0918179Y0904059D01*
X0918179Y0907996D01*
X0924085Y0907996D02*
X0924085Y0908291D01*
X0924085Y0907996D02*
X0925069Y0907012D01*
X0925069Y0904059D01*
X0934911Y0894217D01*
X0934911Y0889295D01*
X0939833Y0884374D01*
X0939833Y0869610D01*
X0939833Y0836146D02*
X0943770Y0832209D01*
X0943868Y0831717D01*
X0952628Y0811736D02*
X0952628Y0811539D01*
X0953612Y0810555D01*
X0954006Y0810358D01*
X0951841Y0808390D02*
X0950660Y0809571D01*
X0950463Y0809965D01*
X0944360Y0913508D02*
X0945738Y0914886D01*
X0945935Y0914886D01*
X0943967Y0917051D02*
X0942589Y0915673D01*
X0612639Y0154129D02*
X0612077Y0154059D01*
X0611093Y0154059D01*
D24*
X0680778Y1130634D03*
X0671919Y1135358D03*
X0664636Y1135161D03*
X0760896Y1142642D03*
X0812274Y1132209D03*
X0821919Y1136539D03*
X0829400Y1136933D03*
D25*
X0813652Y1114098D02*
X0785974Y1114098D01*
X0762352Y1090476D01*
X0762864Y1089965D01*
X0762864Y1069610D01*
X0675069Y0981815D01*
X0634911Y0981815D01*
X0638455Y0978272D01*
X0634911Y0981815D02*
X0632943Y0983783D01*
X0508927Y0983783D01*
X0482943Y0957799D01*
X0482943Y0953075D01*
X0495541Y0940476D01*
X0503415Y0940476D01*
X0493573Y0866067D02*
X0399872Y0866067D01*
X0389636Y0855831D01*
X0389636Y0721972D01*
X0405384Y0706224D01*
X0415226Y0712130D02*
X0395541Y0731815D01*
X0395541Y0855831D01*
X0493573Y0866067D02*
X0493573Y0791657D01*
X0510502Y0774728D01*
X0588455Y0851894D02*
X0588455Y0962130D01*
X0595541Y0969217D01*
X0863258Y0969217D01*
X0806289Y1026185D01*
X0806289Y1092957D01*
X0813652Y1114098D02*
X0830187Y1097563D01*
X0830187Y1048350D01*
X0851447Y1027091D01*
X0858927Y1027091D01*
X0905384Y1027091D01*
X0968573Y0963902D01*
X0968376Y0963705D01*
X0968376Y0957799D01*
X0968573Y0963902D02*
X1001053Y0931421D01*
X1003809Y0959374D02*
X0917195Y1045988D01*
X0872707Y1045988D01*
X0863258Y0969217D02*
X0887667Y0944807D01*
X0887667Y0851894D01*
X0808927Y0929453D02*
X0804203Y0929453D01*
X0804203Y0939689D01*
X0823888Y0959374D01*
X0824282Y0959374D01*
X0804203Y0929453D02*
X0794754Y0929453D01*
X0782943Y0917642D01*
X0782943Y0778665D01*
X0701447Y0803075D02*
X0701447Y0921185D01*
X0679793Y0942839D01*
X0603022Y1009374D02*
X0586486Y1009374D01*
X0701447Y0803075D02*
X0693967Y0795594D01*
X0783730Y0641657D02*
X0783730Y0491657D01*
X0788947Y0486441D01*
X0789242Y0486146D01*
X0799872Y0475516D01*
X0723888Y0475516D01*
X0729793Y0481421D01*
X0729793Y0485358D01*
X0723888Y0475516D02*
X0719163Y0470791D01*
X0693573Y0470791D01*
X0741604Y0385358D02*
X0734911Y0378665D01*
X0734911Y0360201D01*
X0735463Y0359650D01*
X0624203Y0359650D01*
X0604203Y0379650D01*
X0604203Y0568429D01*
X0500660Y0470398D02*
X0496132Y0465870D01*
X0496132Y0464295D01*
X0517589Y0442839D01*
X0586093Y0442839D01*
X0607746Y0363311D02*
X0603809Y0359374D01*
X0579793Y0359374D01*
X0496132Y0464295D02*
X0485305Y0475122D01*
X0485305Y0631815D01*
X0491211Y0637720D01*
X0255974Y0848055D02*
X0255974Y0856126D01*
X0255974Y0848055D02*
X0232451Y0848055D01*
X0231270Y0846874D01*
X0231171Y0846972D01*
X0741604Y0385358D02*
X0750266Y0385358D01*
X0756171Y0379453D01*
X0756171Y0371421D01*
X0765463Y0362130D01*
X0856959Y0418429D02*
X0894754Y0418429D01*
X0903415Y0386736D02*
X0903415Y0568232D01*
X0799872Y0475516D02*
X0856959Y0418429D01*
X0903415Y0386736D02*
X0878809Y0362130D01*
X0884911Y0351500D02*
X0940699Y0351500D01*
X0977431Y0388232D01*
X0977746Y0419610D02*
X0987274Y0419610D01*
X1001053Y0433390D01*
X1001053Y0528665D01*
D26*
X0878809Y0362130D02*
X0765463Y0362130D01*
D27*
X0447411Y0539197D03*
X0348199Y0847760D03*
X0380778Y0891165D03*
X0348297Y0964098D03*
D28*
X0121992Y0620994D03*
X0429400Y0262524D03*
X0531368Y0259374D03*
X0558927Y0029059D03*
D29*
X0613855Y0151680D02*
X0614045Y0152091D01*
X0615030Y0153075D01*
X0615030Y0154059D01*
X0613061Y0156028D01*
X0418179Y0156028D01*
X0405384Y0168823D01*
X0405384Y0285949D01*
X0343376Y0347957D01*
X0343376Y0382406D01*
X0336486Y0389295D01*
X0336289Y0389295D01*
X0345307Y0369531D02*
X0345345Y0368626D01*
X0371919Y0368626D01*
X0380778Y0359768D01*
X0423100Y0359768D01*
X0423100Y0376500D01*
X0418179Y0381421D01*
X0409321Y0381421D01*
X0409321Y0385358D01*
X0408730Y0385437D01*
X0325305Y0450557D02*
X0325660Y0451303D01*
X0325660Y0461146D01*
X0278415Y0508390D01*
X0278415Y0672760D01*
X0232156Y0719020D01*
X0232357Y0719645D01*
X0189635Y0707406D02*
X0189547Y0707315D01*
X0189462Y0707221D01*
X0189380Y0707125D01*
X0189300Y0707026D01*
X0189224Y0706925D01*
X0189151Y0706821D01*
X0189082Y0706715D01*
X0189016Y0706607D01*
X0188953Y0706497D01*
X0188894Y0706385D01*
X0188838Y0706271D01*
X0188786Y0706156D01*
X0188737Y0706039D01*
X0188692Y0705920D01*
X0188651Y0705800D01*
X0188614Y0705679D01*
X0188581Y0705557D01*
X0188551Y0705434D01*
X0188525Y0705310D01*
X0188504Y0705185D01*
X0188486Y0705059D01*
X0188472Y0704934D01*
X0188462Y0704807D01*
X0188456Y0704681D01*
X0188454Y0704554D01*
X0188455Y0704554D02*
X0188455Y0700514D01*
X0190282Y0700514D02*
X0190282Y0703045D01*
X0190281Y0703045D02*
X0190326Y0703092D01*
X0190368Y0703141D01*
X0190407Y0703193D01*
X0190443Y0703247D01*
X0190476Y0703303D01*
X0190506Y0703360D01*
X0190532Y0703420D01*
X0190555Y0703480D01*
X0190575Y0703542D01*
X0190591Y0703605D01*
X0190604Y0703668D01*
X0190613Y0703733D01*
X0190618Y0703797D01*
X0190620Y0703862D01*
X0190282Y0700514D02*
X0190280Y0700368D01*
X0190274Y0700223D01*
X0190265Y0700077D01*
X0190252Y0699932D01*
X0190234Y0699788D01*
X0190213Y0699643D01*
X0190189Y0699500D01*
X0190160Y0699357D01*
X0190128Y0699215D01*
X0190092Y0699074D01*
X0190053Y0698933D01*
X0190010Y0698794D01*
X0189963Y0698656D01*
X0189912Y0698520D01*
X0189858Y0698384D01*
X0189801Y0698251D01*
X0189740Y0698118D01*
X0189675Y0697988D01*
X0189608Y0697859D01*
X0189536Y0697731D01*
X0189462Y0697606D01*
X0189384Y0697483D01*
X0189303Y0697362D01*
X0189219Y0697243D01*
X0189132Y0697126D01*
X0189042Y0697012D01*
X0188949Y0696900D01*
X0188853Y0696790D01*
X0188754Y0696683D01*
X0188652Y0696579D01*
X0188565Y0696371D02*
X0188565Y0692162D01*
X0186738Y0692162D02*
X0186740Y0692078D01*
X0186746Y0691993D01*
X0186756Y0691910D01*
X0186769Y0691826D01*
X0186787Y0691744D01*
X0186808Y0691662D01*
X0186833Y0691581D01*
X0186861Y0691502D01*
X0186894Y0691424D01*
X0186930Y0691348D01*
X0186969Y0691273D01*
X0187012Y0691200D01*
X0187058Y0691129D01*
X0187107Y0691061D01*
X0187159Y0690995D01*
X0187215Y0690931D01*
X0187273Y0690870D01*
X0186739Y0692162D02*
X0186739Y0696371D01*
X0186741Y0696459D01*
X0186746Y0696546D01*
X0186755Y0696633D01*
X0186768Y0696720D01*
X0186784Y0696806D01*
X0186804Y0696892D01*
X0186827Y0696976D01*
X0186854Y0697060D01*
X0186884Y0697142D01*
X0186918Y0697223D01*
X0186955Y0697303D01*
X0186995Y0697380D01*
X0187038Y0697457D01*
X0187084Y0697531D01*
X0187134Y0697603D01*
X0187186Y0697674D01*
X0187241Y0697742D01*
X0187300Y0697808D01*
X0187360Y0697871D01*
X0188652Y0696579D02*
X0188630Y0696554D01*
X0188611Y0696527D01*
X0188595Y0696499D01*
X0188582Y0696468D01*
X0188573Y0696436D01*
X0188568Y0696404D01*
X0188566Y0696371D01*
X0187360Y0697871D02*
X0187442Y0697955D01*
X0187521Y0698042D01*
X0187597Y0698131D01*
X0187671Y0698223D01*
X0187741Y0698317D01*
X0187809Y0698413D01*
X0187873Y0698511D01*
X0187934Y0698611D01*
X0187993Y0698713D01*
X0188048Y0698817D01*
X0188099Y0698922D01*
X0188148Y0699029D01*
X0188193Y0699138D01*
X0188234Y0699248D01*
X0188272Y0699359D01*
X0188307Y0699471D01*
X0188338Y0699584D01*
X0188365Y0699699D01*
X0188389Y0699814D01*
X0188409Y0699929D01*
X0188426Y0700046D01*
X0188438Y0700162D01*
X0188448Y0700279D01*
X0188453Y0700397D01*
X0188455Y0700514D01*
X0187809Y0689577D02*
X0187809Y0686500D01*
X0189636Y0688363D02*
X0189636Y0689577D01*
X0187809Y0686500D02*
X0187811Y0686392D01*
X0187816Y0686284D01*
X0187826Y0686176D01*
X0187838Y0686069D01*
X0187855Y0685962D01*
X0187875Y0685856D01*
X0187899Y0685750D01*
X0187926Y0685646D01*
X0187957Y0685542D01*
X0187992Y0685440D01*
X0188030Y0685339D01*
X0188071Y0685239D01*
X0188116Y0685140D01*
X0188164Y0685043D01*
X0188215Y0684948D01*
X0188270Y0684855D01*
X0188328Y0684764D01*
X0188388Y0684674D01*
X0188452Y0684587D01*
X0188519Y0684502D01*
X0188589Y0684419D01*
X0188661Y0684339D01*
X0188736Y0684261D01*
X0190574Y0686099D02*
X0190498Y0686177D01*
X0190425Y0686259D01*
X0190354Y0686342D01*
X0190287Y0686428D01*
X0190222Y0686516D01*
X0190161Y0686607D01*
X0190102Y0686699D01*
X0190047Y0686794D01*
X0189995Y0686890D01*
X0189946Y0686988D01*
X0189901Y0687087D01*
X0189859Y0687188D01*
X0189821Y0687291D01*
X0189786Y0687394D01*
X0189755Y0687499D01*
X0189727Y0687605D01*
X0189703Y0687712D01*
X0189683Y0687819D01*
X0189666Y0687927D01*
X0189653Y0688036D01*
X0189643Y0688144D01*
X0189638Y0688254D01*
X0189636Y0688363D01*
X0189636Y0689577D02*
X0189634Y0689697D01*
X0189628Y0689816D01*
X0189618Y0689935D01*
X0189605Y0690054D01*
X0189587Y0690172D01*
X0189566Y0690290D01*
X0189541Y0690407D01*
X0189511Y0690523D01*
X0189479Y0690638D01*
X0189442Y0690752D01*
X0189402Y0690864D01*
X0189358Y0690976D01*
X0189310Y0691085D01*
X0189259Y0691194D01*
X0189204Y0691300D01*
X0189146Y0691404D01*
X0189085Y0691507D01*
X0189020Y0691608D01*
X0188952Y0691706D01*
X0188881Y0691802D01*
X0188806Y0691896D01*
X0188729Y0691987D01*
X0188649Y0692076D01*
X0188565Y0692161D01*
X0187274Y0690870D02*
X0187332Y0690809D01*
X0187387Y0690745D01*
X0187440Y0690679D01*
X0187489Y0690610D01*
X0187535Y0690539D01*
X0187578Y0690467D01*
X0187617Y0690392D01*
X0187653Y0690315D01*
X0187686Y0690237D01*
X0187714Y0690158D01*
X0187739Y0690077D01*
X0187760Y0689996D01*
X0187778Y0689913D01*
X0187791Y0689830D01*
X0187801Y0689746D01*
X0187807Y0689661D01*
X0187809Y0689577D01*
X0225626Y0616264D02*
X0227234Y0616264D01*
X0225626Y0616264D02*
X0225556Y0616262D01*
X0225486Y0616257D01*
X0225416Y0616247D01*
X0225347Y0616235D01*
X0225278Y0616218D01*
X0225211Y0616198D01*
X0225144Y0616175D01*
X0225079Y0616148D01*
X0225016Y0616118D01*
X0224954Y0616084D01*
X0224894Y0616047D01*
X0224836Y0616007D01*
X0224780Y0615964D01*
X0224727Y0615919D01*
X0224676Y0615870D01*
X0222904Y0611593D02*
X0222904Y0600516D01*
X0222903Y0611593D02*
X0222905Y0611746D01*
X0222911Y0611899D01*
X0222920Y0612052D01*
X0222934Y0612205D01*
X0222951Y0612357D01*
X0222973Y0612509D01*
X0222998Y0612660D01*
X0223027Y0612811D01*
X0223060Y0612960D01*
X0223096Y0613109D01*
X0223136Y0613257D01*
X0223180Y0613404D01*
X0223228Y0613549D01*
X0223280Y0613694D01*
X0223335Y0613837D01*
X0223393Y0613978D01*
X0223455Y0614119D01*
X0223521Y0614257D01*
X0223590Y0614394D01*
X0223663Y0614529D01*
X0223739Y0614662D01*
X0223819Y0614793D01*
X0223901Y0614922D01*
X0223987Y0615049D01*
X0224076Y0615173D01*
X0224169Y0615296D01*
X0224264Y0615416D01*
X0224362Y0615533D01*
X0224464Y0615648D01*
X0224568Y0615761D01*
X0224675Y0615870D01*
X0318809Y0574598D02*
X0318809Y0574311D01*
X0338066Y0574311D01*
X0338066Y0572484D02*
X0318809Y0572484D01*
X0318809Y0572197D01*
X0338066Y0572484D02*
X0338175Y0572482D01*
X0338285Y0572476D01*
X0338394Y0572466D01*
X0338502Y0572453D01*
X0338610Y0572435D01*
X0338718Y0572414D01*
X0338824Y0572389D01*
X0338930Y0572360D01*
X0339034Y0572327D01*
X0339137Y0572291D01*
X0339239Y0572251D01*
X0339340Y0572207D01*
X0339438Y0572160D01*
X0339535Y0572109D01*
X0339630Y0572055D01*
X0339724Y0571997D01*
X0339815Y0571936D01*
X0339903Y0571872D01*
X0339990Y0571805D01*
X0340074Y0571735D01*
X0340155Y0571662D01*
X0340234Y0571586D01*
X0341763Y0572780D02*
X0343612Y0572780D01*
X0343151Y0570378D02*
X0343026Y0570380D01*
X0342902Y0570386D01*
X0342778Y0570395D01*
X0342654Y0570408D01*
X0342530Y0570425D01*
X0342407Y0570446D01*
X0342285Y0570470D01*
X0342164Y0570498D01*
X0342043Y0570530D01*
X0341924Y0570565D01*
X0341805Y0570604D01*
X0341688Y0570646D01*
X0341572Y0570692D01*
X0341458Y0570741D01*
X0341345Y0570794D01*
X0341234Y0570850D01*
X0341125Y0570910D01*
X0341017Y0570973D01*
X0340911Y0571039D01*
X0340808Y0571108D01*
X0340706Y0571181D01*
X0340607Y0571256D01*
X0340510Y0571334D01*
X0340416Y0571415D01*
X0340324Y0571499D01*
X0340234Y0571586D01*
X0341525Y0572878D02*
X0341550Y0572856D01*
X0341576Y0572837D01*
X0341605Y0572820D01*
X0341634Y0572806D01*
X0341665Y0572794D01*
X0341697Y0572786D01*
X0341730Y0572782D01*
X0341763Y0572780D01*
X0343151Y0570378D02*
X0343612Y0570378D01*
X0341526Y0572878D02*
X0341427Y0572974D01*
X0341326Y0573066D01*
X0341223Y0573156D01*
X0341117Y0573244D01*
X0341008Y0573328D01*
X0340897Y0573409D01*
X0340784Y0573486D01*
X0340669Y0573561D01*
X0340552Y0573632D01*
X0340433Y0573700D01*
X0340312Y0573765D01*
X0340189Y0573826D01*
X0340065Y0573884D01*
X0339938Y0573939D01*
X0339811Y0573989D01*
X0339682Y0574036D01*
X0339552Y0574080D01*
X0339421Y0574120D01*
X0339288Y0574156D01*
X0339155Y0574188D01*
X0339021Y0574217D01*
X0338886Y0574242D01*
X0338750Y0574263D01*
X0338614Y0574280D01*
X0338477Y0574294D01*
X0338340Y0574303D01*
X0338203Y0574309D01*
X0338066Y0574311D01*
X0222707Y0395004D02*
X0236289Y0381421D01*
X0236289Y0381488D01*
X0251841Y0374531D02*
X0251841Y0368626D01*
X0210502Y0327287D01*
X0197707Y0327287D01*
X0197707Y0317445D01*
X0192786Y0312524D01*
X0176053Y0312524D01*
X0176053Y0367642D01*
X0172116Y0371579D01*
X0172116Y0372051D01*
X0128809Y0395004D02*
X0222707Y0395004D01*
X0251841Y0374531D02*
X0262471Y0385161D01*
X0262667Y0385358D01*
X0264282Y0357404D02*
X0263652Y0356815D01*
X0217392Y0310555D01*
X0172116Y0310555D01*
X0172116Y0319413D01*
X0171762Y0319886D01*
X0141990Y0232209D02*
X0138061Y0232209D01*
X0141990Y0232209D02*
X0142235Y0232206D01*
X0142481Y0232197D01*
X0142726Y0232182D01*
X0142970Y0232161D01*
X0143214Y0232134D01*
X0143457Y0232101D01*
X0143700Y0232062D01*
X0143941Y0232017D01*
X0144181Y0231966D01*
X0144420Y0231909D01*
X0144657Y0231847D01*
X0144893Y0231778D01*
X0145127Y0231704D01*
X0145359Y0231624D01*
X0145589Y0231539D01*
X0145817Y0231448D01*
X0146042Y0231351D01*
X0146266Y0231249D01*
X0146486Y0231141D01*
X0146704Y0231028D01*
X0146919Y0230910D01*
X0147131Y0230786D01*
X0147340Y0230658D01*
X0147546Y0230524D01*
X0147748Y0230385D01*
X0147947Y0230241D01*
X0148142Y0230092D01*
X0148334Y0229939D01*
X0148522Y0229781D01*
X0148706Y0229619D01*
X0148885Y0229451D01*
X0149061Y0229280D01*
X0164968Y0213373D01*
X0161289Y0207406D02*
X0161291Y0207264D01*
X0161297Y0207123D01*
X0161306Y0206982D01*
X0161320Y0206841D01*
X0161337Y0206700D01*
X0161358Y0206560D01*
X0161383Y0206421D01*
X0161411Y0206282D01*
X0161444Y0206144D01*
X0161480Y0206007D01*
X0161519Y0205871D01*
X0161563Y0205737D01*
X0161610Y0205603D01*
X0161660Y0205471D01*
X0161714Y0205340D01*
X0161772Y0205211D01*
X0161833Y0205083D01*
X0161898Y0204957D01*
X0161966Y0204833D01*
X0162037Y0204711D01*
X0162112Y0204590D01*
X0162190Y0204472D01*
X0162271Y0204356D01*
X0162355Y0204242D01*
X0162442Y0204131D01*
X0162532Y0204021D01*
X0162626Y0203915D01*
X0162721Y0203811D01*
X0162820Y0203709D01*
X0162821Y0203709D02*
X0164266Y0202264D01*
X0169144Y0203291D02*
X0169163Y0203272D01*
X0171337Y0199335D02*
X0185699Y0199335D01*
X0185305Y0201500D02*
X0173441Y0201500D01*
X0173288Y0201502D01*
X0173135Y0201508D01*
X0172982Y0201517D01*
X0172829Y0201531D01*
X0172677Y0201548D01*
X0172525Y0201570D01*
X0172374Y0201595D01*
X0172223Y0201624D01*
X0172074Y0201657D01*
X0171925Y0201693D01*
X0171777Y0201733D01*
X0171630Y0201777D01*
X0171485Y0201825D01*
X0171340Y0201877D01*
X0171197Y0201932D01*
X0171056Y0201990D01*
X0170915Y0202052D01*
X0170777Y0202118D01*
X0170640Y0202187D01*
X0170505Y0202260D01*
X0170372Y0202336D01*
X0170241Y0202416D01*
X0170112Y0202498D01*
X0169985Y0202584D01*
X0169861Y0202673D01*
X0169738Y0202766D01*
X0169618Y0202861D01*
X0169501Y0202959D01*
X0169386Y0203061D01*
X0169273Y0203165D01*
X0169164Y0203272D01*
X0171337Y0199335D02*
X0171092Y0199338D01*
X0170846Y0199347D01*
X0170601Y0199362D01*
X0170357Y0199383D01*
X0170113Y0199410D01*
X0169870Y0199443D01*
X0169627Y0199482D01*
X0169386Y0199527D01*
X0169146Y0199578D01*
X0168907Y0199635D01*
X0168670Y0199697D01*
X0168434Y0199766D01*
X0168200Y0199840D01*
X0167968Y0199920D01*
X0167738Y0200005D01*
X0167510Y0200096D01*
X0167285Y0200193D01*
X0167061Y0200295D01*
X0166841Y0200403D01*
X0166623Y0200516D01*
X0166408Y0200634D01*
X0166196Y0200758D01*
X0165987Y0200886D01*
X0165781Y0201020D01*
X0165579Y0201159D01*
X0165380Y0201303D01*
X0165185Y0201452D01*
X0164993Y0201605D01*
X0164805Y0201763D01*
X0164621Y0201925D01*
X0164442Y0202093D01*
X0164266Y0202264D01*
X0167195Y0207996D02*
X0167193Y0208177D01*
X0167186Y0208358D01*
X0167176Y0208538D01*
X0167161Y0208719D01*
X0167141Y0208899D01*
X0167118Y0209078D01*
X0167090Y0209257D01*
X0167058Y0209435D01*
X0167021Y0209612D01*
X0166981Y0209789D01*
X0166936Y0209964D01*
X0166887Y0210138D01*
X0166834Y0210311D01*
X0166777Y0210483D01*
X0166716Y0210653D01*
X0166650Y0210822D01*
X0166581Y0210989D01*
X0166508Y0211155D01*
X0166431Y0211319D01*
X0166350Y0211480D01*
X0166265Y0211640D01*
X0166176Y0211798D01*
X0166084Y0211954D01*
X0165988Y0212107D01*
X0165888Y0212258D01*
X0165785Y0212407D01*
X0165678Y0212553D01*
X0165568Y0212696D01*
X0165455Y0212837D01*
X0165338Y0212976D01*
X0165218Y0213111D01*
X0165094Y0213243D01*
X0164968Y0213373D01*
X0158645Y0213790D02*
X0146919Y0225516D01*
X0158645Y0213791D02*
X0158795Y0213637D01*
X0158942Y0213480D01*
X0159084Y0213319D01*
X0159223Y0213155D01*
X0159358Y0212988D01*
X0159489Y0212817D01*
X0159616Y0212644D01*
X0159738Y0212467D01*
X0159857Y0212288D01*
X0159971Y0212106D01*
X0160080Y0211921D01*
X0160185Y0211734D01*
X0160286Y0211544D01*
X0160382Y0211352D01*
X0160474Y0211157D01*
X0160561Y0210961D01*
X0160643Y0210762D01*
X0160721Y0210562D01*
X0160793Y0210359D01*
X0160861Y0210156D01*
X0160924Y0209950D01*
X0160982Y0209743D01*
X0161035Y0209535D01*
X0161084Y0209325D01*
X0161127Y0209115D01*
X0161165Y0208903D01*
X0161198Y0208691D01*
X0161226Y0208478D01*
X0161249Y0208264D01*
X0161267Y0208050D01*
X0161280Y0207836D01*
X0161287Y0207621D01*
X0161290Y0207406D01*
X0157875Y0197366D02*
X0184715Y0197366D01*
X0185108Y0195201D02*
X0160108Y0195201D01*
X0159301Y0194394D01*
X0157875Y0197366D02*
X0157774Y0197364D01*
X0157674Y0197358D01*
X0157574Y0197349D01*
X0157474Y0197336D01*
X0157375Y0197319D01*
X0157277Y0197299D01*
X0157179Y0197274D01*
X0157083Y0197247D01*
X0156987Y0197215D01*
X0156893Y0197180D01*
X0156800Y0197142D01*
X0156709Y0197100D01*
X0156619Y0197055D01*
X0156531Y0197006D01*
X0156445Y0196954D01*
X0156361Y0196899D01*
X0156279Y0196841D01*
X0156199Y0196780D01*
X0156122Y0196715D01*
X0156047Y0196648D01*
X0155974Y0196579D01*
X0154203Y0192302D02*
X0154203Y0190878D01*
X0157352Y0189689D02*
X0157352Y0188713D01*
X0154203Y0192302D02*
X0154205Y0192455D01*
X0154211Y0192608D01*
X0154220Y0192761D01*
X0154234Y0192914D01*
X0154251Y0193066D01*
X0154273Y0193218D01*
X0154298Y0193369D01*
X0154327Y0193520D01*
X0154360Y0193669D01*
X0154396Y0193818D01*
X0154436Y0193966D01*
X0154480Y0194113D01*
X0154528Y0194258D01*
X0154580Y0194403D01*
X0154635Y0194546D01*
X0154693Y0194687D01*
X0154755Y0194828D01*
X0154821Y0194966D01*
X0154890Y0195103D01*
X0154963Y0195238D01*
X0155039Y0195371D01*
X0155119Y0195502D01*
X0155201Y0195631D01*
X0155287Y0195758D01*
X0155376Y0195882D01*
X0155469Y0196005D01*
X0155564Y0196125D01*
X0155662Y0196242D01*
X0155764Y0196357D01*
X0155868Y0196470D01*
X0155975Y0196579D01*
X0159302Y0194393D02*
X0159191Y0194280D01*
X0159083Y0194164D01*
X0158978Y0194046D01*
X0158876Y0193925D01*
X0158776Y0193802D01*
X0158680Y0193676D01*
X0158587Y0193548D01*
X0158496Y0193418D01*
X0158409Y0193286D01*
X0158325Y0193152D01*
X0158244Y0193016D01*
X0158167Y0192877D01*
X0158093Y0192738D01*
X0158022Y0192596D01*
X0157954Y0192453D01*
X0157890Y0192308D01*
X0157830Y0192162D01*
X0157772Y0192014D01*
X0157719Y0191865D01*
X0157669Y0191715D01*
X0157622Y0191563D01*
X0157580Y0191411D01*
X0157541Y0191258D01*
X0157505Y0191103D01*
X0157473Y0190948D01*
X0157445Y0190792D01*
X0157421Y0190636D01*
X0157400Y0190479D01*
X0157383Y0190321D01*
X0157370Y0190164D01*
X0157361Y0190006D01*
X0157355Y0189847D01*
X0157353Y0189689D01*
X0151274Y0183807D02*
X0149675Y0182209D01*
X0151644Y0178862D02*
X0154423Y0181642D01*
X0154589Y0181812D01*
X0154752Y0181986D01*
X0154909Y0182164D01*
X0155063Y0182346D01*
X0155213Y0182531D01*
X0155357Y0182720D01*
X0155498Y0182912D01*
X0155633Y0183108D01*
X0155765Y0183307D01*
X0155891Y0183508D01*
X0156012Y0183713D01*
X0156129Y0183921D01*
X0156240Y0184131D01*
X0156347Y0184344D01*
X0156448Y0184559D01*
X0156545Y0184776D01*
X0156636Y0184996D01*
X0156721Y0185218D01*
X0156802Y0185442D01*
X0156877Y0185668D01*
X0156947Y0185896D01*
X0157011Y0186125D01*
X0157070Y0186355D01*
X0157123Y0186587D01*
X0157171Y0186820D01*
X0157214Y0187055D01*
X0157250Y0187290D01*
X0157281Y0187526D01*
X0157307Y0187762D01*
X0157327Y0188000D01*
X0157341Y0188237D01*
X0157349Y0188475D01*
X0157352Y0188713D01*
X0154203Y0190878D02*
X0154200Y0190640D01*
X0154192Y0190402D01*
X0154178Y0190165D01*
X0154158Y0189927D01*
X0154132Y0189691D01*
X0154101Y0189455D01*
X0154065Y0189220D01*
X0154022Y0188985D01*
X0153974Y0188752D01*
X0153921Y0188520D01*
X0153862Y0188290D01*
X0153798Y0188061D01*
X0153728Y0187833D01*
X0153653Y0187607D01*
X0153572Y0187383D01*
X0153487Y0187161D01*
X0153396Y0186941D01*
X0153299Y0186724D01*
X0153198Y0186509D01*
X0153091Y0186296D01*
X0152980Y0186086D01*
X0152863Y0185878D01*
X0152742Y0185673D01*
X0152616Y0185472D01*
X0152484Y0185273D01*
X0152349Y0185077D01*
X0152208Y0184885D01*
X0152064Y0184696D01*
X0151914Y0184511D01*
X0151760Y0184329D01*
X0151603Y0184151D01*
X0151440Y0183977D01*
X0151274Y0183807D01*
X0169144Y0203292D02*
X0169033Y0203405D01*
X0168925Y0203521D01*
X0168820Y0203639D01*
X0168718Y0203760D01*
X0168618Y0203883D01*
X0168522Y0204009D01*
X0168429Y0204137D01*
X0168338Y0204267D01*
X0168251Y0204399D01*
X0168167Y0204533D01*
X0168086Y0204669D01*
X0168009Y0204808D01*
X0167935Y0204947D01*
X0167864Y0205089D01*
X0167796Y0205232D01*
X0167732Y0205377D01*
X0167672Y0205523D01*
X0167614Y0205671D01*
X0167561Y0205820D01*
X0167511Y0205970D01*
X0167464Y0206122D01*
X0167422Y0206274D01*
X0167383Y0206427D01*
X0167347Y0206582D01*
X0167315Y0206737D01*
X0167287Y0206893D01*
X0167263Y0207049D01*
X0167242Y0207206D01*
X0167225Y0207364D01*
X0167212Y0207521D01*
X0167203Y0207679D01*
X0167197Y0207838D01*
X0167195Y0207996D01*
X0204597Y0210161D02*
X0206565Y0212130D01*
X0206565Y0213114D01*
X0204597Y0215083D01*
X0204793Y0215280D01*
X0204597Y0210161D02*
X0204597Y0103862D01*
X0201644Y0100909D01*
X0201853Y0100487D01*
X0219282Y0176697D02*
X0219282Y0189403D01*
X0220541Y0192445D02*
X0222534Y0194437D01*
X0220542Y0192444D02*
X0220451Y0192351D01*
X0220364Y0192255D01*
X0220279Y0192157D01*
X0220197Y0192056D01*
X0220119Y0191952D01*
X0220043Y0191846D01*
X0219971Y0191738D01*
X0219902Y0191628D01*
X0219837Y0191516D01*
X0219775Y0191402D01*
X0219716Y0191286D01*
X0219661Y0191168D01*
X0219609Y0191049D01*
X0219561Y0190928D01*
X0219517Y0190806D01*
X0219477Y0190683D01*
X0219440Y0190558D01*
X0219407Y0190432D01*
X0219378Y0190306D01*
X0219352Y0190178D01*
X0219331Y0190050D01*
X0219313Y0189921D01*
X0219300Y0189792D01*
X0219290Y0189663D01*
X0219284Y0189533D01*
X0219282Y0189403D01*
X0222534Y0194437D02*
X0222710Y0194608D01*
X0222889Y0194776D01*
X0223073Y0194938D01*
X0223261Y0195096D01*
X0223453Y0195249D01*
X0223648Y0195398D01*
X0223847Y0195542D01*
X0224049Y0195681D01*
X0224255Y0195815D01*
X0224464Y0195943D01*
X0224676Y0196067D01*
X0224891Y0196185D01*
X0225109Y0196298D01*
X0225329Y0196406D01*
X0225553Y0196508D01*
X0225778Y0196605D01*
X0226006Y0196696D01*
X0226236Y0196781D01*
X0226468Y0196861D01*
X0226702Y0196935D01*
X0226938Y0197004D01*
X0227175Y0197066D01*
X0227414Y0197123D01*
X0227654Y0197174D01*
X0227895Y0197219D01*
X0228138Y0197258D01*
X0228381Y0197291D01*
X0228625Y0197318D01*
X0228869Y0197339D01*
X0229114Y0197354D01*
X0229360Y0197363D01*
X0229605Y0197366D01*
X0231762Y0197366D01*
X0232754Y0213508D02*
X0237667Y0213508D01*
X0232754Y0213508D02*
X0232509Y0213511D01*
X0232263Y0213520D01*
X0232018Y0213535D01*
X0231774Y0213556D01*
X0231530Y0213583D01*
X0231287Y0213616D01*
X0231044Y0213655D01*
X0230803Y0213700D01*
X0230563Y0213751D01*
X0230324Y0213808D01*
X0230087Y0213870D01*
X0229851Y0213939D01*
X0229617Y0214013D01*
X0229385Y0214093D01*
X0229155Y0214178D01*
X0228927Y0214269D01*
X0228702Y0214366D01*
X0228478Y0214468D01*
X0228258Y0214576D01*
X0228040Y0214689D01*
X0227825Y0214807D01*
X0227613Y0214931D01*
X0227404Y0215059D01*
X0227198Y0215193D01*
X0226996Y0215332D01*
X0226797Y0215476D01*
X0226602Y0215625D01*
X0226410Y0215778D01*
X0226222Y0215936D01*
X0226038Y0216098D01*
X0225859Y0216266D01*
X0225683Y0216437D01*
X0221329Y0220791D01*
X0219282Y0225734D02*
X0219282Y0235752D01*
X0219281Y0225734D02*
X0219283Y0225562D01*
X0219289Y0225391D01*
X0219300Y0225220D01*
X0219315Y0225049D01*
X0219334Y0224878D01*
X0219357Y0224708D01*
X0219384Y0224539D01*
X0219415Y0224370D01*
X0219451Y0224202D01*
X0219490Y0224036D01*
X0219534Y0223870D01*
X0219582Y0223705D01*
X0219634Y0223541D01*
X0219690Y0223379D01*
X0219749Y0223218D01*
X0219813Y0223059D01*
X0219881Y0222901D01*
X0219952Y0222745D01*
X0220027Y0222591D01*
X0220106Y0222439D01*
X0220189Y0222289D01*
X0220275Y0222140D01*
X0220365Y0221994D01*
X0220459Y0221851D01*
X0220556Y0221709D01*
X0220657Y0221570D01*
X0220760Y0221434D01*
X0220868Y0221300D01*
X0220978Y0221168D01*
X0221092Y0221040D01*
X0221209Y0220914D01*
X0221328Y0220791D01*
X0418179Y0156028D02*
X0419163Y0155043D01*
X0419163Y0151697D01*
X0648494Y0415870D02*
X0648494Y0593035D01*
X0616998Y0624531D01*
X0595345Y0624531D01*
X0588455Y0631421D01*
X0588455Y0558587D01*
X0591408Y0558587D01*
X0594360Y0555634D01*
X0594360Y0552681D01*
X0594262Y0552681D01*
X0588455Y0631421D02*
X0588455Y0703272D01*
X0591408Y0706224D01*
X0591408Y0720201D01*
X0586486Y0725122D01*
X0586486Y0767642D01*
X0579793Y0774335D01*
X0579793Y0780831D01*
X0584321Y0785358D01*
X0584321Y0790870D01*
X0591408Y0797957D01*
X0591408Y0840083D01*
X0602234Y0850909D01*
X0602234Y0852878D01*
X0604203Y0854846D01*
X0604203Y0859768D01*
X0602234Y0861736D01*
X0598297Y0861736D01*
X0598297Y0867642D01*
X0598494Y0867346D01*
X0893573Y0551697D02*
X0889636Y0547760D01*
X0889636Y0426697D01*
X0897510Y0418823D01*
X0897510Y0417839D01*
X0895541Y0415870D01*
X0648494Y0415870D01*
X0893573Y0551697D02*
X0893573Y0552681D01*
X0893770Y0552681D01*
X0893573Y0552681D02*
X0893573Y0557602D01*
X0894557Y0558587D01*
X0898494Y0558587D01*
X0898494Y0566461D01*
X0899478Y0567445D01*
X0899478Y0569413D01*
X0902431Y0572366D01*
X0905384Y0572366D01*
X0905384Y0637327D01*
X0904400Y0638311D01*
X0904400Y0837130D01*
X0905384Y0838114D01*
X0905384Y0857799D01*
X0901447Y0861736D01*
X0897510Y0861736D01*
X0897510Y0867642D01*
X0897608Y0867740D01*
D30*
X0896329Y0870004D02*
X0896329Y0874531D01*
X0896919Y0875122D01*
X0896919Y0876598D01*
X0897018Y0876598D01*
X0895246Y0876106D02*
X0895246Y0871185D01*
X0891604Y0867543D01*
X0893868Y0867543D02*
X0896329Y0870004D01*
X0903415Y0852091D02*
X0903415Y0845299D01*
X0887864Y0575811D02*
X0887815Y0575762D01*
X0887864Y0575811D02*
X0888061Y0575614D01*
X0888061Y0568331D01*
X0898150Y0553026D02*
X0896624Y0551500D01*
X0896624Y0546972D01*
X0896132Y0546480D01*
X0898002Y0546382D02*
X0900463Y0548843D01*
X0900463Y0553075D01*
X0898100Y0544413D02*
X0898100Y0542150D01*
X0896132Y0540181D01*
X0599282Y0547366D02*
X0599282Y0552681D01*
X0597313Y0552681D02*
X0597313Y0547563D01*
X0596723Y0546972D01*
X0598691Y0546776D02*
X0599282Y0547366D01*
X0238835Y0110541D02*
X0238109Y0109815D01*
X0238038Y0109742D01*
X0237970Y0109666D01*
X0237905Y0109588D01*
X0237843Y0109508D01*
X0237783Y0109425D01*
X0237727Y0109340D01*
X0237673Y0109254D01*
X0237623Y0109165D01*
X0237576Y0109075D01*
X0237532Y0108983D01*
X0237491Y0108890D01*
X0237454Y0108795D01*
X0237420Y0108699D01*
X0237389Y0108602D01*
X0237363Y0108504D01*
X0237339Y0108405D01*
X0237319Y0108305D01*
X0237303Y0108205D01*
X0237290Y0108104D01*
X0237281Y0108002D01*
X0237276Y0107901D01*
X0237274Y0107799D01*
X0239833Y0106849D02*
X0239833Y0105634D01*
X0239833Y0106849D02*
X0239835Y0106919D01*
X0239840Y0106989D01*
X0239850Y0107059D01*
X0239862Y0107128D01*
X0239879Y0107197D01*
X0239899Y0107264D01*
X0239922Y0107331D01*
X0239949Y0107396D01*
X0239979Y0107459D01*
X0240013Y0107521D01*
X0240050Y0107581D01*
X0240090Y0107639D01*
X0240133Y0107695D01*
X0240178Y0107748D01*
X0240227Y0107799D01*
X0240226Y0107799D02*
X0241048Y0108620D01*
X0238835Y0110541D02*
X0238930Y0110634D01*
X0239029Y0110724D01*
X0239129Y0110812D01*
X0239232Y0110896D01*
X0239338Y0110978D01*
X0239445Y0111057D01*
X0239555Y0111132D01*
X0239667Y0111205D01*
X0239781Y0111274D01*
X0239896Y0111340D01*
X0240014Y0111403D01*
X0240133Y0111462D01*
X0240254Y0111519D01*
X0240376Y0111571D01*
X0240500Y0111621D01*
X0240626Y0111666D01*
X0240752Y0111709D01*
X0240879Y0111747D01*
X0241008Y0111782D01*
X0241138Y0111814D01*
X0241268Y0111842D01*
X0241399Y0111866D01*
X0241531Y0111886D01*
X0241663Y0111903D01*
X0241796Y0111916D01*
X0241929Y0111926D01*
X0242062Y0111931D01*
X0242195Y0111933D01*
X0242392Y0109177D02*
X0242309Y0109175D01*
X0242226Y0109170D01*
X0242144Y0109161D01*
X0242062Y0109148D01*
X0241981Y0109132D01*
X0241900Y0109112D01*
X0241820Y0109089D01*
X0241742Y0109062D01*
X0241665Y0109032D01*
X0241589Y0108999D01*
X0241514Y0108962D01*
X0241441Y0108922D01*
X0241371Y0108879D01*
X0241302Y0108833D01*
X0241235Y0108784D01*
X0241170Y0108732D01*
X0241108Y0108678D01*
X0241048Y0108620D01*
X0235047Y0102423D02*
X0222904Y0090280D01*
X0225463Y0087917D02*
X0237466Y0099921D01*
X0237467Y0099921D02*
X0237601Y0100059D01*
X0237732Y0100200D01*
X0237860Y0100343D01*
X0237984Y0100490D01*
X0238105Y0100640D01*
X0238222Y0100792D01*
X0238335Y0100948D01*
X0238445Y0101106D01*
X0238550Y0101266D01*
X0238653Y0101429D01*
X0238751Y0101595D01*
X0238845Y0101762D01*
X0238935Y0101932D01*
X0239021Y0102104D01*
X0239103Y0102278D01*
X0239181Y0102454D01*
X0239254Y0102631D01*
X0239324Y0102811D01*
X0239389Y0102992D01*
X0239449Y0103174D01*
X0239506Y0103358D01*
X0239558Y0103543D01*
X0239605Y0103729D01*
X0239648Y0103917D01*
X0239687Y0104105D01*
X0239721Y0104294D01*
X0239751Y0104484D01*
X0239776Y0104675D01*
X0239796Y0104866D01*
X0239812Y0105058D01*
X0239824Y0105250D01*
X0239831Y0105442D01*
X0239833Y0105634D01*
X0237274Y0107799D02*
X0237272Y0107612D01*
X0237265Y0107426D01*
X0237253Y0107240D01*
X0237237Y0107054D01*
X0237217Y0106868D01*
X0237192Y0106683D01*
X0237162Y0106499D01*
X0237128Y0106316D01*
X0237089Y0106133D01*
X0237046Y0105951D01*
X0236999Y0105771D01*
X0236947Y0105592D01*
X0236890Y0105414D01*
X0236830Y0105237D01*
X0236764Y0105062D01*
X0236695Y0104889D01*
X0236622Y0104718D01*
X0236544Y0104548D01*
X0236462Y0104380D01*
X0236376Y0104215D01*
X0236286Y0104051D01*
X0236192Y0103890D01*
X0236094Y0103731D01*
X0235992Y0103574D01*
X0235887Y0103421D01*
X0235778Y0103269D01*
X0235665Y0103121D01*
X0235548Y0102975D01*
X0235428Y0102832D01*
X0235304Y0102692D01*
X0235177Y0102556D01*
X0235047Y0102422D01*
X0225759Y0082631D02*
X0223112Y0082631D01*
X0221919Y0079846D02*
X0236904Y0064862D01*
X0240817Y0070398D02*
X0230581Y0080634D01*
X0230461Y0080751D01*
X0230338Y0080865D01*
X0230213Y0080975D01*
X0230085Y0081083D01*
X0229954Y0081188D01*
X0229821Y0081289D01*
X0229685Y0081387D01*
X0229547Y0081482D01*
X0229407Y0081573D01*
X0229265Y0081661D01*
X0229120Y0081745D01*
X0228973Y0081826D01*
X0228825Y0081903D01*
X0228674Y0081976D01*
X0228522Y0082046D01*
X0228369Y0082112D01*
X0228213Y0082174D01*
X0228056Y0082232D01*
X0227898Y0082287D01*
X0227738Y0082337D01*
X0227578Y0082384D01*
X0227416Y0082427D01*
X0227253Y0082465D01*
X0227089Y0082500D01*
X0226925Y0082531D01*
X0226760Y0082557D01*
X0226594Y0082580D01*
X0226427Y0082598D01*
X0226261Y0082613D01*
X0226094Y0082623D01*
X0225926Y0082629D01*
X0225759Y0082631D01*
X0236904Y0064862D02*
X0237080Y0064691D01*
X0237259Y0064523D01*
X0237443Y0064361D01*
X0237631Y0064203D01*
X0237823Y0064050D01*
X0238018Y0063901D01*
X0238217Y0063757D01*
X0238419Y0063618D01*
X0238625Y0063484D01*
X0238834Y0063356D01*
X0239046Y0063232D01*
X0239261Y0063114D01*
X0239479Y0063001D01*
X0239699Y0062893D01*
X0239923Y0062791D01*
X0240148Y0062694D01*
X0240376Y0062603D01*
X0240606Y0062518D01*
X0240838Y0062438D01*
X0241072Y0062364D01*
X0241308Y0062295D01*
X0241545Y0062233D01*
X0241784Y0062176D01*
X0242024Y0062125D01*
X0242265Y0062080D01*
X0242508Y0062041D01*
X0242751Y0062008D01*
X0242995Y0061981D01*
X0243239Y0061960D01*
X0243484Y0061945D01*
X0243730Y0061936D01*
X0243975Y0061933D01*
X0251874Y0061933D01*
X0251944Y0061935D01*
X0252014Y0061940D01*
X0252084Y0061950D01*
X0252153Y0061962D01*
X0252222Y0061979D01*
X0252289Y0061999D01*
X0252356Y0062022D01*
X0252421Y0062049D01*
X0252484Y0062079D01*
X0252546Y0062113D01*
X0252606Y0062150D01*
X0252664Y0062190D01*
X0252720Y0062233D01*
X0252773Y0062278D01*
X0252824Y0062327D01*
X0183534Y0082996D02*
X0164242Y0082996D01*
X0164425Y0079832D02*
X0152825Y0068232D01*
X0148518Y0069553D02*
X0160349Y0081383D01*
X0160452Y0081484D01*
X0160558Y0081582D01*
X0160666Y0081677D01*
X0160777Y0081769D01*
X0160890Y0081858D01*
X0161006Y0081944D01*
X0161123Y0082028D01*
X0161243Y0082108D01*
X0161365Y0082185D01*
X0161489Y0082258D01*
X0161615Y0082329D01*
X0161742Y0082396D01*
X0161872Y0082460D01*
X0162003Y0082520D01*
X0162135Y0082577D01*
X0162269Y0082630D01*
X0162404Y0082680D01*
X0162541Y0082727D01*
X0162678Y0082769D01*
X0162817Y0082808D01*
X0162957Y0082844D01*
X0163097Y0082876D01*
X0163239Y0082904D01*
X0163381Y0082928D01*
X0163523Y0082949D01*
X0163666Y0082966D01*
X0163810Y0082979D01*
X0163954Y0082988D01*
X0164098Y0082994D01*
X0164242Y0082996D01*
X0167786Y0081224D02*
X0179515Y0081224D01*
X0179991Y0081028D02*
X0179990Y0081017D01*
X0179987Y0081006D01*
X0179981Y0080996D01*
X0179974Y0080987D01*
X0179990Y0081027D02*
X0179955Y0081060D01*
X0179918Y0081090D01*
X0179878Y0081117D01*
X0179837Y0081142D01*
X0179794Y0081163D01*
X0179750Y0081182D01*
X0179704Y0081197D01*
X0179658Y0081209D01*
X0179611Y0081217D01*
X0179563Y0081222D01*
X0179515Y0081224D01*
X0178621Y0084768D02*
X0181171Y0084768D01*
X0181573Y0086933D02*
X0183140Y0086933D01*
X0178621Y0084768D02*
X0178376Y0084771D01*
X0178130Y0084780D01*
X0177885Y0084795D01*
X0177641Y0084816D01*
X0177397Y0084843D01*
X0177154Y0084876D01*
X0176911Y0084915D01*
X0176670Y0084960D01*
X0176430Y0085011D01*
X0176191Y0085068D01*
X0175954Y0085130D01*
X0175718Y0085199D01*
X0175484Y0085273D01*
X0175252Y0085353D01*
X0175022Y0085438D01*
X0174794Y0085529D01*
X0174569Y0085626D01*
X0174345Y0085728D01*
X0174125Y0085836D01*
X0173907Y0085949D01*
X0173692Y0086067D01*
X0173480Y0086191D01*
X0173271Y0086319D01*
X0173065Y0086453D01*
X0172863Y0086592D01*
X0172664Y0086736D01*
X0172469Y0086885D01*
X0172277Y0087038D01*
X0172089Y0087196D01*
X0171905Y0087358D01*
X0171726Y0087526D01*
X0171550Y0087697D01*
X0171549Y0087697D02*
X0151159Y0108087D01*
X0151158Y0108087D02*
X0151091Y0108152D01*
X0151021Y0108214D01*
X0150949Y0108273D01*
X0150875Y0108329D01*
X0150798Y0108383D01*
X0150719Y0108433D01*
X0150639Y0108480D01*
X0150557Y0108524D01*
X0150473Y0108565D01*
X0150387Y0108602D01*
X0150300Y0108636D01*
X0150212Y0108667D01*
X0150123Y0108694D01*
X0150033Y0108717D01*
X0149942Y0108737D01*
X0149850Y0108754D01*
X0149757Y0108767D01*
X0149664Y0108776D01*
X0149571Y0108781D01*
X0149478Y0108783D01*
X0150439Y0113925D02*
X0174502Y0089862D01*
X0174678Y0089691D01*
X0174857Y0089523D01*
X0175041Y0089361D01*
X0175229Y0089203D01*
X0175421Y0089050D01*
X0175616Y0088901D01*
X0175815Y0088757D01*
X0176017Y0088618D01*
X0176223Y0088484D01*
X0176432Y0088356D01*
X0176644Y0088232D01*
X0176859Y0088114D01*
X0177077Y0088001D01*
X0177297Y0087893D01*
X0177521Y0087791D01*
X0177746Y0087694D01*
X0177974Y0087603D01*
X0178204Y0087518D01*
X0178436Y0087438D01*
X0178670Y0087364D01*
X0178906Y0087295D01*
X0179143Y0087233D01*
X0179382Y0087176D01*
X0179622Y0087125D01*
X0179863Y0087080D01*
X0180106Y0087041D01*
X0180349Y0087008D01*
X0180593Y0086981D01*
X0180837Y0086960D01*
X0181082Y0086945D01*
X0181328Y0086936D01*
X0181573Y0086933D01*
X0167785Y0081224D02*
X0167652Y0081222D01*
X0167519Y0081217D01*
X0167386Y0081207D01*
X0167253Y0081194D01*
X0167121Y0081177D01*
X0166989Y0081157D01*
X0166858Y0081133D01*
X0166728Y0081105D01*
X0166598Y0081073D01*
X0166469Y0081038D01*
X0166342Y0081000D01*
X0166216Y0080957D01*
X0166090Y0080912D01*
X0165966Y0080862D01*
X0165844Y0080810D01*
X0165723Y0080753D01*
X0165604Y0080694D01*
X0165486Y0080631D01*
X0165371Y0080565D01*
X0165257Y0080496D01*
X0165145Y0080423D01*
X0165035Y0080348D01*
X0164928Y0080269D01*
X0164822Y0080187D01*
X0164719Y0080103D01*
X0164619Y0080015D01*
X0164520Y0079925D01*
X0164425Y0079832D01*
X0150439Y0113925D02*
X0150263Y0114096D01*
X0150084Y0114264D01*
X0149900Y0114426D01*
X0149712Y0114584D01*
X0149520Y0114737D01*
X0149325Y0114886D01*
X0149126Y0115030D01*
X0148924Y0115169D01*
X0148718Y0115303D01*
X0148509Y0115431D01*
X0148297Y0115555D01*
X0148082Y0115673D01*
X0147864Y0115786D01*
X0147644Y0115894D01*
X0147420Y0115996D01*
X0147195Y0116093D01*
X0146967Y0116184D01*
X0146737Y0116269D01*
X0146505Y0116349D01*
X0146271Y0116423D01*
X0146035Y0116492D01*
X0145798Y0116554D01*
X0145559Y0116611D01*
X0145319Y0116662D01*
X0145078Y0116707D01*
X0144835Y0116746D01*
X0144592Y0116779D01*
X0144348Y0116806D01*
X0144104Y0116827D01*
X0143859Y0116842D01*
X0143613Y0116851D01*
X0143368Y0116854D01*
X0136093Y0116854D01*
X0131052Y0114766D02*
X0130384Y0114098D01*
X0131052Y0114767D02*
X0131173Y0114885D01*
X0131298Y0115001D01*
X0131424Y0115114D01*
X0131554Y0115223D01*
X0131686Y0115330D01*
X0131821Y0115433D01*
X0131958Y0115533D01*
X0132097Y0115630D01*
X0132239Y0115723D01*
X0132383Y0115813D01*
X0132528Y0115900D01*
X0132676Y0115983D01*
X0132826Y0116063D01*
X0132978Y0116138D01*
X0133132Y0116211D01*
X0133287Y0116279D01*
X0133443Y0116344D01*
X0133602Y0116406D01*
X0133761Y0116463D01*
X0133922Y0116516D01*
X0134085Y0116566D01*
X0134248Y0116612D01*
X0134412Y0116654D01*
X0134578Y0116692D01*
X0134744Y0116726D01*
X0134911Y0116756D01*
X0135078Y0116782D01*
X0135247Y0116805D01*
X0135415Y0116823D01*
X0135584Y0116837D01*
X0135754Y0116847D01*
X0135923Y0116853D01*
X0136093Y0116855D01*
M02*
